<?xml version="1.0" encoding="UTF-8"?>
<!DOCTYPE svg PUBLIC "-//W3C//DTD SVG 1.1//EN" "http://www.w3.org/Graphics/SVG/1.1/DTD/svg11.dtd">
<svg version="1.1" xmlns="http://www.w3.org/2000/svg" xmlns:xlink="http://www.w3.org/1999/xlink" width="400" height="700"  xml:space="preserve" id="blazeHole33">
    <!-- Generated by PaintCode - http://www.paintcodeapp.com -->
    <defs>
        <pattern id="blazeHole33-pattern1-bezier2" x="30" y="123" width="100" height="100" patternUnits="userSpaceOnUse" viewBox="0 0 100 100">
            <image xlink:href="images/pattern1.jpg" x="0" y="0" width="100" height="100" />
        </pattern>
    </defs>
    <path id="blazeHole33-bezier3" stroke="rgb(142, 109, 53)" stroke-width="24" stroke-linejoin="round" stroke-miterlimit="10" fill="none" d="M 281.79,164.27 C 259.61,170.97 231.19,175 200.2,175 173.24,175 148.23,171.96 127.58,166.75 129.84,182.55 130.88,200.36 130.37,219.18 129.69,244.86 184.78,285.89 179.5,305 188.96,324.75 138.33,334.77 142.54,365.53 143.97,375.98 144.88,386.16 145.32,395.91 166.21,383.23 190.33,376 216,376 226.94,376 237.59,377.31 247.84,379.8 253.48,381.17 258.99,382.89 264.36,384.95 264.86,378.61 265.56,372.13 266.46,365.53 269.04,346.72 272.99,329.16 277.84,313.85 280.92,304.12 220.82,268.67 224.5,261 219.22,241.89 279.31,244.86 278.63,219.18 278.29,206.46 278.65,194.19 279.62,182.7 L 279.63,182.59 C 280.17,176.23 280.89,170.11 281.79,164.27 Z M 314.76,101.92 C 336.43,101.35 355.38,152.91 357.1,217.09 358.04,252.23 316.26,249.47 308.5,271 310.82,291.03 347.82,349.99 344.24,376.18 342.52,388.75 303.48,434.17 308.5,470 312.4,497.8 360.5,516.22 360.5,532 360.5,618.16 295.81,688 216,688 168.76,688 226.87,526.84 200.5,489 182.32,462.91 71.5,567.16 71.5,532 71.5,520.57 107.32,496.6 106.5,470 105.41,434.72 67.35,395.06 64.76,376.18 61.18,349.99 104.18,325.03 106.5,305 98.74,283.47 50.96,252.23 51.9,217.09 52.8,183.58 12.83,138.18 38.5,49 61.38,-30.51 312.88,101.97 314.76,101.92 Z M 314.76,101.92" />
    <path id="blazeHole33-bezier2" stroke="none" fill="url(#blazeHole33-pattern1-bezier2)" d="M 281.79,163.27 C 259.61,169.97 231.19,174 200.2,174 173.24,174 148.23,170.96 127.58,165.75 129.84,181.55 130.88,199.36 130.37,218.18 129.69,243.86 184.78,284.89 179.5,304 188.96,323.75 138.33,333.77 142.54,364.53 143.97,374.98 144.88,385.16 145.32,394.91 166.21,382.23 190.33,375 216,375 226.94,375 237.59,376.31 247.84,378.8 253.48,380.17 258.99,381.89 264.36,383.95 264.86,377.61 265.56,371.13 266.46,364.53 269.04,345.72 272.99,328.16 277.84,312.85 280.92,303.12 220.82,267.67 224.5,260 219.22,240.89 279.31,243.86 278.63,218.18 278.29,205.46 278.65,193.19 279.62,181.7 L 279.63,181.59 C 280.17,175.23 280.89,169.11 281.79,163.27 Z M 314.76,100.92 C 336.43,100.35 355.38,151.91 357.1,216.09 358.04,251.23 316.26,248.47 308.5,270 310.82,290.03 347.82,348.99 344.24,375.18 342.52,387.75 303.48,433.17 308.5,469 312.4,496.8 360.5,515.22 360.5,531 360.5,617.16 295.81,687 216,687 168.76,687 226.87,525.84 200.5,488 182.32,461.91 71.5,566.16 71.5,531 71.5,519.57 107.32,495.6 106.5,469 105.41,433.72 67.35,394.06 64.76,375.18 61.18,348.99 104.18,324.03 106.5,304 98.74,282.47 50.96,251.23 51.9,216.09 52.8,182.58 12.83,137.18 38.5,48 61.38,-31.51 312.88,100.97 314.76,100.92 Z M 314.76,100.92" />
    <path id="blazeHole33-wall" stroke="none" fill="rgb(255, 209, 134)" d="M 283.73,168.06 C 260.43,175.1 231.36,179 200.7,179 174,179 148.48,176.05 126.86,170.6 L 133.03,165.04 C 135.38,181.49 136.37,199.61 135.87,218.31 135.67,225.85 141.54,236.15 154.2,252 155.74,253.92 157.34,255.89 159.48,258.5 171.7,273.4 174.12,276.46 178.11,282.58 184.07,291.72 186.59,298.93 184.82,305.33 L 184.51,301.84 C 188.39,309.93 185.59,317.09 177.9,324.53 176.2,326.17 174.28,327.84 171.73,329.92 170.64,330.81 166.23,334.35 165.14,335.23 151.75,346.15 146.6,353.7 147.99,363.86 149.42,374.31 150.36,384.65 150.81,394.68 L 143.23,390.63 C 165.4,377.18 190.47,370 216.5,370 227.71,370 238.76,371.33 249.52,373.94 255.33,375.35 261.06,377.14 266.65,379.28 L 259.88,383.56 C 260.39,377.07 261.1,370.48 262.01,363.86 264.57,345.16 268.53,327.29 273.57,311.34 273.48,311.64 273.44,311.93 273.46,312.17 273.46,312.29 273.47,312.35 273.48,312.36 273.4,312.12 273.18,311.69 272.8,311.13 271.85,309.73 270.21,307.91 267.92,305.74 263.95,301.96 258.84,297.76 250,290.87 249.56,290.52 249.09,290.16 248.57,289.75 236.23,280.14 233.24,277.76 228.95,273.91 226.02,271.29 223.85,269.06 222.38,267.1 220.01,263.93 218.98,260.99 220.49,257.84 L 220.18,261.33 C 218.46,255.12 221.06,249.93 226.7,246.03 230.45,243.43 235.07,241.48 243.23,238.69 244.16,238.37 248.93,236.76 250.27,236.29 267.48,230.37 274.32,225.6 274.13,218.31 273.79,205.61 274.14,193.15 275.14,181.28 L 275.15,181.17 C 275.69,174.74 276.43,168.5 277.35,162.52 L 283.73,168.06 Z M 283.73,168.06" />
    <rect id="blazeHole33-end" stroke="none" fill="rgb(128, 128, 128)" x="197" y="122" width="1" height="1" />
    <rect id="blazeHole33-ball" stroke="none" fill="rgb(128, 128, 128)" x="279" y="577" width="1" height="1" />
    <path id="blazeHole33-wall2" stroke="none" fill="rgb(255, 209, 134)" d="M 280.84,158.49 C 284.36,157.42 287.79,160.4 287.23,164.03 286.35,169.79 285.64,175.8 285.11,182.02 L 285.1,182.12 C 284.13,193.62 283.79,205.71 284.12,218.05 284.33,225.68 280.54,231.77 273.66,236.56 268.75,239.99 262.91,242.52 253.53,245.75 252.15,246.22 247.37,247.84 246.48,248.15 233.05,252.75 228.96,255.57 229.82,258.67 230.14,259.83 230.03,261.07 229.51,262.16 229.75,261.67 229.85,261.16 229.84,260.69 229.83,260.42 229.79,260.23 229.75,260.11 229.79,260.23 230,260.59 230.38,261.1 231.38,262.44 233.15,264.24 235.63,266.47 239.66,270.09 242.62,272.45 254.72,281.86 255.24,282.27 255.71,282.64 256.15,282.98 265.25,290.08 270.53,294.42 274.82,298.5 281.6,304.95 284.66,309.46 283.11,314.36 278.23,329.75 274.4,347.07 271.92,365.21 271.04,371.65 270.35,378.04 269.85,384.35 269.58,387.68 266.19,389.82 263.07,388.62 257.87,386.63 252.56,384.97 247.16,383.66 237.17,381.23 226.91,380 216.5,380 192.32,380 169.05,386.66 148.41,399.18 145.16,401.15 140.99,398.92 140.82,395.13 140.39,385.4 139.47,375.37 138.08,365.21 136.97,357.08 139,349.71 143.7,342.82 147.22,337.66 151.73,333.27 158.82,327.48 159.95,326.56 164.36,323.03 165.4,322.18 167.76,320.26 169.49,318.76 170.95,317.34 175.9,312.55 177.09,309.5 175.49,306.16 174.97,305.07 174.86,303.83 175.18,302.67 175.96,299.86 174.24,294.95 169.73,288.05 166.03,282.37 163.65,279.37 151.75,264.84 149.58,262.2 147.95,260.2 146.39,258.24 132.19,240.46 125.59,228.89 125.88,218.05 126.36,199.9 125.4,182.33 123.13,166.46 122.63,162.94 125.85,160.04 129.3,160.9 150.09,166.14 174.8,169 200.7,169 230.42,169 258.52,165.23 280.84,158.49 Z M 280.84,158.49" />
    <path id="blazeHole33-wall3" stroke="none" fill="rgb(255, 209, 134)" d="M 315.13,95.93 C 341.03,95.23 360.81,149.04 362.6,215.95 362.87,226.33 359.84,234.59 353.83,241.3 349.32,246.34 344.14,249.82 335.05,254.68 334.26,255.1 331.6,256.51 331.43,256.6 320.19,262.58 315.7,266.15 313.7,271.69 L 313.97,269.42 C 314.39,273.07 316.32,278.87 319.82,287.23 321.28,290.72 322.97,294.56 325.28,299.7 326.06,301.43 330.28,310.71 331.49,313.41 333.2,317.21 334.65,320.47 336,323.59 346.54,347.99 351.3,364.13 349.69,375.85 349.21,379.36 347.2,383.63 342.99,390.98 342.61,391.64 333.83,406.55 331.04,411.54 323.95,424.25 319.08,434.95 316.22,445.08 313.79,453.67 312.99,461.42 313.95,468.31 315.31,478.01 322.8,486.97 338.03,499.35 340.07,501 346.91,506.44 347.6,506.99 351.3,509.96 353.95,512.2 356.25,514.36 362.65,520.35 366,525.42 366,531 366,619.84 299.16,692 216.5,692 208.29,692 202.01,688.07 198.04,680.87 194.73,674.88 192.99,666.68 192.46,656.1 191.66,640.1 193.03,624.76 197.78,586.1 197.94,584.78 198.06,583.87 198.17,582.95 201.55,555.41 202.93,541.06 203.17,527 203.47,509.45 201.45,497.39 196.9,490.86 194.82,487.88 188.82,487.89 178.38,491.93 168.88,495.6 157.6,501.76 140.35,512.24 138.81,513.18 137.19,514.16 135.33,515.31 107.66,532.26 102.17,535.47 92.67,539.58 85.92,542.49 80.67,543.79 76.4,543.18 70.37,542.31 67,537.73 67,531 67,526.91 69.17,522.89 73.53,517.3 75.67,514.55 84.67,504.05 85.65,502.87 96.91,489.26 102.31,479.09 102,469.15 101.84,463.79 100.71,458.03 98.69,451.84 95.39,441.74 90.12,431.35 81.79,417.49 81.95,417.76 70.74,399.48 68.13,394.88 63.53,386.78 61,380.9 60.31,375.85 59.24,368.08 61.45,360.27 66.39,351.98 70.05,345.85 74.51,340.28 82.35,331.52 92.94,319.66 92.92,319.68 95.85,315.77 99.63,310.7 101.66,306.68 102.03,303.42 L 102.3,305.69 C 100.94,301.92 97.88,297.3 92.82,291.22 90.74,288.72 88.44,286.09 85.11,282.39 84.17,281.34 80.68,277.48 80.86,277.68 79.11,275.74 77.78,274.26 76.48,272.79 67.39,262.54 61.28,254.71 56.49,246.56 50.32,236.04 47.14,225.99 47.4,215.95 47.55,210.62 46.55,204.57 44.34,196.6 43.44,193.35 42.39,189.92 40.8,184.97 40.37,183.64 38.85,178.91 38.76,178.65 37.92,176.04 37.26,173.99 36.63,171.96 30.55,152.5 27.14,137.02 25.87,119.26 24.23,96.43 26.71,72.61 34.2,46.62 40.1,26.11 59.13,17.02 88.16,17.62 111.86,18.1 142.23,24.94 177.9,36.93 194.94,42.66 212.85,49.46 231.41,57.14 252.03,65.66 272.11,74.7 292.02,84.18 298.36,87.2 303.17,89.53 310.41,93.08 313.65,94.66 314.5,95.07 315.47,95.54 316.06,95.82 316.48,96.02 316.75,96.14 315.65,95.65 316.27,95.9 315.13,95.93 Z M 315.13,95.93" />
    <path id="blazeHole33-wall4" stroke="none" fill="rgb(255, 209, 134)" d="M 315.39,105.92 C 314.15,105.96 314.41,106.05 312.65,105.26 312.28,105.1 311.8,104.87 311.14,104.56 310.13,104.07 309.29,103.66 306.02,102.06 298.81,98.53 294.02,96.21 287.72,93.21 267.96,83.8 248.03,74.83 227.59,66.38 209.23,58.79 191.52,52.06 174.71,46.41 99.86,21.24 52.18,20.27 43.8,49.38 36.65,74.24 34.29,96.89 35.84,118.55 37.05,135.42 40.31,150.19 46.17,168.97 46.8,170.97 47.44,172.99 48.28,175.58 48.36,175.84 49.89,180.57 50.32,181.92 51.95,186.98 53.03,190.52 53.98,193.93 56.43,202.78 57.57,209.72 57.4,216.22 57.01,230.94 65.38,245.2 83.96,266.16 85.24,267.6 86.55,269.06 88.28,270.98 88.1,270.77 91.59,274.65 92.54,275.7 95.95,279.49 98.33,282.21 100.51,284.82 106.25,291.73 109.86,297.17 111.7,302.31 111.97,303.03 112.06,303.81 111.97,304.58 111.34,309.96 108.61,315.4 103.86,321.76 102,324.23 99.86,326.83 97.14,329.94 96.08,331.16 94.97,332.42 93.5,334.05 93.22,334.37 90.58,337.31 89.8,338.18 74.59,355.21 68.88,364.77 70.22,374.5 70.69,377.93 72.82,382.89 76.83,389.95 79.34,394.38 90.44,412.47 90.36,412.34 99.05,426.79 104.61,437.75 108.19,448.73 110.5,455.78 111.8,462.46 112,468.85 112.4,481.94 106.07,493.88 93.36,509.24 92.25,510.59 83.39,520.92 81.41,523.45 79.8,525.52 78.65,527.2 77.91,528.58 77.27,529.77 77,530.6 77,531 77,533.06 77.08,533.17 77.82,533.28 79.78,533.56 83.53,532.63 88.71,530.4 97.55,526.58 103.05,523.35 130.1,506.78 131.97,505.63 133.6,504.64 135.16,503.69 152.9,492.91 164.55,486.56 174.78,482.6 189.09,477.06 199.45,477.04 205.1,485.14 211.19,493.87 213.51,507.67 213.17,527.17 212.92,541.7 211.52,556.28 208.09,584.17 207.98,585.09 207.87,586 207.71,587.33 203.04,625.31 201.69,640.42 202.45,655.6 203.37,673.86 207.86,682 216.5,682 293.45,682 356,614.48 356,531 356,529.01 353.94,525.9 349.42,521.66 347.34,519.71 344.86,517.61 341.34,514.79 340.69,514.27 333.81,508.81 331.72,507.11 324.07,500.89 318.71,495.94 314.3,490.65 308.59,483.81 305.07,476.95 304.05,469.69 302.87,461.29 303.82,452.19 306.6,442.36 309.71,431.34 314.87,420 322.31,406.67 325.16,401.55 333.99,386.58 334.31,386.01 337.82,379.89 339.55,376.21 339.78,374.5 341.05,365.28 336.6,350.2 326.82,327.56 325.49,324.49 324.06,321.27 322.37,317.52 321.17,314.83 316.96,305.55 316.17,303.81 313.82,298.6 312.1,294.68 310.59,291.1 306.74,281.9 304.6,275.43 304.03,270.58 303.94,269.81 304.03,269.03 304.3,268.31 306.06,263.42 309.22,259.39 313.75,255.79 317.09,253.14 320.55,251.06 326.74,247.77 326.91,247.68 329.56,246.27 330.33,245.86 338.45,241.52 342.87,238.55 346.38,234.63 350.69,229.82 352.81,224.04 352.6,216.22 351.78,185.49 346.91,156.86 339.22,135.95 332,116.31 323.07,105.72 315.39,105.92 Z M 315.39,105.92" />
</svg>
