<?xml version="1.0" encoding="UTF-8"?>
<!DOCTYPE svg PUBLIC "-//W3C//DTD SVG 1.1//EN" "http://www.w3.org/Graphics/SVG/1.1/DTD/svg11.dtd">
<svg version="1.1" xmlns="http://www.w3.org/2000/svg" xmlns:xlink="http://www.w3.org/1999/xlink" width="400" height="700"  xml:space="preserve" id="blazeHole11">
    <!-- Generated by PaintCode - http://www.paintcodeapp.com -->
    <defs>
        <pattern id="blazeHole11-pattern1-bezier2" x="20" y="266" width="100" height="100" patternUnits="userSpaceOnUse" viewBox="0 0 100 100">
            <image xlink:href="images/pattern1.jpg" x="0" y="0" width="100" height="100" />
        </pattern>
    </defs>
    <path id="blazeHole11-bezier3" stroke="rgb(142, 109, 53)" stroke-width="28" stroke-miterlimit="10" fill="rgb(142, 109, 53)" d="M 76.16,280.5 C 76.16,316.86 76.16,409 76.16,409 L 200,480.5 324,408.5 C 324,408.5 323.84,296.62 323.84,280.5 L 299.59,280.5 C 299.59,287.31 299.59,348.14 299.59,378.31 299.59,388.45 299.59,395.12 299.59,395.12 L 200,452.75 100.41,395.12 C 100.41,395.12 100.41,289.6 100.41,280.5 L 76.16,280.5 Z M 142.59,165.85 C 145.22,167.37 176.85,185.63 192,194.38 192,233.01 192,384.5 192,384.5 L 209,384.5 C 209,384.5 209,231.48 209,193.8 224.5,184.85 254.83,167.34 257.41,165.85 328.67,189.82 380,257.16 380,336.5 380,435.91 299.41,516.5 200,516.5 100.59,516.5 20,435.91 20,336.5 20,293.39 35.16,253.81 60.43,222.82 81.67,196.78 110.05,176.79 142.59,165.85 Z M 142.59,165.85" />
    <path id="blazeHole11-bezier2" stroke="none" fill="url(#blazeHole11-pattern1-bezier2)" d="M 76.16,280.5 C 76.16,316.86 76.16,409 76.16,409 L 200,480.5 324,408.5 C 324,408.5 323.84,296.62 323.84,280.5 L 299.59,280.5 C 299.59,287.31 299.59,348.14 299.59,378.31 299.59,388.45 299.59,395.12 299.59,395.12 L 200,452.75 100.41,395.12 C 100.41,395.12 100.41,289.6 100.41,280.5 L 76.16,280.5 Z M 142.59,165.85 C 145.22,167.37 176.85,185.63 192,194.38 192,233.01 192,384.5 192,384.5 L 209,384.5 C 209,384.5 209,231.48 209,193.8 224.5,184.85 254.83,167.34 257.41,165.85 328.67,189.82 380,257.16 380,336.5 380,435.91 299.41,516.5 200,516.5 100.59,516.5 20,435.91 20,336.5 20,293.39 35.16,253.81 60.43,222.82 81.67,196.78 110.05,176.79 142.59,165.85 Z M 142.59,165.85" />
    <path id="blazeHole11-wall" stroke="none" fill="rgb(255, 209, 134)" d="M 81.16,281 C 81.16,305.53 81.16,305.53 81.16,338 81.16,364.81 81.16,364.81 81.16,387.16 81.16,396.65 81.16,396.65 81.16,403.36 81.16,408.38 81.16,408.38 81.16,409.5 L 78.66,405.17 202.5,476.67 197.49,476.68 321.49,404.68 319,409.01 C 319,408.79 319,408.79 319,407.75 319,406.32 319,406.32 318.99,404.17 318.99,400.3 318.98,395.97 318.98,391.27 318.96,377.85 318.94,364.17 318.92,351.05 318.92,348.68 318.91,346.34 318.91,344.04 318.87,310.29 318.84,287.58 318.84,281 L 323.84,286 299.59,286 304.59,281 C 304.59,283.32 304.59,283.32 304.59,288.04 304.59,293.79 304.59,293.79 304.59,301.26 304.59,318.26 304.59,318.26 304.59,338 304.59,360.42 304.59,360.42 304.59,378.81 304.59,385.98 304.59,385.98 304.59,391.02 304.59,394.79 304.59,394.79 304.59,395.62 L 304.59,398.51 302.1,399.95 202.5,457.58 200,459.03 197.5,457.58 97.9,399.95 95.41,398.51 95.41,395.62 C 95.41,394.8 95.41,394.8 95.41,391.07 95.41,386.09 95.41,386.09 95.41,379 95.41,362.22 95.41,362.22 95.41,341.73 95.41,339.86 95.41,339.86 95.41,338 95.41,318.26 95.41,318.26 95.41,301.26 95.41,293.79 95.41,293.79 95.41,288.04 95.41,283.32 95.41,283.32 95.41,281 L 100.41,286 76.16,286 81.16,281 Z M 81.16,281" />
    <rect id="blazeHole11-end" stroke="none" fill="rgb(128, 128, 128)" x="197" y="414" width="1" height="1" />
    <rect id="blazeHole11-ball" stroke="none" fill="rgb(128, 128, 128)" x="199" y="500" width="1" height="1" />
    <path id="blazeHole11-wall2" stroke="none" fill="rgb(255, 209, 134)" d="M 71.16,281 L 71.16,276 76.16,276 100.41,276 105.41,276 105.41,281 C 105.41,283.32 105.41,283.32 105.41,288.04 105.41,293.79 105.41,293.79 105.41,301.26 105.41,318.26 105.41,318.26 105.41,338 105.41,339.86 105.41,339.86 105.41,341.73 105.41,362.22 105.41,362.22 105.41,379 105.41,386.09 105.41,386.09 105.41,391.07 105.41,394.8 105.41,394.8 105.41,395.62 L 102.91,391.3 202.5,448.92 197.5,448.92 297.09,391.3 294.59,395.62 C 294.59,394.79 294.59,394.79 294.59,391.02 294.59,385.98 294.59,385.98 294.59,378.81 294.59,360.42 294.59,360.42 294.59,338 294.59,318.26 294.59,318.26 294.59,301.26 294.59,293.79 294.59,293.79 294.59,288.04 294.59,283.32 294.59,283.32 294.59,281 L 294.59,276 299.59,276 323.84,276 328.84,276 328.84,281 C 328.84,287.57 328.87,310.28 328.91,344.03 328.91,346.33 328.92,348.67 328.92,351.04 328.94,364.16 328.96,377.83 328.98,391.26 328.98,395.96 328.99,400.29 328.99,404.15 329,406.3 329,406.3 329,407.73 329,408.77 329,408.77 329,408.99 L 329,411.88 326.51,413.32 202.51,485.32 200.01,486.78 197.5,485.33 73.66,413.83 71.16,412.39 71.16,409.5 C 71.16,408.38 71.16,408.38 71.16,403.36 71.16,396.65 71.16,396.65 71.16,387.16 71.16,364.81 71.16,364.81 71.16,338 71.16,305.53 71.16,305.53 71.16,281 Z M 71.16,281" />
    <path id="blazeHole11-wall3" stroke="none" fill="rgb(255, 209, 134)" d="M 145.09,162.02 C 146.08,162.6 146.08,162.6 148.37,163.92 151.21,165.56 151.21,165.56 154.97,167.73 163.6,172.71 163.6,172.71 173.7,178.54 185.18,185.17 185.18,185.17 194.5,190.55 L 197,191.99 197,194.88 C 197,209.61 197,229.91 197,285.5 197,322.81 197,322.81 197,353.91 197,367.12 197,367.12 197,376.45 197,383.45 197,383.45 197,385 L 192,380 209,380 204,385 C 204,383.45 204,383.45 204,376.45 204,367.12 204,367.12 204,353.91 204,322.81 204,322.81 204,285.5 204,229.25 204,229.25 204,194.3 L 204,191.42 206.5,189.97 C 215.5,184.78 215.5,184.78 226.3,178.54 236.4,172.71 236.4,172.71 245.03,167.73 248.79,165.56 248.79,165.56 251.63,163.92 253.92,162.6 253.92,162.6 254.91,162.02 L 256.87,160.89 259.01,161.61 C 333.69,186.73 385,256.95 385,337 385,439.17 302.17,522 200,522 97.83,522 15,439.17 15,337 15,293.83 29.84,252.93 56.56,220.16 78.6,193.13 107.87,172.75 140.99,161.61 L 143.13,160.89 145.09,162.02 Z M 145.09,162.02" />
    <path id="blazeHole11-wall4" stroke="none" fill="rgb(255, 209, 134)" d="M 140.09,170.68 L 142.59,166.35 144.18,171.09 C 112.86,181.62 85.17,200.9 64.31,226.48 39.03,257.48 25,296.16 25,337 25,433.65 103.35,512 200,512 296.65,512 375,433.65 375,337 375,261.27 326.46,194.85 255.82,171.09 L 257.41,166.35 259.91,170.68 C 258.92,171.26 258.92,171.26 256.63,172.58 253.79,174.22 253.79,174.22 250.03,176.39 241.4,181.37 241.4,181.37 231.3,187.21 220.5,193.44 220.5,193.44 211.5,198.63 L 214,194.3 C 214,229.25 214,229.25 214,285.5 214,322.81 214,322.81 214,353.91 214,367.12 214,367.12 214,376.45 214,383.45 214,383.45 214,385 L 214,390 209,390 192,390 187,390 187,385 C 187,383.45 187,383.45 187,376.45 187,367.12 187,367.12 187,353.91 187,322.81 187,322.81 187,285.5 187,229.91 187,209.61 187,194.88 L 189.5,199.21 C 180.18,193.83 180.18,193.83 168.7,187.21 158.6,181.37 158.6,181.37 149.97,176.39 146.21,174.22 146.21,174.22 143.37,172.58 141.08,171.26 141.08,171.26 140.09,170.68 Z M 140.09,170.68" />
</svg>
