<?xml version="1.0" encoding="UTF-8"?>
<!DOCTYPE svg PUBLIC "-//W3C//DTD SVG 1.1//EN" "http://www.w3.org/Graphics/SVG/1.1/DTD/svg11.dtd">
<svg version="1.1" xmlns="http://www.w3.org/2000/svg" xmlns:xlink="http://www.w3.org/1999/xlink" width="578" height="792"  xml:space="preserve" id="blazeHole55">
    <!-- Generated by PaintCode - http://www.paintcodeapp.com -->
    <defs>
        <pattern id="blazeHole55-pattern1-bezier2" x="54" y="328" width="100" height="100" patternUnits="userSpaceOnUse" viewBox="0 0 100 100">
            <image xlink:href="images/pattern1.jpg" x="0" y="0" width="100" height="100" />
        </pattern>
    </defs>
    <g id="blazeHole55-group">
        <path id="blazeHole55-bezier3" stroke="rgb(142, 109, 53)" stroke-width="24" stroke-linecap="round" stroke-linejoin="round" stroke-miterlimit="10" fill="none" d="M 308.04,157.17 C 295.38,200.44 300.02,157.28 272,157.28 244.48,157.28 246.62,199.81 233.82,157.28 232.53,152.98 187.6,170.7 145.13,186.96 149.86,192.43 160.54,200.32 190.52,211.03 207.64,217.15 234.17,229.1 246.91,250.9 254.17,263.31 250.91,298.39 250.22,331.28 257.11,329.17 264.42,328.04 272,328.04 279.28,328.04 286.32,329.08 292.97,331.04 293.6,297.67 292.27,262.23 299.27,250.9 313.9,227.22 340.03,219.3 353.48,211.03 378.19,195.84 386.67,188.13 390.78,183.96 349.95,168.3 309.71,152.62 308.01,157.23 L 308.04,157.17 Z M 272,359.51 C 249.72,359.51 231.65,377.55 231.65,399.82 231.65,422.08 249.72,440.13 272,440.13 294.28,440.13 312.35,422.08 312.35,399.82 312.35,383.08 302.14,368.72 287.6,362.63 282.8,360.62 277.53,359.51 272,359.51 Z M 250.22,469.72 C 250.49,482.65 251.16,495.92 251.43,508.02 251.85,526.69 251.31,542.57 246.91,550.1 234.17,571.9 207.64,583.85 190.52,589.97 160.54,600.68 149.86,608.57 145.13,614.04 187.6,630.3 232.53,648.02 233.82,643.72 246.62,601.19 244.48,643.72 272,643.72 292,643.72 295.36,621.74 300.23,624.83 302.19,626.08 304.38,631.36 308,643.72 309.39,648.5 349.79,632.76 390.78,617.04 386.67,612.87 378.19,605.16 353.48,589.97 340.03,581.7 313.9,573.78 299.27,550.1 292.27,538.77 293.6,503.33 292.97,469.96 286.32,471.92 279.28,472.96 272,472.96 264.42,472.96 257.11,471.83 250.22,469.72 Z M 346.17,102.85 C 346.17,109.39 478.19,195.34 477.51,209.53 485.5,221.34 490.16,235.58 490.16,250.9 490.16,291.78 419.26,279.2 382.17,300.97 363.87,310.98 340.92,320.13 339.63,344.51 339,356.54 341.31,370.71 343.36,381.79 344.68,386.44 345.56,391.29 345.95,396.26 346.09,397.35 346.17,398.25 346.17,398.94 346.17,399.46 346.17,399.98 346.16,400.5 346.17,401.02 346.17,401.54 346.17,402.06 346.17,402.75 346.09,403.65 345.95,404.74 345.56,409.71 344.68,414.56 343.36,419.21 341.31,430.29 339,444.46 339.63,456.49 340.92,480.87 363.87,490.02 382.17,500.03 419.26,521.8 490.16,509.22 490.16,550.1 490.16,565.42 485.5,579.66 477.51,591.47 478.19,605.66 346.17,691.61 346.17,698.15 346.17,739.03 312.97,772.17 272,772.17 266.92,772.17 261.95,771.66 257.16,770.69 223.3,763.82 197.83,733.95 197.83,698.15 197.83,691.96 119.94,640.87 85.61,610.84 66.4,597.46 53.84,575.25 53.84,550.1 53.84,509.22 106.2,521.8 148.74,500.03 171.32,485.36 207.64,476.7 207.64,456.49 207.64,446.96 205.76,436.79 203.65,427.74 200.56,420.44 198.61,412.55 198.02,404.28 197.89,403.43 197.83,402.68 197.83,402.06 197.83,401.54 197.83,401.02 197.84,400.5 197.83,399.98 197.83,399.46 197.83,398.94 197.83,398.32 197.89,397.57 198.02,396.72 198.31,392.6 198.94,388.56 199.89,384.65 200.84,380.72 202.1,376.92 203.65,373.26 205.76,364.21 207.64,354.04 207.64,344.51 207.64,324.3 171.32,315.64 148.74,300.97 106.2,279.2 53.84,291.78 53.84,250.9 53.84,225.75 66.4,203.54 85.61,190.16 119.94,160.13 197.83,109.04 197.83,102.85 197.83,98.86 198.14,94.94 198.75,91.12 199.61,85.74 201.05,80.56 203,75.63 212.11,52.67 232.39,35.33 257.16,30.31 261.95,29.34 266.92,28.83 272,28.83 312.97,28.83 346.17,61.97 346.17,102.85 Z M 346.17,102.85" />
        <path id="blazeHole55-bezier2" stroke="none" fill="url(#blazeHole55-pattern1-bezier2)" d="M 308.04,157.17 C 295.38,200.44 300.02,157.28 272,157.28 244.48,157.28 246.62,199.81 233.82,157.28 232.53,152.98 187.6,170.7 145.13,186.96 149.86,192.43 160.54,200.32 190.52,211.03 207.64,217.15 234.17,229.1 246.91,250.9 254.17,263.31 250.91,298.39 250.22,331.28 257.11,329.17 264.42,328.04 272,328.04 279.28,328.04 286.32,329.08 292.97,331.04 293.6,297.67 292.27,262.23 299.27,250.9 313.9,227.22 340.03,219.3 353.48,211.03 378.19,195.84 386.67,188.13 390.78,183.96 349.95,168.3 309.71,152.62 308.01,157.23 L 308.04,157.17 Z M 272,359.51 C 249.72,359.51 231.65,377.55 231.65,399.82 231.65,422.08 249.72,440.13 272,440.13 294.28,440.13 312.35,422.08 312.35,399.82 312.35,383.08 302.14,368.72 287.6,362.63 282.8,360.62 277.53,359.51 272,359.51 Z M 250.22,469.72 C 250.49,482.65 251.16,495.92 251.43,508.02 251.85,526.69 251.31,542.57 246.91,550.1 234.17,571.9 207.64,583.85 190.52,589.97 160.54,600.68 149.86,608.57 145.13,614.04 187.6,630.3 232.53,648.02 233.82,643.72 246.62,601.19 244.48,643.72 272,643.72 292,643.72 295.36,621.74 300.23,624.83 302.19,626.08 304.38,631.36 308,643.72 309.39,648.5 349.79,632.76 390.78,617.04 386.67,612.87 378.19,605.16 353.48,589.97 340.03,581.7 313.9,573.78 299.27,550.1 292.27,538.77 293.6,503.33 292.97,469.96 286.32,471.92 279.28,472.96 272,472.96 264.42,472.96 257.11,471.83 250.22,469.72 Z M 346.17,102.85 C 346.17,109.39 478.19,195.34 477.51,209.53 485.5,221.34 490.16,235.58 490.16,250.9 490.16,291.78 419.26,279.2 382.17,300.97 363.87,310.98 340.92,320.13 339.63,344.51 339,356.54 341.31,370.71 343.36,381.79 344.68,386.44 345.56,391.29 345.95,396.26 346.09,397.35 346.17,398.25 346.17,398.94 346.17,399.46 346.17,399.98 346.16,400.5 346.17,401.02 346.17,401.54 346.17,402.06 346.17,402.75 346.09,403.65 345.95,404.74 345.56,409.71 344.68,414.56 343.36,419.21 341.31,430.29 339,444.46 339.63,456.49 340.92,480.87 363.87,490.02 382.17,500.03 419.26,521.8 490.16,509.22 490.16,550.1 490.16,565.42 485.5,579.66 477.51,591.47 478.19,605.66 346.17,691.61 346.17,698.15 346.17,739.03 312.97,772.17 272,772.17 266.92,772.17 261.95,771.66 257.16,770.69 223.3,763.82 197.83,733.95 197.83,698.15 197.83,691.96 119.94,640.87 85.61,610.84 66.4,597.46 53.84,575.25 53.84,550.1 53.84,509.22 106.2,521.8 148.74,500.03 171.32,485.36 207.64,476.7 207.64,456.49 207.64,446.96 205.76,436.79 203.65,427.74 200.56,420.44 198.61,412.55 198.02,404.28 197.89,403.43 197.83,402.68 197.83,402.06 197.83,401.54 197.83,401.02 197.84,400.5 197.83,399.98 197.83,399.46 197.83,398.94 197.83,398.32 197.89,397.57 198.02,396.72 198.31,392.6 198.94,388.56 199.89,384.65 200.84,380.72 202.1,376.92 203.65,373.26 205.76,364.21 207.64,354.04 207.64,344.51 207.64,324.3 171.32,315.64 148.74,300.97 106.2,279.2 53.84,291.78 53.84,250.9 53.84,225.75 66.4,203.54 85.61,190.16 119.94,160.13 197.83,109.04 197.83,102.85 197.83,98.86 198.14,94.94 198.75,91.12 199.61,85.74 201.05,80.56 203,75.63 212.11,52.67 232.39,35.33 257.16,30.31 261.95,29.34 266.92,28.83 272,28.83 312.97,28.83 346.17,61.97 346.17,102.85 Z M 346.17,102.85" />
        <path id="blazeHole55-wall" stroke="none" fill="rgb(255, 209, 134)" d="M 314.6,159.09 C 312.29,166.98 310.54,172.1 308.94,175.47 307.94,177.58 306.92,179.2 305.67,180.47 303.64,182.52 300.96,183.63 297.98,183.16 294.46,182.61 292.71,180.89 290.07,177.23 289.64,176.63 288.14,174.47 287.94,174.19 287.11,173 286.41,172.07 285.69,171.19 281.8,166.45 277.78,164.11 272,164.11 266.3,164.11 262.14,166.46 257.81,171.29 256.6,172.64 252.9,177.3 252.64,177.61 249.67,181.12 247.32,182.94 243.46,183.01 238.7,183.1 235.67,180.16 233.12,175.21 231.37,171.8 229.52,166.72 227.27,159.25 227.96,161.53 229.6,162.83 231.26,163.31 231.58,163.4 231.82,163.44 232.02,163.46 232.06,163.46 232.04,163.46 231.98,163.46 231.26,163.5 229.86,163.75 227.95,164.22 223.91,165.21 217.99,167.08 210.23,169.79 198,174.05 188.25,177.73 155.54,190.29 154.96,190.51 154.96,190.51 154.38,190.73 151.81,191.72 149.64,192.55 147.58,193.34 L 150.31,182.5 C 155.64,188.67 168.08,195.76 192.83,204.6 220,214.31 241.19,227.55 252.82,247.45 256.27,253.37 257.81,262.21 258.25,274.99 258.56,284.1 258.4,291.82 257.66,312.09 257.48,317.02 257.38,319.77 257.29,322.8 257.19,325.91 257.11,328.74 257.06,331.42 L 248.22,324.75 C 255.86,322.41 263.85,321.2 272,321.2 279.83,321.2 287.52,322.32 294.9,324.48 L 286.13,330.91 C 286.18,328.43 286.22,325.84 286.25,322.99 286.29,319.9 286.31,317.55 286.35,311.82 286.51,291.88 286.69,283.44 287.36,274.25 288.3,261.45 290.05,252.82 293.45,247.31 300.3,236.21 309.65,227.69 321.77,220.25 328.26,216.27 347.28,206.76 349.1,205.69 349.37,205.53 349.64,205.37 349.89,205.22 369.81,192.97 379.76,185.41 385.9,179.17 L 390.78,183.96 388.33,190.33 C 388.28,190.32 388.28,190.32 388.23,190.3 353.06,176.81 344.84,173.71 332.45,169.44 324.54,166.71 318.51,164.86 314.38,163.91 312.44,163.47 311.02,163.25 310.29,163.24 310.23,163.24 310.21,163.24 310.25,163.24 310.44,163.22 310.67,163.17 310.97,163.07 312.37,162.59 313.74,161.46 314.43,159.59 L 308.01,157.23 301.68,154.65 301.7,154.6 C 304.97,146.58 317.03,150.78 314.6,159.09 Z M 314.6,159.09" />
        <path id="blazeHole55-wall2" stroke="none" fill="rgb(255, 209, 134)" d="M 301.47,155.26 L 308.04,157.17 314.37,159.75 314.35,159.8 C 310.97,168.1 298.5,163.27 301.6,154.87 302.5,152.42 304.38,150.87 306.58,150.12 307.82,149.71 309.09,149.56 310.47,149.58 312.37,149.6 314.64,149.96 317.44,150.6 322.15,151.68 328.58,153.65 336.92,156.52 349.52,160.87 357.75,163.97 393.13,177.54 393.18,177.56 393.18,177.56 393.23,177.58 397.83,179.34 399.11,185.24 395.66,188.75 388.65,195.86 377.85,204.07 357.06,216.85 356.74,217.05 356.4,217.25 356.06,217.45 353.66,218.87 334.77,228.31 328.92,231.9 318.49,238.3 310.69,245.41 305.09,254.49 301.37,260.5 300.32,274.94 300.03,311.92 299.98,317.67 299.96,320.03 299.93,323.15 299.89,326.03 299.86,328.66 299.81,331.17 299.72,335.67 295.37,338.86 291.04,337.59 284.91,335.79 278.52,334.87 272,334.87 265.22,334.87 258.57,335.87 252.22,337.81 247.77,339.17 243.29,335.79 243.38,331.14 243.44,328.4 243.52,325.53 243.62,322.37 243.71,319.31 243.81,316.55 243.99,311.59 245.33,274.69 244.86,260.93 241.01,254.34 231.42,237.94 212.61,226.19 188.22,217.47 161.45,207.9 147.15,199.75 139.95,191.43 136.86,187.84 138.26,182.28 142.68,180.58 144.75,179.79 146.9,178.96 149.47,177.98 150.05,177.76 150.05,177.76 150.63,177.53 183.52,164.91 193.29,161.22 205.72,156.89 213.86,154.05 220.12,152.07 224.67,150.95 227.36,150.29 229.52,149.9 231.3,149.82 232.64,149.75 233.84,149.84 235.05,150.18 237.45,150.87 239.53,152.53 240.37,155.31 242.4,162.05 244.01,166.48 245.29,168.98 245.73,169.82 246.04,170.28 246.11,170.35 245.55,169.8 244.51,169.33 243.21,169.35 242.58,169.36 242.03,169.5 241.57,169.7 241.33,169.8 241.18,169.89 241.1,169.95 241.27,169.82 241.64,169.44 242.19,168.79 242.21,168.77 246.08,163.9 247.62,162.18 254.31,154.7 261.86,150.45 272,150.45 282.37,150.45 289.98,154.88 296.26,162.52 297.22,163.69 298.11,164.88 299.12,166.31 299.38,166.68 300.83,168.77 301.18,169.25 301.69,169.96 302.03,170.39 302.21,170.56 301.87,170.23 301.25,169.84 300.1,169.66 299.14,169.51 298.16,169.63 297.29,169.99 296.68,170.25 296.24,170.56 295.94,170.87 295.91,170.89 296.18,170.46 296.58,169.62 297.78,167.08 299.36,162.49 301.47,155.26 Z M 301.47,155.26" />
        <path id="blazeHole55-wall3" stroke="none" fill="rgb(255, 209, 134)" d="M 272,366.34 C 253.49,366.34 238.49,381.33 238.49,399.82 238.49,418.31 253.49,433.29 272,433.29 290.51,433.29 305.51,418.31 305.51,399.82 305.51,386.2 297.3,374.11 284.95,368.93 280.89,367.23 276.51,366.34 272,366.34 Z M 272,366.34" />
        <path id="blazeHole55-wall4" stroke="none" fill="rgb(255, 209, 134)" d="M 272,352.68 C 278.34,352.68 284.51,353.93 290.24,356.33 307.63,363.62 319.19,380.65 319.19,399.82 319.19,425.85 298.06,446.96 272,446.96 245.94,446.96 224.81,425.85 224.81,399.82 224.81,373.78 245.94,352.68 272,352.68 Z M 272,352.68" />
        <path id="blazeHole55-wall5" stroke="none" fill="rgb(255, 209, 134)" d="M 257.06,469.58 C 257.11,472.27 257.19,475.09 257.29,478.21 257.38,481.24 257.48,483.98 257.66,488.91 258.03,499.19 258.15,502.83 258.27,507.87 258.8,531.87 257.63,545.31 252.82,553.55 241.19,573.45 220,586.69 192.83,596.4 168.08,605.24 155.64,612.33 150.31,618.5 L 147.58,607.66 C 149.64,608.45 151.81,609.28 154.38,610.27 154.96,610.49 154.96,610.49 155.54,610.71 188.25,623.27 198,626.95 210.23,631.21 217.99,633.92 223.91,635.79 227.95,636.78 229.86,637.25 231.26,637.5 231.98,637.54 232.04,637.54 232.06,637.54 232.02,637.54 231.82,637.56 231.58,637.6 231.26,637.69 229.6,638.17 227.96,639.47 227.27,641.75 229.52,634.28 231.37,629.2 233.12,625.79 235.67,620.84 238.7,617.9 243.46,617.99 247.32,618.06 249.67,619.88 252.64,623.39 252.9,623.7 256.6,628.36 257.81,629.71 262.14,634.54 266.3,636.89 272,636.89 277.78,636.89 281.8,634.54 285.69,629.8 286.41,628.92 287.11,627.98 287.94,626.8 288.15,626.51 289.64,624.35 290.07,623.75 292.71,620.08 294.45,618.36 297.97,617.81 300.07,617.47 302.14,617.95 303.9,619.07 308.01,621.68 310.31,627.25 314.56,641.8 313.98,639.83 312.6,638.54 311.11,637.98 310.6,637.79 310.35,637.76 310.26,637.76 310.94,637.76 312.33,637.55 314.23,637.12 318.34,636.19 324.36,634.35 332.28,631.62 344.68,627.35 352.95,624.23 388.23,610.7 388.28,610.68 388.28,610.68 388.33,610.67 L 390.78,617.04 385.9,621.83 C 379.76,615.59 369.81,608.03 349.89,595.78 349.64,595.63 349.37,595.47 349.1,595.31 347.28,594.24 328.26,584.73 321.77,580.75 309.65,573.31 300.3,564.79 293.45,553.69 290.05,548.18 288.3,539.55 287.36,526.75 286.69,517.56 286.51,509.12 286.35,489.18 286.31,483.45 286.29,481.1 286.25,478.01 286.22,475.16 286.18,472.56 286.13,470.09 L 294.9,476.52 C 287.52,478.68 279.83,479.8 272,479.8 263.85,479.8 255.86,478.59 248.22,476.25 L 257.06,469.58 Z M 257.06,469.58" />
        <path id="blazeHole55-wall6" stroke="none" fill="rgb(255, 209, 134)" d="M 243.38,469.86 C 243.29,465.21 247.77,461.83 252.22,463.19 258.57,465.13 265.22,466.13 272,466.13 278.52,466.13 284.91,465.21 291.04,463.41 295.37,462.14 299.72,465.33 299.81,469.83 299.86,472.34 299.89,474.97 299.93,477.85 299.96,480.97 299.98,483.33 300.03,489.08 300.32,526.06 301.37,540.5 305.09,546.51 310.69,555.59 318.49,562.7 328.92,569.1 334.77,572.69 353.66,582.13 356.06,583.55 356.4,583.75 356.74,583.95 357.06,584.15 377.85,596.93 388.65,605.14 395.66,612.25 399.11,615.76 397.83,621.66 393.23,623.42 393.18,623.44 393.18,623.44 393.13,623.46 357.65,637.07 349.36,640.2 336.73,644.54 328.38,647.42 321.96,649.38 317.26,650.44 314.45,651.08 312.18,651.42 310.29,651.42 308.86,651.43 307.57,651.25 306.3,650.77 304.04,649.93 302.18,648.2 301.43,645.63 299.67,639.6 298.29,635.42 297.17,632.71 296.68,631.53 296.27,630.68 295.95,630.18 295.88,630.06 295.84,630 295.85,630.02 296,630.19 296.23,630.39 296.56,630.6 297.53,631.21 298.81,631.51 300.1,631.3 301.26,631.12 301.88,630.73 302.22,630.4 302.04,630.57 301.7,631 301.19,631.72 300.84,632.2 299.4,634.28 299.13,634.66 298.12,636.1 297.23,637.28 296.27,638.46 290,646.11 282.38,650.55 272,650.55 261.86,650.55 254.31,646.3 247.62,638.82 246.08,637.1 242.21,632.23 242.19,632.21 241.64,631.56 241.27,631.18 241.1,631.05 241.18,631.11 241.33,631.2 241.57,631.3 242.03,631.5 242.58,631.64 243.21,631.65 244.51,631.67 245.55,631.2 246.11,630.65 246.04,630.72 245.73,631.18 245.29,632.02 244.01,634.52 242.4,638.95 240.37,645.69 239.53,648.47 237.45,650.13 235.05,650.82 233.84,651.16 232.64,651.25 231.3,651.18 229.52,651.1 227.36,650.71 224.67,650.05 220.12,648.93 213.86,646.95 205.72,644.11 193.29,639.78 183.52,636.09 150.63,623.47 150.05,623.24 150.05,623.24 149.47,623.02 146.9,622.04 144.75,621.21 142.68,620.42 138.26,618.72 136.86,613.16 139.95,609.57 147.15,601.25 161.45,593.1 188.22,583.53 212.61,574.81 231.42,563.06 241.01,546.66 244,541.54 245.06,529.3 244.59,508.17 244.48,503.22 244.36,499.62 243.99,489.41 243.81,484.45 243.71,481.69 243.62,478.64 243.52,475.47 243.44,472.6 243.38,469.86 Z M 243.38,469.86" />
        <path id="blazeHole55-wall7" stroke="none" fill="rgb(255, 209, 134)" d="M 353.01,102.85 C 353.01,101.29 352.64,100.47 352.15,99.77 352.16,99.78 352.3,99.94 352.55,100.2 353.3,100.97 354.53,102.07 356.2,103.46 359.46,106.18 364.25,109.87 370.78,114.74 378.74,120.66 413.72,146.04 415.88,147.63 417.69,148.95 419.44,150.23 421.14,151.48 439.65,165.09 453.29,175.53 463.5,184.09 478.21,196.42 484.65,203.34 484.34,209.86 L 483.17,205.71 C 492.13,218.95 497,234.57 497,250.9 497,265.32 489.73,275.43 476.43,281.98 467.03,286.6 457.3,288.95 436.13,292.66 435.55,292.77 434.91,292.88 433.69,293.09 432.7,293.27 431.97,293.39 431.25,293.52 429.4,293.85 427.86,294.12 426.38,294.39 406.87,297.94 395.07,301.32 385.64,306.86 L 385.46,306.96 C 384.51,307.48 383.52,308.02 382.39,308.62 381.42,309.13 376.69,311.62 375.39,312.32 355.18,323.11 347.19,331.05 346.46,344.87 345.96,354.3 347.24,365.17 350.08,380.55 L 343.36,381.79 349.94,379.92 C 351.4,385.06 352.35,390.35 352.77,395.74 L 345.95,396.26 352.73,395.37 C 352.92,396.77 353.01,397.92 353.01,398.94 353.01,399.51 353.01,400.08 353,400.64 L 346.16,400.5 353,400.36 C 353.01,400.92 353.01,401.49 353.01,402.06 353.01,403.08 352.92,404.23 352.73,405.63 L 345.95,404.74 352.77,405.26 C 352.35,410.65 351.4,415.94 349.94,421.08 L 343.36,419.21 350.09,420.45 C 347.24,435.83 345.96,446.7 346.46,456.13 347.19,469.95 355.18,477.89 375.39,488.68 376.69,489.38 381.42,491.87 382.39,492.38 383.52,492.98 384.51,493.52 385.46,494.04 L 385.64,494.14 C 395.07,499.68 406.87,503.06 426.38,506.61 427.86,506.88 429.4,507.15 431.25,507.48 431.97,507.61 432.7,507.73 433.69,507.91 434.91,508.12 435.55,508.23 436.13,508.34 457.3,512.05 467.03,514.4 476.43,519.02 489.73,525.57 497,535.68 497,550.1 497,566.43 492.13,582.05 483.17,595.29 L 484.34,591.14 C 484.65,597.66 478.21,604.58 463.5,616.91 453.29,625.47 439.65,635.91 421.14,649.52 419.44,650.77 417.69,652.05 415.88,653.37 413.72,654.96 378.74,680.34 370.78,686.26 364.25,691.13 359.46,694.82 356.2,697.54 354.53,698.93 353.3,700.03 352.55,700.8 352.3,701.06 352.16,701.22 352.15,701.23 352.64,700.53 353.01,699.71 353.01,698.15 353.01,742.8 316.74,779 272,779 266.51,779 261.09,778.45 255.8,777.38 218.33,769.79 190.99,736.77 190.99,698.15 190.99,699.44 191.28,700.21 191.66,700.81 191.66,700.81 191.53,700.65 191.31,700.4 190.61,699.63 189.44,698.53 187.84,697.15 184.68,694.41 180.02,690.74 173.69,685.97 165.56,679.86 127.4,652.05 129.7,653.74 127.65,652.23 125.7,650.8 123.81,649.4 104.76,635.33 91.06,624.69 81.1,615.98 L 81.7,616.45 C 60.13,601.42 47,576.86 47,550.1 47,536.04 52.45,526.02 62.99,519.38 70.76,514.48 79.41,511.9 96.66,508.37 116.22,504.37 118.23,503.92 126.15,501.57 133.35,499.43 139.74,496.95 145.62,493.95 L 145.01,494.3 C 150.61,490.66 156.36,487.64 166.43,482.79 166.93,482.55 170.69,480.74 171.78,480.22 193.03,469.95 200.8,463.85 200.8,456.49 200.8,448.72 199.48,439.97 196.99,429.29 L 197.35,430.4 C 193.92,422.3 191.83,413.66 191.19,404.76 L 198.02,404.28 191.25,405.25 C 191.08,404.08 190.99,403.03 190.99,402.06 190.99,401.49 190.99,400.92 191,400.36 L 197.84,400.5 191,400.64 C 190.99,400.08 190.99,399.51 190.99,398.94 190.99,397.97 191.08,396.92 191.25,395.75 L 198.02,396.72 191.19,396.24 C 191.51,391.77 192.2,387.36 193.24,383.05 194.27,378.78 195.64,374.62 197.35,370.6 L 203.65,373.26 196.99,371.71 C 199.48,361.03 200.8,352.28 200.8,344.51 200.8,337.15 193.03,331.05 171.78,320.78 170.69,320.26 166.93,318.45 166.43,318.21 156.36,313.36 150.61,310.34 145.01,306.7 L 145.62,307.05 C 139.74,304.05 133.35,301.57 126.15,299.43 118.23,297.08 116.22,296.63 96.66,292.63 79.41,289.1 70.76,286.52 62.99,281.62 52.45,274.98 47,264.96 47,250.9 47,224.14 60.13,199.58 81.7,184.55 L 81.1,185.02 C 91.06,176.31 104.76,165.67 123.81,151.6 125.7,150.2 127.65,148.77 129.7,147.26 127.4,148.95 165.56,121.14 173.69,115.03 180.02,110.26 184.68,106.59 187.84,103.85 189.44,102.47 190.61,101.37 191.31,100.6 191.53,100.35 191.66,100.19 191.66,100.19 191.28,100.79 190.99,101.56 190.99,102.85 190.99,98.54 191.33,94.26 192,90.05 192.93,84.23 194.49,78.56 196.64,73.12 206.67,47.82 228.96,29.06 255.8,23.62 261.09,22.55 266.51,22 272,22 316.74,22 353.01,58.2 353.01,102.85 Z M 353.01,102.85" />
        <path id="blazeHole55-wall8" stroke="none" fill="rgb(255, 209, 134)" d="M 339.34,102.85 C 339.34,65.75 309.19,35.66 272,35.66 267.43,35.66 262.92,36.12 258.52,37.01 236.23,41.53 217.69,57.13 209.36,78.15 207.57,82.66 206.28,87.37 205.51,92.2 204.95,95.7 204.66,99.26 204.66,102.85 204.66,108.32 200.25,112.14 181.92,125.94 173.69,132.13 135.41,160.03 137.8,158.28 135.76,159.77 133.82,161.2 131.94,162.59 113.17,176.45 99.72,186.9 90.11,195.3 89.92,195.46 89.72,195.62 89.52,195.76 71.58,208.26 60.68,228.66 60.68,250.9 60.68,267.72 69.11,273.04 99.4,279.24 119.47,283.35 121.58,283.81 130.05,286.33 138.01,288.7 145.18,291.47 151.86,294.89 152.07,295 152.27,295.12 152.47,295.24 157.44,298.47 162.8,301.29 172.37,305.9 172.86,306.14 176.63,307.95 177.73,308.48 189.61,314.22 196.15,317.84 201.87,322.33 209.97,328.7 214.48,335.88 214.48,344.51 214.48,353.52 213.02,363.21 210.31,374.82 210.22,375.2 210.1,375.57 209.94,375.93 208.53,379.26 207.39,382.72 206.54,386.25 205.67,389.83 205.1,393.49 204.84,397.21 204.82,397.37 204.81,397.53 204.78,397.7 204.7,398.27 204.66,398.7 204.66,398.94 204.66,399.41 204.67,399.89 204.68,400.36 L 204.68,400.64 C 204.67,401.11 204.66,401.59 204.66,402.06 204.66,402.3 204.7,402.73 204.78,403.3 204.81,403.47 204.82,403.63 204.84,403.79 205.36,411.18 207.1,418.35 209.94,425.07 210.1,425.43 210.22,425.8 210.31,426.18 213.02,437.79 214.48,447.48 214.48,456.49 214.48,465.12 209.97,472.3 201.87,478.67 196.15,483.16 189.61,486.78 177.73,492.52 176.63,493.05 172.86,494.86 172.37,495.1 162.8,499.71 157.44,502.53 152.47,505.76 152.27,505.88 152.07,506 151.86,506.11 145.18,509.53 138.01,512.3 130.05,514.67 121.58,517.19 119.47,517.65 99.4,521.76 69.11,527.96 60.68,533.28 60.68,550.1 60.68,572.34 71.58,592.74 89.52,605.24 89.72,605.38 89.92,605.54 90.11,605.7 99.72,614.1 113.17,624.55 131.94,638.41 133.82,639.8 135.76,641.23 137.8,642.72 135.41,640.97 173.69,668.87 181.92,675.06 200.25,688.86 204.66,692.68 204.66,698.15 204.66,730.24 227.39,757.68 258.52,763.99 262.92,764.88 267.43,765.34 272,765.34 309.19,765.34 339.34,735.25 339.34,698.15 339.34,695.2 340.41,693.67 342.75,691.27 343.89,690.1 345.44,688.71 347.44,687.04 350.94,684.13 355.89,680.3 362.61,675.31 370.64,669.33 405.7,643.89 407.8,642.35 409.61,641.03 411.35,639.75 413.03,638.51 431.33,625.07 444.78,614.77 454.71,606.44 460.38,601.69 464.71,597.73 467.58,594.65 468.95,593.17 469.94,591.94 470.51,591.05 470.7,590.75 470.81,590.55 470.83,590.49 470.73,590.76 470.65,591.18 470.68,591.79 470.61,590.32 471.01,588.86 471.84,587.64 479.29,576.64 483.32,563.68 483.32,550.1 483.32,541.28 479.29,535.66 470.38,531.28 462.59,527.45 453.58,525.27 433.77,521.79 433.19,521.69 432.55,521.58 431.33,521.37 430.33,521.19 429.6,521.06 428.88,520.94 427,520.61 425.43,520.33 423.93,520.05 402.92,516.23 389.92,512.5 378.71,505.92 L 378.89,506.02 C 377.99,505.53 377.04,505.02 375.96,504.44 375.02,503.94 370.29,501.45 368.94,500.73 358.03,494.9 351.36,490.57 345.57,484.81 337.81,477.1 333.39,467.96 332.8,456.85 332.23,446.04 333.6,434.35 336.64,417.97 336.67,417.76 336.72,417.55 336.78,417.34 338,413.08 338.79,408.68 339.13,404.21 339.14,404.09 339.15,403.97 339.17,403.84 339.28,402.99 339.34,402.37 339.34,402.06 339.34,401.59 339.33,401.11 339.32,400.64 L 339.32,400.36 C 339.33,399.89 339.34,399.41 339.34,398.94 339.34,398.63 339.28,398.01 339.17,397.15 339.15,397.03 339.14,396.91 339.13,396.79 338.79,392.32 338,387.92 336.78,383.66 336.72,383.45 336.67,383.24 336.63,383.03 333.6,366.65 332.23,354.96 332.8,344.15 333.39,333.04 337.81,323.9 345.57,316.19 351.36,310.43 358.03,306.1 368.94,300.27 370.29,299.55 375.02,297.06 375.96,296.56 377.04,295.98 377.99,295.47 378.89,294.98 L 378.71,295.08 C 389.92,288.5 402.92,284.77 423.93,280.95 425.43,280.67 427,280.39 428.88,280.06 429.6,279.94 430.33,279.81 431.33,279.63 432.55,279.42 433.19,279.31 433.77,279.21 453.58,275.73 462.59,273.55 470.38,269.72 479.29,265.34 483.32,259.72 483.32,250.9 483.32,237.32 479.29,224.36 471.84,213.36 471.01,212.14 470.61,210.68 470.68,209.21 470.65,209.82 470.73,210.24 470.83,210.51 470.81,210.45 470.7,210.25 470.51,209.95 469.94,209.06 468.95,207.83 467.58,206.35 464.71,203.27 460.38,199.31 454.71,194.56 444.78,186.23 431.33,175.93 413.03,162.49 411.35,161.25 409.61,159.97 407.8,158.65 405.7,157.11 370.64,131.67 362.61,125.69 355.89,120.7 350.94,116.87 347.44,113.96 345.44,112.29 343.89,110.9 342.75,109.73 340.41,107.33 339.34,105.8 339.34,102.85 Z M 339.34,102.85" />
    </g>
    <rect id="blazeHole55-end" stroke="none" fill="rgb(128, 128, 128)" x="268" y="87" width="1" height="1" />
    <rect id="blazeHole55-ball" stroke="none" fill="rgb(128, 128, 128)" x="270" y="725" width="1" height="1" />
</svg>
