<?xml version="1.0" encoding="UTF-8"?>
<!DOCTYPE svg PUBLIC "-//W3C//DTD SVG 1.1//EN" "http://www.w3.org/Graphics/SVG/1.1/DTD/svg11.dtd">
<svg version="1.1" xmlns="http://www.w3.org/2000/svg" xmlns:xlink="http://www.w3.org/1999/xlink" width="400" height="700"  xml:space="preserve" id="blazeHole33">
    <!-- Generated by PaintCode - http://www.paintcodeapp.com -->
    <defs>
        <radialGradient id="blazeHole33-gradient-bezier3" cx="190.3" cy="373.28"  r="297.07" fx="203.96" fy="359.62" gradientUnits="userSpaceOnUse" >
            <stop offset="0.044" stop-color="rgb(255, 209, 134)" stop-opacity="1" />
            <stop offset="1" stop-color="rgb(163, 117, 42)" stop-opacity="1" />
        </radialGradient>
        <filter id="blazeHole33-shadow-outer" filterUnits="userSpaceOnUse">
            <feGaussianBlur stdDeviation="4" />
            <feOffset dx="0" dy="-0" result="blur" />
            <feFlood flood-color="rgb(0, 0, 0)" flood-opacity="1" />
            <feComposite in2="blur" operator="in" result="colorShadow" />
            <feComposite in="SourceGraphic" in2="colorShadow" operator="over" />
        </filter>
        <radialGradient id="blazeHole33-gradient-wall" cx="190.3" cy="371.74"  r="297.07" fx="203.96" fy="358.08" gradientUnits="userSpaceOnUse" >
            <stop offset="0.044" stop-color="rgb(255, 209, 134)" stop-opacity="1" />
            <stop offset="1" stop-color="rgb(163, 117, 42)" stop-opacity="1" />
        </radialGradient>
    </defs>
    <rect id="blazeHole33-end" stroke="none" fill="rgb(128, 128, 128)" x="258" y="192" width="1" height="1" />
    <rect id="blazeHole33-ball" stroke="none" fill="rgb(128, 128, 128)" x="279" y="551" width="1" height="1" />
    <path id="blazeHole33-bezier3" stroke="none" fill="url(#blazeHole33-gradient-bezier3)" filter="url(#blazeHole33-shadow-outer)" d="M 238.36,64.63 C 237.99,64.43 237.95,64.41 237.85,64.38 238.03,64.44 238.32,64.51 238.73,64.62 239.27,64.76 242.01,65.44 242.24,65.5 246.46,66.57 250.16,67.56 254.33,68.79 266.82,72.48 278.86,76.98 290.23,82.6 311.12,92.95 327.15,105.89 336.46,122 361.4,165.16 361.39,195.33 336.45,238.02 311.85,280.11 286.53,293.98 236,294 225.73,294 218.21,291.88 212.49,287.52 207.94,284.07 205.21,280.14 201.41,272.77 201.37,272.69 199.79,269.59 199.32,268.7 198.52,267.18 197.83,265.92 197.13,264.73 193.08,257.85 188.47,253.09 181.18,249.24 171.83,244.31 158.48,241.31 139.8,240.57 L 145,235.57 C 145,290.25 145,290.25 145,376.94 145,419.01 145,419.01 145,454.55 145,484.39 145,484.39 145,498 L 140.11,493 C 159.94,493.46 173.69,490.91 182.98,485.83 190.07,481.96 194.33,476.96 198.31,469.03 198.8,468.06 199.29,467.04 199.87,465.8 200.2,465.08 201.33,462.62 201.39,462.49 205.07,454.52 207.61,450.41 212.01,446.67 217.67,441.87 225.21,439.5 235.5,439.5 285.94,439.5 311.37,453.42 335.95,495.48 360.89,538.16 360.89,568.33 335.96,611.5 326.66,627.6 310.64,640.54 289.75,650.88 278.39,656.51 266.34,661.01 253.86,664.7 249.69,665.93 245.99,666.92 241.79,667.98 241.5,668.05 238.81,668.73 238.28,668.86 237.87,668.97 237.59,669.05 237.4,669.1 237.52,669.06 237.57,669.05 237.95,668.83 237.34,669.18 236.68,669.39 235.99,669.46 236.05,669.45 231.88,670.13 229.1,670.55 223.68,671.38 217.9,672.17 211.61,672.92 187.08,675.83 162.42,677.15 139.28,676.04 111.6,674.7 88.45,669.93 71.19,660.92 50.12,649.91 38.5,632.82 38.5,609.5 38.5,588.48 38.57,521.43 38.75,367.65 38.75,365.48 38.75,365.48 38.75,363.3 38.95,188.14 39,141.01 39,124 39,100.68 50.61,83.59 71.68,72.59 88.94,63.58 112.09,58.8 139.76,57.46 162.89,56.34 187.55,57.67 212.08,60.57 218.34,61.32 224.11,62.11 229.52,62.93 232.26,63.35 236.5,64.03 236.46,64.03 L 235.95,69 235.4,73.97 235.37,73.97 235.92,69 238.36,64.63 Z M 238.36,64.63" />
    <path id="blazeHole33-wall" stroke="none" fill="url(#blazeHole33-gradient-wall)" filter="url(#blazeHole33-shadow-outer)" d="M 233.49,73.36 C 228.72,70.71 231.05,63.43 236.47,64.03 L 236.5,64.03 C 243.1,64.76 242.04,74.65 235.43,73.97 235.14,73.94 230.41,73.18 228.02,72.82 222.71,72.01 217.05,71.23 210.9,70.5 186.88,67.66 162.75,66.36 140.24,67.45 113.89,68.73 92.05,73.23 76.31,81.45 58.38,90.82 49,104.62 49,124 49,141.02 48.95,188.14 48.75,363.31 48.75,365.49 48.75,365.49 48.75,367.66 48.57,521.43 48.5,588.49 48.5,609.5 48.5,628.88 57.89,642.69 75.82,652.05 91.56,660.27 113.4,664.77 139.76,666.05 162.27,667.13 186.41,665.84 210.43,662.99 220.76,661.76 236.61,659.34 234.99,659.51 L 235.49,664.48 233.03,660.13 C 233.76,659.72 234.13,659.61 235.79,659.18 236.36,659.03 239.09,658.35 239.34,658.29 243.43,657.26 247.01,656.29 251.03,655.11 263,651.57 274.53,647.27 285.32,641.92 304.59,632.38 319.14,620.63 327.3,606.5 350.44,566.43 350.44,540.09 327.31,500.52 304.57,461.6 282.46,449.5 235.5,449.5 227.44,449.5 222.19,451.15 218.49,454.3 215.52,456.82 213.57,459.96 210.47,466.68 210.42,466.8 209.28,469.27 208.93,470.02 208.32,471.34 207.78,472.45 207.25,473.52 202.42,483.12 196.88,489.64 187.77,494.61 176.75,500.63 161.32,503.49 139.89,503 137.17,502.94 135,500.72 135,498 135,484.39 135,484.39 135,454.55 135,419.01 135,419.01 135,376.94 135,290.25 135,290.25 135,235.57 135,232.73 137.36,230.47 140.2,230.58 160.26,231.38 175.03,234.69 185.85,240.4 194.9,245.18 200.82,251.27 205.75,259.66 206.55,261.01 207.31,262.41 208.18,264.06 208.67,265 210.28,268.14 210.3,268.18 213.46,274.32 215.5,277.25 218.54,279.56 222.36,282.47 227.77,284 236,284 283.05,283.98 305.05,271.93 327.81,232.98 350.94,193.39 350.95,167.06 327.8,127 319.63,112.87 305.07,101.11 285.79,91.57 275,86.22 263.47,81.92 251.5,78.38 246.14,76.8 234.29,73.81 233.49,73.36 Z M 233.49,73.36" />
</svg>
