<?xml version="1.0" encoding="UTF-8"?>
<!DOCTYPE svg PUBLIC "-//W3C//DTD SVG 1.1//EN" "http://www.w3.org/Graphics/SVG/1.1/DTD/svg11.dtd">
<svg version="1.1" xmlns="http://www.w3.org/2000/svg" xmlns:xlink="http://www.w3.org/1999/xlink" width="400" height="700"  xml:space="preserve" id="blazeHole88">
    <!-- Generated by PaintCode - http://www.paintcodeapp.com -->
    <defs>
        <radialGradient id="blazeHole88-gradient-bezier" cx="193.5" cy="156.5"  r="307.97" fx="203.84" fy="146.16" gradientUnits="userSpaceOnUse" >
            <stop offset="0.032" stop-color="rgb(255, 209, 134)" stop-opacity="1" />
            <stop offset="1" stop-color="rgb(163, 117, 42)" stop-opacity="1" />
        </radialGradient>
        <filter id="blazeHole88-shadow-outer" filterUnits="userSpaceOnUse">
            <feGaussianBlur stdDeviation="4" />
            <feOffset dx="0" dy="-0" result="blur" />
            <feFlood flood-color="rgb(0, 0, 0)" flood-opacity="1" />
            <feComposite in2="blur" operator="in" result="colorShadow" />
            <feComposite in="SourceGraphic" in2="colorShadow" operator="over" />
        </filter>
        <radialGradient id="blazeHole88-gradient-wall" cx="193.5" cy="156.5"  r="307.97" fx="203.84" fy="146.16" gradientUnits="userSpaceOnUse" >
            <stop offset="0.032" stop-color="rgb(255, 209, 134)" stop-opacity="1" />
            <stop offset="1" stop-color="rgb(163, 117, 42)" stop-opacity="1" />
        </radialGradient>
        <radialGradient id="blazeHole88-gradient-bezier3" cx="193.56" cy="360.42"  r="307.97" fx="203.9" fy="350.09" gradientUnits="userSpaceOnUse" >
            <stop offset="0.032" stop-color="rgb(255, 209, 134)" stop-opacity="1" />
            <stop offset="1" stop-color="rgb(163, 117, 42)" stop-opacity="1" />
        </radialGradient>
        <radialGradient id="blazeHole88-gradient-wall2" cx="193.56" cy="360.42"  r="307.97" fx="203.9" fy="350.09" gradientUnits="userSpaceOnUse" >
            <stop offset="0.032" stop-color="rgb(255, 209, 134)" stop-opacity="1" />
            <stop offset="1" stop-color="rgb(163, 117, 42)" stop-opacity="1" />
        </radialGradient>
    </defs>
    <rect id="blazeHole88-end" stroke="none" fill="rgb(128, 128, 128)" x="88" y="588" width="1" height="1" />
    <rect id="blazeHole88-ball" stroke="none" fill="rgb(128, 128, 128)" x="308" y="585" width="1" height="1" />
    <path id="blazeHole88-bezier" stroke="none" fill="url(#blazeHole88-gradient-bezier)" filter="url(#blazeHole88-shadow-outer)" d="M 198.5,109 C 190.95,109 183.69,110.97 177.3,114.65 164.22,122.2 156,136.13 156,151.5 156,174.97 175.03,194 198.5,194 221.97,194 241,174.97 241,151.5 241,128.03 221.97,109 198.5,109 Z M 198.5,109" />
    <path id="blazeHole88-wall" stroke="none" fill="url(#blazeHole88-gradient-wall)" filter="url(#blazeHole88-shadow-outer)" d="M 198.5,99 C 227.49,99 251,122.51 251,151.5 251,180.49 227.49,204 198.5,204 169.51,204 146,180.49 146,151.5 146,132.52 156.16,115.3 172.31,105.99 180.21,101.43 189.18,99 198.5,99 Z M 198.5,99" />
    <path id="blazeHole88-bezier3" stroke="none" fill="url(#blazeHole88-gradient-bezier3)" filter="url(#blazeHole88-shadow-outer)" d="M 323.57,179.98 C 347.88,341.37 375.24,535.82 378.42,573.5 382.14,617.45 354.71,652.26 313.03,658.07 292.92,660.88 269.82,655.25 252.38,643.55 233.33,630.77 223.32,612.46 226.94,592.77 226.95,592.69 226.95,592.69 227,592.41 227.06,592.14 227.12,591.81 227.19,591.44 227.39,590.35 227.62,589.08 227.88,587.62 228.63,583.43 229.47,578.61 230.37,573.2 232.95,557.74 235.52,540.74 237.93,522.71 242.78,486.34 246.31,450.55 247.93,417.09 250.32,367.92 248.45,327.01 241.45,297.25 233.51,263.42 219.53,246 199,246 178.46,246 164.44,263.43 156.41,297.26 149.35,327.02 147.37,367.94 149.64,417.1 151.2,450.78 154.67,486.8 159.48,523.39 161.83,541.26 164.35,558.11 166.87,573.41 167.75,578.77 168.57,583.54 169.3,587.68 169.55,589.13 169.78,590.39 169.98,591.46 170.05,591.83 170.1,592.16 170.15,592.43 170.2,592.7 170.2,592.7 170.21,592.75 L 170.23,592.85 C 173.72,613.84 163.79,632.3 144.65,644.72 127.49,655.85 104.49,660.91 84.12,658.07 64.77,655.37 47.13,642.82 34.41,624.53 22.8,607.84 16.71,588.17 18.76,573.24 20.33,561.78 30.33,489.98 46.03,377.42 46.05,377.32 46.05,377.32 46.06,377.22 52.08,334.07 58.53,287.85 64.98,241.64 67.23,225.46 69.33,210.45 71.21,196.97 71.87,192.25 72.45,188.07 72.96,184.46 73.47,180.8 73.47,180.8 73.57,180.03 73.6,179.82 73.67,179.31 73.78,178.58 73.96,177.4 74.19,176.03 74.47,174.5 75.27,170.14 76.35,165.3 77.74,160.1 81.71,145.22 87.4,130.35 95.15,116.42 104.23,100.08 115.58,86.14 129.44,75.38 148.5,60.59 171.59,52.39 198.93,52 263.95,52 308.58,101.05 323.54,179.79 L 323.57,179.98 Z M 323.57,179.98" />
    <path id="blazeHole88-wall2" stroke="none" fill="url(#blazeHole88-gradient-wall2)" filter="url(#blazeHole88-shadow-outer)" d="M 313.68,181.47 L 313.72,181.65 C 299.56,107.17 258.46,62 199,62 173.92,62.36 152.92,69.81 135.57,83.28 122.85,93.15 112.35,106.05 103.89,121.28 96.58,134.43 91.17,148.55 87.4,162.68 86.08,167.62 85.06,172.21 84.3,176.31 84.04,177.74 83.83,179 83.67,180.08 83.57,180.71 83.51,181.13 83.49,181.33 83.37,182.18 83.37,182.18 82.86,185.84 82.36,189.45 81.77,193.64 81.11,198.35 79.23,211.83 77.14,226.85 74.88,243.02 68.43,289.23 61.98,335.45 55.97,378.6 55.95,378.7 55.95,378.7 55.94,378.8 40.24,491.34 30.24,563.15 28.67,574.6 27,586.78 32.34,604.04 42.62,618.82 53.86,634.99 69.19,645.89 85.51,648.17 103.49,650.68 124.07,646.15 139.21,636.33 155.23,625.94 163.15,611.22 160.37,594.49 L 160.39,594.6 C 160.37,594.53 160.37,594.53 160.32,594.25 160.27,593.97 160.21,593.64 160.14,593.26 159.94,592.17 159.71,590.89 159.45,589.43 158.71,585.25 157.89,580.43 157,575.03 154.47,559.63 151.93,542.68 149.57,524.7 144.72,487.84 141.23,451.55 139.66,417.57 137.34,367.55 139.36,325.8 146.68,294.95 155.65,257.15 172.66,236 199,236 225.34,236 242.31,257.15 251.19,294.96 258.44,325.82 260.35,367.56 257.92,417.58 256.28,451.35 252.73,487.4 247.84,524.04 245.42,542.17 242.83,559.28 240.23,574.84 239.32,580.29 238.48,585.16 237.72,589.38 237.46,590.86 237.22,592.16 237.02,593.26 236.95,593.64 236.88,593.98 236.83,594.26 236.78,594.54 236.78,594.54 236.77,594.61 233.96,609.9 241.95,624.5 257.95,635.25 273.39,645.6 294.02,650.63 311.65,648.17 348.04,643.09 371.73,613.03 368.46,574.34 365.3,536.99 337.94,342.54 313.68,181.47 Z M 313.68,181.47" />
</svg>
