<?xml version="1.0" encoding="UTF-8"?>
<!DOCTYPE svg PUBLIC "-//W3C//DTD SVG 1.1//EN" "http://www.w3.org/Graphics/SVG/1.1/DTD/svg11.dtd">
<svg version="1.1" xmlns="http://www.w3.org/2000/svg" xmlns:xlink="http://www.w3.org/1999/xlink" width="400" height="700"  xml:space="preserve" id="blazeHole44">
    <!-- Generated by PaintCode - http://www.paintcodeapp.com -->
    <defs>
        <pattern id="blazeHole44-pattern1-bezier2" x="50" y="110" width="100" height="100" patternUnits="userSpaceOnUse" viewBox="0 0 100 100">
            <image xlink:href="images/pattern1.jpg" x="0" y="0" width="100" height="100" />
        </pattern>
    </defs>
    <path id="blazeHole44-bezier3" stroke="rgb(142, 109, 53)" stroke-width="24" stroke-linecap="round" stroke-linejoin="round" stroke-miterlimit="10" fill="none" d="M 145.51,199 C 164.89,195.7 184.82,191.41 202.5,184.5 245.48,167.7 268.88,123.98 275.26,108.37 286,89 270.5,10.5 322.5,12.5 374.5,14.5 335.38,83.63 311.5,130.5 306.98,139.37 294.5,166.5 322.5,198.5 329.5,206.5 351.17,231.89 363.5,254.5 375.5,276.5 366.82,397.44 345.5,400.5 339.42,401.37 325.08,398.14 311.5,386.5 283.5,362.5 330.5,328.5 311.5,274.5 292.86,221.54 253.23,251.53 250.5,254.5 224.76,282.57 228.31,307.52 225.5,323.5 220.54,384.49 248.07,451.91 250.5,495.5 251.07,539.91 188.5,538.07 188.5,569.5 188.5,633.84 262.7,686.5 202.5,686.5 142.3,686.5 93.5,634.34 93.5,570 93.5,538.57 152.93,533.91 159.5,495.5 166.93,437.91 143.5,476.5 159.5,348.5 163.5,316.5 214.07,297.36 202.5,239.5 197.5,214.5 82.5,229.5 84.5,264.5 87.29,313.24 130.5,317.5 121.5,332.5 85.5,392.5 31.62,270.37 55.5,223.5 63.05,208.68 102.95,206.24 145.51,199 Z M 145.51,199" />
    <path id="blazeHole44-bezier2" stroke="none" fill="url(#blazeHole44-pattern1-bezier2)" d="M 145.51,197 C 164.89,193.7 184.82,189.41 202.5,182.5 245.48,165.7 268.88,121.98 275.26,106.37 286,87 270.5,8.5 322.5,10.5 374.5,12.5 335.38,81.63 311.5,128.5 306.98,137.37 294.5,164.5 322.5,196.5 329.5,204.5 351.17,229.89 363.5,252.5 375.5,274.5 366.82,395.44 345.5,398.5 339.42,399.37 325.08,396.14 311.5,384.5 283.5,360.5 330.5,326.5 311.5,272.5 292.86,219.54 253.23,249.53 250.5,252.5 224.76,280.57 228.31,305.52 225.5,321.5 220.54,382.49 248.07,449.91 250.5,493.5 251.07,537.91 188.5,536.07 188.5,567.5 188.5,631.84 262.7,684.5 202.5,684.5 142.3,684.5 93.5,632.34 93.5,568 93.5,536.57 152.93,531.91 159.5,493.5 166.93,435.91 143.5,474.5 159.5,346.5 163.5,314.5 214.07,295.36 202.5,237.5 197.5,212.5 82.5,227.5 84.5,262.5 87.29,311.24 130.5,315.5 121.5,330.5 85.5,390.5 31.62,268.37 55.5,221.5 63.05,206.68 102.95,204.24 145.51,197 Z M 145.51,197" />
    <path id="blazeHole44-wall" stroke="none" fill="rgb(255, 209, 134)" d="M 144.17,192.57 C 167.13,188.66 184.85,184.34 200.18,178.34 218.62,171.14 234.68,158.22 248.21,141.36 258.04,129.1 265.8,115.58 270.13,104.98 270.2,104.79 270.29,104.62 270.38,104.44 272.45,100.73 273.46,94.27 274.68,79.36 275.63,67.72 275.82,65.66 276.44,60.46 278.38,44.33 281.56,32.47 287.39,23.31 294.91,11.5 306.41,5.4 322.19,6 343.24,6.81 353.35,18.11 352.66,37.1 352.15,51.3 345.98,69.29 334.55,93.37 332.12,98.48 329.48,103.83 326.35,110.01 324.1,114.44 316.59,129.04 315.46,131.27 311.67,138.7 309.44,145.69 309.31,154.4 309.11,167.18 314.03,180.3 325.76,193.71 341.81,212.05 357.41,232.3 367.39,250.61 373.78,262.33 375.09,297.36 371.47,333.6 367.38,374.51 359.15,402.02 345.71,403.95 336.2,405.31 320.48,399.71 307.75,388.8 299.56,381.78 296.28,373.44 296.93,363.22 297.19,359.14 298.05,354.8 299.53,349.52 300.11,347.44 300.77,345.26 301.66,342.47 302.02,341.35 303.58,336.5 303.99,335.2 307.64,323.7 309.53,315.9 310.32,307.3 311.34,296.31 310.16,285.67 306.28,274.66 298.81,253.42 288.08,245.7 275.03,247 270.18,247.48 265.19,249.22 260.46,251.81 257.26,253.56 254.31,255.7 253.69,256.38 244.51,266.38 238.76,276.42 235.41,287.1 232.98,294.85 232.23,299.99 231.08,313.06 230.67,317.68 230.39,320.23 229.92,322.87 L 229.98,322.41 C 229.01,334.36 229.28,347.1 230.66,360.91 232.51,379.41 235.87,397.21 242.16,424.81 242.68,427.07 245.64,439.95 246.46,443.56 248.06,450.61 249.27,456.19 250.33,461.43 252.95,474.38 254.49,484.68 254.99,493.72 L 255,493.94 C 255.15,505.59 251.41,515.17 244.22,523.28 238.75,529.45 232.21,534.12 221.51,540.32 220.14,541.11 215.2,543.92 214.15,544.53 198.59,553.51 193,559.18 193,568 193,586.64 199.05,604.65 211.21,628.08 213.05,631.6 221.22,646.74 223.12,650.47 227.18,658.47 229.45,664.18 230.25,669.19 232.49,683.2 222.94,690 202,690 138.96,690 88,635.53 88,568.5 88,560.62 91.06,553.78 96.83,547.53 101.21,542.78 106.6,538.74 115.47,533.06 117,532.08 122.51,528.6 123.61,527.9 132.99,521.92 138.68,517.71 143.46,512.81 149.29,506.83 152.81,500.51 154.07,493.16 L 154.04,493.36 C 156.31,475.76 155.92,467.78 153.36,457.77 153.15,456.97 152.27,453.66 152.05,452.77 146.75,432.17 146.48,406.87 154.04,346.38 155.06,338.19 158.62,330.63 164.92,321.77 166.62,319.37 168.48,316.92 170.95,313.79 171.75,312.79 176.07,307.38 177.3,305.81 186.02,294.72 191.07,286.8 194.55,277.56 198.95,265.9 199.99,253.43 197.1,238.98 196.46,235.82 190.74,232.79 180.5,231.39 169.71,229.92 155.47,230.48 141.22,232.93 110.16,238.26 88.3,250.53 88.99,262.71 89.97,279.86 95.98,291.85 106.58,302.45 108.2,304.07 109.91,305.65 111.92,307.4 113.13,308.46 117.38,312.07 117.03,311.77 121.41,315.52 123.66,317.78 125.29,320.47 127.83,324.69 127.93,329.17 125.29,333.57 115.64,349.66 103.29,355.52 90.35,350.54 79.63,346.42 69.47,335.01 61.11,318.88 44.16,286.2 38.51,243.36 50.54,219.73 53.9,213.15 61.32,208.71 72.93,205.21 81.74,202.56 92.2,200.57 109.85,197.88 112.95,197.41 124.35,195.71 126.66,195.36 133.45,194.33 138.89,193.47 144.17,192.57 Z M 144.17,192.57" />
    <rect id="blazeHole44-end" stroke="none" fill="rgb(128, 128, 128)" x="174" y="646" width="1" height="1" />
    <rect id="blazeHole44-ball" stroke="none" fill="rgb(128, 128, 128)" x="309" y="56" width="1" height="1" />
    <path id="blazeHole44-wall2" stroke="none" fill="rgb(255, 209, 134)" d="M 145.85,202.43 C 140.49,203.34 135,204.21 128.15,205.24 125.83,205.6 114.43,207.29 111.35,207.76 77.43,212.93 63.02,217.27 59.46,224.27 49.14,244.51 54.37,284.18 69.98,314.27 77.33,328.44 85.97,338.14 93.94,341.21 101.85,344.25 109.36,340.69 116.71,328.43 117.41,327.27 117.4,326.75 116.73,325.65 115.84,324.17 114.09,322.42 110.52,319.36 110.93,319.71 106.61,316.05 105.34,314.93 103.17,313.04 101.3,311.32 99.51,309.52 87.27,297.28 80.14,283.05 79.01,263.29 77.89,243.72 103.73,229.22 139.53,223.07 173.96,217.16 203.74,221.22 206.9,237.02 210.16,253.31 208.97,267.68 203.91,281.09 199.98,291.49 194.46,300.17 185.16,311.99 183.9,313.6 179.57,319.02 178.8,319.99 176.42,323 174.65,325.33 173.07,327.56 167.64,335.2 164.75,341.35 163.96,347.62 159.84,380.6 158.11,404.22 158.29,421.13 158.43,433.9 159.48,441.53 161.73,450.28 161.95,451.12 162.83,454.44 163.04,455.29 165.94,466.56 166.39,475.82 163.96,494.64 L 163.93,494.84 C 162.3,504.34 157.78,512.45 150.62,519.79 145.16,525.39 138.97,529.97 128.98,536.33 127.85,537.05 122.35,540.52 120.86,541.48 104.25,552.11 98,558.89 98,568.5 98,630.15 144.64,680 202,680 210.54,680 215.96,678.88 218.6,677 220.35,675.76 220.9,674.05 220.37,670.76 219.78,667.06 217.82,662.13 214.2,655 212.38,651.41 204.23,636.33 202.34,632.68 189.5,607.96 183,588.61 183,568 183,560.43 185.95,554.04 191.5,548.41 195.66,544.18 200.66,540.77 209.15,535.87 210.23,535.24 215.16,532.43 216.5,531.66 226.34,525.97 232.16,521.81 236.73,516.65 242.31,510.35 245.12,503.17 245,494.06 L 245.01,494.28 C 244.54,485.79 243.07,475.93 240.53,463.41 239.49,458.27 238.29,452.75 236.71,445.77 235.89,442.18 232.93,429.31 232.41,427.04 226.03,399.06 222.61,380.92 220.71,361.91 219.27,347.53 218.99,334.19 220.02,321.59 220.03,321.44 220.05,321.29 220.08,321.13 220.47,318.87 220.74,316.53 221.12,312.18 222.33,298.41 223.15,292.77 225.86,284.11 229.65,272.04 236.14,260.71 246.31,249.62 247.78,248.02 251.58,245.27 255.66,243.04 261.48,239.85 267.71,237.68 274.04,237.05 291.93,235.27 306.79,245.96 315.72,271.34 320.08,283.75 321.42,295.84 320.28,308.22 319.41,317.69 317.37,326.1 313.52,338.22 307.68,356.62 307.28,358.05 306.91,363.86 306.45,371.03 308.52,376.29 314.25,381.2 324.94,390.36 337.87,394.97 344.29,394.05 345.13,393.93 346.52,392.74 348.14,390.12 350.07,387 351.96,382.4 353.71,376.56 357.08,365.27 359.81,349.77 361.52,332.61 364.94,298.44 363.67,264.68 358.61,255.39 349.08,237.92 333.83,218.11 318.24,200.29 304.89,185.04 299.07,169.53 299.31,154.25 299.47,143.73 302.13,135.4 306.54,126.73 307.69,124.47 315.2,109.89 317.43,105.49 320.53,99.38 323.13,94.11 325.51,89.08 336.39,66.18 342.22,49.17 342.67,36.74 343.16,23.18 337.26,16.59 321.81,16 299.54,15.14 290.19,29.84 286.37,61.65 285.77,66.67 285.59,68.69 284.65,80.17 283.28,96.87 282.2,103.76 279.13,109.29 L 279.39,108.76 C 274.7,120.22 266.47,134.58 256.01,147.62 241.46,165.75 224.05,179.75 203.82,187.66 187.73,193.94 169.42,198.42 145.85,202.43 Z M 145.85,202.43" />
</svg>
