<?xml version="1.0" encoding="UTF-8"?>
<!DOCTYPE svg PUBLIC "-//W3C//DTD SVG 1.1//EN" "http://www.w3.org/Graphics/SVG/1.1/DTD/svg11.dtd">
<svg version="1.1" xmlns="http://www.w3.org/2000/svg" xmlns:xlink="http://www.w3.org/1999/xlink" width="400" height="700"  xml:space="preserve" id="blazeHole55">
    <!-- Generated by PaintCode - http://www.paintcodeapp.com -->
    <defs>
        <radialGradient id="blazeHole55-gradient-bezier2" cx="187.48" cy="351.02"  r="275.69" fx="198.55" fy="339.95" gradientUnits="userSpaceOnUse" >
            <stop offset="0.039" stop-color="rgb(255, 209, 134)" stop-opacity="1" />
            <stop offset="1" stop-color="rgb(163, 117, 42)" stop-opacity="1" />
        </radialGradient>
        <filter id="blazeHole55-shadow-outer" filterUnits="userSpaceOnUse">
            <feGaussianBlur stdDeviation="4" />
            <feOffset dx="0" dy="-0" result="blur" />
            <feFlood flood-color="rgb(0, 0, 0)" flood-opacity="1" />
            <feComposite in2="blur" operator="in" result="colorShadow" />
            <feComposite in="SourceGraphic" in2="colorShadow" operator="over" />
        </filter>
        <radialGradient id="blazeHole55-gradient-wall" cx="187.48" cy="351.05"  r="275.69" fx="198.55" fy="339.99" gradientUnits="userSpaceOnUse" >
            <stop offset="0.039" stop-color="rgb(255, 209, 134)" stop-opacity="1" />
            <stop offset="1" stop-color="rgb(163, 117, 42)" stop-opacity="1" />
        </radialGradient>
    </defs>
    <rect id="blazeHole55-end" stroke="none" fill="rgb(128, 128, 128)" x="230" y="121" width="1" height="1" />
    <rect id="blazeHole55-ball" stroke="none" fill="rgb(128, 128, 128)" x="309" y="399" width="1" height="1" />
    <path id="blazeHole55-bezier2" stroke="none" fill="url(#blazeHole55-gradient-bezier2)" filter="url(#blazeHole55-shadow-outer)" d="M 312.92,200.88 C 312.25,204.63 311.49,208.42 310.63,212.24 302.53,248.34 287.22,285.36 263.49,331.03 259.78,338.17 255.91,345.45 251.27,354.04 248.77,358.69 240.58,373.75 239.69,375.4 230.51,392.35 225.17,402.64 220.86,411.95 210.91,433.44 209.37,444.59 214.57,447.71 226.11,454.63 232.85,451.19 242.11,434.67 245.55,428.54 247.7,424 255.39,407.06 262.51,391.39 266.92,382.17 272.6,371.63 286.62,345.59 310.05,337.51 331.27,347.81 351.14,357.45 362.27,380.25 355.8,402.4 352.89,412.36 346.64,426.36 323.9,475.43 323.65,475.98 323.65,475.98 323.39,476.53 318.73,486.6 315.58,493.43 312.55,500.07 308.08,509.89 304.11,519.84 299.91,531.5 297.65,537.76 290.72,557.88 289.88,560.26 281.47,584.05 274.88,597.75 264.92,609.49 252.73,623.83 236.34,633.07 213.22,637.89 179.13,645.01 134.65,638.57 96.4,622.08 56.72,604.97 30.18,579.97 28.08,553.82 26.85,538.52 34.92,522.34 51.28,503.62 63.22,489.95 74.73,479.33 104.38,453.49 107.93,450.41 110.04,448.56 112.28,446.6 145.18,417.78 161.75,400.7 171.05,383.63 L 170.97,383.8 C 185.77,354.01 190.78,319.94 187.83,282.9 185.63,255.23 179.35,228.47 170.26,201.6 L 170.32,201.77 C 140.12,121.78 154.63,69.11 210.88,56.13 227.67,52.25 239.8,50.43 251.45,50.66 266.51,50.95 279.07,54.94 289.18,63.53 312.64,83.47 321.06,126.9 312.97,200.55 312.96,200.66 312.94,200.77 312.92,200.88 Z M 312.92,200.88" />
    <path id="blazeHole55-wall" stroke="none" fill="url(#blazeHole55-gradient-wall)" filter="url(#blazeHole55-shadow-outer)" d="M 303.08,199.12 L 303.03,199.45 C 310.79,128.79 302.95,88.36 282.71,71.15 274.51,64.19 264.16,60.91 251.26,60.66 240.62,60.45 229.18,62.17 213.12,65.87 164.01,77.21 151.34,123.19 179.68,198.23 L 179.74,198.4 C 189.07,225.98 195.53,253.5 197.8,282.11 200.88,320.83 195.61,356.67 179.92,388.25 L 179.83,388.41 C 169.76,406.9 152.69,424.49 118.87,454.12 116.62,456.09 114.5,457.94 110.95,461.03 81.67,486.54 70.34,497.01 58.81,510.2 44.06,527.08 37.08,541.06 38.04,553.01 41.71,598.54 143.19,642.3 211.18,628.11 232.2,623.72 246.61,615.6 257.29,603.01 266.26,592.45 272.42,579.65 280.45,556.92 281.27,554.61 288.21,534.46 290.5,528.11 294.79,516.21 298.85,506.02 303.45,495.93 306.49,489.26 309.64,482.42 314.32,472.32 314.58,471.77 314.58,471.77 314.83,471.22 337.09,423.19 343.51,408.79 346.2,399.6 351.26,382.29 342.52,364.38 326.9,356.81 310.58,348.89 292.92,354.98 281.4,376.37 275.86,386.67 271.52,395.72 264.5,411.19 256.66,428.46 254.47,433.08 250.84,439.56 245.3,449.44 240.09,455.65 233.87,458.82 226.53,462.57 218.42,461.68 209.43,456.29 202.96,452.41 200.74,445.44 202.01,436.25 203.03,428.89 206.26,419.69 211.79,407.75 216.21,398.19 221.63,387.76 230.89,370.64 231.79,368.98 239.97,353.92 242.47,349.29 247.09,340.74 250.94,333.51 254.62,326.42 277.98,281.45 293,245.13 300.87,210.05 301.7,206.37 302.43,202.72 303.08,199.12 Z M 303.08,199.12" />
</svg>
