<?xml version="1.0" encoding="UTF-8"?>
<!DOCTYPE svg PUBLIC "-//W3C//DTD SVG 1.1//EN" "http://www.w3.org/Graphics/SVG/1.1/DTD/svg11.dtd">
<svg version="1.1" xmlns="http://www.w3.org/2000/svg" xmlns:xlink="http://www.w3.org/1999/xlink" width="400" height="700"  xml:space="preserve" id="blazeHole77">
    <!-- Generated by PaintCode - http://www.paintcodeapp.com -->
    <defs>
        <pattern id="blazeHole77-pattern1-bezier2" x="30" y="209" width="100" height="100" patternUnits="userSpaceOnUse" viewBox="0 0 100 100">
            <image xlink:href="images/pattern1.jpg" x="0" y="0" width="100" height="100" />
        </pattern>
    </defs>
    <path id="blazeHole77-bezier3" stroke="rgb(142, 109, 53)" stroke-width="24" stroke-linejoin="round" stroke-miterlimit="10" fill="none" d="M 203.97,104.03 C 239.51,104.8 272.43,122.32 299.57,151.7 295.33,200.51 280.17,286.65 291.87,309.01 293.01,311.19 294.4,312.76 296.09,313.64 308,319.82 326.91,270.27 341.67,216.74 358.26,253.32 369,296.7 371.78,343.63 351.86,348.02 323.2,366.84 300.06,380.5 265.83,400.71 134.38,438.7 134.67,463.8 134.97,488.91 318.74,443.73 352.97,423.52 359.32,419.77 365.1,415.58 370.23,411.11 356.9,536.4 286.43,632 201.5,632 146.63,632 97.79,592.1 66.51,530.07 70.64,483.33 101.72,365.28 81.38,353.16 70.98,346.96 52.24,385.69 35.55,431.92 32.25,411.45 30.5,390.04 30.5,368 30.5,340.29 33.27,313.57 38.39,288.48 70.51,310.24 139.47,341.17 150.88,326.56 156.4,319.48 149.03,308.91 137.3,297.59 119.21,280.14 90.75,260.91 83.25,250.01 76.32,239.94 68.75,226.94 59.94,219.85 77.3,180.41 101.39,148.6 129.66,128.36 131.39,127.12 133.13,125.93 134.89,124.78 155.36,111.4 177.87,104 201.5,104 202.32,104 203.15,104.01 203.97,104.03 Z M 203.97,104.03" />
    <path id="blazeHole77-bezier2" stroke="none" fill="url(#blazeHole77-pattern1-bezier2)" d="M 203.47,109.03 C 239.01,109.8 271.93,127.32 299.07,156.7 294.83,205.51 279.67,291.65 291.37,314.01 292.51,316.19 293.9,317.76 295.59,318.64 307.5,324.82 326.41,275.27 341.17,221.74 357.76,258.32 368.5,301.7 371.28,348.63 351.36,353.02 322.7,371.84 299.56,385.5 265.33,405.71 133.88,443.7 134.17,468.8 134.47,493.91 318.24,448.73 352.47,428.52 358.82,424.77 364.6,420.58 369.73,416.11 356.4,541.4 285.93,637 201,637 146.13,637 97.29,597.1 66.01,535.07 70.14,488.33 101.22,370.28 80.88,358.16 70.48,351.96 51.74,390.69 35.05,436.92 31.75,416.45 30,395.04 30,373 30,345.29 32.77,318.57 37.89,293.48 70.01,315.24 138.97,346.17 150.38,331.56 155.9,324.48 148.53,313.91 136.8,302.59 118.71,285.14 90.25,265.91 82.75,255.01 75.82,244.94 68.25,231.94 59.44,224.85 76.8,185.41 100.89,153.6 129.16,133.36 130.89,132.12 132.63,130.93 134.39,129.78 154.86,116.4 177.37,109 201,109 201.82,109 202.65,109.01 203.47,109.03 Z M 203.47,109.03" />
    <path id="blazeHole77-wall" stroke="none" fill="rgb(255, 209, 134)" d="M 203.58,99.03 C 239.72,99.82 274.02,117.21 302.74,148.31 303.7,149.34 304.17,150.73 304.05,152.13 303.06,163.51 302.79,165.86 298.53,201.53 297.83,207.36 297.29,212.02 296.77,216.51 290.98,267.24 290.17,295.93 295.8,306.69 296.52,308.07 297.23,308.86 297.89,309.2 297.85,309.18 297.75,309.16 297.67,309.16 297.7,309.16 297.83,309.12 298.07,309 299.01,308.52 300.29,307.35 301.75,305.52 305,301.44 308.73,294.67 312.74,285.57 320.29,268.42 328.57,243.61 336.35,215.41 337.59,210.9 343.79,210.42 345.72,214.68 362.92,252.6 373.51,296.72 376.27,343.34 376.42,345.79 374.76,347.99 372.36,348.52 362.25,350.74 349.13,356.98 330.62,367.76 327.76,369.42 324.77,371.2 321.3,373.28 321.68,373.05 306.22,382.37 302.1,384.8 295.19,388.89 284.58,393.68 268.68,400.11 259.51,403.82 223.62,417.81 222.74,418.16 209.08,423.55 198.3,427.96 188.6,432.19 172.66,439.14 160.53,445.24 152.03,450.75 143.38,456.36 139.14,461.05 139.17,463.74 139.17,463.7 139.15,463.61 139.11,463.54 139.11,463.55 139.17,463.61 139.32,463.73 140.01,464.25 141.36,464.79 143.31,465.22 147.75,466.2 154.54,466.45 163.31,465.95 179.96,464.99 203.16,461.37 229.56,455.76 280.29,444.98 333.74,428.77 349.93,419.21 355.92,415.68 361.46,411.68 366.45,407.34 369.87,404.35 375.18,407.11 374.7,411.63 360.99,540.55 288.09,637 201,637 145.45,637 94.53,597.71 61.54,532.32 61.12,531.49 60.94,530.56 61.02,529.63 62.19,516.44 63.12,510.94 71.72,462.89 72.61,457.93 73.35,453.73 74.05,449.71 78.86,422.1 81.56,402.81 82.44,387.39 83.43,369.95 81.66,359.44 78.32,357.45 78.35,357.47 78.44,357.5 78.52,357.5 78.53,357.51 78.46,357.52 78.31,357.57 77.58,357.84 76.51,358.6 75.22,359.89 72.23,362.87 68.66,368.1 64.71,375.29 57.16,389.01 48.5,409.38 39.75,433.62 38,438.47 30.93,437.81 30.11,432.72 26.73,411.71 25,390.03 25,368 25,340.38 27.72,313.31 33,287.48 33.71,283.98 37.75,282.34 40.7,284.34 57.02,295.4 82.08,308.27 103.68,316.48 126.7,325.24 143.27,327.53 146.44,323.48 149.08,320.09 145.06,312.51 133.33,301.19 130.42,298.38 127.09,295.39 123.23,292.09 120.33,289.61 117.2,287.01 113.41,283.93 111.05,282 102.98,275.49 102.77,275.32 98.62,271.97 95.62,269.5 92.9,267.18 85.81,261.14 81.26,256.66 78.63,252.84 77.11,250.64 71.8,242.62 71.48,242.14 65.29,232.93 60.88,227.43 56.31,223.74 54.55,222.32 53.96,219.9 54.87,217.83 72.64,177.44 97.32,145 126.25,124.3 128.03,123.01 129.84,121.78 131.66,120.59 153.33,106.42 176.82,99 201,99 201.86,99 202.72,99.01 203.58,99.03 Z M 203.58,99.03" />
    <rect id="blazeHole77-end" stroke="none" fill="rgb(128, 128, 128)" x="197" y="180" width="1" height="1" />
    <rect id="blazeHole77-ball" stroke="none" fill="rgb(128, 128, 128)" x="284" y="521" width="1" height="1" />
    <path id="blazeHole77-wall2" stroke="none" fill="rgb(255, 209, 134)" d="M 203.36,109.03 C 202.57,109.01 201.79,109 201,109 178.82,109 157.23,115.83 137.13,128.96 135.43,130.07 133.74,131.23 132.07,132.43 104.7,152.02 81.11,183.02 64.02,221.86 L 62.58,215.95 C 68.17,220.46 73.05,226.56 79.78,236.56 80.14,237.1 85.41,245.06 86.87,247.18 88.85,250.06 92.94,254.08 99.38,259.56 102.03,261.82 104.97,264.24 109.06,267.55 109.25,267.71 117.34,274.23 119.72,276.17 123.57,279.3 126.76,281.95 129.73,284.49 133.73,287.91 137.2,291.03 140.27,293.99 146.99,300.47 151.73,306.14 154.48,311.32 158.07,318.11 158.36,324.46 154.32,329.63 146.99,339.02 127.84,336.37 100.12,325.83 77.82,317.35 52.07,304.12 35.09,292.62 L 42.79,289.48 C 37.65,314.65 35,341.05 35,368 35,389.5 36.68,410.65 39.98,431.13 L 30.34,430.22 C 39.26,405.54 48.1,384.73 55.94,370.47 60.31,362.53 64.36,356.6 68.14,352.82 73.16,347.8 78.45,345.89 83.44,348.87 91.46,353.64 93.64,366.58 92.42,387.96 91.52,403.87 88.77,423.46 83.91,451.42 83.2,455.46 82.46,459.67 81.56,464.66 73.05,512.18 72.11,517.78 70.99,530.51 L 70.47,527.82 C 101.9,590.13 149.69,627 201,627 281.99,627 351.52,535 364.76,410.58 L 373.02,414.88 C 367.57,419.62 361.53,423.98 355.01,427.82 337.6,438.11 283.4,454.54 231.64,465.54 204.78,471.25 181.12,474.94 163.88,475.93 154.28,476.48 146.67,476.2 141.16,474.99 133.88,473.39 129.24,469.86 129.17,463.86 129.02,451.17 147.43,439.23 184.6,423.02 194.43,418.74 205.31,414.28 219.07,408.86 220.01,408.49 255.83,394.53 264.93,390.84 280.38,384.59 290.66,379.95 297.02,376.19 301.09,373.79 316.5,364.5 316.15,364.7 319.66,362.6 322.69,360.81 325.59,359.12 344.97,347.84 358.78,341.26 370.21,338.75 L 366.29,343.93 C 363.6,298.51 353.3,255.59 336.61,218.81 L 345.99,218.07 C 338.1,246.69 329.67,271.93 321.89,289.6 317.56,299.42 313.46,306.87 309.57,311.75 304.45,318.16 298.93,321.01 293.28,318.07 290.63,316.7 288.54,314.39 286.94,311.33 279.89,297.86 280.7,269.07 286.84,215.38 287.35,210.87 287.9,206.19 288.6,200.34 292.84,164.85 293.11,162.48 294.09,151.27 L 295.4,155.09 C 268.42,125.89 236.61,109.75 203.36,109.03 Z M 203.36,109.03" />
</svg>
