<?xml version="1.0" encoding="UTF-8"?>
<!DOCTYPE svg PUBLIC "-//W3C//DTD SVG 1.1//EN" "http://www.w3.org/Graphics/SVG/1.1/DTD/svg11.dtd">
<svg version="1.1" xmlns="http://www.w3.org/2000/svg" xmlns:xlink="http://www.w3.org/1999/xlink" width="400" height="700"  xml:space="preserve" id="blazeHole44">
    <!-- Generated by PaintCode - http://www.paintcodeapp.com -->
    <defs>
        <radialGradient id="blazeHole44-gradient-bezier3" cx="191.39" cy="380.53"  r="279.54" fx="205.09" fy="366.83" gradientUnits="userSpaceOnUse" >
            <stop offset="0.047" stop-color="rgb(255, 209, 134)" stop-opacity="1" />
            <stop offset="1" stop-color="rgb(163, 117, 42)" stop-opacity="1" />
        </radialGradient>
        <filter id="blazeHole44-shadow-outer" filterUnits="userSpaceOnUse">
            <feGaussianBlur stdDeviation="4" />
            <feOffset dx="0" dy="-0" result="blur" />
            <feFlood flood-color="rgb(0, 0, 0)" flood-opacity="1" />
            <feComposite in2="blur" operator="in" result="colorShadow" />
            <feComposite in="SourceGraphic" in2="colorShadow" operator="over" />
        </filter>
        <radialGradient id="blazeHole44-gradient-wall" cx="189.58" cy="380.53"  r="279.54" fx="203.28" fy="366.83" gradientUnits="userSpaceOnUse" >
            <stop offset="0.047" stop-color="rgb(255, 209, 134)" stop-opacity="1" />
            <stop offset="1" stop-color="rgb(163, 117, 42)" stop-opacity="1" />
        </radialGradient>
    </defs>
    <rect id="blazeHole44-end" stroke="none" fill="rgb(128, 128, 128)" x="147" y="593" width="1" height="1" />
    <rect id="blazeHole44-ball" stroke="none" fill="rgb(128, 128, 128)" x="320" y="133" width="1" height="1" />
    <path id="blazeHole44-bezier3" stroke="none" fill="url(#blazeHole44-gradient-bezier3)" filter="url(#blazeHole44-shadow-outer)" d="M 331.17,195.56 C 328.91,202.06 327.78,206.48 327.64,208.8 327.62,209.15 327.63,209.38 327.64,209.47 327.61,209.27 327.5,208.97 327.24,208.59 326.81,207.95 326.14,207.44 325.35,207.19 324.77,207 324.27,206.99 323.89,207.07 324.87,206.88 328.17,204.09 335.98,196.71 336.32,196.39 336.61,196.11 336.89,195.85 343.34,189.78 346.97,186.74 350.43,184.99 357.58,181.39 363.3,185.36 363,194.09 362.88,197.62 362.5,201.1 361.87,204.64 360.13,214.36 357.12,222.8 349.47,240.99 337.79,268.72 334.4,277.16 327.7,296.48 325.64,302.4 324.8,306.5 324.96,308.64 324.98,308.93 325.02,309.1 325.04,309.17 325,309.06 324.9,308.89 324.73,308.71 324.5,308.46 324.21,308.27 323.91,308.16 323.72,308.09 323.6,308.07 323.54,308.07 325.56,308.06 331.17,304.68 338.62,298.74 339.94,297.69 341.31,296.57 342.78,295.35 344.26,294.11 345.77,292.83 347.63,291.24 348.16,290.79 351.24,288.13 352.07,287.43 355.53,284.47 357.49,282.88 359.01,281.86 360.81,280.66 361.92,280.13 363.84,280.33 366.54,280.61 368.39,282.78 368.53,285.28 368.59,286.34 368.38,287.19 368.01,288.14 367.28,289.99 365.45,292.92 362.1,297.71 356.63,305.53 347.26,314.12 332.87,325.12 327.29,329.38 321.19,333.85 312.63,339.97 314.43,338.69 295.87,351.92 290.81,355.58 271.46,369.56 258.05,380.11 246.88,390.61 233.3,403.37 224.43,414.97 220.48,425.71 217.64,433.41 217.37,440.6 219.77,447.51 226.47,466.83 229.86,475.27 241.54,503.01 249.19,521.19 252.2,529.63 253.94,539.35 254.57,542.89 254.95,546.37 255.07,549.9 255.34,557.81 252.72,563.31 247.18,565.43 242.98,567.05 238.07,566.33 232.43,564.05 229.83,562.99 227.12,561.62 224.36,559.99 222.15,558.69 220.02,557.31 218.04,555.92 216.85,555.08 215.96,554.42 215.45,554.02 L 223.52,550.07 C 223.55,573.58 215.24,592.86 199.68,607.99 186.32,620.98 167.95,630.63 145.47,637.43 127.19,642.97 106.82,646.45 84.9,648.32 69.53,649.63 56.57,650 40,650 22.61,650 16.02,641.35 20.22,626.47 21.72,621.17 24.44,615.03 28.92,606.34 30.75,602.8 39.43,586.62 41.77,582.1 48.4,569.31 53.16,558.81 56.76,548.44 59.02,541.93 60.15,537.51 60.29,535.19 60.31,534.84 60.3,534.61 60.29,534.52 60.32,534.72 60.43,535.02 60.69,535.41 61.12,536.04 61.8,536.55 62.58,536.8 63.16,536.99 63.66,537 64.04,536.92 63.06,537.11 59.76,539.9 51.95,547.29 51.61,547.6 51.32,547.88 51.04,548.14 44.6,554.21 40.96,557.25 37.5,559 30.35,562.6 24.63,558.64 24.93,549.9 25.33,538.44 30.21,522.11 39.17,499.34 40.62,495.65 42.18,491.8 43.92,487.57 46.05,482.39 52.99,465.87 53.35,465 56.68,456.99 58.79,451.67 60.23,447.51 60.49,446.77 60.58,446.31 60.58,446.19 60.59,446.75 60.9,447.55 61.67,448.21 62.05,448.54 62.46,448.75 62.86,448.86 63.07,448.92 63.21,448.94 63.29,448.94 63.11,448.94 62.68,449.02 62.06,449.22 59.14,450.12 54.85,452.36 47.17,456.86 46.88,457.02 46.58,457.2 46.24,457.4 33.51,464.86 30.5,466.47 26.7,467.1 21.35,467.98 17.59,464.01 19.02,458.53 19.77,455.7 21.96,451.82 25.83,446.28 32.23,437.14 41.85,427.2 56.51,414.02 63.35,407.87 91.58,383.51 98.09,377.72 135.01,344.89 156.98,319.63 168.28,292.89 175.27,276.37 176.37,263.01 172.73,251.54 169.88,242.54 164.56,235.18 155.28,225.98 153.6,224.31 147.77,218.71 147.8,218.74 144.84,215.86 142.74,213.7 140.89,211.53 135.8,205.61 133.07,200.17 132.86,194.09 132.59,186.18 135.21,180.68 140.75,178.56 144.95,176.95 149.86,177.66 155.5,179.95 158.11,181 160.81,182.38 163.57,184 165.78,185.3 167.91,186.69 169.89,188.07 171.08,188.91 171.97,189.57 172.48,189.97 L 164.41,193.92 C 164.4,171.22 173.37,152.63 190.06,138.09 204.29,125.69 223.81,116.49 247.66,109.99 267.01,104.72 288.53,101.39 311.58,99.6 327.65,98.36 341.13,98 358,98 374.77,98 380.74,105.98 375,119.23 373.09,123.64 370.09,128.63 364.91,136.35 363.97,137.75 362.98,139.2 361.59,141.25 361.22,141.79 359.91,143.71 359.86,143.79 359.16,144.82 358.61,145.61 358.08,146.39 355.18,150.67 352.95,154.02 350.78,157.38 341.72,171.43 335.37,183.47 331.17,195.56 Z M 331.17,195.56" />
    <path id="blazeHole44-wall" stroke="none" fill="url(#blazeHole44-gradient-wall)" filter="url(#blazeHole44-shadow-outer)" d="M 321.72,192.28 C 326.22,179.32 332.92,166.62 342.37,151.97 344.59,148.52 346.86,145.11 349.81,140.77 350.35,139.99 350.89,139.19 351.59,138.15 351.65,138.07 352.96,136.16 353.33,135.61 354.71,133.59 355.68,132.15 356.61,130.78 361.46,123.55 364.23,118.94 365.82,115.26 366.63,113.39 367.06,111.91 367.14,110.83 367.19,110.17 367.11,109.88 367,109.72 366.79,109.44 366.21,109.09 365.07,108.75 363.43,108.27 361.08,108 358,108 341.37,108 328.12,108.35 312.35,109.57 289.88,111.32 268.96,114.55 250.29,119.64 201.79,132.86 174.4,156.72 174.41,193.91 174.41,198.08 169.63,200.42 166.34,197.86 166.26,197.8 166.07,197.65 165.79,197.45 165.31,197.09 164.76,196.69 164.14,196.26 162.37,195.01 160.47,193.77 158.51,192.62 156.14,191.23 153.86,190.07 151.75,189.22 148.25,187.8 145.59,187.41 144.33,187.89 143.4,188.25 142.72,189.68 142.86,193.74 142.97,197.15 144.73,200.66 148.48,205.02 150.1,206.91 152.01,208.88 154.77,211.57 154.69,211.48 160.58,217.15 162.33,218.88 172.65,229.12 178.83,237.66 182.26,248.52 186.66,262.39 185.36,278.17 177.49,296.79 165.45,325.27 142.7,351.44 104.73,385.19 98.14,391.05 69.94,415.4 63.2,421.46 49.06,434.17 39.88,443.65 34.03,452.02 30.81,456.62 29.05,459.73 28.7,461.07 28.69,461.11 28.69,461.11 28.69,461.08 28.7,460.96 28.71,460.81 28.69,460.62 28.63,459.89 28.3,459.09 27.65,458.41 27.02,457.74 26.27,457.38 25.57,457.26 25.28,457.22 25.13,457.22 25.07,457.23 26.97,456.92 30.6,454.98 41.19,448.77 41.52,448.57 41.83,448.39 42.12,448.22 50.56,443.29 55.15,440.88 59.11,439.66 67.22,437.16 72.75,441.95 69.68,450.79 68.15,455.19 65.99,460.65 62.58,468.84 62.21,469.74 55.29,486.23 53.16,491.38 51.44,495.56 49.91,499.37 48.48,503 39.93,524.71 35.27,540.31 34.93,550.25 34.9,551.1 34.95,551.67 35.02,551.92 34.95,551.68 34.68,551.25 34.12,550.86 33.48,550.42 32.83,550.29 32.36,550.35 32.37,550.35 32.61,550.27 33,550.07 35.25,548.94 38.54,546.18 44.18,540.86 44.46,540.6 44.75,540.33 45.08,540.02 50.47,534.93 51.49,533.98 53.64,532.16 57.11,529.23 59.62,527.59 62.16,527.1 64.76,526.61 67.35,527.44 68.95,529.76 70.09,531.44 70.41,533.39 70.27,535.77 70.07,539.25 68.75,544.4 66.21,551.71 62.42,562.62 57.48,573.52 50.65,586.7 48.27,591.3 39.59,607.48 37.81,610.93 33.61,619.06 31.11,624.71 29.84,629.19 28.62,633.51 28.73,636.13 29.72,637.42 30.88,638.95 34.08,640 40,640 56.31,640 69.02,639.63 84.05,638.35 105.32,636.54 125.03,633.17 142.58,627.86 187.99,614.11 213.57,589.24 213.52,550.08 213.51,545.92 218.3,543.57 221.59,546.13 221.67,546.2 221.86,546.34 222.14,546.55 222.62,546.9 223.17,547.3 223.79,547.74 225.56,548.98 227.46,550.22 229.43,551.37 231.79,552.76 234.08,553.92 236.18,554.78 239.68,556.19 242.34,556.58 243.6,556.1 244.53,555.74 245.21,554.31 245.07,550.25 244.97,547.2 244.64,544.19 244.09,541.11 242.53,532.36 239.69,524.39 232.32,506.89 220.56,478.95 217.12,470.38 210.32,450.79 207.13,441.59 207.49,432.05 211.09,422.26 215.68,409.79 225.42,397.05 240.03,383.32 251.59,372.46 265.29,361.69 284.95,347.47 290.04,343.79 308.63,330.54 306.81,331.84 315.29,325.77 321.32,321.36 326.8,317.17 340.42,306.76 349.18,298.72 353.9,291.98 355.43,289.79 356.6,288.05 357.43,286.72 358.15,285.57 358.58,284.79 358.7,284.47 358.69,284.51 358.67,284.58 358.64,284.71 358.56,285.02 358.52,285.39 358.54,285.85 358.67,288.03 360.37,290.02 362.79,290.27 363.43,290.34 363.94,290.28 364.4,290.15 364.61,290.09 364.75,290.03 364.87,289.98 364.87,289.98 364.75,290.05 364.57,290.17 362.87,291.31 348.23,303.82 349.18,303.03 347.66,304.3 346.23,305.47 344.85,306.56 335.38,314.11 328.86,318.04 323.6,318.07 318.65,318.1 315.39,314.64 314.99,309.41 314.69,305.58 315.78,300.31 318.25,293.2 325.05,273.61 328.49,265.04 340.25,237.11 347.62,219.6 350.46,211.64 352.02,202.88 352.57,199.81 352.9,196.8 353,193.74 353.03,192.89 352.98,192.32 352.91,192.07 352.98,192.32 353.25,192.74 353.81,193.13 354.45,193.57 355.1,193.7 355.57,193.64 355.56,193.64 355.32,193.73 354.94,193.92 352.69,195.06 349.4,197.81 343.75,203.13 343.47,203.39 343.18,203.66 342.85,203.97 337.46,209.06 336.45,210.01 334.29,211.83 330.83,214.76 328.31,216.4 325.77,216.89 323.18,217.39 320.58,216.56 318.99,214.23 317.84,212.56 317.52,210.6 317.66,208.23 317.86,204.74 319.19,199.59 321.72,192.28 Z M 321.72,192.28" />
</svg>
