<?xml version="1.0" encoding="UTF-8"?>
<!DOCTYPE svg PUBLIC "-//W3C//DTD SVG 1.1//EN" "http://www.w3.org/Graphics/SVG/1.1/DTD/svg11.dtd">
<svg version="1.1" xmlns="http://www.w3.org/2000/svg" xmlns:xlink="http://www.w3.org/1999/xlink" width="400" height="700"  xml:space="preserve" id="blazeHole66">
    <!-- Generated by PaintCode - http://www.paintcodeapp.com -->
    <defs>
        <pattern id="blazeHole66-pattern1-bezier2" x="36" y="146" width="100" height="100" patternUnits="userSpaceOnUse" viewBox="0 0 100 100">
            <image xlink:href="images/pattern1.jpg" x="0" y="0" width="100" height="100" />
        </pattern>
    </defs>
    <path id="blazeHole66-bezier3" stroke="rgb(142, 109, 53)" stroke-width="24" stroke-miterlimit="10" fill="none" d="M 199,139.5 C 195.22,139.5 191.57,140.08 188.15,141.16 173.57,145.77 163,159.4 163,175.5 163,195.38 179.12,211.5 199,211.5 218.88,211.5 235,195.38 235,175.5 235,155.62 218.88,139.5 199,139.5 Z M 116.08,234.66 C 113.65,251.06 191.21,278.73 206.86,276.23 222.5,273.73 232.95,257.74 230.2,240.52 227.44,223.3 205.85,229.38 190.2,231.89 174.56,234.39 118.5,218.27 116.08,234.66 Z M 205,328.5 C 183.61,332.78 152.82,335.29 157.53,358.84 162.24,382.4 183.4,398.03 204.8,393.75 226.19,389.48 313,316.5 302,296.5 301.08,294.82 299.78,293.62 298.15,292.83 280.46,284.21 224.6,324.58 205,328.5 Z M 189,431.5 C 148.13,431.5 115,464.63 115,505.5 115,546.37 148.13,579.5 189,579.5 229.87,579.5 263,546.37 263,505.5 263,480.15 250.26,457.78 230.82,444.44 218.93,436.28 204.52,431.5 189,431.5 Z M 362,355.5 C 362,523.39 293.95,659.5 210,659.5 153.08,659.5 79.01,668.13 39,516.5 20,444.5 89,331.55 89,277.5 89,228.95 78.8,189.5 68.92,157.83 62.89,138.51 56.98,122.09 53.57,108.26 51.05,98.03 49.9,89.22 51.08,81.7 52.31,73.86 56.07,67.42 63.47,62.26 78.05,52.08 106.77,46.84 158,45.5 349,40.5 362,187.61 362,355.5 Z M 362,355.5" />
    <path id="blazeHole66-bezier2" stroke="none" fill="url(#blazeHole66-pattern1-bezier2)" d="M 199,140 C 195.22,140 191.57,140.58 188.15,141.66 173.57,146.27 163,159.9 163,176 163,195.88 179.12,212 199,212 218.88,212 235,195.88 235,176 235,156.12 218.88,140 199,140 Z M 116.08,235.16 C 113.65,251.56 191.21,279.23 206.86,276.73 222.5,274.23 232.95,258.24 230.2,241.02 227.44,223.8 205.85,229.88 190.2,232.39 174.56,234.89 118.5,218.77 116.08,235.16 Z M 205,329 C 183.61,333.28 152.82,335.79 157.53,359.34 162.24,382.9 183.4,398.53 204.8,394.25 226.19,389.98 313,317 302,297 301.08,295.32 299.78,294.12 298.15,293.33 280.46,284.71 224.6,325.08 205,329 Z M 189,432 C 148.13,432 115,465.13 115,506 115,546.87 148.13,580 189,580 229.87,580 263,546.87 263,506 263,480.65 250.26,458.28 230.82,444.94 218.93,436.78 204.52,432 189,432 Z M 362,356 C 362,523.89 293.95,660 210,660 153.08,660 79.01,668.63 39,517 20,445 89,332.05 89,278 89,229.45 78.8,190 68.92,158.33 62.89,139.01 56.98,122.59 53.57,108.76 51.05,98.53 49.9,89.72 51.08,82.2 52.31,74.36 56.07,67.92 63.47,62.76 78.05,52.58 106.77,47.34 158,46 349,41 362,188.11 362,356 Z M 362,356" />
    <path id="blazeHole66-wall" stroke="none" fill="rgb(255, 209, 134)" d="M 199,145 C 195.79,145 192.65,145.49 189.66,146.43 176.87,150.47 168,162.38 168,176 168,193.12 181.88,207 199,207 216.12,207 230,193.12 230,176 230,158.88 216.12,145 199,145 Z M 199,145" />
    <rect id="blazeHole66-end" stroke="none" fill="rgb(128, 128, 128)" x="197" y="618" width="1" height="1" />
    <rect id="blazeHole66-ball" stroke="none" fill="rgb(128, 128, 128)" x="133" y="162" width="1" height="1" />
    <path id="blazeHole66-wall2" stroke="none" fill="rgb(255, 209, 134)" d="M 199,135 C 221.64,135 240,153.36 240,176 240,198.64 221.64,217 199,217 176.36,217 158,198.64 158,176 158,157.98 169.73,142.24 186.65,136.9 190.61,135.64 194.76,135 199,135 Z M 199,135" />
    <path id="blazeHole66-wall3" stroke="none" fill="rgb(255, 209, 134)" d="M 121.02,235.9 C 120.83,237.16 123.69,240.62 129.84,244.79 136.35,249.19 145.73,253.94 156.59,258.41 177.19,266.88 199.63,272.82 206.07,271.79 218.87,269.74 227.59,256.4 225.26,241.81 224.09,234.48 217.91,232.93 202.93,235.28 201.39,235.52 199.86,235.78 197.59,236.18 197.21,236.25 195.9,236.48 195.92,236.48 195.26,236.6 194.75,236.69 194.26,236.77 193.01,236.99 191.97,237.17 190.99,237.32 185.56,238.19 180.64,237.73 160.92,235.14 158.32,234.8 156.39,234.55 154.5,234.32 143.11,232.92 135.35,232.4 129.45,232.87 123.62,233.33 121.22,234.57 121.02,235.9 Z M 121.02,235.9" />
    <path id="blazeHole66-wall4" stroke="none" fill="rgb(255, 209, 134)" d="M 111.13,234.43 C 112.22,227.04 118.7,223.69 128.66,222.9 135.43,222.37 143.69,222.91 155.72,224.39 157.64,224.63 159.6,224.88 162.22,225.23 180.26,227.59 185.45,228.08 189.41,227.45 190.34,227.3 191.33,227.13 192.54,226.92 193.02,226.84 193.51,226.75 194.17,226.63 194.15,226.64 195.46,226.4 195.84,226.34 198.18,225.92 199.76,225.65 201.38,225.4 209.98,224.05 216.13,223.82 221.47,225.16 228.95,227.04 233.83,232.09 235.13,240.23 238.31,260.08 226.13,278.71 207.65,281.67 198.73,283.09 175.11,276.84 152.79,267.66 141.35,262.95 131.39,257.91 124.23,253.07 115.07,246.86 110.17,240.93 111.13,234.43 Z M 111.13,234.43" />
    <path id="blazeHole66-wall5" stroke="none" fill="rgb(255, 209, 134)" d="M 205.98,333.9 C 204.46,334.21 202.86,334.51 200.78,334.89 199.96,335.04 196.92,335.6 196.25,335.72 194.47,336.04 193.06,336.31 191.7,336.57 168.6,341.06 160.07,346.53 162.43,358.36 166.62,379.31 185.24,393.07 203.81,389.35 213.09,387.5 239.38,368.92 262.15,347.85 274.1,336.79 284.02,326.06 290.39,317.13 296.72,308.24 298.95,301.83 297.62,299.41 297.21,298.67 296.69,298.18 295.96,297.82 290.29,295.06 276.17,299.8 253.15,311.64 251.08,312.7 248.92,313.83 246.43,315.14 244.57,316.12 236.81,320.23 234.84,321.27 230.45,323.57 227.07,325.31 223.97,326.83 216.08,330.72 210.38,333.02 205.98,333.9 Z M 205.98,333.9" />
    <path id="blazeHole66-wall6" stroke="none" fill="rgb(255, 209, 134)" d="M 204.02,324.1 C 207.32,323.44 212.4,321.38 219.56,317.86 222.56,316.38 225.87,314.68 230.18,312.42 232.14,311.38 239.9,307.28 241.77,306.29 244.29,304.97 246.48,303.82 248.58,302.75 260.2,296.77 268.99,292.76 276.68,290.18 286.81,286.77 294.57,286.02 300.34,288.83 302.92,290.09 304.98,292.03 306.38,294.59 310.26,301.64 306.97,311.08 298.53,322.93 291.71,332.51 281.36,343.71 268.94,355.19 244.8,377.52 217.51,396.81 205.78,399.16 181.57,404 157.86,386.49 152.63,360.33 150.47,349.56 154.37,341.27 163.12,335.66 169.42,331.61 177.45,329.15 189.79,326.75 191.19,326.48 192.64,326.21 194.45,325.88 195.12,325.76 198.16,325.2 198.97,325.06 201.01,324.68 202.56,324.39 204.02,324.1 Z M 204.02,324.1" />
    <path id="blazeHole66-wall7" stroke="none" fill="rgb(255, 209, 134)" d="M 189,437 C 150.89,437 120,467.89 120,506 120,544.11 150.89,575 189,575 227.11,575 258,544.11 258,506 258,482.97 246.64,461.86 227.99,449.07 216.6,441.25 203.13,437 189,437 Z M 189,437" />
    <path id="blazeHole66-wall8" stroke="none" fill="rgb(255, 209, 134)" d="M 189,427 C 205.16,427 220.61,431.87 233.65,440.82 254.98,455.46 268,479.64 268,506 268,549.63 232.63,585 189,585 145.37,585 110,549.63 110,506 110,462.37 145.37,427 189,427 Z M 189,427" />
    <path id="blazeHole66-wall9" stroke="none" fill="rgb(255, 209, 134)" d="M 367,356 C 367,526.3 297.65,665 210,665 207.6,665 205.72,665.01 201.18,665.04 175.41,665.24 163.16,664.65 147.94,661.45 123.44,656.31 102.7,644.87 84.61,624.65 63.74,601.32 46.93,566.64 34.17,518.28 26.93,490.84 31.07,457.45 44.41,413.2 47.97,401.4 51.95,389.48 57.63,373.27 58.11,371.88 65.39,351.25 67.41,345.43 70.95,335.21 73.63,327.09 75.88,319.66 81.3,301.79 84,288.38 84,278 84,237.11 77.34,202.11 64.14,159.82 62.82,155.58 61.48,151.39 59.7,145.93 59.38,144.94 59.06,143.95 58.62,142.61 58.88,143.42 57.81,140.11 57.56,139.35 56.71,136.75 56.09,134.85 55.5,133.02 52.3,123.08 50.27,116.26 48.72,109.95 45.84,98.29 44.91,89.25 46.14,81.43 47.62,71.97 52.31,64.45 60.6,58.66 76.37,47.65 106.05,42.36 157.87,41 249.31,38.61 305.87,70.26 336.14,134.02 349.17,161.47 357.37,194.76 361.95,235.47 365.69,268.68 367,304.72 367,356 Z M 367,356" />
    <path id="blazeHole66-wall10" stroke="none" fill="rgb(255, 209, 134)" d="M 357,356 C 357,305.06 355.7,269.34 352.02,236.59 347.54,196.89 339.6,164.63 327.11,138.31 298.61,78.28 245.76,48.7 158.13,51 108.21,52.31 79.95,57.35 66.33,66.86 60.27,71.09 57.08,76.2 56.02,82.97 55.04,89.24 55.84,97.07 58.43,107.56 59.91,113.59 61.89,120.22 65.02,129.95 65.61,131.78 66.22,133.66 67.07,136.25 67.31,137.01 68.39,140.32 68.13,139.51 68.56,140.85 68.89,141.84 69.21,142.83 71,148.33 72.35,152.56 73.69,156.84 87.16,200.01 94,235.95 94,278 94,289.58 91.13,303.82 85.46,322.56 83.16,330.14 80.44,338.37 76.86,348.71 74.83,354.56 67.54,375.21 67.06,376.57 61.43,392.65 57.49,404.45 53.99,416.08 41.13,458.71 37.19,490.53 43.83,515.72 56.22,562.67 72.35,595.95 92.06,617.98 108.68,636.56 127.51,646.95 149.99,651.67 164.29,654.67 176.03,655.23 201.11,655.05 205.67,655.01 207.56,655 210,655 290.24,655 357,521.49 357,356 Z M 357,356" />
</svg>
