<?xml version="1.0" encoding="UTF-8"?>
<!DOCTYPE svg PUBLIC "-//W3C//DTD SVG 1.1//EN" "http://www.w3.org/Graphics/SVG/1.1/DTD/svg11.dtd">
<svg version="1.1" xmlns="http://www.w3.org/2000/svg" xmlns:xlink="http://www.w3.org/1999/xlink" width="400" height="700"  xml:space="preserve" id="blazeHole22">
    <!-- Generated by PaintCode - http://www.paintcodeapp.com -->
    <defs>
        <pattern id="blazeHole22-pattern1-bezier3" x="50" y="156" width="100" height="100" patternUnits="userSpaceOnUse" viewBox="0 0 100 100">
            <image xlink:href="images/pattern1.jpg" x="0" y="0" width="100" height="100" />
        </pattern>
        <pattern id="blazeHole22-pattern1-bezier" x="50" y="156" width="100" height="100" patternUnits="userSpaceOnUse" viewBox="0 0 100 100">
            <image xlink:href="images/pattern1.jpg" x="0" y="0" width="100" height="100" />
        </pattern>
    </defs>
    <path id="blazeHole22-bezier3" stroke="rgb(142, 109, 53)" stroke-width="28" stroke-linejoin="round" stroke-miterlimit="10" fill="url(#blazeHole22-pattern1-bezier3)" d="M 262.35,285.5 L 137.65,285.5 199,386 262.35,285.5 Z M 270.5,146.5 C 270.5,146.5 270,181.03 270,200 L 350,200 350,386 270,500 C 270,582.86 270,607 270,607 L 199,644 129,607 C 129,607 129,582.86 129,500 L 50,386 50,200 129,200 C 129,185.63 129.5,146.5 129.5,146.5 L 199,56 270.5,146.5 Z M 270.5,146.5" />
    <path id="blazeHole22-bezier" stroke="rgb(255, 209, 134)" stroke-width="1" stroke-miterlimit="10" fill="url(#blazeHole22-pattern1-bezier)" d="M 262.35,285.5 L 137.65,285.5 199,386 262.35,285.5 Z M 270.5,146.5 C 270.5,146.5 270,181.03 270,200 L 350,200 350,386 270,500 C 270,582.86 270,607 270,607 L 199,644 129,607 C 129,607 129,582.86 129,500 L 50,386 50,200 129,200 C 129,185.63 129.5,146.5 129.5,146.5 L 199,56 270.5,146.5 Z M 270.5,146.5" />
    <path id="blazeHole22-wall" stroke="none" fill="rgb(255, 209, 134)" d="M 262.35,290.5 L 137.65,290.5 141.91,282.89 203.27,383.39 194.77,383.33 258.12,282.83 262.35,290.5 Z M 262.35,290.5" />
    <rect id="blazeHole22-end" stroke="none" fill="rgb(128, 128, 128)" x="197" y="131" width="1" height="1" />
    <rect id="blazeHole22-ball" stroke="none" fill="rgb(128, 128, 128)" x="199" y="568" width="1" height="1" />
    <path id="blazeHole22-wall2" stroke="none" fill="rgb(255, 209, 134)" d="M 262.35,280.5 C 266.29,280.5 268.68,284.84 266.58,288.17 L 203.23,388.67 C 201.25,391.8 196.67,391.77 194.73,388.61 L 133.38,288.11 C 131.34,284.77 133.74,280.5 137.65,280.5 L 262.35,280.5 Z M 262.35,280.5" />
    <path id="blazeHole22-wall3" stroke="none" fill="rgb(255, 209, 134)" d="M 275.5,146.57 C 275.5,146.64 275.5,146.64 275.49,146.96 275.49,147.41 275.49,147.41 275.48,148.09 275.46,149.32 275.44,150.71 275.42,152.26 275.36,156.67 275.3,161.38 275.25,166.19 275.2,170.75 275.15,175.17 275.11,179.37 275.04,187.58 275,194.58 275,200 L 270,195 350,195 C 352.76,195 355,197.24 355,200 L 355,386 C 355,387.03 354.68,388.03 354.09,388.87 L 274.09,502.87 275,500 C 275,554.8 275,554.8 275,584.57 275,595.57 275,595.57 275,601.93 275,606.25 275,606.25 275,607 275,608.86 273.96,610.57 272.31,611.43 L 201.31,648.43 C 199.85,649.19 198.12,649.19 196.66,648.42 L 126.66,611.42 C 125.03,610.55 124,608.85 124,607 124,606.25 124,606.25 124,601.93 124,595.57 124,595.57 124,584.57 124,554.8 124,554.8 124,500 L 124.89,502.85 45.89,388.85 C 45.31,388.01 45,387.02 45,386 L 45,200 C 45,197.24 47.24,195 50,195 L 129,195 124,200 C 124,194.95 124.06,186.58 124.17,175.81 124.19,173.23 124.22,170.56 124.25,167.81 124.31,162.74 124.36,157.65 124.42,152.78 124.44,151.07 124.46,149.52 124.48,148.15 124.49,147.38 124.49,147.38 124.49,146.88 124.5,146.51 124.5,146.51 124.5,146.44 124.51,145.36 124.88,144.31 125.53,143.45 L 195.03,52.95 C 197.02,50.37 200.9,50.34 202.92,52.9 L 274.42,143.4 C 275.14,144.3 275.52,145.42 275.5,146.57 Z M 275.5,146.57" />
    <path id="blazeHole22-wall4" stroke="none" fill="rgb(255, 209, 134)" d="M 265.5,146.43 L 266.58,149.6 195.08,59.1 202.97,59.05 133.47,149.55 134.5,146.56 C 134.5,146.64 134.5,146.64 134.49,147.01 134.49,147.51 134.49,147.51 134.48,148.27 134.46,149.64 134.44,151.2 134.42,152.9 134.36,157.76 134.3,162.85 134.25,167.91 134.22,170.66 134.19,173.34 134.17,175.91 134.06,186.65 134,194.99 134,200 134,202.76 131.76,205 129,205 L 50,205 55,200 55,386 54.11,383.15 133.11,497.15 C 133.69,497.99 134,498.98 134,500 134,554.8 134,554.8 134,584.57 134,595.57 134,595.57 134,601.93 134,606.25 134,606.25 134,607 L 131.34,602.58 201.34,639.58 196.69,639.57 267.69,602.57 265,607 C 265,606.25 265,606.25 265,601.93 265,595.57 265,595.57 265,584.57 265,554.8 265,554.8 265,500 265,498.97 265.32,497.97 265.91,497.13 L 345.91,383.13 345,386 345,200 350,205 270,205 C 267.24,205 265,202.76 265,200 265,194.55 265.04,187.52 265.11,179.28 265.15,175.07 265.2,170.65 265.25,166.08 265.31,161.26 265.36,156.54 265.42,152.12 265.44,150.58 265.46,149.18 265.48,147.95 265.49,147.27 265.49,147.27 265.49,146.82 265.5,146.5 265.5,146.5 265.5,146.43 Z M 265.5,146.43" />
</svg>
