<?xml version="1.0" encoding="UTF-8"?>
<!DOCTYPE svg PUBLIC "-//W3C//DTD SVG 1.1//EN" "http://www.w3.org/Graphics/SVG/1.1/DTD/svg11.dtd">
<svg version="1.1" xmlns="http://www.w3.org/2000/svg" xmlns:xlink="http://www.w3.org/1999/xlink" width="400" height="700"  xml:space="preserve" id="blazeHole99">
    <!-- Generated by PaintCode - http://www.paintcodeapp.com -->
    <defs>
        <pattern id="blazeHole99-pattern1-oval2" x="36" y="148" width="100" height="100" patternUnits="userSpaceOnUse" viewBox="0 0 100 100">
            <image xlink:href="images/pattern1.jpg" x="0" y="0" width="100" height="100" />
        </pattern>
    </defs>
    <path id="blazeHole99-oval3" stroke="rgb(142, 109, 53)" stroke-width="24" stroke-linecap="round" stroke-linejoin="round" stroke-miterlimit="10" fill="none" d="M 366.5,241.5 C 366.5,336.2 278.5,178.5 232.5,272.5 194.53,350.09 271.96,435.5 232.5,435.5 145.24,435.5 49.5,744.37 49.5,571.5 49.5,482.42 18.33,344.89 49.5,241.5 65.84,187.3 109.31,232.29 168.5,160.5 215.5,103.5 170.75,43.07 208.5,43.5 384.5,45.5 366.5,68.63 366.5,241.5 Z M 366.5,241.5" />
    <path id="blazeHole99-oval2" stroke="none" fill="url(#blazeHole99-pattern1-oval2)" d="M 366.5,246 C 366.5,340.7 278.5,183 232.5,277 194.53,354.59 271.96,440 232.5,440 145.24,440 49.5,748.87 49.5,576 49.5,486.92 18.33,349.39 49.5,246 65.84,191.8 109.31,236.79 168.5,165 215.5,108 170.75,47.57 208.5,48 384.5,50 366.5,73.13 366.5,246 Z M 366.5,246" />
    <path id="blazeHole99-wall" stroke="none" fill="rgb(255, 209, 134)" d="M 372,241 C 372,265.62 365.92,277.61 352.48,277.58 347.38,277.56 341.71,275.7 334.43,272.08 331.63,270.68 328.64,269.06 324.79,266.86 323.09,265.9 316.33,261.99 314.66,261.04 302.08,253.86 293.56,249.82 285.05,247.54 264.87,242.11 249.8,249.04 237.49,274.2 234.54,280.24 232.25,286.46 230.59,292.88 226.88,307.2 226.31,322.33 228.38,338.64 230.04,351.66 233.16,364.45 238.15,380.52 239.29,384.21 243.95,398.65 245,402.05 247.33,409.66 248.67,415.04 249.25,419.64 250.85,432.44 245.67,440 233,440 226.94,440 220.57,441.73 213.87,445.16 191.36,456.68 167.81,484.72 137.26,532 130.47,542.51 108.22,578.15 104.24,584.33 92.46,602.67 84.26,613.93 77.2,620.8 72.7,625.17 68.61,627.77 64.53,628.41 59.39,629.22 54.99,626.79 52.01,621.84 47.19,613.82 45,597.55 45,571 45,546.86 43.75,530.4 38.1,469.29 34.44,429.77 32.65,406.43 31.7,381.08 29.59,324.6 33.36,278.87 45.21,239.56 49.07,226.77 54.63,218.26 62.51,212.66 68.79,208.2 75.14,206.03 87.49,203.29 106.62,199.03 112.07,197.49 122.46,192.4 137.04,185.25 150.95,174.03 165.14,156.82 167.5,153.96 169.64,151.06 171.59,148.11 179.36,136.32 183.91,123.91 186.05,110.34 187.65,100.22 187.84,91.9 187.37,76.65 186.89,61.14 187.05,56.21 189.02,50.46 191.88,42.08 198.5,37.88 209.06,38 252.9,38.5 281.33,40.3 302.79,44.32 326.44,48.74 342.21,56.1 352.79,68.02 363,79.51 368.35,95.09 370.74,118.04 372.61,135.91 372.77,150.87 372.26,200.18 372.08,217.93 372,228.62 372,241 Z M 372,241" />
    <rect id="blazeHole99-end" stroke="none" fill="rgb(128, 128, 128)" x="323" y="211" width="1" height="1" />
    <rect id="blazeHole99-ball" stroke="none" fill="rgb(128, 128, 128)" x="78" y="560" width="1" height="1" />
    <path id="blazeHole99-wall2" stroke="none" fill="rgb(255, 209, 134)" d="M 362,241 C 362,228.58 362.08,217.85 362.26,200.08 362.76,151.23 362.61,136.4 360.8,119.08 358.6,98.02 353.89,84.32 345.31,74.66 328.18,55.36 294.01,48.97 208.94,48 202.52,47.93 199.87,49.6 198.48,53.69 197.08,57.78 196.94,62.35 197.36,76.34 197.85,92.19 197.65,100.99 195.93,111.9 193.58,126.82 188.53,140.58 179.94,153.61 177.79,156.86 175.44,160.05 172.86,163.18 157.78,181.46 142.75,193.59 126.86,201.38 120.41,204.54 113.93,206.94 106.86,208.94 104.04,209.74 101.17,210.46 97.87,211.22 96.61,211.51 95.33,211.8 93.66,212.16 94.04,212.08 90.56,212.85 89.66,213.05 78.56,215.52 73.17,217.36 68.31,220.81 62.37,225.03 58.04,231.65 54.79,242.44 43.31,280.52 39.62,325.24 41.7,380.71 42.63,405.82 44.41,429.02 48.05,468.37 53.75,529.86 55,546.42 55,571 55,595.74 57.02,610.76 60.58,616.68 61.59,618.35 62.15,618.66 62.98,618.53 64.57,618.29 67.08,616.69 70.23,613.63 76.57,607.47 84.46,596.63 95.83,578.93 99.76,572.82 122.01,537.16 128.86,526.57 160.38,477.8 184.68,448.87 209.31,436.26 217.35,432.14 225.24,430 233,430 239.01,430 240.24,428.2 239.32,420.89 238.84,417 237.61,412.08 235.44,404.98 234.42,401.66 229.77,387.25 228.6,383.48 223.45,366.91 220.21,353.6 218.46,339.91 216.24,322.41 216.86,306.02 220.91,290.37 222.73,283.31 225.25,276.45 228.51,269.8 242.92,240.36 262.82,231.2 287.65,237.88 297.19,240.45 306.34,244.78 319.61,252.35 321.32,253.32 328.08,257.23 329.73,258.17 333.44,260.29 336.28,261.83 338.88,263.13 344.9,266.12 349.31,267.57 352.51,267.58 355.33,267.58 357.11,266.47 358.66,263.42 360.81,259.18 362,251.82 362,241 Z M 362,241" />
</svg>
