<?xml version="1.0" encoding="UTF-8"?>
<!DOCTYPE svg PUBLIC "-//W3C//DTD SVG 1.1//EN" "http://www.w3.org/Graphics/SVG/1.1/DTD/svg11.dtd">
<svg version="1.1" xmlns="http://www.w3.org/2000/svg" xmlns:xlink="http://www.w3.org/1999/xlink" width="400" height="700"  xml:space="preserve" id="blazeHole77">
    <!-- Generated by PaintCode - http://www.paintcodeapp.com -->
    <defs>
        <radialGradient id="blazeHole77-gradient-bezier2" cx="204.86" cy="344.2"  r="318.67" fx="217.36" fy="331.7" gradientUnits="userSpaceOnUse" >
            <stop offset="0.038" stop-color="rgb(255, 209, 134)" stop-opacity="1" />
            <stop offset="1" stop-color="rgb(163, 117, 42)" stop-opacity="1" />
        </radialGradient>
        <filter id="blazeHole77-shadow-outer" filterUnits="userSpaceOnUse">
            <feGaussianBlur stdDeviation="4" />
            <feOffset dx="0" dy="-0" result="blur" />
            <feFlood flood-color="rgb(0, 0, 0)" flood-opacity="1" />
            <feComposite in2="blur" operator="in" result="colorShadow" />
            <feComposite in="SourceGraphic" in2="colorShadow" operator="over" />
        </filter>
        <radialGradient id="blazeHole77-gradient-wall2" cx="204.86" cy="344.21"  r="318.67" fx="217.36" fy="331.71" gradientUnits="userSpaceOnUse" >
            <stop offset="0.038" stop-color="rgb(255, 209, 134)" stop-opacity="1" />
            <stop offset="1" stop-color="rgb(163, 117, 42)" stop-opacity="1" />
        </radialGradient>
        <radialGradient id="blazeHole77-gradient-bezier3" cx="180.39" cy="522.9"  r="318.67" fx="192.89" fy="510.4" gradientUnits="userSpaceOnUse" >
            <stop offset="0.038" stop-color="rgb(255, 209, 134)" stop-opacity="1" />
            <stop offset="1" stop-color="rgb(163, 117, 42)" stop-opacity="1" />
        </radialGradient>
        <radialGradient id="blazeHole77-gradient-wall" cx="180.25" cy="522.91"  r="318.67" fx="192.75" fy="510.41" gradientUnits="userSpaceOnUse" >
            <stop offset="0.038" stop-color="rgb(255, 209, 134)" stop-opacity="1" />
            <stop offset="1" stop-color="rgb(163, 117, 42)" stop-opacity="1" />
        </radialGradient>
    </defs>
    <rect id="blazeHole77-end" stroke="none" fill="rgb(128, 128, 128)" x="226" y="130" width="1" height="1" />
    <rect id="blazeHole77-ball" stroke="none" fill="rgb(128, 128, 128)" x="332" y="553" width="1" height="1" />
    <path id="blazeHole77-bezier2" stroke="none" fill="url(#blazeHole77-gradient-bezier2)" filter="url(#blazeHole77-shadow-outer)" d="M 250.67,51.29 C 254.34,52.58 257.08,53.69 260.9,55.64 266.63,58.57 272.2,62.25 277.44,66.85 288.36,76.45 296.64,89.03 301.23,104.94 306.76,124.15 306.61,147.34 299.86,174.83 299.85,174.86 299.85,174.86 299.84,174.89 299.39,176.73 298.97,178.65 298.47,181.05 298.18,182.5 296.96,188.65 296.62,190.31 295.77,194.45 294.96,198.22 293.99,202.35 291.47,213.07 288.15,225.22 283.51,240.31 271.56,279.13 251.7,334.46 221.08,412.68 220.99,412.9 220.9,413.11 220.78,413.31 207.88,436.31 209.39,451.14 222.57,461.63 233.66,470.46 251.25,475.9 281.34,481.35 283.96,481.83 286.67,482.31 290.1,482.9 291.3,483.11 297.17,484.12 298.79,484.4 320.53,488.18 331.57,490.67 340.91,494.52 365.63,504.72 379.36,543.77 370.72,577.54 366.03,595.86 355.27,611.09 338.89,620.88 320.51,631.86 295.83,635.62 265.28,631.18 228.86,625.89 145.12,606.48 111.35,594.64 86.21,585.83 69.2,563.77 59.13,531.96 51.53,507.97 48.29,479.69 48.45,451.41 48.51,441.35 51.8,435.14 58.73,432.74 63.38,431.13 66.42,431.28 78.69,432.75 86.98,433.74 91.94,434.03 97.49,433.56 104.68,432.94 111.21,430.95 117.42,427.16 131.31,418.69 143.35,401.35 153.32,372.39 172.83,316.14 180.34,275.5 178.36,245.42 177.54,232.94 175.11,222.37 171.15,212.67 168.01,204.99 164.34,198.54 158.26,189.4 157.54,188.32 154.03,183.1 153.06,181.64 146.26,171.36 142.41,164.18 139.66,155.46 136.23,144.58 135.28,132.64 137.04,118.39 142.22,76.48 160.66,53.17 188.72,45.88 208.2,40.81 229.63,43.85 250.67,51.29 Z M 250.67,51.29" />
    <path id="blazeHole77-wall2" stroke="none" fill="url(#blazeHole77-gradient-wall2)" filter="url(#blazeHole77-shadow-outer)" d="M 247.33,60.71 C 228.01,53.88 208.37,51.1 191.23,55.55 167.35,61.76 151.66,81.59 146.96,119.61 145.37,132.48 146.21,142.98 149.2,152.46 151.61,160.09 155.07,166.55 161.4,176.12 162.34,177.54 165.85,182.76 166.59,183.87 173,193.51 176.97,200.48 180.4,208.89 184.78,219.59 187.45,231.22 188.34,244.76 190.42,276.37 182.68,318.27 162.77,375.66 152.11,406.63 138.75,425.87 122.63,435.7 115.03,440.34 107.01,442.78 98.34,443.52 91.93,444.07 86.42,443.75 77.5,442.68 67.27,441.45 64.52,441.32 62,442.19 59.67,443 58.48,445.24 58.45,451.47 58.3,478.79 61.42,506.08 68.66,528.95 77.87,558.03 92.96,577.6 114.65,585.2 147.78,596.81 230.9,616.08 266.72,621.28 295.13,625.41 317.51,622.01 333.76,612.29 347.79,603.91 356.98,590.91 361.03,575.06 368.54,545.69 356.65,511.83 337.09,503.76 328.68,500.29 318.05,497.9 297.08,494.26 295.46,493.97 289.59,492.96 288.39,492.75 284.94,492.15 282.2,491.67 279.55,491.19 247.84,485.44 229.17,479.68 216.34,469.46 198.98,455.64 196.93,435.4 212.06,408.42 L 211.77,409.04 C 242.3,331.03 262.08,275.92 273.95,237.37 278.53,222.49 281.79,210.55 284.25,200.07 285.2,196.04 285.99,192.37 286.82,188.31 287.15,186.69 288.37,180.52 288.68,179.04 289.2,176.52 289.65,174.48 290.13,172.51 290.14,172.48 290.14,172.48 290.14,172.45 296.5,146.57 296.64,125.15 291.62,107.71 287.58,93.69 280.37,82.74 270.83,74.36 266.26,70.34 261.38,67.11 256.35,64.55 253.01,62.84 250.62,61.88 247.33,60.71 Z M 247.33,60.71" />
    <path id="blazeHole77-bezier3" stroke="none" fill="url(#blazeHole77-gradient-bezier3)" filter="url(#blazeHole77-shadow-outer)" d="M 132.57,537.78 C 140.27,548.19 165.07,559.5 193.51,566.18 220.58,572.53 243.8,572.69 248.1,567.34 247.91,567.58 247.72,568.54 248.18,569.47 248.31,569.72 248.39,569.82 248.37,569.8 248.14,569.62 247.75,569.39 247.21,569.14 244.11,567.68 238.21,566.28 228.4,564.6 228.38,564.6 201.82,560.36 193.53,558.8 175.75,555.47 162.35,551.75 152.08,546.74 138.6,540.17 131,531.4 131,519.89 131,506.3 133.45,494.47 137.97,481.77 138.64,479.9 139.33,478.07 140.2,475.84 140.27,475.66 141.77,471.82 142.15,470.82 143.43,467.46 144.07,465.46 144.29,464.01 144.38,463.45 144.38,463.08 144.35,462.9 144.36,462.97 144.44,463.13 144.56,463.25 144.58,463.28 144.48,463.22 144.18,463.11 143.59,462.9 142.71,462.73 141.55,462.62 135.94,462.12 128.96,473.19 125.92,490.04 122.57,508.51 124.94,527.47 132.57,537.78 Z M 132.57,537.78" />
    <path id="blazeHole77-wall" stroke="none" fill="url(#blazeHole77-gradient-wall)" filter="url(#blazeHole77-shadow-outer)" d="M 124.53,543.73 C 104.52,516.7 116.54,450.31 142.45,452.66 151.09,453.45 155.34,457.97 154.18,465.53 153.81,467.89 153.02,470.4 151.49,474.39 151.09,475.43 149.58,479.31 149.52,479.45 148.69,481.61 148.03,483.35 147.39,485.13 143.22,496.83 141,507.57 141,519.89 141,533.22 159.49,542.24 195.38,548.98 203.51,550.5 229.95,554.72 230.09,554.75 240.82,556.58 247.26,558.11 251.47,560.09 257.57,562.96 260.19,568.25 255.9,573.6 248.03,583.39 222.35,583.21 191.23,575.91 160.62,568.73 134.07,556.61 124.53,543.73 Z M 124.53,543.73" />
</svg>
