<?xml version="1.0" encoding="UTF-8"?>
<!DOCTYPE svg PUBLIC "-//W3C//DTD SVG 1.1//EN" "http://www.w3.org/Graphics/SVG/1.1/DTD/svg11.dtd">
<svg version="1.1" xmlns="http://www.w3.org/2000/svg" xmlns:xlink="http://www.w3.org/1999/xlink" width="400" height="700"  xml:space="preserve" id="blazeHole99">
    <!-- Generated by PaintCode - http://www.paintcodeapp.com -->
    <defs>
        <radialGradient id="blazeHole99-gradient-bezier2" cx="188.5" cy="167.5"  r="367.97" fx="198.78" fy="157.22" gradientUnits="userSpaceOnUse" >
            <stop offset="0.027" stop-color="rgb(255, 209, 134)" stop-opacity="1" />
            <stop offset="1" stop-color="rgb(163, 117, 42)" stop-opacity="1" />
        </radialGradient>
        <filter id="blazeHole99-shadow-outer" filterUnits="userSpaceOnUse">
            <feGaussianBlur stdDeviation="4" />
            <feOffset dx="0" dy="-0" result="blur" />
            <feFlood flood-color="rgb(0, 0, 0)" flood-opacity="1" />
            <feComposite in2="blur" operator="in" result="colorShadow" />
            <feComposite in="SourceGraphic" in2="colorShadow" operator="over" />
        </filter>
        <radialGradient id="blazeHole99-gradient-wall" cx="188.5" cy="167.5"  r="367.97" fx="198.78" fy="157.22" gradientUnits="userSpaceOnUse" >
            <stop offset="0.027" stop-color="rgb(255, 209, 134)" stop-opacity="1" />
            <stop offset="1" stop-color="rgb(163, 117, 42)" stop-opacity="1" />
        </radialGradient>
        <radialGradient id="blazeHole99-gradient-bezier3" cx="188.5" cy="354"  r="367.97" fx="198.78" fy="343.72" gradientUnits="userSpaceOnUse" >
            <stop offset="0.027" stop-color="rgb(255, 209, 134)" stop-opacity="1" />
            <stop offset="1" stop-color="rgb(163, 117, 42)" stop-opacity="1" />
        </radialGradient>
        <radialGradient id="blazeHole99-gradient-wall2" cx="188.5" cy="354"  r="367.97" fx="198.78" fy="343.72" gradientUnits="userSpaceOnUse" >
            <stop offset="0.027" stop-color="rgb(255, 209, 134)" stop-opacity="1" />
            <stop offset="1" stop-color="rgb(163, 117, 42)" stop-opacity="1" />
        </radialGradient>
        <radialGradient id="blazeHole99-gradient-bezier5" cx="188.5" cy="544.5"  r="367.97" fx="198.78" fy="534.22" gradientUnits="userSpaceOnUse" >
            <stop offset="0.027" stop-color="rgb(255, 209, 134)" stop-opacity="1" />
            <stop offset="1" stop-color="rgb(163, 117, 42)" stop-opacity="1" />
        </radialGradient>
        <radialGradient id="blazeHole99-gradient-wall3" cx="188.5" cy="544.5"  r="367.97" fx="198.78" fy="534.22" gradientUnits="userSpaceOnUse" >
            <stop offset="0.027" stop-color="rgb(255, 209, 134)" stop-opacity="1" />
            <stop offset="1" stop-color="rgb(163, 117, 42)" stop-opacity="1" />
        </radialGradient>
    </defs>
    <rect id="blazeHole99-end" stroke="none" fill="rgb(128, 128, 128)" x="195" y="66" width="1" height="1" />
    <rect id="blazeHole99-ball" stroke="none" fill="rgb(128, 128, 128)" x="196" y="626" width="1" height="1" />
    <path id="blazeHole99-bezier2" stroke="none" fill="url(#blazeHole99-gradient-bezier2)" filter="url(#blazeHole99-shadow-outer)" d="M 193.5,98 C 183.34,98 173.52,100.35 164.64,104.8 142.97,115.66 129,137.83 129,162.5 129,198.12 157.88,227 193.5,227 229.12,227 258,198.12 258,162.5 258,126.88 229.12,98 193.5,98 Z M 193.5,98" />
    <path id="blazeHole99-wall" stroke="none" fill="url(#blazeHole99-gradient-wall)" filter="url(#blazeHole99-shadow-outer)" d="M 193.5,88 C 234.65,88 268,121.35 268,162.5 268,203.65 234.65,237 193.5,237 152.35,237 119,203.65 119,162.5 119,134.01 135.14,108.4 160.16,95.86 170.42,90.72 181.77,88 193.5,88 Z M 193.5,88" />
    <path id="blazeHole99-bezier3" stroke="none" fill="url(#blazeHole99-gradient-bezier3)" filter="url(#blazeHole99-shadow-outer)" d="M 345,176.5 C 345,184.68 343.32,192.81 340.13,201.51 337.71,208.1 334.99,213.84 329.83,223.8 322.23,238.47 320.12,242.92 317.99,249.78 316.57,254.35 315.83,258.54 315.79,262.55 315.75,266.54 316.42,270.72 317.79,275.26 319.89,282.2 322.05,286.74 329.82,301.6 334.98,311.46 337.71,317.17 340.12,323.69 343.32,332.32 345,340.39 345,348.5 345,359.91 337.15,364.64 324.71,363.65 316.77,363.01 310.51,361.36 289.99,355.13 287.91,354.5 286.34,354.02 284.8,353.56 258.36,345.69 244.95,344.59 239.96,351.06 L 240.25,350.64 C 237.34,355.32 240.38,363.41 250.46,376.15 254.88,381.73 260.3,387.83 268.6,396.72 270.97,399.26 280.15,409.02 279.43,408.24 283.95,413.06 287.41,416.78 290.79,420.49 307.03,438.32 318.66,452.95 327.62,467.78 338.85,486.39 344.88,504.09 345,521.47 345,603.54 277.15,670 193.5,670 109.94,670 42,603.13 42,521 42.23,502.39 48.3,484.47 59.55,466.43 68.49,452.08 80.01,438.47 96.35,421.9 101.38,416.79 117.85,400.6 119.17,399.28 127.46,391.01 133.06,384.98 137.47,379.43 147.58,366.72 150.14,357.89 145.72,350.59 L 146.04,351.06 C 141.06,344.61 127.8,345.69 101.73,353.53 100.18,353.99 98.59,354.48 96.49,355.12 76.14,361.37 69.98,363.01 62.12,363.65 49.79,364.64 42,359.89 42,348.5 42,340.19 43.68,331.98 46.88,323.23 49.28,316.63 51.93,311.02 57.18,300.82 61.46,292.5 62.43,290.58 64.15,286.86 68.59,277.26 70.88,269.66 71.22,262.27 71.55,255.01 69.58,247.48 65.29,238.13 63.37,233.94 62.16,231.62 57.22,222.41 51.99,212.65 49.32,207.22 46.9,200.86 43.68,192.42 42,184.5 42,176.5 42,126.12 67.79,80.04 109.8,52.7 110.89,51.99 111.99,51.3 113.1,50.61 L 113.24,50.53 C 137.12,35.88 164.72,28 193.5,28 277.15,28 345,94.46 345,176.5 Z M 345,176.5" />
    <path id="blazeHole99-wall2" stroke="none" fill="url(#blazeHole99-gradient-wall2)" filter="url(#blazeHole99-shadow-outer)" d="M 335,176.5 C 335,100.03 271.67,38 193.5,38 166.58,38 140.78,45.37 118.47,59.05 L 118.34,59.13 C 117.3,59.77 116.27,60.42 115.25,61.08 76.04,86.61 52,129.56 52,176.5 52,188.65 55.75,198.52 66.03,217.68 71.09,227.11 72.33,229.51 74.38,233.96 79.28,244.63 81.62,253.61 81.21,262.73 80.81,271.63 78.17,280.38 73.23,291.06 71.43,294.96 70.43,296.93 66.08,305.39 55.75,325.46 52,335.72 52,348.5 52,352.97 54.12,354.26 61.32,353.68 68.12,353.13 74.12,351.52 93.56,345.56 95.67,344.91 97.28,344.42 98.85,343.95 112.36,339.89 121.36,337.76 129.48,337.09 140.6,336.18 148.9,338.4 153.96,344.94 154.07,345.09 154.18,345.25 154.28,345.41 161.43,357.23 157.73,370.03 145.3,385.66 140.6,391.57 134.77,397.83 126.23,406.36 124.86,407.73 108.43,423.88 103.47,428.91 87.61,445.01 76.51,458.12 68.03,471.72 57.69,488.31 52.2,504.51 52,521.06 52,597.57 115.43,660 193.5,660 271.67,660 335,597.97 335,521.5 334.9,506.17 329.43,490.14 319.05,472.95 310.5,458.78 299.24,444.61 283.4,427.22 280.06,423.56 276.63,419.88 272.14,415.09 272.88,415.88 263.68,406.1 261.29,403.54 252.82,394.47 247.25,388.2 242.62,382.36 230.08,366.52 225.76,355.01 231.75,345.36 231.84,345.22 231.94,345.08 232.04,344.94 237.11,338.39 245.47,336.17 256.69,337.09 264.89,337.77 273.96,339.9 287.66,343.98 289.21,344.44 290.8,344.92 292.89,345.56 312.51,351.51 318.62,353.13 325.51,353.68 332.83,354.26 335,352.95 335,348.5 335,336.09 331.18,325.77 320.96,306.24 312.86,290.74 310.58,285.94 308.22,278.15 306.57,272.69 305.73,267.52 305.79,262.45 305.84,257.4 306.75,252.25 308.44,246.81 310.82,239.16 313.04,234.47 320.95,219.19 331.18,199.47 335,189.05 335,176.5 Z M 335,176.5" />
    <path id="blazeHole99-bezier5" stroke="none" fill="url(#blazeHole99-gradient-bezier5)" filter="url(#blazeHole99-shadow-outer)" d="M 193.5,496 C 169.48,496 150,515.48 150,539.5 150,563.52 169.48,583 193.5,583 217.52,583 237,563.52 237,539.5 237,526.37 231.15,514.2 221.23,505.99 213.49,499.57 203.77,496 193.5,496 Z M 193.5,496" />
    <path id="blazeHole99-wall3" stroke="none" fill="url(#blazeHole99-gradient-wall3)" filter="url(#blazeHole99-shadow-outer)" d="M 193.5,486 C 206.13,486 218.09,490.39 227.61,498.29 239.8,508.38 247,523.36 247,539.5 247,569.05 223.05,593 193.5,593 163.95,593 140,569.05 140,539.5 140,509.95 163.95,486 193.5,486 Z M 193.5,486" />
</svg>
