<?xml version="1.0" encoding="UTF-8"?>
<!DOCTYPE svg PUBLIC "-//W3C//DTD SVG 1.1//EN" "http://www.w3.org/Graphics/SVG/1.1/DTD/svg11.dtd">
<svg version="1.1" xmlns="http://www.w3.org/2000/svg" xmlns:xlink="http://www.w3.org/1999/xlink" width="400" height="700"  xml:space="preserve" id="blazeHole66">
    <!-- Generated by PaintCode - http://www.paintcodeapp.com -->
    <defs>
        <radialGradient id="blazeHole66-gradient-bezier" cx="192.5" cy="365.95"  r="287.51" fx="202.86" fy="355.59" gradientUnits="userSpaceOnUse" >
            <stop offset="0.035" stop-color="rgb(255, 209, 134)" stop-opacity="1" />
            <stop offset="1" stop-color="rgb(163, 117, 42)" stop-opacity="1" />
        </radialGradient>
        <filter id="blazeHole66-shadow-outer" filterUnits="userSpaceOnUse">
            <feGaussianBlur stdDeviation="4" />
            <feOffset dx="0" dy="-0" result="blur" />
            <feFlood flood-color="rgb(0, 0, 0)" flood-opacity="1" />
            <feComposite in2="blur" operator="in" result="colorShadow" />
            <feComposite in="SourceGraphic" in2="colorShadow" operator="over" />
        </filter>
        <radialGradient id="blazeHole66-gradient-wall2" cx="192.5" cy="365.95"  r="287.51" fx="202.86" fy="355.59" gradientUnits="userSpaceOnUse" >
            <stop offset="0.035" stop-color="rgb(255, 209, 134)" stop-opacity="1" />
            <stop offset="1" stop-color="rgb(163, 117, 42)" stop-opacity="1" />
        </radialGradient>
        <radialGradient id="blazeHole66-gradient-bezier3" cx="192.5" cy="259"  r="287.51" fx="202.86" fy="248.64" gradientUnits="userSpaceOnUse" >
            <stop offset="0.035" stop-color="rgb(255, 209, 134)" stop-opacity="1" />
            <stop offset="1" stop-color="rgb(163, 117, 42)" stop-opacity="1" />
        </radialGradient>
        <radialGradient id="blazeHole66-gradient-wall1" cx="192.5" cy="259"  r="287.51" fx="202.86" fy="248.64" gradientUnits="userSpaceOnUse" >
            <stop offset="0.035" stop-color="rgb(255, 209, 134)" stop-opacity="1" />
            <stop offset="1" stop-color="rgb(163, 117, 42)" stop-opacity="1" />
        </radialGradient>
    </defs>
    <rect id="blazeHole66-end" stroke="none" fill="rgb(128, 128, 128)" x="193" y="141" width="1" height="1" />
    <rect id="blazeHole66-ball" stroke="none" fill="rgb(128, 128, 128)" x="195" y="592" width="1" height="1" />
    <path id="blazeHole66-bezier" stroke="none" fill="url(#blazeHole66-gradient-bezier)" filter="url(#blazeHole66-shadow-outer)" d="M 283.58,52.03 C 309.4,55.02 332.09,79.68 347.56,113.94 350.78,121.07 351.08,127.39 348.7,133.05 346.93,137.27 344.33,140.28 339.47,144.66 339.25,144.85 339.04,145.04 338.75,145.3 338.4,145.62 338.22,145.78 338.06,145.93 337.51,146.42 337.11,146.78 336.73,147.12 330.87,152.52 330.35,154.7 335.22,160.9 359.55,191.74 373,229.85 373,270 373,286.04 368.23,301.57 359.18,317.48 352.14,329.88 343.42,341.35 329.66,357.31 327.87,359.39 317.88,370.84 315.15,374.03 309.86,380.21 305.88,385.12 302.48,389.75 294.38,400.76 289.96,409.78 288.96,417.99 L 289,417.39 C 289,442.19 291.83,463.71 298.52,498.66 298.21,497.04 301.28,512.96 302.05,517.11 303.34,523.96 304.33,529.58 305.16,534.88 307.19,547.83 308.22,558.6 308.22,568.6 308.22,592.55 302.11,611.99 287.85,629.19 242.6,683.76 152.4,683.76 107.15,629.19 92.89,611.99 86.78,592.55 86.78,568.6 86.78,558.6 87.81,547.83 89.84,534.88 90.67,529.58 91.66,523.96 92.95,517.11 93.72,512.96 96.79,497.04 96.48,498.66 103.17,463.71 106,442.19 106,417.39 L 106.03,417.94 C 105.25,410.88 100.95,402.5 92.8,391.65 89.42,387.14 85.49,382.33 79.98,375.87 78.91,374.61 68.42,362.44 65.26,358.69 51.86,342.83 42.86,330.67 35.78,317.89 26.77,301.65 22,285.94 22,270 22,236.3 31.47,203.99 49.03,176.11 L 48.85,176.42 C 52.97,168.7 51.65,163.83 44.69,154.95 44.32,154.47 43.92,153.97 43.42,153.34 43.19,153.05 42.3,151.95 42.09,151.69 36.89,145.19 34.34,141.32 32.54,136.19 30.1,129.26 30.27,121.96 33.43,113.91 45.68,82.65 77.89,53.15 100.75,52.01 107.84,51.65 114.16,54.59 120.11,60.28 124.5,64.48 128.3,69.58 133.94,78.26 134.43,79.02 134.94,79.8 135.61,80.84 135.81,81.15 136.03,81.49 136.44,82.13 136.78,82.66 137.03,83.04 137.27,83.42 143.63,93.28 147.35,98.38 151.74,102.68 L 148.24,106.25 146.79,101.46 C 153.11,99.55 186.99,94 197.5,94 210.87,94 224.05,95.5 236.87,98.45 L 232.25,99.75 C 236.29,95.78 239.58,90.98 244.08,83.04 244.14,82.93 244.14,82.93 244.2,82.82 244.83,81.72 246.94,77.94 247.21,77.45 252.41,68.19 255.82,63.22 260.52,59.04 266.85,53.42 274.38,50.97 283.58,52.03 Z M 283.58,52.03" />
    <path id="blazeHole66-wall2" stroke="none" fill="url(#blazeHole66-gradient-wall2)" filter="url(#blazeHole66-shadow-outer)" d="M 282.42,61.97 C 276.09,61.23 271.38,62.77 267.17,66.51 263.55,69.73 260.61,74.02 255.93,82.35 255.67,82.81 253.55,86.61 252.91,87.74 252.85,87.86 252.85,87.86 252.78,87.97 247.86,96.66 244.13,102.11 239.25,106.89 238.03,108.08 236.29,108.57 234.63,108.19 222.55,105.42 210.12,104 197.5,104 188.03,104 155.11,109.39 149.69,111.03 147.94,111.56 146.04,111.09 144.74,109.82 139.65,104.83 135.63,99.32 128.87,88.84 128.62,88.46 128.37,88.07 128.03,87.55 127.62,86.9 127.4,86.56 127.2,86.26 126.54,85.22 126.04,84.45 125.55,83.71 115.09,67.6 108.83,61.61 101.25,61.99 82.85,62.91 53.69,89.63 42.74,117.56 40.45,123.4 40.34,128.23 41.97,132.87 43.29,136.63 45.37,139.78 49.9,145.44 50.1,145.69 50.99,146.8 51.23,147.09 51.75,147.75 52.17,148.27 52.56,148.78 56.76,154.13 59.1,158.02 60.34,162.61 61.94,168.55 61.13,174.64 57.68,181.12 57.62,181.23 57.56,181.34 57.49,181.44 40.93,207.73 32,238.2 32,270 32,284.08 36.28,298.18 44.52,313.04 51.22,325.13 59.89,336.84 72.9,352.24 76.02,355.94 86.49,368.09 87.59,369.38 93.22,375.98 97.26,380.94 100.8,385.65 109.93,397.81 114.95,407.58 115.97,416.84 115.99,417.03 116,417.21 116,417.39 116,442.98 113.1,465.02 106.3,500.54 106.61,498.94 103.55,514.83 102.77,518.95 101.5,525.72 100.53,531.24 99.72,536.43 97.76,548.91 96.78,559.19 96.78,568.6 96.78,590.35 102.18,607.53 114.85,622.81 156.1,672.55 238.9,672.55 280.15,622.81 292.82,607.53 298.22,590.35 298.22,568.6 298.22,559.19 297.24,548.91 295.28,536.43 294.47,531.24 293.5,525.72 292.23,518.95 291.45,514.83 288.39,498.94 288.7,500.54 281.9,465.02 279,442.98 279,417.39 279,417.19 279.01,416.99 279.04,416.79 280.28,406.53 285.39,396.1 294.42,383.83 297.99,378.97 302.12,373.88 307.55,367.53 310.32,364.29 320.33,352.82 322.09,350.78 335.46,335.27 343.85,324.24 350.49,312.55 358.73,298.04 363,284.15 363,270 363,232.11 350.31,196.18 327.37,167.09 322.81,161.3 321.13,155.96 322.37,150.81 323.34,146.75 325.66,143.73 329.96,139.77 330.37,139.38 330.8,139 331.38,138.48 331.54,138.33 331.73,138.16 332.08,137.85 332.36,137.6 332.57,137.42 332.77,137.23 340.54,130.23 342.18,126.33 338.44,118.06 324.28,86.68 303.81,64.44 282.42,61.97 Z M 282.42,61.97" />
    <path id="blazeHole66-bezier3" stroke="none" fill="url(#blazeHole66-gradient-bezier3)" filter="url(#blazeHole66-shadow-outer)" d="M 197.5,185 C 192.06,185 186.75,186.4 181.71,189.13 163.59,198.96 151,224.65 151,254 151,292.41 172.29,323 197.5,323 222.71,323 244,292.41 244,254 244,215.59 222.71,185 197.5,185 Z M 197.5,185" />
    <path id="blazeHole66-wall1" stroke="none" fill="url(#blazeHole66-gradient-wall1)" filter="url(#blazeHole66-shadow-outer)" d="M 197.5,175 C 229.17,175 254,210.68 254,254 254,297.32 229.17,333 197.5,333 165.83,333 141,297.32 141,254 141,221.24 155.29,192.08 176.94,180.34 183.42,176.83 190.37,175 197.5,175 Z M 197.5,175" />
</svg>
