<?xml version="1.0" encoding="UTF-8"?>
<!DOCTYPE svg PUBLIC "-//W3C//DTD SVG 1.1//EN" "http://www.w3.org/Graphics/SVG/1.1/DTD/svg11.dtd">
<svg version="1.1" xmlns="http://www.w3.org/2000/svg" xmlns:xlink="http://www.w3.org/1999/xlink" width="400" height="700"  xml:space="preserve" id="blazeHole88">
    <!-- Generated by PaintCode - http://www.paintcodeapp.com -->
    <defs>
        <pattern id="blazeHole88-pattern1-bezier" x="45" y="186" width="100" height="100" patternUnits="userSpaceOnUse" viewBox="0 0 100 100">
            <image xlink:href="images/pattern1.jpg" x="0" y="0" width="100" height="100" />
        </pattern>
    </defs>
    <path id="blazeHole88-sddd" stroke="rgb(142, 109, 53)" stroke-width="24" stroke-linejoin="round" stroke-miterlimit="10" fill="none" d="M 166.04,160.84 C 163.68,161.88 138.76,173.79 129.21,183.34 107.08,205.47 102.62,236.9 119.26,253.53 135.89,270.16 146,206.5 173.5,203 196.91,200.78 211.26,230.59 221.5,254 233.13,280.58 242.5,308 231.59,331.64 216.73,356.53 159.78,346.48 148.5,359 141.49,366.77 179.39,395.32 173.09,409.72 149.18,464.37 157.5,506 168.82,525.74 171.65,530.67 179.88,541.75 186.84,548.35 209.55,569.88 241.09,573.49 257.27,556.42 273.45,539.35 223.5,529 204.5,504 187.09,473.32 202.87,447.07 211.8,426.66 217.35,413.96 303.21,400.69 310.5,389 319.23,375 249.23,363.36 252.5,359 276.5,327 272.25,297.37 248.35,242.72 227.12,194.2 195.69,159.87 173.83,159.37 171.07,159.31 168.46,159.79 166.04,160.84 Z M 318.5,154 C 365.5,233 398.5,555 318.5,612 238.5,669 111.5,628 72.5,538 53.34,493.78 42.63,415.04 45.82,337.13 49.12,256.46 67.33,176.68 106.5,137 183.5,59 271.5,75 318.5,154 Z M 318.5,154" />
    <path id="blazeHole88-bezier" stroke="none" fill="url(#blazeHole88-pattern1-bezier)" d="M 166.04,160.84 C 163.68,161.88 138.76,173.79 129.21,183.34 107.08,205.47 102.62,236.9 119.26,253.53 135.89,270.16 146,206.5 173.5,203 196.91,200.78 211.26,230.59 221.5,254 233.13,280.58 242.5,308 231.59,331.64 216.73,356.53 159.78,346.48 148.5,359 141.49,366.77 179.39,395.32 173.09,409.72 149.18,464.37 157.5,506 168.82,525.74 171.65,530.67 179.88,541.75 186.84,548.35 209.55,569.88 241.09,573.49 257.27,556.42 273.45,539.35 223.5,529 204.5,504 187.09,473.32 202.87,447.07 211.8,426.66 217.35,413.96 303.21,400.69 310.5,389 319.23,375 249.23,363.36 252.5,359 276.5,327 272.25,297.37 248.35,242.72 227.12,194.2 195.69,159.87 173.83,159.37 171.07,159.31 168.46,159.79 166.04,160.84 Z M 318.5,154 C 365.5,233 398.5,555 318.5,612 238.5,669 111.5,628 72.5,538 53.34,493.78 42.63,415.04 45.82,337.13 49.12,256.46 67.33,176.68 106.5,137 183.5,59 271.5,75 318.5,154 Z M 318.5,154" />
    <path id="blazeHole88-wall" stroke="none" fill="rgb(255, 209, 134)" d="M 167.54,165.43 C 166.82,165.74 164.69,166.76 162.37,167.92 159.09,169.57 155.63,171.38 152.26,173.27 143.19,178.32 136.04,183.09 132.24,186.88 111.88,207.24 107.87,235.57 122.29,249.99 124.22,251.92 124.95,251.79 127.66,248.75 129.41,246.78 131.34,243.92 133.83,239.69 135.09,237.54 139.95,228.92 141.03,227.06 145.7,219.02 149.53,213.38 153.82,208.75 159.49,202.63 165.55,198.91 172.37,198.04 L 172.53,198.02 C 185.29,196.81 196.24,203.31 205.9,215.83 212.81,224.8 218.25,235.24 225.58,252 232.83,268.57 237.18,280.97 239.41,293.01 242.23,308.19 241.22,321.63 235.63,333.73 235.56,333.89 235.48,334.05 235.38,334.2 231.4,340.88 224.89,345.64 216.13,348.98 209.28,351.6 201.37,353.28 191,354.65 188.91,354.92 186.74,355.18 184.2,355.47 183.2,355.58 182.17,355.69 180.87,355.83 180.52,355.87 178.26,356.12 177.61,356.19 161.14,357.98 154.23,359.55 151.71,362.35 151.93,362.11 152.08,361.8 152.12,361.53 152.13,361.46 152.14,361.53 152.18,361.73 152.38,362.59 153.01,363.92 154.08,365.63 155.12,367.32 156.52,369.28 158.45,371.79 159.23,372.8 160.06,373.86 161.21,375.31 160.96,375 163.46,378.15 164.14,379.02 165.85,381.19 167.18,382.92 168.43,384.6 172.1,389.57 174.67,393.69 176.32,397.56 178.53,402.77 179.02,407.5 177.17,411.72 166.4,436.32 161.7,459.6 162.24,480.69 162.68,497.84 166.64,512.76 172.66,523.25 175.8,528.74 183.95,539.19 189.78,544.72 210.68,564.53 239.1,567.79 253.14,552.98 255.79,550.18 255.57,548.66 252,545.28 249.7,543.1 246.31,540.72 241.13,537.55 239.32,536.44 228.92,530.3 225.84,528.39 213.85,520.99 205.78,514.61 200.02,507.03 199.88,506.85 199.76,506.66 199.65,506.47 192.43,493.74 190.04,480.94 191.64,467.64 192.86,457.52 195.95,448.44 201.76,435.58 201.85,435.38 205.73,426.91 206.72,424.65 208.91,419.64 215.76,416.01 228.28,411.67 235.88,409.04 243.72,406.75 259.42,402.42 277.78,397.36 283.7,395.66 290.98,393.19 295.55,391.65 299.14,390.23 301.77,388.92 304.12,387.76 305.51,386.76 305.76,386.35 305.78,386.32 305.75,386.44 305.76,386.61 305.76,386.69 305.77,386.75 305.78,386.77 305.76,386.72 305.72,386.63 305.64,386.51 305.02,385.61 303.48,384.37 301.11,383.03 296.48,380.39 289.51,377.69 279.8,374.59 276.02,373.38 261.6,369.05 258.72,368.1 255.47,367.04 253.17,366.18 251.52,365.36 250.3,364.76 249.35,364.14 248.57,363.33 246.73,361.42 246.12,358.51 248,356 269.49,327.34 267.99,301.24 243.27,244.72 223,198.39 192.77,164.81 173.22,164.37 171.14,164.32 169.26,164.68 167.54,165.43 Z M 167.54,165.43" />
    <rect id="blazeHole88-end" stroke="none" fill="rgb(128, 128, 128)" x="179" y="288" width="1" height="1" />
    <rect id="blazeHole88-ball" stroke="none" fill="rgb(128, 128, 128)" x="233" y="473" width="1" height="1" />
    <path id="blazeHole88-wall2" stroke="none" fill="rgb(255, 209, 134)" d="M 163.54,156.26 C 166.61,154.92 169.94,154.29 173.44,154.37 198.15,154.93 230.74,191.13 252.43,240.72 265.5,270.61 271.85,291.16 272.88,309.07 274,328.51 268.7,345.07 256,362 256.75,361 257.06,359.68 256.79,358.39 256.61,357.49 256.22,356.87 255.78,356.4 255.63,356.25 255.54,356.18 255.51,356.16 255.6,356.21 255.75,356.3 255.97,356.41 257.07,356.95 259.01,357.68 261.83,358.6 264.57,359.49 278.94,363.82 282.84,365.06 293.18,368.37 300.65,371.26 306.06,374.34 309.62,376.37 312.25,378.47 313.89,380.87 316.19,384.23 316.43,388.14 314.24,391.65 311.69,395.74 305.37,398.88 294.19,402.66 286.65,405.22 280.66,406.94 262.08,412.06 246.59,416.33 238.87,418.59 231.55,421.12 222.11,424.39 216.43,427.4 215.88,428.66 214.85,431.02 210.93,439.56 210.87,439.7 205.45,451.7 202.64,459.96 201.57,468.83 200.22,480.06 202.21,490.71 208.35,501.53 L 207.98,500.97 C 212.82,507.34 220.07,513.07 231.09,519.88 234.07,521.72 244.44,527.85 246.35,529.02 252.08,532.53 255.94,535.24 258.87,538.01 266.14,544.89 267.25,552.64 260.4,559.86 242.07,579.2 207.43,575.23 182.9,551.98 176.35,545.76 167.61,534.55 163.98,528.22 157.12,516.25 152.73,499.71 152.24,480.95 151.66,458.37 156.66,433.64 168,407.72 169.22,404.93 166.79,399.21 160.39,390.55 159.21,388.96 157.94,387.3 156.28,385.2 155.61,384.35 153.13,381.21 153.36,381.51 152.19,380.03 151.33,378.93 150.52,377.88 148.41,375.13 146.84,372.93 145.58,370.92 143.99,368.35 142.93,366.11 142.44,363.99 141.72,360.9 142.21,357.95 144.29,355.65 147.22,352.4 151.74,350.39 158.14,348.93 162.72,347.89 167.47,347.23 176.53,346.25 185.97,345.22 186.19,345.19 189.7,344.73 210.08,342.05 221.7,337.62 226.8,329.07 L 226.55,329.54 C 231.19,319.49 232.04,308.12 229.58,294.83 227.52,283.7 223.39,271.93 216.42,256 209.4,239.96 204.25,230.07 197.98,221.94 190.21,211.87 182.25,207.14 173.47,207.98 L 173.63,207.96 C 165.7,208.97 158.73,216.5 149.68,232.08 148.65,233.86 143.77,242.52 142.44,244.77 139.65,249.5 137.41,252.82 135.13,255.39 128.96,262.33 121.74,263.59 115.22,257.06 96.38,238.22 101.28,203.71 125.17,179.81 129.8,175.18 137.56,170.01 147.39,164.53 153.64,161.05 160.79,157.47 163.54,156.26 Z M 163.54,156.26" />
    <path id="blazeHole88-wall3" stroke="none" fill="rgb(255, 209, 134)" d="M 322.3,151.44 C 346.26,191.72 366.45,292.5 370.62,391.04 375.38,503.43 359.33,588.69 320.9,616.07 239.16,674.31 108.11,633.91 67.41,539.99 47.78,494.68 37.12,415.01 40.32,336.92 44.04,246.25 65.18,171.23 102.44,133.49 140.58,94.85 183.11,77.18 223.8,81.65 263.1,85.98 298.13,110.82 322.3,151.44 Z M 322.3,151.44" />
    <path id="blazeHole88-wall4" stroke="none" fill="rgb(255, 209, 134)" d="M 313.7,156.56 C 291.06,118.5 258.71,95.56 222.7,91.6 185.26,87.48 145.67,103.93 109.56,140.51 74.47,176.05 53.94,248.92 50.31,337.33 47.17,414.04 57.63,492.27 76.59,536.01 114.81,624.22 238.65,662.4 315.1,607.93 349.65,583.31 365.24,500.46 360.63,391.46 356.52,294.45 336.61,195.06 313.7,156.56 Z M 313.7,156.56" />
</svg>
