<?xml version="1.0" encoding="UTF-8"?>
<!DOCTYPE svg PUBLIC "-//W3C//DTD SVG 1.1//EN" "http://www.w3.org/Graphics/SVG/1.1/DTD/svg11.dtd">
<svg version="1.1" xmlns="http://www.w3.org/2000/svg" xmlns:xlink="http://www.w3.org/1999/xlink" width="400" height="700"  xml:space="preserve" id="frostHole88">
    <!-- Generated by PaintCode - http://www.paintcodeapp.com -->
    <path id="frostHole88-bezier3" stroke="none" fill="rgb(40, 230, 255)" d="M 188.76,72 C 183.82,72 175.96,74.16 166.14,78.21 149.92,84.9 129.32,96.38 111.9,108.21 103.56,113.88 96.48,119.28 91.5,123.78 89.03,126.02 87.13,127.99 85.88,129.59 85.32,130.31 84.93,130.92 84.69,131.39 84.57,131.62 84.55,131.69 84.56,131.53 84.31,136.28 84.55,137.32 85.5,138.46 85.69,138.69 86.62,139.75 86.62,139.75 87.23,140.46 87.74,141.1 88.27,141.83 89.64,143.73 90.85,145.96 92,148.82 L 83.54,147.44 C 83.66,147.3 83.87,147.06 84.18,146.71 84.68,146.14 85.26,145.48 85.93,144.75 87.84,142.66 90.04,140.33 92.52,137.83 99.59,130.7 107.46,123.57 115.96,116.91 140.52,97.63 165.22,86 188.76,86 197.3,86 205.46,87.2 213.32,89.54 220.35,91.62 227.1,94.59 233.73,98.41 242.96,103.73 251.42,110.31 261.44,119.43 264.48,122.21 275.59,132.71 278.16,135.04 284.02,140.36 288.5,143.9 292.69,146.37 L 285.52,148.82 C 286.69,145.9 287.9,143.6 289.27,141.56 290.02,140.44 291.94,137.95 291.94,137.94 292.88,136.62 293.15,135.5 292.95,131.51 292.97,131.82 292.92,131.71 292.7,131.35 292.25,130.64 291.52,129.73 290.54,128.66 288.43,126.38 285.3,123.55 281.34,120.36 273.35,113.94 262.43,106.37 250.71,99.17 224.48,83.04 199.88,72 188.76,72 Z M 188.76,72" />
    <path id="frostHole88-wall4" stroke="none" fill="rgb(40, 230, 255)" d="M 188.76,62 C 202.42,62 228.11,73.53 255.95,90.65 268.01,98.06 279.27,105.86 287.61,112.57 297.47,120.52 302.7,126.18 302.94,131.02 303.24,137.09 302.46,140.41 300.09,143.74 299.9,144.01 298.1,146.34 297.57,147.14 296.59,148.59 295.71,150.27 294.8,152.54 293.66,155.38 290.26,156.54 287.62,154.99 282.72,152.1 277.76,148.19 271.44,142.45 268.78,140.03 257.65,129.52 254.7,126.83 245.17,118.15 237.24,111.98 228.73,107.07 222.76,103.63 216.73,100.98 210.48,99.12 203.53,97.06 196.33,96 188.76,96 167.93,96 145.1,106.75 122.13,124.77 113.99,131.16 106.41,138.02 99.62,144.87 97.25,147.27 95.14,149.49 93.33,151.48 92.7,152.17 92.15,152.78 91.69,153.31 91.42,153.61 91.25,153.82 91.17,153.92 88.73,156.78 84.12,156.03 82.71,152.54 81.86,150.41 81.04,148.9 80.15,147.66 79.82,147.2 79.49,146.79 79.05,146.29 79.15,146.4 78.09,145.19 77.79,144.83 75.02,141.48 74.2,138.04 74.57,130.99 74.95,123.87 86.7,113.24 106.28,99.94 124.23,87.74 145.42,75.94 162.32,68.97 173.26,64.46 182.2,62 188.76,62 Z M 188.76,62" />
    <path id="frostHole88-bezier2" stroke="none" fill="rgb(40, 230, 255)" d="M 189,222 C 167.46,222 150,239.46 150,261 150,282.54 167.46,300 189,300 210.54,300 228,282.54 228,261 228,240.75 212.5,223.91 192.47,222.15 191.32,222.05 190.16,222 189,222 Z M 189,222" />
    <path id="frostHole88-wall3" stroke="none" fill="rgb(40, 230, 255)" d="M 189,212 C 190.46,212 191.9,212.06 193.34,212.19 218.53,214.41 238,235.56 238,261 238,288.06 216.06,310 189,310 161.94,310 140,288.06 140,261 140,233.94 161.94,212 189,212 Z M 189,212" />
    <path id="frostHole88-bezier5" stroke="none" fill="rgb(40, 230, 255)" d="M 189.36,346.49 C 189.14,346.5 188.61,346.82 187.81,347.75 186.67,349.06 185.45,351.15 184.24,353.92 181.82,359.47 179.57,367.41 177.65,377.04 174.18,394.42 172,416.4 172,431.75 172,455.64 174.3,477.98 178.3,494.38 180.2,502.19 182.43,508.35 184.77,512.41 185.83,514.25 186.86,515.56 187.78,516.34 188.38,516.84 188.76,517 189,517 189.24,517 189.62,516.84 190.22,516.34 191.14,515.56 192.17,514.25 193.23,512.41 195.57,508.35 197.8,502.19 199.7,494.38 203.7,477.98 206,455.64 206,431.75 206,407.86 203.7,385.52 199.7,369.12 197.8,361.31 195.57,355.15 193.23,351.09 192.17,349.25 191.14,347.94 190.22,347.16 189.62,346.66 189.24,346.5 189,346.5 L 189.36,346.49 Z M 189.36,346.49" />
    <path id="frostHole88-wall2" stroke="none" fill="rgb(40, 230, 255)" d="M 188.64,336.51 C 188.76,336.5 188.88,336.5 189,336.5 198.32,336.5 204.76,347.68 209.41,366.75 213.62,383.98 216,407.11 216,431.75 216,456.39 213.62,479.52 209.41,496.75 204.76,515.82 198.32,527 189,527 179.68,527 173.24,515.82 168.59,496.75 164.38,479.52 162,456.39 162,431.75 162,415.74 164.25,393.11 167.85,375.08 172.62,351.16 178.7,337.22 188.64,336.51 Z M 188.64,336.51" />
    <path id="frostHole88-bezier7" stroke="none" fill="rgb(40, 230, 255)" d="M 346.42,126.51 C 346.53,126.5 346.52,126.5 346.37,126.54 345.98,126.63 345.47,126.79 344.85,127.05 342.88,127.88 340.58,129.32 338,131.58 330.14,138.45 322.07,150.67 314.41,169.61 305.03,192.8 297.06,224.27 291,265.09 285.18,304.34 282.02,353.26 280.7,414.2 280,446.34 279.86,472.5 279.87,527.01 279.88,578.29 279.74,597.93 279.02,618.24 278.05,645.43 276.17,660.63 272.19,666.73 263.73,679.7 230.9,688.88 194.08,690.37 154.18,691.99 121.19,684.27 108.92,666.88 102.31,657.52 98.92,637.25 97.31,603.87 96.1,578.82 95.96,555.58 96.2,494.85 96.36,454.11 96.36,434.43 96.06,410.67 95.32,350.48 92.65,303.66 86.99,265.08 80.93,223.75 72.88,192.02 63.35,168.76 55.75,150.19 47.74,138.22 39.95,131.48 37.39,129.27 35.1,127.85 33.14,127.04 32.53,126.79 32.03,126.63 31.63,126.54 31.49,126.5 31.47,126.5 31.58,126.51 26.65,126.14 25.19,119.59 29.51,117.16 30.73,116.47 30.73,116.47 36.25,113.37 43.62,109.23 43.62,109.23 54.04,103.37 78.58,89.58 78.58,89.58 108.03,73.03 137.41,56.51 137.41,56.51 161.92,42.74 172.34,36.88 172.34,36.88 179.72,32.73 185.27,29.61 185.27,29.61 186.55,28.89 188.07,28.04 189.92,28.04 191.44,28.89 L 348.49,117.16 C 352.81,119.59 351.35,126.14 346.42,126.51 Z M 346.42,126.51" />
    <path id="frostHole88-wall" stroke="none" fill="rgb(40, 230, 255)" d="M 345.67,116.54 L 343.59,125.88 186.55,37.61 189,33.25 191.45,37.61 C 190.17,38.33 190.17,38.33 184.62,41.45 177.24,45.59 177.24,45.59 166.82,51.45 142.31,65.23 142.31,65.23 112.93,81.75 83.48,98.3 83.48,98.3 58.94,112.09 48.52,117.95 48.52,117.95 41.15,122.09 35.63,125.19 35.63,125.19 34.41,125.88 L 32.33,116.54 C 33.41,116.62 34.99,116.98 36.96,117.8 39.93,119.02 43.13,121.01 46.48,123.91 55.57,131.77 64.45,145.04 72.61,164.97 82.47,189.04 90.72,221.54 96.89,263.63 102.62,302.74 105.31,349.95 106.06,410.55 106.36,434.38 106.36,454.1 106.2,494.89 105.96,555.42 106.11,578.59 107.3,603.39 108.8,634.68 112.03,653.95 117.08,661.12 126.75,674.81 156.93,681.87 193.67,680.38 227.34,679.01 257.79,670.5 263.81,661.27 266.31,657.44 268.15,642.63 269.03,617.88 269.74,597.74 269.88,578.15 269.87,527.01 269.86,472.43 270,446.22 270.7,413.98 272.03,352.66 275.21,303.37 281.11,263.62 287.28,222.07 295.44,189.85 305.14,165.86 313.35,145.56 322.28,132.04 331.42,124.05 334.79,121.1 338.02,119.07 341,117.82 342.99,116.99 344.57,116.62 345.67,116.54 Z M 345.67,116.54" />
    <rect id="frostHole88-end" stroke="none" fill="rgb(128, 128, 128)" x="186" y="162" width="1" height="1" />
    <rect id="frostHole88-ball" stroke="none" fill="rgb(128, 128, 128)" x="185" y="624" width="1" height="1" />
</svg>
