<?xml version="1.0" encoding="UTF-8"?>
<!DOCTYPE svg PUBLIC "-//W3C//DTD SVG 1.1//EN" "http://www.w3.org/Graphics/SVG/1.1/DTD/svg11.dtd">
<svg version="1.1" xmlns="http://www.w3.org/2000/svg" xmlns:xlink="http://www.w3.org/1999/xlink" width="400" height="700"  xml:space="preserve" id="frostHole99">
    <!-- Generated by PaintCode - http://www.paintcodeapp.com -->
    <path id="frostHole99-bezier3" stroke="none" fill="rgb(40, 230, 255)" d="M 146.86,157.18 C 146.39,157.74 146.1,158.24 145.94,158.68 145.27,160.54 146.95,163.51 152.52,168.63 154.83,170.74 171.04,184.02 176.19,188.76 190.63,202.01 200.43,215.31 205.75,231.43 L 196.34,231.18 C 202.05,216.6 211.08,204 223.67,191.29 228.97,185.93 246.55,170.15 249.26,167.29 254.55,161.71 255.24,159.44 253.34,157.41 252.77,156.8 252.36,156.56 252.01,156.5 250.75,156.29 248.17,157.75 244.54,161.37 241.32,164.58 239.82,166.41 231.58,176.84 226.33,183.5 223.07,187.36 219.56,190.9 213.04,197.44 207.18,201 201,201 193.53,201 186.58,195.89 177.76,185.95 175.48,183.38 173.3,180.77 169.93,176.61 160.39,164.83 157.7,161.73 153.81,158.59 149.91,155.43 148.43,155.28 146.86,157.18 Z M 146.86,157.18" />
    <path id="frostHole99-wall3" stroke="none" fill="rgb(40, 230, 255)" d="M 139.14,150.82 C 144.89,143.84 152.45,144.62 160.1,150.81 164.79,154.61 167.57,157.8 177.7,170.31 180.98,174.36 183.09,176.89 185.24,179.31 192.21,187.17 197.42,191 201,191 203.82,191 207.67,188.67 212.47,183.84 215.64,180.66 218.71,177.01 223.73,170.64 232.31,159.78 233.84,157.92 237.47,154.29 243.2,148.57 248.24,145.74 253.64,146.64 256.28,147.07 258.64,148.43 260.66,150.59 264.1,154.28 265.16,158.66 263.77,163.23 262.71,166.73 260.34,170.14 256.52,174.17 253.46,177.4 235.77,193.28 230.77,198.33 219.07,210.15 210.8,221.68 205.66,234.82 203.95,239.18 197.72,239.01 196.25,234.57 191.55,220.3 182.72,208.32 169.43,196.13 164.55,191.65 148.34,178.36 145.76,175.99 137.44,168.35 134.01,162.29 136.54,155.29 137.1,153.72 137.97,152.24 139.14,150.82 Z M 139.14,150.82" />
    <path id="frostHole99-bezier2" stroke="none" fill="rgb(40, 230, 255)" d="M 197.2,282 C 193.15,282.16 192.61,282.82 191.09,290.04 190.88,291.04 190.66,292.16 190.37,293.7 190.27,294.25 189.72,297.19 189.55,298.08 184.63,324.08 177.31,347.14 160.48,381.21 160.41,381.36 160.33,381.51 160.24,381.65 134.75,422.43 122.66,463.35 127.39,493.44 132.38,525.15 155.44,543 197,543 236.63,543 253.42,529.01 255.32,499.81 256.17,486.8 254.13,470.76 249.32,450 247.31,441.31 244.84,431.87 241.6,420.26 240.31,415.66 238.95,410.89 237.13,404.54 237.04,404.23 233.5,391.98 232.48,388.38 231.65,385.5 230.9,382.88 230.19,380.36 L 230.29,380.68 C 223.84,362.62 219.23,346.25 215.7,330.02 213.65,320.62 209.24,295.97 209.63,297.95 206.89,283.95 205.09,281.67 197.2,282 Z M 197.2,282" />
    <path id="frostHole99-wall2" stroke="none" fill="rgb(40, 230, 255)" d="M 196.8,272 C 204.14,271.7 209.36,273.57 213.03,278.2 216.02,281.97 217.68,286.99 219.45,296.03 219.09,294.21 223.47,318.71 225.47,327.9 228.91,343.71 233.41,359.67 239.71,377.32 239.75,377.42 239.78,377.53 239.81,377.64 240.52,380.14 241.26,382.75 242.09,385.63 243.12,389.21 246.65,401.46 246.74,401.77 248.57,408.14 249.93,412.94 251.23,417.56 254.51,429.31 257.01,438.89 259.06,447.75 264.07,469.37 266.23,486.28 265.3,500.46 263.03,535.19 241.66,553 197,553 150.71,553 123.3,531.78 117.51,494.99 112.35,462.17 125.11,418.99 151.76,376.35 L 151.52,376.79 C 167.92,343.57 174.96,321.37 179.72,296.22 179.89,295.34 180.44,292.41 180.55,291.84 180.85,290.24 181.08,289.06 181.31,287.98 183.66,276.78 187.29,272.39 196.8,272 Z M 196.8,272" />
    <path id="frostHole99-bezier5" stroke="none" fill="rgb(40, 230, 255)" d="M 317.57,187.02 C 317.57,196.79 314.83,205.83 309.61,214.99 305.76,221.73 301.93,226.79 293.06,237.48 292.81,237.78 292.81,237.78 292.56,238.08 284.86,247.36 281.4,251.88 278.08,257.44 273.87,264.48 271.51,271.12 270.97,278.1 L 270.98,277.52 C 271.57,292.44 274.29,305.32 279.53,318.6 283.75,329.3 289.62,340.41 298.66,355.23 304.05,364.07 327.62,400.91 328.87,402.88 363.46,457.65 376.16,514.44 360.13,557.61 341.5,607.81 286.6,636 196.11,636 105.87,636 52.66,608.02 34.94,557.52 20.16,515.41 31.53,459.83 62.32,403.17 70.15,388.77 93.64,347.75 97.14,341.33 107.81,321.79 113.83,308.01 117.07,294.68 118.5,288.81 119.35,283.08 119.64,277.32 L 119.63,277.71 C 119.32,267.22 114.38,258.05 102.62,243.38 101.91,242.5 101.16,241.58 100.25,240.45 99.74,239.83 98,237.69 97.84,237.49 89.56,227.32 85.4,221.69 81.59,214.82 76.48,205.63 73.79,196.61 73.79,187.02 73.79,165.92 79.43,145.61 89.97,127.72 98.07,113.99 108.92,101.94 121.82,92.33 128.31,87.49 135.29,83.3 142.65,79.83 159.04,72.08 177.07,68 195.68,68 262.97,68 317.57,121.26 317.57,187.02 Z M 317.57,187.02" />
    <path id="frostHole99-wall" stroke="none" fill="rgb(40, 230, 255)" d="M 307.57,187.02 C 307.57,126.84 257.5,78 195.68,78 178.55,78 161.99,81.75 146.92,88.87 140.16,92.06 133.76,95.91 127.79,100.35 115.95,109.17 106.01,120.22 98.59,132.8 88.94,149.16 83.79,167.72 83.79,187.02 83.79,194.77 85.99,202.16 90.33,209.96 93.77,216.16 97.68,221.45 105.6,231.18 105.75,231.37 107.5,233.51 108.01,234.14 108.94,235.28 109.69,236.22 110.42,237.12 123.46,253.38 129.23,264.11 129.63,277.41 129.63,277.54 129.63,277.68 129.62,277.81 129.31,284.22 128.36,290.57 126.79,297.04 123.3,311.39 116.97,325.88 105.92,346.12 102.35,352.66 78.86,393.67 71.11,407.94 41.53,462.37 30.71,515.28 44.37,554.21 60.48,600.12 109.71,626 196.11,626 282.83,626 333.79,599.83 350.76,554.13 365.52,514.36 353.49,460.6 320.42,408.22 319.22,406.33 295.58,369.38 290.12,360.43 280.81,345.17 274.7,333.6 270.23,322.27 264.58,307.95 261.62,293.95 260.99,277.91 260.98,277.72 260.98,277.53 261,277.33 261.66,268.68 264.54,260.6 269.49,252.31 273.16,246.17 276.84,241.37 284.86,231.7 285.11,231.39 285.11,231.39 285.36,231.09 293.86,220.85 297.46,216.1 300.93,210.03 305.34,202.3 307.57,194.92 307.57,187.02 Z M 307.57,187.02" />
    <rect id="frostHole99-end" stroke="none" fill="rgb(128, 128, 128)" x="199" y="149" width="1" height="1" />
    <rect id="frostHole99-ball" stroke="none" fill="rgb(128, 128, 128)" x="191" y="589" width="1" height="1" />
</svg>
