<?xml version="1.0" encoding="UTF-8"?>
<!DOCTYPE svg PUBLIC "-//W3C//DTD SVG 1.1//EN" "http://www.w3.org/Graphics/SVG/1.1/DTD/svg11.dtd">
<svg version="1.1" xmlns="http://www.w3.org/2000/svg" xmlns:xlink="http://www.w3.org/1999/xlink" width="400" height="700"  xml:space="preserve" id="frostHole55">
    <!-- Generated by PaintCode - http://www.paintcodeapp.com -->
    <path id="frostHole55-bezier" stroke="none" fill="rgb(40, 230, 255)" d="M 271.46,57.58 C 271.43,57.62 271.37,57.75 271.28,57.94 271.12,58.28 270.94,58.67 270.74,59.12 270.17,60.43 269.59,61.88 269.05,63.43 267.81,67.02 266.97,70.55 266.73,73.74 266.37,78.66 267.43,82.07 270,84 L 269.77,83.84 C 270.68,84.45 271.54,84.58 272.68,84.3 275.56,83.59 279.37,80.42 283.3,75.57 285.07,73.38 286.75,71.01 288.26,68.65 288.79,67.82 289.26,67.05 289.66,66.37 289.89,65.97 290.05,65.7 290.12,65.57 290.66,64.6 291.5,63.84 292.51,63.4 312.28,54.84 341.43,71.77 360.83,101.58 380.22,131.37 383.93,164.92 368.16,179.59 366.46,181.18 363.88,181.38 361.95,180.07 361.88,180.02 361.72,179.91 361.49,179.76 361.09,179.5 360.63,179.19 360.1,178.84 358.58,177.85 356.86,176.74 354.95,175.55 349.52,172.13 343.76,168.71 337.96,165.53 333.62,163.15 329.42,160.99 325.42,159.11 310.99,152.32 300.3,149.85 296.74,152.18 L 297.65,144.58 C 320.92,169.41 337.37,213.61 341.73,262.18 346.4,314.21 336.93,365.49 313.28,404.59 313.18,404.75 313.07,404.91 312.96,405.06 303.28,417.57 300.9,425.05 302.97,428.4 304.59,431.02 309.74,432.68 318.63,433.43 320.61,433.6 321.64,433.66 325.92,433.89 330.85,434.16 333.19,434.36 335.49,434.78 339.71,435.55 342.52,436.95 343.71,440.34 345.43,445.2 345.59,449.69 344.39,454.39 343.75,456.91 342.79,459.34 341.2,462.72 340.92,463.32 340.63,463.94 340.22,464.78 340.11,465.02 339.97,465.3 339.71,465.83 339.51,466.25 339.36,466.57 339.2,466.89 338.38,468.62 337.75,469.97 337.14,471.35 332.74,481.38 330.34,491.36 330,505.12 329.59,521.63 331.55,529.04 336.02,535.17 336.31,535.58 336.62,535.98 337.04,536.53 337.16,536.69 337.3,536.87 337.58,537.22 337.8,537.51 337.96,537.73 338.13,537.95 342.28,543.41 344,547.93 344,556 344,580.82 316.17,607 288,607 259.08,607 234.98,585.24 232.25,556.96 232.24,556.78 232.23,556.6 232.23,556.43 232.23,556.38 232.23,556.38 232.23,556.14 232.24,555.81 232.24,555.62 232.24,555.31 232.25,554.41 232.26,553.39 232.26,552.28 232.29,547.47 232.31,542.54 232.29,537.94 232.27,534.62 232.25,531.64 232.2,529.09 232.17,527.51 231.89,526.56 231.6,526.2 231.63,526.23 231.72,526.3 231.87,526.37 232.08,526.46 232.31,526.5 232.51,526.48 232.65,526.46 232.74,526.43 232.78,526.4 232.74,526.43 232.67,526.5 232.57,526.62 232.22,527.1 231.97,527.91 231.97,529.02 231.96,530.82 231.95,535.11 231.94,541.59 231.93,548.27 231.93,557.11 231.92,567.58 231.91,576.23 231.9,585.5 231.89,594.77 231.89,598.01 231.89,601.02 231.89,603.73 231.89,605.23 231.89,605.23 231.89,606.24 231.88,606.97 231.88,606.97 231.88,607.13 231.88,607.27 231.88,607.4 231.87,607.54 230.42,624.64 217.4,638 201.5,638 185.6,638 172.58,624.64 171.13,607.54 171.12,607.4 171.12,607.27 171.12,607.13 171.12,606.97 171.12,606.97 171.11,606.22 171.11,605.2 171.11,605.2 171.11,603.67 171.11,600.93 171.11,597.87 171.11,594.57 171.1,585.15 171.09,575.73 171.08,566.94 171.07,557.64 171.07,549.59 171.06,543.16 171.05,536.43 171.04,531.62 171.03,529.01 171.03,526.73 170.64,524.99 170.08,523.97 169.94,523.71 169.83,523.59 169.82,523.58 170,523.72 170.33,523.85 170.74,523.87 171.21,523.89 171.63,523.77 171.92,523.57 172,523.52 171.96,523.56 171.86,523.74 171.31,524.71 170.91,526.52 170.89,529.04 170.85,534.7 170.82,553.15 170.8,580.34 170.79,591.96 170.78,604.42 170.77,616.87 170.77,621.23 170.77,625.28 170.77,628.91 170.77,630.18 170.77,630.94 170.77,632.29 170.77,633.27 170.77,633.27 170.77,633.48 170.77,633.64 170.76,633.8 170.75,633.96 168.02,662.24 143.92,684 115,684 86.08,684 61.98,662.24 59.25,633.96 59.1,632.33 59.05,630.69 59.1,629.02 59.29,622.95 60.81,616.79 63.69,609.33 64.79,606.47 66.04,603.53 67.85,599.45 68.18,598.71 68.52,597.95 68.98,596.92 68.83,597.27 69.86,594.96 70.13,594.36 71.07,592.27 71.77,590.69 72.45,589.11 81.01,569.45 85.02,554.21 85,535.01 84.99,526.45 83.46,519.49 80.55,513.32 78.25,508.45 75.43,504.49 70.47,498.68 69.95,498.08 67.6,495.35 66.96,494.6 59.89,486.3 56.36,480.58 54.55,472.61 52.32,462.75 53.74,451.12 59.32,436.24 61.18,431.29 65.74,429.09 72.26,428.47 76.3,428.09 79.8,428.23 88.67,428.87 89.59,428.94 90.12,428.98 90.7,429.02 102.64,429.86 108.56,429.42 111.01,427.32 111.99,426.47 112.38,425.08 111.87,422.24 111.14,418.11 108.51,412.26 103.76,404.65 103.67,404.51 103.6,404.38 103.53,404.24 48.11,293.41 46.49,210.71 104.24,144.71 L 105.26,152.18 C 101.56,149.76 91.02,152.12 76.81,158.82 72.7,160.75 68.38,162.99 63.91,165.48 58.17,168.67 52.49,172.09 47.13,175.51 45.25,176.71 43.55,177.82 42.06,178.82 41.54,179.16 41.08,179.47 40.69,179.74 40.46,179.89 40.31,180 40.24,180.05 38.31,181.38 35.71,181.19 33.99,179.59 18.22,164.92 21.93,131.37 41.33,101.58 46.36,93.84 52.12,86.88 58.31,80.96 68.03,71.68 78.59,65.23 88.56,62.57 96.24,60.51 103.45,60.72 109.64,63.4 110.68,63.85 111.54,64.64 112.07,65.64 112.13,65.76 112.27,66.02 112.49,66.4 112.87,67.05 113.32,67.79 113.84,68.59 115.31,70.89 116.97,73.18 118.8,75.3 125.06,82.59 131.09,85.63 136.35,83.36 L 135.47,83.85 C 138.84,81.49 140.29,78.52 140.31,74.69 140.34,71.3 139.23,67.43 137.35,63.49 136.67,62.08 135.95,60.77 135.22,59.59 134.8,58.91 134.49,58.45 134.34,58.24 133.56,57.15 133.25,55.79 133.47,54.47 135.42,43.12 144.96,33.3 159.41,26.67 171.59,21.08 186.74,18 202.7,18 238.21,18 268.28,33.22 271.92,54.47 272.11,55.53 271.94,56.62 271.46,57.58 Z M 271.46,57.58" />
    <path id="frostHole55-wall2" stroke="none" fill="rgb(40, 230, 255)" d="M 262.54,53.06 L 262.07,56.16 C 259.45,40.91 233.93,28 202.7,28 188.14,28 174.41,30.79 163.58,35.76 151.85,41.14 144.63,48.57 143.33,56.16 L 142.46,52.4 C 142.74,52.79 143.19,53.45 143.74,54.35 144.64,55.81 145.53,57.42 146.37,59.17 148.85,64.36 150.35,69.62 150.31,74.76 150.26,81.72 147.34,87.76 141.2,92.05 140.92,92.24 140.62,92.41 140.31,92.54 134.62,95 128.76,94.52 123.15,91.69 118.89,89.54 114.92,86.13 111.21,81.82 109.06,79.31 107.12,76.65 105.42,73.99 104.39,72.38 103.65,71.11 103.24,70.33 L 105.67,72.58 C 101.71,70.87 96.77,70.72 91.15,72.23 82.93,74.42 73.8,80 65.21,88.2 59.59,93.57 54.32,99.94 49.71,107.03 32.64,133.25 29.49,161.74 40.8,172.27 L 34.56,171.82 C 34.65,171.75 34.83,171.63 35.08,171.46 35.49,171.18 35.97,170.86 36.51,170.5 38.06,169.47 39.81,168.32 41.75,167.08 47.27,163.56 53.12,160.03 59.05,156.74 63.7,154.15 68.22,151.81 72.55,149.77 90.04,141.54 102.87,138.65 110.74,143.82 113.28,145.49 113.76,149.01 111.76,151.29 57.15,213.71 58.69,292.2 112.47,399.76 L 112.24,399.35 C 123.14,416.83 125.19,428.31 117.53,434.9 114.4,437.59 110.12,438.88 104.56,439.29 100.64,439.58 96.57,439.46 89.99,438.99 89.41,438.95 88.87,438.91 87.94,438.85 79.7,438.24 76.46,438.12 73.19,438.43 71.42,438.59 70.12,438.9 69.3,439.29 68.85,439.51 68.73,439.63 68.68,439.76 63.74,452.94 62.55,462.65 64.31,470.4 65.67,476.42 68.46,480.94 74.57,488.11 75.18,488.83 77.53,491.56 78.07,492.19 83.56,498.61 86.83,503.2 89.59,509.05 93.14,516.57 94.99,524.99 95,534.99 95.02,555.79 90.68,572.29 81.62,593.1 80.92,594.71 80.21,596.32 79.26,598.45 78.99,599.05 77.95,601.36 78.11,601.02 77.65,602.04 77.31,602.79 76.99,603.52 75.24,607.45 74.05,610.25 73.02,612.93 70.51,619.43 69.25,624.56 69.09,629.34 69.06,630.58 69.09,631.8 69.21,633 71.43,656.14 91.22,674 115,674 138.78,674 158.57,656.14 160.79,633 L 160.77,633.48 C 160.77,633.27 160.77,633.27 160.77,632.28 160.77,630.93 160.77,630.18 160.77,628.91 160.77,625.28 160.77,621.23 160.77,616.87 160.78,604.41 160.79,591.96 160.8,580.33 160.82,553.1 160.85,534.66 160.89,528.96 160.96,520.1 164.69,513.56 171.24,513.88 177.41,514.19 181.01,520.69 181.03,528.99 181.04,531.6 181.05,536.41 181.06,543.15 181.07,549.58 181.07,557.63 181.08,566.94 181.09,575.73 181.1,585.14 181.11,594.56 181.11,597.86 181.11,600.92 181.11,603.67 181.11,605.2 181.11,605.2 181.11,606.22 181.12,606.96 181.12,606.96 181.12,607.12 L 181.1,606.7 C 182.12,618.84 191.05,628 201.5,628 211.95,628 220.88,618.84 221.9,606.7 L 221.88,607.12 C 221.88,606.96 221.88,606.96 221.89,606.23 221.89,605.23 221.89,605.23 221.89,603.72 221.89,601.02 221.89,598.01 221.89,594.76 221.9,585.49 221.91,576.23 221.92,567.58 221.93,557.1 221.93,548.25 221.94,541.57 221.95,535.09 221.96,530.79 221.97,528.98 221.99,522.44 225.94,517.08 231.53,516.52 237.78,515.91 242.06,521.3 242.2,528.91 242.24,531.51 242.27,534.53 242.29,537.9 242.31,542.54 242.29,547.51 242.26,552.34 242.26,553.46 242.25,554.49 242.24,555.39 242.24,555.71 242.24,555.9 242.23,556.23 242.23,556.48 242.23,556.48 242.23,556.53 L 242.21,556 C 244.43,579.14 264.22,597 288,597 310.78,597 334,575.15 334,556 334,550.27 333.06,547.81 330.17,543.99 330.02,543.8 329.87,543.6 329.65,543.33 329.39,542.98 329.24,542.79 329.11,542.62 328.64,542.01 328.29,541.54 327.93,541.06 322.07,533.01 319.54,523.45 320,504.88 320.38,489.75 323.08,478.5 327.99,467.33 328.65,465.83 329.32,464.39 330.19,462.57 330.34,462.24 330.5,461.92 330.71,461.49 330.96,460.96 331.1,460.68 331.21,460.45 331.6,459.63 331.88,459.04 332.15,458.48 333.49,455.62 334.25,453.7 334.7,451.92 335.42,449.1 335.33,446.63 334.29,443.66 334.45,444.14 334.72,444.53 335.01,444.81 335.16,444.96 335.26,445.03 335.31,445.05 335.07,444.93 334.51,444.77 333.69,444.62 331.95,444.3 329.85,444.12 325.37,443.88 320.98,443.64 319.9,443.57 317.79,443.39 305.82,442.39 298.38,439.99 294.47,433.67 289.5,425.63 293.07,414.43 305.04,398.94 L 304.72,399.41 C 327.18,362.29 336.26,313.12 331.77,263.07 327.6,216.55 311.92,174.42 290.35,151.42 288.23,149.16 288.66,145.52 291.26,143.82 299.02,138.72 311.9,141.7 329.67,150.06 333.87,152.03 338.26,154.29 342.77,156.76 348.76,160.05 354.68,163.56 360.27,167.08 362.23,168.31 364.01,169.45 365.58,170.48 366.13,170.84 366.62,171.16 367.03,171.44 367.29,171.61 367.46,171.73 367.56,171.79 L 361.35,172.27 C 372.66,161.74 369.51,133.25 352.44,107.03 335.38,80.81 310.65,66.45 296.48,72.58 L 298.87,70.41 C 298.45,71.17 297.71,72.43 296.68,74.03 294.98,76.69 293.1,79.36 291.07,81.86 285.87,88.28 280.63,92.65 275.05,94.01 271.27,94.94 267.53,94.36 264.23,92.16 264.15,92.11 264.07,92.06 264,92 258.26,87.7 256.16,80.99 256.76,72.99 257.07,68.83 258.1,64.5 259.61,60.15 260.24,58.34 260.91,56.64 261.59,55.1 262,54.16 262.33,53.47 262.54,53.06 Z M 262.54,53.06" />
    <path id="frostHole55-bezier3" stroke="none" fill="rgb(40, 230, 255)" d="M 201,145 C 196.18,145 191.44,145.55 186.83,146.62 159.02,153.12 139,178.04 139,207 139,241.24 166.76,269 201,269 235.24,269 263,241.24 263,207 263,172.76 235.24,145 201,145 Z M 201,145" />
    <path id="frostHole55-wall" stroke="none" fill="rgb(40, 230, 255)" d="M 201,135 C 240.76,135 273,167.24 273,207 273,246.76 240.76,279 201,279 161.24,279 129,246.76 129,207 129,173.37 152.24,144.44 184.56,136.89 189.91,135.64 195.41,135 201,135 Z M 201,135" />
    <rect id="frostHole55-end" stroke="none" fill="rgb(128, 128, 128)" x="114" y="629" width="1" height="1" />
    <rect id="frostHole55-ball" stroke="none" fill="rgb(128, 128, 128)" x="196" y="62" width="1" height="1" />
</svg>
