<?xml version="1.0" encoding="UTF-8"?>
<!DOCTYPE svg PUBLIC "-//W3C//DTD SVG 1.1//EN" "http://www.w3.org/Graphics/SVG/1.1/DTD/svg11.dtd">
<svg version="1.1" xmlns="http://www.w3.org/2000/svg" xmlns:xlink="http://www.w3.org/1999/xlink" width="400" height="700"  xml:space="preserve" id="frostHole44">
    <!-- Generated by PaintCode - http://www.paintcodeapp.com -->
    <path id="frostHole44-bezier2" stroke="none" fill="rgb(40, 230, 255)" d="M 201.5,310 C 170.3,310 145,335.3 145,366.5 145,397.7 170.3,423 201.5,423 232.7,423 258,397.7 258,366.5 258,343.41 244.02,322.91 223.04,314.25 216.27,311.46 208.99,310 201.5,310 Z M 201.5,310" />
    <path id="frostHole44-wall" stroke="none" fill="rgb(40, 230, 255)" d="M 201.5,300 C 210.31,300 218.88,301.72 226.85,305.01 251.55,315.2 268,339.33 268,366.5 268,403.23 238.23,433 201.5,433 164.77,433 135,403.23 135,366.5 135,329.77 164.77,300 201.5,300 Z M 201.5,300" />
    <path id="frostHole44-bezier3" stroke="none" fill="rgb(40, 230, 255)" d="M 263.38,180.01 C 268.86,180.44 272.81,181.32 275.61,182.87 279.17,184.84 281.04,188.05 280.78,191.85 280.6,194.45 279.51,196.96 277.57,200.1 276.9,201.18 276.15,202.3 275.08,203.84 274.89,204.12 274.69,204.4 274.43,204.78 274.1,205.26 273.92,205.52 273.77,205.73 273.23,206.5 272.83,207.08 272.45,207.64 264.2,219.73 263.21,226.49 271.55,234.21 272.54,235.12 273.66,236.03 274.93,236.95 L 274.66,236.77 C 322.58,266.87 355.09,315.62 355.09,366.41 355.09,367.13 355.09,367.85 355.08,368.56 354.73,393.28 347.89,414.78 334.53,436.24 324.3,452.69 314.03,464.84 287.74,493.31 276.84,505.43 254.88,523.82 233.14,538.16 204.73,556.91 178.64,568 158,568 151.29,568 146.44,567.11 143.09,565.1 139.08,562.7 137.36,558.77 138.01,554.27 138.46,551.16 139.95,547.9 142.46,543.92 144.12,541.28 144.64,540.56 149.6,533.75 150.73,532.21 151.55,531.06 152.33,529.95 157.63,522.39 159.86,517.48 159.33,514.56 158.77,511.51 153.82,508.94 141.61,507.98 141.3,507.96 140.99,507.91 140.68,507.82 78.46,490.83 48.09,441.24 48.09,366.41 48.09,291.66 81.35,242.82 150.45,220.25 L 150.14,220.36 C 154.11,218.77 158.89,216.44 166.31,212.56 168.41,211.46 176.26,207.32 176.26,207.31 180.49,205.09 183.83,203.36 187.16,201.67 204.48,192.9 218.63,186.99 232.45,183.38 243.51,180.49 253.79,179.29 263.37,180.01 L 263.38,180.01 Z M 263.38,180.01" />
    <path id="frostHole44-wall1" stroke="none" fill="rgb(40, 230, 255)" d="M 262.63,189.99 C 254.24,189.36 245.03,190.43 234.98,193.06 221.98,196.45 208.42,202.12 191.67,210.59 188.4,212.25 185.11,213.96 180.92,216.16 180.93,216.16 173.06,220.31 170.94,221.42 163.24,225.45 158.23,227.89 153.86,229.64 153.76,229.68 153.66,229.72 153.55,229.75 88.68,250.94 58.09,295.88 58.09,366.41 58.09,437.08 85.9,482.5 143.32,498.18 L 142.39,498.02 C 158.61,499.28 167.54,503.92 169.17,512.76 170.37,519.32 167.38,525.91 160.52,535.69 159.69,536.86 158.84,538.05 157.68,539.64 150.31,549.75 148.31,552.93 147.91,555.7 147.82,556.33 147.79,556.26 148.23,556.53 149.7,557.41 152.94,558 158,558 176.2,558 200.73,547.57 227.63,529.82 248.69,515.92 270.01,498.07 280.35,486.58 306.24,458.53 316.26,446.67 326.04,430.96 338.47,410.98 344.76,391.24 345.08,368.43 345.09,367.76 345.09,367.08 345.09,366.41 345.09,319.42 314.57,273.64 269.34,245.23 269.25,245.18 269.16,245.12 269.07,245.05 267.49,243.91 266.05,242.74 264.76,241.55 257.68,235 254.92,227.63 256.09,219.75 256.93,214 259.49,208.89 264.18,202.01 270.77,192.35 270.71,192.45 270.8,191.16 270.8,191.24 270.84,191.45 270.96,191.66 271.01,191.75 271.06,191.81 271.08,191.83 271.03,191.78 270.93,191.71 270.77,191.62 269.49,190.91 266.79,190.31 262.62,189.99 L 262.63,189.99 Z M 262.63,189.99" />
    <rect id="frostHole44-end" stroke="none" fill="rgb(128, 128, 128)" x="186" y="526" width="1" height="1" />
    <rect id="frostHole44-ball" stroke="none" fill="rgb(128, 128, 128)" x="214" y="226" width="1" height="1" />
</svg>
