<?xml version="1.0" encoding="UTF-8"?>
<!DOCTYPE svg PUBLIC "-//W3C//DTD SVG 1.1//EN" "http://www.w3.org/Graphics/SVG/1.1/DTD/svg11.dtd">
<svg version="1.1" xmlns="http://www.w3.org/2000/svg" xmlns:xlink="http://www.w3.org/1999/xlink" width="400" height="700"  xml:space="preserve" id="frostHole11">
    <!-- Generated by PaintCode - http://www.paintcodeapp.com -->
    <path id="frostHole11-bezier" stroke="none" fill="rgb(40, 230, 255)" d="M 320.05,106.92 C 353.08,118.48 369.64,157.2 373.9,216.14 376.87,257.14 373.94,301.39 367.2,353.87 364.06,378.32 358.52,388.24 348.2,391.73 347.16,392.08 346.47,392.27 344.68,392.72 340.18,393.86 339.02,394.61 337.41,398.25 334.72,404.34 333.24,416.31 333.24,436.46 333.24,456.7 335.47,474.03 340.42,499.31 340.64,500.42 343.02,512.39 343.67,515.77 344.84,521.85 345.68,526.7 346.32,531.26 347.92,542.48 348.26,551.65 347.15,560.17 344.53,580.23 333.61,596.43 311.35,611.51 280.63,632.32 237.35,642.17 190.23,640.89 146.64,639.7 103.38,628.89 73.4,611.7 44.91,595.38 34.58,571.15 39.49,541.56 43.13,519.64 54.48,496.59 71.75,471.22 78.59,461.18 86.36,456.26 95.69,455.59 102.38,455.11 106.18,455.98 120.36,460.23 131.57,463.6 138.11,464.86 145.73,464.48 155.65,463.99 165.36,460.25 175.72,452.19 188.63,442.15 194.86,431.34 196.35,418.45 197.52,408.42 196.35,400.09 191.94,380.08 189.55,369.23 188.54,364.06 187.75,357.75 186.35,346.62 186.67,336.99 189.18,327.77 192.71,314.78 198.78,303.31 207.78,290.8 209.47,288.46 211.21,286.13 213.36,283.34 214.13,282.33 217.6,277.86 218.49,276.71 222.24,271.81 224.39,268.7 225.84,265.96 228.69,260.53 228.25,258.06 223.46,254.89 L 225.59,255.68 C 196.28,251.95 180.56,256.27 174.29,266.85 169.3,275.26 169.43,286.85 173.35,308.59 173.59,309.92 173.82,311.18 174.2,313.24 177.51,331.12 178.45,338.07 177.99,346.35 177.32,358.26 172.7,366.75 162.98,371.21 141.68,380.97 117.32,380.3 94.84,370.9 74.36,362.33 57.56,347.2 50.7,331.03 46.74,321.71 42.05,303 39.14,283.02 35.37,257.1 34.64,230.79 37.85,206.55 41.81,176.72 51.56,151.32 67.98,131.97 87.07,109.46 114.56,95.91 150.92,92.73 151.98,92.64 153.06,92.54 154.52,92.41 155.42,92.33 155.42,92.33 156.32,92.25 157.23,92.18 157.6,92.14 158.14,92.09 191.32,89.17 209.2,88.31 231.51,89.44 261.08,90.92 289.84,96.35 320.05,106.92 Z M 320.05,106.92" />
    <path id="frostHole11-wall" stroke="none" fill="rgb(40, 230, 255)" d="M 316.74,116.36 C 287.46,106.11 259.64,100.86 231.01,99.42 209.29,98.33 191.77,99.17 159.01,102.06 158.48,102.1 158.11,102.14 157.2,102.22 156.3,102.3 156.3,102.3 155.4,102.38 153.94,102.5 152.86,102.6 151.8,102.69 117.99,105.65 92.95,118 75.6,138.44 60.56,156.18 51.49,179.8 47.77,207.87 44.68,231.11 45.39,256.51 49.04,281.58 51.83,300.78 56.32,318.69 59.9,327.13 65.67,340.71 80.49,354.06 98.7,361.68 118.73,370.05 140.21,370.64 158.81,362.12 164.76,359.39 167.53,354.31 168,345.8 168.4,338.63 167.52,332.06 164.37,315.06 163.99,312.99 163.75,311.71 163.51,310.37 161.53,299.38 160.59,292.05 160.51,284.97 160.4,275.69 161.96,268.04 165.69,261.74 174.46,246.96 194.03,241.58 226.85,245.76 227.62,245.86 228.34,246.13 228.98,246.55 238.34,252.75 239.8,260.91 234.69,270.62 232.91,274 230.5,277.47 226.42,282.79 225.51,283.98 222.04,288.46 221.28,289.44 219.2,292.15 217.51,294.4 215.9,296.64 207.54,308.26 202,318.73 198.83,330.39 196.71,338.21 196.43,346.58 197.67,356.5 198.41,362.41 199.38,367.38 201.71,377.93 206.36,399.06 207.63,408.06 206.29,419.6 204.48,435.19 196.86,448.42 181.86,460.09 169.91,469.38 158.24,473.87 146.23,474.47 137.17,474.92 129.71,473.48 117.48,469.81 104.7,465.97 101.35,465.21 96.4,465.56 90.29,466 85.21,469.21 80.02,476.85 63.5,501.12 52.7,523.03 49.35,543.2 45.1,568.82 53.65,588.86 78.37,603.03 106.82,619.33 148.48,629.74 190.51,630.89 235.7,632.12 276.95,622.73 305.75,603.23 325.75,589.68 335.01,575.94 337.23,558.88 338.21,551.38 337.9,543.07 336.42,532.66 335.8,528.29 334.99,523.59 333.85,517.65 333.21,514.31 330.83,502.38 330.61,501.23 325.54,475.37 323.24,457.47 323.24,436.46 323.24,415.01 324.85,401.91 328.26,394.21 331.35,387.24 335.03,384.85 342.22,383.03 343.75,382.64 344.3,382.49 345,382.25 347.6,381.37 349.3,380.01 351.08,376.83 353.66,372.21 355.77,364.43 357.28,352.6 363.94,300.73 366.84,257.03 363.93,216.86 359.93,161.53 344.81,126.18 316.74,116.36 Z M 316.74,116.36" />
    <rect id="frostHole11-end" stroke="none" fill="rgb(128, 128, 128)" x="90" y="549" width="1" height="1" />
    <rect id="frostHole11-ball" stroke="none" fill="rgb(128, 128, 128)" x="117" y="301" width="1" height="1" />
</svg>
