<?xml version="1.0" encoding="UTF-8"?>
<!DOCTYPE svg PUBLIC "-//W3C//DTD SVG 1.1//EN" "http://www.w3.org/Graphics/SVG/1.1/DTD/svg11.dtd">
<svg version="1.1" xmlns="http://www.w3.org/2000/svg" xmlns:xlink="http://www.w3.org/1999/xlink" width="400" height="700"  xml:space="preserve" id="frostHole22">
    <!-- Generated by PaintCode - http://www.paintcodeapp.com -->
    <path id="frostHole22-bezier" stroke="none" fill="rgb(40, 230, 255)" d="M 304.44,193.95 C 330.29,193.09 349.32,210.98 361.35,243.51 371.63,271.28 376.71,309.55 376.71,353.01 376.71,435.66 358.52,521.33 335.52,540.65 314.05,558.69 291.16,565.47 269.34,561.51 249.85,557.98 232.37,545.95 220.41,528.74 215.4,521.53 213.04,508.78 212.28,489.48 211.72,475.39 211.93,462.74 212.91,431.69 213,428.99 213.04,427.46 213.1,425.79 214.22,389.42 214.16,370.35 212.16,354.01 209.82,334.8 205.06,326.05 198.37,326.41 192.64,326.71 189.36,342.07 190.85,371.5 192.12,396.75 196.06,427.18 204.17,479.6 204.64,482.65 205.14,485.83 205.73,489.66 214.54,546.21 216.96,562.73 219.22,584.72 222.4,615.8 221.87,633.55 215.75,640.67 208.08,649.61 198.81,651.88 188.16,648.52 180.94,646.24 177.01,643.87 161.33,633.33 145.34,622.59 136.53,618.36 127.11,618.36 117.48,618.36 109.22,622.55 96.65,632.29 96.5,632.41 90.23,637.33 88.46,638.67 85.31,641.06 82.73,642.83 80.23,644.27 73.58,648.08 67.59,649.37 61.57,647.46 58.04,646.34 54.74,644.14 51.62,640.86 44.79,633.68 43.93,613.51 47.09,579.11 49.57,552.1 54.53,517.6 62.01,472.98 63.48,464.2 65.05,455.01 66.78,445.04 69.01,432.21 77.8,382.51 79.73,371.35 83.99,346.68 86.44,330.95 87.5,320.89 93.77,261.27 97.79,229.05 105.66,186.15 120.45,105.5 139.68,52.3 166.05,36.13 179.31,28.01 190.75,29.66 199.77,40.13 206.5,47.94 211.67,59.73 218.35,80.22 219.06,82.43 227.13,108.12 229.76,115.89 238.22,140.89 246.36,158.24 256.85,171.2 269.49,186.81 284.8,194.6 304.44,193.95 Z M 304.44,193.95" />
    <path id="frostHole22-wall" stroke="none" fill="rgb(40, 230, 255)" d="M 304.77,203.94 C 281.83,204.71 263.6,195.43 249.08,177.49 237.67,163.4 229.09,145.12 220.29,119.1 217.62,111.2 209.53,85.43 208.84,83.32 202.57,64.09 197.76,53.12 192.19,46.66 186.4,39.94 180.39,39.07 171.28,44.66 148.42,58.67 129.71,110.44 115.5,187.96 107.69,230.52 103.69,262.57 97.45,321.94 96.36,332.29 93.88,348.16 89.59,373.05 87.65,384.24 78.86,433.95 76.63,446.75 74.9,456.71 73.34,465.87 71.87,474.63 64.43,519.02 59.5,553.32 57.05,580.03 54.24,610.6 55.07,629.97 58.87,633.97 60.88,636.09 62.77,637.35 64.59,637.93 67.51,638.85 70.81,638.15 75.25,635.59 77.32,634.4 79.58,632.85 82.42,630.7 84.11,629.42 90.31,624.56 90.52,624.39 104.72,613.38 114.63,608.36 127.11,608.36 133.89,608.36 140.76,610.25 148.16,613.8 153.72,616.46 158.78,619.57 166.91,625.03 181.56,634.88 185.29,637.13 191.17,638.98 198.13,641.18 203.2,639.94 208.16,634.16 211.58,630.18 212.09,613.27 209.27,585.74 207.04,564 204.63,547.53 195.85,491.2 195.26,487.37 194.76,484.18 194.29,481.13 186.12,428.37 182.16,397.71 180.86,372 180.05,355.97 180.5,343.54 182.41,334.61 184.78,323.53 189.68,316.86 197.84,316.42 205.37,316.01 211.29,320.01 215.32,327.41 218.59,333.44 220.76,341.86 222.09,352.8 224.17,369.83 224.24,389.19 223.09,426.1 223.04,427.78 222.99,429.3 222.91,432.01 221.93,462.8 221.72,475.32 222.27,489.08 222.96,506.51 225.07,517.93 228.62,523.03 239.13,538.16 254.36,548.64 271.12,551.67 289.91,555.08 309.82,549.18 329.09,532.99 348.97,516.3 366.71,432.74 366.71,353.01 366.71,310.63 361.77,273.47 351.97,246.97 341.28,218.06 325.53,203.25 304.77,203.94 Z M 304.77,203.94" />
    <rect id="frostHole22-end" stroke="none" fill="rgb(128, 128, 128)" x="279" y="504" width="1" height="1" />
    <rect id="frostHole22-ball" stroke="none" fill="rgb(128, 128, 128)" x="129" y="567" width="1" height="1" />
</svg>
