<?xml version="1.0" encoding="UTF-8"?>
<!DOCTYPE svg PUBLIC "-//W3C//DTD SVG 1.1//EN" "http://www.w3.org/Graphics/SVG/1.1/DTD/svg11.dtd">
<svg version="1.1" xmlns="http://www.w3.org/2000/svg" xmlns:xlink="http://www.w3.org/1999/xlink" width="400" height="700"  xml:space="preserve" id="frostHole77">
    <!-- Generated by PaintCode - http://www.paintcodeapp.com -->
    <path id="frostHole77-bezier" stroke="none" fill="rgb(40, 230, 255)" d="M 196.24,199.67 C 178.41,204.23 161.61,225.22 152.86,252.35 144.23,279.07 145.73,304.72 157.2,316.51 167.19,326.79 187.82,321.42 211.7,303.75 232.2,288.57 250,267.32 250,259.75 250.54,227.64 248.39,212.26 241.76,204.21 235.07,196.07 221.87,194.54 195.98,199.73 L 196.24,199.67 Z M 196.24,199.67" />
    <path id="frostHole77-wall2" stroke="none" fill="rgb(40, 230, 255)" d="M 193.76,189.99 C 193.85,189.96 193.93,189.94 194.02,189.93 223.19,184.08 239.73,185.99 249.49,197.86 258.22,208.48 260.58,225.32 260,259.83 260,271.63 240.6,294.8 217.65,311.79 205.44,320.82 193.27,327.29 182.37,330.13 169.22,333.55 157.98,331.65 150.03,323.49 119.27,291.86 148.42,201.58 193.76,189.99 Z M 193.76,189.99" />
    <path id="frostHole77-bezier3" stroke="none" fill="rgb(40, 230, 255)" d="M 370.95,194.1 C 374.21,216.19 371.48,238.39 363.64,260.84 357.26,279.1 347.81,296.83 335.36,315.37 329.42,324.22 324.66,330.71 314.91,343.6 306.69,354.45 303.79,358.48 301.69,362.23 300.65,364.1 300.15,365.4 300.13,365.91 300.16,365.31 299.54,364.33 298.91,364.09 299.41,364.28 300.97,364.32 303.45,363.98 306.45,363.57 310.48,362.65 315.64,361.19 331.16,356.8 342.09,364.41 346.83,380.86 350.75,394.43 350.73,414.31 347.19,438.12 340.32,484.42 321.23,538.86 300.16,570.54 278.93,602.49 241.59,625.46 199.84,635.23 160.7,644.4 123.72,640.3 105.62,623.64 84.11,603.87 71.62,565.61 72.12,529.99 72.36,513.43 75.54,499.48 81.46,490.91 88.7,480.42 99.75,478.32 111.68,485.91 L 110.04,485.24 C 169.93,498.03 206.95,479.51 227.74,433.93 229.79,429.42 230.2,426.42 229.55,424.82 229.11,423.74 227.82,422.89 225.16,422.37 218.92,421.15 208.25,422.63 194.72,426.31 189.65,427.69 184.29,429.34 178.76,431.21 172.69,433.27 166.73,435.47 161.14,437.68 159.18,438.45 157.41,439.16 155.86,439.8 155.32,440.03 154.85,440.22 154.45,440.39 154.21,440.49 154.05,440.56 153.97,440.59 153.37,440.85 152.72,440.99 152.06,441 151.16,441.01 139.61,442.95 140.43,442.82 123.81,445.4 109.39,445.7 95.02,442.27 75.94,437.73 60.42,426.9 49.78,408.52 37.33,387.02 32.08,355.98 35.01,314.13 44.23,182.44 84.95,105.14 150.35,81.53 164.33,76.49 179.27,74 195,74 L 195.11,74 C 250.77,75.24 290.36,86.7 318.45,108.63 343.07,127.85 358.66,154.43 370.77,193.34 370.85,193.59 370.91,193.84 370.95,194.1 Z M 370.95,194.1" />
    <path id="frostHole77-wall" stroke="none" fill="rgb(40, 230, 255)" d="M 361.05,195.56 L 361.23,196.32 C 349.67,159.18 335.07,134.29 312.3,116.51 286.1,96.06 248.56,85.2 194.89,84 L 195,84 C 180.4,84 166.61,86.3 153.75,90.94 92.8,112.93 53.96,186.67 44.99,314.83 42.19,354.84 47.11,383.95 58.43,403.51 67.64,419.41 80.83,428.61 97.34,432.55 110.2,435.61 123.44,435.34 138.89,432.94 140.19,432.74 141.47,432.53 143,432.27 143.37,432.21 145.86,431.78 146.51,431.67 149.25,431.21 150.7,431.01 151.94,431 L 150.03,431.41 C 150.12,431.36 150.3,431.29 150.56,431.18 150.99,431 151.48,430.79 152.04,430.56 153.64,429.9 155.46,429.16 157.47,428.37 163.21,426.11 169.32,423.85 175.55,421.74 181.27,419.81 186.81,418.09 192.1,416.66 207.03,412.6 218.89,410.96 227.08,412.56 239.18,414.92 243.05,424.44 236.83,438.07 214.1,487.94 172.42,508.79 107.96,495.02 107.37,494.9 106.82,494.67 106.32,494.35 98.87,489.61 93.85,490.57 89.69,496.59 85.1,503.24 82.33,515.37 82.12,530.13 81.66,563.15 93.26,598.7 112.38,616.28 127.56,630.24 161.32,633.98 197.56,625.5 236.99,616.27 272.13,594.65 291.84,565.01 312.02,534.64 330.63,481.59 337.3,436.65 340.64,414.14 340.67,395.55 337.23,383.63 333.89,372.09 328.11,368.05 318.36,370.81 306.62,374.14 299.67,375.09 295.33,373.42 291.85,372.08 289.94,369.04 290.14,365.38 290.27,362.98 291.24,360.44 292.96,357.35 295.39,353.01 298.36,348.88 306.94,337.56 316.58,324.82 321.26,318.44 327.06,309.8 339.07,291.91 348.13,274.9 354.2,257.54 361.53,236.54 364.07,215.94 361.05,195.56 Z M 361.05,195.56" />
    <rect id="frostHole77-end" stroke="none" fill="rgb(128, 128, 128)" x="132" y="570" width="1" height="1" />
    <rect id="frostHole77-ball" stroke="none" fill="rgb(128, 128, 128)" x="193" y="144" width="1" height="1" />
</svg>
