<?xml version="1.0" encoding="UTF-8"?>
<!DOCTYPE svg PUBLIC "-//W3C//DTD SVG 1.1//EN" "http://www.w3.org/Graphics/SVG/1.1/DTD/svg11.dtd">
<svg version="1.1" xmlns="http://www.w3.org/2000/svg" xmlns:xlink="http://www.w3.org/1999/xlink" width="400" height="700"  xml:space="preserve" id="frostHole66">
    <!-- Generated by PaintCode - http://www.paintcodeapp.com -->
    <path id="frostHole66-bezier4" stroke="none" fill="rgb(40, 230, 255)" d="M 331,235.5 C 331,252.69 329.24,269.56 325.8,285.74 325.76,285.96 325.69,286.18 325.62,286.4 321.9,296.68 311.15,309.19 292.47,326.35 285.16,333.07 276.86,340.31 265.42,350.02 262.73,352.3 241.67,370.08 235.39,375.44 220.97,387.75 209.77,397.67 199.67,407.2 167.44,437.64 149.74,461.55 147.46,480.59 143.83,511.04 148.35,538.48 159.06,558.87 168.42,576.68 181.6,587 193.5,587 203.08,587 212.58,580.33 220.55,567.79 231.76,550.16 238.5,523.22 238.5,494 238.5,475.98 235.95,458.73 231.23,443.85 L 231.54,444.61 C 223.35,428.58 232.67,406.91 250.92,391.11 269.52,375 290.83,370.84 301.65,385.82 301.8,386.03 301.94,386.26 302.06,386.5 316.92,416.12 325,451.24 325,488 325,586.57 266.99,667 194.5,667 122.01,667 64,586.57 64,488 64,469.5 66.04,451.38 70.01,434.09 72.64,423.35 82.9,410.46 101.26,393.04 108.53,386.14 116.96,378.63 128.07,369.06 133.84,364.08 154.62,346.38 158.05,343.44 168.61,334.39 176.93,327.1 184.65,320.08 221.27,286.79 240.78,262.29 243.04,243.41 246.02,218.39 243.52,195.39 236.47,176.45 227.38,152.05 211.46,137 197,137 194.16,137 191.35,137.58 188.57,138.72 181.93,141.46 175.53,147.44 169.95,156.21 168.94,157.8 167.96,159.47 167.02,161.22 157.53,178.84 152,203.52 152,230 152,248.02 154.55,265.27 159.27,280.15 L 159.23,280.03 C 164.86,296.31 154.65,316.53 136.89,331.12 128.94,337.65 120.32,342.17 112.69,343.6 103.41,345.33 95.65,342.42 91.75,334.59 77.63,305.43 70,271.24 70,235.5 70,181.71 87.36,131.75 116.9,97.94 119.94,94.47 123.1,91.18 126.36,88.09 147.92,67.66 173.57,56.5 200.5,56.5 272.99,56.5 331,136.93 331,235.5 Z M 331,235.5" />
    <path id="frostHole66-wall" stroke="none" fill="rgb(40, 230, 255)" d="M 321,235.5 C 321,141.88 266.63,66.5 200.5,66.5 176.25,66.5 153.02,76.61 133.23,95.35 130.2,98.22 127.27,101.28 124.43,104.53 96.55,136.44 80,184.04 80,235.5 80,269.75 87.3,302.45 100.73,330.19 102.4,333.54 105.62,334.74 110.86,333.77 116.65,332.69 123.8,328.93 130.54,323.39 145.43,311.16 153.73,294.72 149.78,283.3 L 149.74,283.17 C 144.7,267.29 142,249.02 142,230 142,201.94 147.89,175.65 158.21,156.48 159.27,154.52 160.37,152.64 161.51,150.85 168.11,140.46 176.02,133.08 184.76,129.48 188.72,127.84 192.83,127 197,127 216.35,127 235.44,145.05 245.84,172.96 253.46,193.42 256.14,218.03 252.96,244.59 250.31,266.81 229.85,292.51 191.38,327.48 183.58,334.57 175.19,341.92 164.56,351.03 161.11,353.99 140.34,371.68 134.59,376.63 123.6,386.11 115.28,393.52 108.15,400.3 91.18,416.4 81.74,428.26 79.74,436.4 75.96,452.88 74,470.25 74,488 74,581.62 128.37,657 194.5,657 260.63,657 315,581.62 315,488 315,452.78 307.28,419.19 293.12,390.99 L 293.54,391.67 C 290.37,387.28 285.51,385.76 278.97,387.04 272.3,388.34 264.55,392.54 257.47,398.66 242.29,411.81 234.85,429.11 240.45,440.06 240.57,440.31 240.68,440.56 240.76,440.83 245.8,456.71 248.5,474.98 248.5,494 248.5,525.01 241.3,553.8 228.99,573.15 219.35,588.32 206.99,597 193.5,597 177.33,597 161.13,584.31 150.21,563.52 138.52,541.28 133.67,511.8 137.54,479.41 140.18,457.24 158.91,431.94 192.8,399.93 203.05,390.26 214.36,380.24 228.89,367.84 235.2,362.45 256.28,344.66 258.94,342.4 270.29,332.76 278.51,325.6 285.7,318.99 303.2,302.92 313.24,291.24 316.21,283 L 316.02,283.66 C 319.31,268.16 321,251.99 321,235.5 Z M 321,235.5" />
    <rect id="frostHole66-end" stroke="none" fill="rgb(128, 128, 128)" x="274" y="430" width="1" height="1" />
    <rect id="frostHole66-ball" stroke="none" fill="rgb(128, 128, 128)" x="117" y="301" width="1" height="1" />
</svg>
