<?xml version="1.0" encoding="UTF-8"?>
<!DOCTYPE svg PUBLIC "-//W3C//DTD SVG 1.1//EN" "http://www.w3.org/Graphics/SVG/1.1/DTD/svg11.dtd">
<svg version="1.1" xmlns="http://www.w3.org/2000/svg" xmlns:xlink="http://www.w3.org/1999/xlink" width="400" height="700"  xml:space="preserve" id="frostHole33">
    <!-- Generated by PaintCode - http://www.paintcodeapp.com -->
    <path id="frostHole33-wall" stroke="none" fill="rgb(40, 230, 255)" d="M 200,271 C 177.99,271 149.92,276.6 132.74,284.94 123.8,289.27 118.36,294.04 116.94,298.51 115.53,302.97 118.03,308.23 126.09,314.57 134.08,320.86 140.68,329.45 146.48,340.46 151.07,349.19 154.92,358.8 159.53,372.27 160.3,374.51 161.06,376.78 162.09,379.86 162.36,380.69 163.31,383.56 163.33,383.62 163.83,385.1 164.2,386.23 164.57,387.32 170.48,404.96 174.35,414.4 179.34,421.96 185.16,430.79 191.62,435 200,435 207.21,435 212.21,431.85 216.41,425.04 220.13,419.01 222.82,411.2 226.66,396.55 226.99,395.29 229.01,387.49 229.62,385.18 230.82,380.65 231.86,376.92 232.94,373.32 236.95,359.97 241.32,349.39 247.13,340.13 254.22,328.84 263.21,320.12 274.67,314.08 280.77,310.86 284.13,307.87 285.13,305.44 285.76,303.9 285.4,302.38 283.65,300.28 279.62,295.43 270.18,290.27 256.13,284.74 252.65,283.37 249.02,282.03 244.58,280.44 243.19,279.94 236.08,277.43 234.3,276.78 223.86,273.01 212.15,271 200,271 Z M 200,271" />
    <path id="frostHole33-wall2" stroke="none" fill="rgb(40, 230, 255)" d="M 200,261 C 213.3,261 226.15,263.21 237.7,267.38 239.44,268.01 246.53,270.51 247.95,271.02 252.48,272.65 256.2,274.02 259.79,275.44 275.4,281.58 285.86,287.3 291.34,293.88 299.69,303.92 295.35,314.48 279.33,322.92 261.07,332.54 250.63,349.17 242.52,376.19 241.47,379.67 240.46,383.31 239.29,387.73 238.69,390.02 236.67,397.8 236.33,399.08 232.24,414.69 229.33,423.14 224.92,430.29 219,439.89 210.91,445 200,445 187.9,445 178.52,438.89 170.99,427.47 165.37,418.94 161.27,408.95 155.09,390.5 154.72,389.4 154.34,388.27 153.84,386.77 153.82,386.71 152.87,383.85 152.6,383.02 151.58,379.96 150.82,377.71 150.07,375.5 140.59,347.78 132.43,332.29 119.91,322.43 98.31,305.42 103.87,287.83 128.37,275.94 147.01,266.89 176.56,261 200,261 Z M 200,261" />
    <path id="frostHole33-wall3" stroke="none" fill="rgb(40, 230, 255)" d="M 261.24,184.34 C 263.42,199.63 269.06,210.45 278.23,218.8 285.32,225.26 292.27,229.11 308.76,236.64 308.99,236.74 308.99,236.74 309.22,236.85 328.54,245.67 337.05,250.61 345.69,259.72 357.18,271.84 363.36,288.17 364,310.86 364.57,331 362.2,345.95 356.89,357.89 352.53,367.68 346.93,374.62 336.98,383.99 335.72,385.17 330.45,390.05 329.08,391.34 325.99,394.25 323.5,396.72 321.12,399.28 307.77,413.6 298.5,430.53 291.69,456.9 L 291.81,456.31 C 277.48,562.72 233.86,626 177,626 128.95,626 100.99,579.17 100,494.06 99.84,480.09 95.2,467.99 84.39,449.4 83.62,448.08 82.81,446.71 81.82,445.04 81.26,444.1 79.35,440.88 79.2,440.63 71.54,427.72 67.61,420.41 64.08,411.66 59.43,400.13 57,388.89 57,377 57,282.78 78.32,196.9 112.87,148.07 125.44,130.29 139.49,117.87 154.49,111.62 161.83,108.56 169.37,107 177,107 209.33,107 238.87,134.79 260.84,182.98 261.03,183.41 261.17,183.87 261.24,184.34 Z M 261.24,184.34" />
    <path id="frostHole33-wall4" stroke="none" fill="rgb(40, 230, 255)" d="M 251.34,185.76 L 251.74,187.12 C 231.22,142.11 204.52,117 177,117 170.71,117 164.48,118.29 158.33,120.85 145.25,126.3 132.6,137.49 121.03,153.84 87.84,200.77 67,284.68 67,377 67,387.53 69.16,397.52 73.36,407.92 76.64,416.07 80.38,423.03 87.8,435.52 87.95,435.77 89.86,438.99 90.42,439.94 91.43,441.63 92.25,443.03 93.03,444.37 104.64,464.33 109.81,477.83 110,493.94 110.93,574.3 135.83,616 177,616 227.52,616 268.15,557.05 281.9,454.98 281.92,454.78 281.96,454.59 282.01,454.39 289.24,426.41 299.32,408.01 313.8,392.46 316.35,389.72 318.99,387.11 322.22,384.06 323.64,382.73 328.91,377.85 330.12,376.71 339.19,368.17 344.04,362.17 347.75,353.82 352.39,343.39 354.53,329.89 354,311.14 353.43,290.81 348.14,276.84 338.43,266.6 330.97,258.73 323.23,254.24 305.07,245.95 304.84,245.84 304.84,245.84 304.61,245.74 287.17,237.77 279.62,233.59 271.49,226.19 260.59,216.26 253.85,203.33 251.34,185.76 Z M 251.34,185.76" />
    <rect id="frostHole33-end" stroke="none" fill="rgb(128, 128, 128)" x="177" y="549" width="1" height="1" />
    <rect id="frostHole33-ball" stroke="none" fill="rgb(128, 128, 128)" x="168" y="172" width="1" height="1" />
</svg>
