<?xml version="1.0" encoding="UTF-8"?>
<!DOCTYPE svg PUBLIC "-//W3C//DTD SVG 1.1//EN" "http://www.w3.org/Graphics/SVG/1.1/DTD/svg11.dtd">
<svg version="1.1" xmlns="http://www.w3.org/2000/svg" xmlns:xlink="http://www.w3.org/1999/xlink" width="400" height="700"  xml:space="preserve" id="nebulaHole33">
    <!-- Generated by PaintCode - http://www.paintcodeapp.com -->
    <defs>
        <linearGradient id="nebulaHole33-outerWalls-bezier" x1="202" y1="294.05" x2="202" y2="391.57" gradientUnits="userSpaceOnUse" >
            <stop offset="0" stop-color="rgb(214, 56, 255)" stop-opacity="1" />
            <stop offset="0.49" stop-color="rgb(130, 98, 235)" stop-opacity="1" />
            <stop offset="1" stop-color="rgb(59, 30, 152)" stop-opacity="1" />
        </linearGradient>
        <filter id="nebulaHole33-highlight-inner" filterUnits="userSpaceOnUse">
            <feGaussianBlur in="SourceAlpha" stdDeviation="0" result="blur"/>
            <feOffset dx="0" dy="2"/>
            <feComposite in2="SourceAlpha" operator="arithmetic" k2="-1.15" k3="1.15" result="shadowDiff"/>
            <feFlood flood-color="rgb(255, 255, 255)" flood-opacity="1"/>
            <feComposite in2="shadowDiff" operator="in"/>
            <feComposite in2="SourceGraphic" operator="over"/>
        </filter>
        <linearGradient id="nebulaHole33-outerWalls-bezier2" x1="202" y1="285" x2="202" y2="398.11" gradientUnits="userSpaceOnUse" >
            <stop offset="0" stop-color="rgb(214, 56, 255)" stop-opacity="1" />
            <stop offset="0.49" stop-color="rgb(130, 98, 235)" stop-opacity="1" />
            <stop offset="1" stop-color="rgb(59, 30, 152)" stop-opacity="1" />
        </linearGradient>
        <linearGradient id="nebulaHole33-outerWalls-bezier3" x1="202" y1="153" x2="202" y2="504.91" gradientUnits="userSpaceOnUse" >
            <stop offset="0" stop-color="rgb(214, 56, 255)" stop-opacity="1" />
            <stop offset="0.49" stop-color="rgb(130, 98, 235)" stop-opacity="1" />
            <stop offset="1" stop-color="rgb(59, 30, 152)" stop-opacity="1" />
        </linearGradient>
        <linearGradient id="nebulaHole33-outerWalls-bezier4" x1="202" y1="155.17" x2="202" y2="500.04" gradientUnits="userSpaceOnUse" >
            <stop offset="0" stop-color="rgb(214, 56, 255)" stop-opacity="1" />
            <stop offset="0.49" stop-color="rgb(130, 98, 235)" stop-opacity="1" />
            <stop offset="1" stop-color="rgb(59, 30, 152)" stop-opacity="1" />
        </linearGradient>
    </defs>
    <path id="nebulaHole33-bezier" stroke="none" fill="url(#nebulaHole33-outerWalls-bezier)" filter="url(#nebulaHole33-highlight-inner)" d="M 204.94,294.05 C 203.88,294.82 203.88,294.82 199.4,298.07 193.65,302.25 193.65,302.25 186.17,307.68 182.06,310.67 182.06,310.67 177.83,313.74 167.67,321.12 167.67,321.12 159.2,327.28 155.6,329.89 155.6,329.89 153.06,331.74 151.15,333.12 151.15,333.12 150.73,333.43 L 152.55,327.84 173.25,391.57 168.5,388.11 235.5,388.11 230.75,391.57 251.45,327.84 253.27,333.43 199.06,294.05 204.94,294.05 Z M 204.94,294.05" />
    <rect id="nebulaHole33-ball" stroke="none" fill="rgb(128, 128, 128)" x="202" y="433" width="1" height="1" />
    <rect id="nebulaHole33-end" stroke="none" fill="rgb(128, 128, 128)" x="200" y="220" width="1" height="1" />
    <path id="nebulaHole33-bezier2" stroke="none" fill="url(#nebulaHole33-outerWalls-bezier2)" filter="url(#nebulaHole33-highlight-inner)" d="M 199.06,285.95 C 200.81,284.68 203.19,284.68 204.94,285.95 L 259.15,325.34 C 260.9,326.61 261.63,328.87 260.97,330.93 L 240.26,394.66 C 239.59,396.72 237.67,398.11 235.5,398.11 L 168.5,398.11 C 166.33,398.11 164.41,396.72 163.74,394.66 L 143.03,330.93 C 142.37,328.87 143.1,326.61 144.85,325.34 145.27,325.03 145.27,325.03 147.18,323.65 149.72,321.8 149.72,321.8 153.32,319.19 161.79,313.03 161.79,313.03 171.96,305.65 176.18,302.58 176.18,302.58 180.29,299.59 187.77,294.16 187.77,294.16 193.53,289.98 198,286.73 198,286.73 199.06,285.95 Z M 199.06,285.95" />
    <path id="nebulaHole33-bezier3" stroke="none" fill="url(#nebulaHole33-outerWalls-bezier3)" filter="url(#nebulaHole33-highlight-inner)" d="M 197.88,160.83 L 206.13,155.17 206.13,155.17 206.13,155.18 C 206.13,155.18 206.13,155.18 206.13,155.18 206.13,155.18 206.13,155.18 206.14,155.19 206.15,155.21 206.15,155.21 206.17,155.24 206.23,155.33 206.23,155.33 206.32,155.45 206.54,155.77 206.54,155.77 206.87,156.27 207.72,157.5 207.72,157.5 208.99,159.35 212.11,163.91 212.11,163.91 216.54,170.37 226.95,185.57 226.95,185.57 239.45,203.8 251.95,222.04 251.95,222.04 262.36,237.23 266.79,243.69 266.79,243.69 269.92,248.25 272.26,251.67 272.26,251.67 272.78,252.43 L 270.07,250.46 383.16,283.8 C 386.53,284.79 387.85,288.86 385.71,291.64 L 313.81,385.09 314.85,381.91 318.09,499.77 C 318.19,503.28 314.73,505.79 311.42,504.62 L 200.32,465.11 203.68,465.11 92.58,504.62 C 89.27,505.79 85.81,503.28 85.91,499.77 L 89.15,381.91 90.19,385.09 18.29,291.64 C 16.15,288.86 17.47,284.79 20.84,283.8 L 133.93,250.46 131.22,252.43 197.88,155.17 C 199.86,152.28 204.14,152.28 206.12,155.17 L 206.13,155.17 202,158 197.88,160.83 Z M 197.88,160.83" />
    <path id="nebulaHole33-bezier4" stroke="none" fill="url(#nebulaHole33-outerWalls-bezier4)" filter="url(#nebulaHole33-highlight-inner)" d="M 206.13,155.17 C 209.89,160.67 201.65,166.33 197.88,160.83 L 197.88,160.83 202,158 206.12,160.83 139.47,258.08 C 138.82,259.03 137.86,259.73 136.76,260.05 L 23.66,293.39 26.21,285.55 98.11,378.99 C 98.81,379.9 99.18,381.03 99.15,382.18 L 95.91,500.04 89.23,495.19 200.32,455.69 C 201.41,455.3 202.59,455.3 203.68,455.69 L 314.77,495.19 308.09,500.04 304.85,382.18 C 304.82,381.03 305.19,379.9 305.89,378.99 L 377.79,285.55 380.34,293.39 267.24,260.05 C 266.14,259.73 265.18,259.03 264.53,258.08 264.01,257.32 264.01,257.32 261.67,253.91 258.54,249.35 258.54,249.35 254.12,242.89 243.7,227.69 243.7,227.69 231.2,209.46 218.71,191.22 218.71,191.22 208.29,176.02 203.86,169.57 203.86,169.57 200.74,165.01 199.47,163.15 199.47,163.15 198.62,161.92 198.29,161.43 198.29,161.43 198.07,161.11 197.98,160.98 197.98,160.98 197.92,160.9 197.9,160.87 197.9,160.87 197.89,160.85 197.88,160.84 197.88,160.84 197.88,160.83 197.88,160.83 197.88,160.83 197.88,160.83 L 197.88,160.83 197.88,160.83 197.88,160.83 206.13,155.17 Z M 206.13,155.17" />
</svg>
