<?xml version="1.0" encoding="UTF-8"?>
<!DOCTYPE svg PUBLIC "-//W3C//DTD SVG 1.1//EN" "http://www.w3.org/Graphics/SVG/1.1/DTD/svg11.dtd">
<svg version="1.1" xmlns="http://www.w3.org/2000/svg" xmlns:xlink="http://www.w3.org/1999/xlink" width="400" height="700"  xml:space="preserve" id="nebulaHole77">
    <!-- Generated by PaintCode - http://www.paintcodeapp.com -->
    <defs>
        <linearGradient id="nebulaHole77-outerWalls-bezier3" x1="200" y1="108" x2="200" y2="648" gradientUnits="userSpaceOnUse" >
            <stop offset="0" stop-color="rgb(214, 56, 255)" stop-opacity="1" />
            <stop offset="0.49" stop-color="rgb(130, 98, 235)" stop-opacity="1" />
            <stop offset="1" stop-color="rgb(59, 30, 152)" stop-opacity="1" />
        </linearGradient>
        <filter id="nebulaHole77-highlight-inner" filterUnits="userSpaceOnUse">
            <feGaussianBlur in="SourceAlpha" stdDeviation="0" result="blur"/>
            <feOffset dx="0" dy="2"/>
            <feComposite in2="SourceAlpha" operator="arithmetic" k2="-1.15" k3="1.15" result="shadowDiff"/>
            <feFlood flood-color="rgb(255, 255, 255)" flood-opacity="1"/>
            <feComposite in2="shadowDiff" operator="in"/>
            <feComposite in2="SourceGraphic" operator="over"/>
        </filter>
        <linearGradient id="nebulaHole77-outerWalls-bezier" x1="200" y1="113" x2="200" y2="640.41" gradientUnits="userSpaceOnUse" >
            <stop offset="0" stop-color="rgb(214, 56, 255)" stop-opacity="1" />
            <stop offset="0.49" stop-color="rgb(130, 98, 235)" stop-opacity="1" />
            <stop offset="1" stop-color="rgb(59, 30, 152)" stop-opacity="1" />
        </linearGradient>
        <linearGradient id="nebulaHole77-outerWalls-bezier2" x1="211.59" y1="264.02" x2="211.59" y2="490.97" gradientUnits="userSpaceOnUse" >
            <stop offset="0" stop-color="rgb(214, 56, 255)" stop-opacity="1" />
            <stop offset="0.49" stop-color="rgb(130, 98, 235)" stop-opacity="1" />
            <stop offset="1" stop-color="rgb(59, 30, 152)" stop-opacity="1" />
        </linearGradient>
        <linearGradient id="nebulaHole77-outerWalls-bezier4" x1="208.95" y1="257" x2="208.95" y2="498.5" gradientUnits="userSpaceOnUse" >
            <stop offset="0" stop-color="rgb(214, 56, 255)" stop-opacity="1" />
            <stop offset="0.49" stop-color="rgb(130, 98, 235)" stop-opacity="1" />
            <stop offset="1" stop-color="rgb(59, 30, 152)" stop-opacity="1" />
        </linearGradient>
    </defs>
    <path id="nebulaHole77-bezier3" stroke="none" fill="url(#nebulaHole77-outerWalls-bezier3)" filter="url(#nebulaHole77-highlight-inner)" d="M 268.46,230.4 C 277.42,221.05 277.42,221.05 284.09,214.1 286.84,211.24 286.84,211.24 288.72,209.29 290.1,207.85 290.1,207.85 290.39,207.54 292.36,205.49 295.64,205.49 297.61,207.54 L 377.72,291.04 C 378.61,291.97 379.11,293.21 379.11,294.5 L 379.11,461.5 C 379.11,462.79 378.61,464.03 377.72,464.96 L 297.61,548.46 C 295.64,550.51 292.36,550.51 290.39,548.46 290.1,548.15 290.1,548.15 288.72,546.71 286.84,544.76 286.84,544.76 284.09,541.9 277.42,534.95 277.42,534.95 268.46,525.6 L 276.35,524.73 C 269.5,536.06 258.06,554.97 243.33,579.34 228.31,604.18 228.31,604.18 215.8,624.88 210.48,633.68 210.48,633.68 206.72,639.89 203.9,644.55 203.9,644.55 203.28,645.59 201.33,648.8 196.67,648.8 194.72,645.59 194.1,644.55 194.1,644.55 191.28,639.89 187.52,633.68 187.52,633.68 182.2,624.88 169.69,604.18 169.69,604.18 154.67,579.34 136.23,548.84 136.23,548.84 122.42,526.01 L 130.31,526.88 C 121.81,535.75 121.81,535.75 115.52,542.3 110.72,547.31 110.72,547.31 109.61,548.46 107.64,550.51 104.36,550.51 102.39,548.46 L 22.28,464.96 C 21.39,464.03 20.89,462.79 20.89,461.5 L 20.89,294.5 C 20.89,293.21 21.39,291.97 22.28,291.04 L 102.39,207.54 C 104.36,205.49 107.64,205.49 109.61,207.54 110.72,208.69 110.72,208.69 115.52,213.7 121.81,220.25 121.81,220.25 130.31,229.12 L 122.42,229.99 C 131.22,215.45 146.6,190 165.98,157.95 177.32,139.2 177.32,139.2 186.11,124.65 189.79,118.57 189.79,118.57 192.34,114.34 194.26,111.18 194.26,111.18 194.72,110.42 196.66,107.2 201.33,107.2 203.28,110.42 203.9,111.45 203.9,111.45 206.72,116.11 210.47,122.32 210.47,122.32 215.79,131.12 225.18,146.64 234.57,162.17 243.33,176.66 L 243.33,176.66 C 258.06,201.03 269.5,219.94 276.35,231.27 L 268.46,230.4 Z M 268.46,230.4" />
    <rect id="nebulaHole77-ball" stroke="none" fill="rgb(128, 128, 128)" x="196" y="575" width="1" height="1" />
    <rect id="nebulaHole77-end" stroke="none" fill="rgb(128, 128, 128)" x="198" y="195" width="1" height="1" />
    <path id="nebulaHole77-bezier" stroke="none" fill="url(#nebulaHole77-outerWalls-bezier)" filter="url(#nebulaHole77-highlight-inner)" d="M 275.68,237.32 C 273.4,239.69 269.49,239.26 267.79,236.45 260.94,225.11 249.51,206.2 234.77,181.84 L 234.77,181.84 C 226.01,167.35 216.62,151.82 207.24,136.29 201.92,127.49 201.92,127.49 198.16,121.28 195.35,116.62 195.35,116.62 194.72,115.59 L 199,113 203.28,115.59 C 202.81,116.36 202.81,116.36 200.9,119.52 198.35,123.74 198.35,123.74 194.67,129.83 185.87,144.37 185.87,144.37 174.54,163.12 155.16,195.18 139.77,220.63 130.98,235.17 129.28,237.98 125.37,238.42 123.1,236.04 114.59,227.18 114.59,227.18 108.31,220.63 103.5,215.62 103.5,215.62 102.39,214.46 L 109.61,214.46 29.5,297.96 30.89,294.5 30.89,461.5 29.5,458.04 109.61,541.54 102.39,541.54 C 103.5,540.38 103.5,540.38 108.31,535.37 114.59,528.82 114.59,528.82 123.1,519.96 125.37,517.58 129.28,518.02 130.98,520.83 144.79,543.67 144.79,543.67 163.23,574.16 178.25,599.01 178.25,599.01 190.76,619.71 196.08,628.51 196.08,628.51 199.84,634.72 202.65,639.38 202.65,639.38 203.28,640.41 L 194.72,640.41 C 195.35,639.38 195.35,639.38 198.16,634.72 201.92,628.51 201.92,628.51 207.24,619.71 219.75,599.01 219.75,599.01 234.77,574.16 249.51,549.8 260.94,530.89 267.79,519.55 269.49,516.74 273.4,516.31 275.68,518.68 284.64,528.02 284.64,528.02 291.31,534.97 294.06,537.84 294.06,537.84 295.93,539.79 297.31,541.23 297.31,541.23 297.61,541.54 L 290.39,541.54 370.5,458.04 369.11,461.5 369.11,294.5 370.5,297.96 290.39,214.46 297.61,214.46 C 297.31,214.77 297.31,214.77 295.93,216.21 294.06,218.16 294.06,218.16 291.31,221.03 284.64,227.98 284.64,227.98 275.68,237.32 Z M 275.68,237.32" />
    <path id="nebulaHole77-bezier2" stroke="none" fill="url(#nebulaHole77-outerWalls-bezier2)" filter="url(#nebulaHole77-highlight-inner)" d="M 200,267 L 159,267 163.57,264.02 128.46,343.3 128.89,341.28 128.89,414.22 127.5,410.76 162.49,447.23 155.28,447.23 C 155.76,446.73 155.76,446.73 157.86,444.54 160.61,441.68 160.61,441.68 164.32,437.81 166.6,435.43 170.51,435.87 172.21,438.68 178.24,448.66 178.24,448.66 186.29,461.98 192.85,472.83 192.85,472.83 198.32,481.87 200.64,485.71 200.64,485.71 202.28,488.43 203.51,490.46 203.51,490.46 203.79,490.91 L 199.45,488.5 240.94,488 236.43,490.97 271.43,412.19 271,414.22 271,341.28 C 271,340.75 271.08,340.23 271.25,339.73 L 289.25,284.45 295.67,290.71 242.68,309.52 244.62,308.27 C 244.1,308.81 244.1,308.81 241.86,311.14 238.95,314.17 238.95,314.17 235.04,318.25 232.76,320.63 228.85,320.19 227.15,317.38 225.44,314.54 219.89,305.23 211.69,291.45 211.67,291.42 211.67,291.42 211.65,291.39 208.16,285.52 204.42,279.23 200.68,272.94 199.38,270.74 198.16,268.69 197.07,266.86 196.46,265.84 196.46,265.84 196.06,265.16 195.76,264.66 195.76,264.66 195.7,264.55 L 200,267 Z M 200,267" />
    <path id="nebulaHole77-bezier4" stroke="none" fill="url(#nebulaHole77-outerWalls-bezier4)" filter="url(#nebulaHole77-highlight-inner)" d="M 200,257 C 201.76,257 203.4,257.93 204.3,259.45 204.36,259.55 204.36,259.55 204.66,260.05 205.06,260.73 205.06,260.73 205.67,261.75 206.76,263.59 207.97,265.63 209.28,267.83 213.02,274.12 216.76,280.41 220.25,286.28 220.26,286.31 220.26,286.31 220.28,286.34 228.46,300.09 234.01,309.4 235.71,312.2 L 227.82,311.33 C 231.74,307.25 231.74,307.25 234.65,304.21 236.88,301.88 236.88,301.88 237.4,301.34 237.94,300.78 238.6,300.35 239.34,300.09 L 292.33,281.29 C 296.24,279.9 300.04,283.6 298.75,287.55 L 280.75,342.83 281,341.28 281,414.22 C 281,414.92 280.85,415.61 280.57,416.25 L 245.57,495.03 C 244.78,496.82 243.01,497.98 241.06,498 L 199.57,498.5 C 197.8,498.52 196.15,497.6 195.23,496.09 194.96,495.63 194.96,495.63 193.73,493.6 192.09,490.89 192.09,490.89 189.76,487.04 184.3,478 184.3,478 177.73,467.15 169.68,453.83 169.68,453.83 163.65,443.86 L 171.54,444.73 C 167.82,448.6 167.82,448.6 165.08,451.46 162.98,453.65 162.98,453.65 162.49,454.16 160.53,456.21 157.25,456.21 155.28,454.16 L 120.28,417.68 C 119.39,416.75 118.89,415.51 118.89,414.22 L 118.89,341.28 C 118.89,340.58 119.04,339.89 119.32,339.25 L 154.43,259.98 C 155.23,258.17 157.02,257 159,257 L 200,257 Z M 200,257" />
</svg>
