<?xml version="1.0" encoding="UTF-8"?>
<!DOCTYPE svg PUBLIC "-//W3C//DTD SVG 1.1//EN" "http://www.w3.org/Graphics/SVG/1.1/DTD/svg11.dtd">
<svg version="1.1" xmlns="http://www.w3.org/2000/svg" xmlns:xlink="http://www.w3.org/1999/xlink" width="400" height="700"  xml:space="preserve" id="nebulaHole11">
    <!-- Generated by PaintCode - http://www.paintcodeapp.com -->
    <defs>
        <linearGradient id="nebulaHole11-outerWalls-wall" x1="199.52" y1="264.65" x2="199.52" y2="433.46" gradientUnits="userSpaceOnUse" >
            <stop offset="0" stop-color="rgb(214, 56, 255)" stop-opacity="1" />
            <stop offset="0.49" stop-color="rgb(130, 98, 235)" stop-opacity="1" />
            <stop offset="1" stop-color="rgb(59, 30, 152)" stop-opacity="1" />
        </linearGradient>
        <filter id="nebulaHole11-highlight-inner" filterUnits="userSpaceOnUse">
            <feGaussianBlur in="SourceAlpha" stdDeviation="0" result="blur"/>
            <feOffset dx="0" dy="2"/>
            <feComposite in2="SourceAlpha" operator="arithmetic" k2="-1.15" k3="1.15" result="shadowDiff"/>
            <feFlood flood-color="rgb(255, 255, 255)" flood-opacity="1"/>
            <feComposite in2="shadowDiff" operator="in"/>
            <feComposite in2="SourceGraphic" operator="over"/>
        </filter>
        <linearGradient id="nebulaHole11-outerWalls-wall2" x1="199.52" y1="256.12" x2="199.52" y2="442" gradientUnits="userSpaceOnUse" >
            <stop offset="0" stop-color="rgb(214, 56, 255)" stop-opacity="1" />
            <stop offset="0.49" stop-color="rgb(130, 98, 235)" stop-opacity="1" />
            <stop offset="1" stop-color="rgb(59, 30, 152)" stop-opacity="1" />
        </linearGradient>
        <linearGradient id="nebulaHole11-outerWalls-wall3" x1="199.87" y1="25.01" x2="199.88" y2="673.7" gradientUnits="userSpaceOnUse" >
            <stop offset="0" stop-color="rgb(214, 56, 255)" stop-opacity="1" />
            <stop offset="0.49" stop-color="rgb(130, 98, 235)" stop-opacity="1" />
            <stop offset="1" stop-color="rgb(59, 30, 152)" stop-opacity="1" />
        </linearGradient>
        <linearGradient id="nebulaHole11-outerWalls-wall4" x1="199.87" y1="30.01" x2="199.88" y2="673.7" gradientUnits="userSpaceOnUse" >
            <stop offset="0" stop-color="rgb(214, 56, 255)" stop-opacity="1" />
            <stop offset="0.49" stop-color="rgb(130, 98, 235)" stop-opacity="1" />
            <stop offset="1" stop-color="rgb(59, 30, 152)" stop-opacity="1" />
        </linearGradient>
    </defs>
    <path id="nebulaHole11-wall" stroke="none" fill="url(#nebulaHole11-outerWalls-wall)" filter="url(#nebulaHole11-highlight-inner)" d="M 206.57,264.65 L 115.11,356.11 115.11,349.04 199.54,433.46 192.46,433.46 283.92,342.01 283.92,349.08 199.5,264.65 206.57,264.65 Z M 206.57,264.65" />
    <rect id="nebulaHole11-ball" stroke="none" fill="rgb(128, 128, 128)" x="199" y="583" width="1" height="1" />
    <rect id="nebulaHole11-end" stroke="none" fill="rgb(128, 128, 128)" x="198" y="113" width="1" height="1" />
    <path id="nebulaHole11-wall2" stroke="none" fill="url(#nebulaHole11-outerWalls-wall2)" filter="url(#nebulaHole11-highlight-inner)" d="M 199.5,257.58 C 201.45,255.63 204.62,255.63 206.57,257.58 L 290.99,342.01 C 292.95,343.96 292.95,347.12 290.99,349.08 L 199.54,440.54 C 197.58,442.49 194.42,442.49 192.46,440.54 L 108.04,356.11 C 106.09,354.16 106.09,350.99 108.04,349.04 L 199.5,257.58 Z M 199.5,257.58" />
    <path id="nebulaHole11-wall3" stroke="none" fill="url(#nebulaHole11-outerWalls-wall3)" filter="url(#nebulaHole11-highlight-inner)" d="M 294.69,111.39 C 294.69,112.66 294.69,112.66 294.69,118.39 294.69,126.02 294.69,126.02 294.69,136.83 294.69,162.26 294.69,162.26 294.69,192.78 294.69,240.94 294.69,240.94 294.69,269.12 L 293.39,265.75 C 307.39,281.13 307.39,281.13 325.92,301.49 341.21,318.3 341.21,318.3 353.95,332.3 359.37,338.26 359.37,338.26 363.19,342.46 366.06,345.61 366.06,345.61 366.7,346.31 368.43,348.22 368.43,351.13 366.7,353.04 366.65,353.09 366.65,353.09 366.4,353.37 L 362.7,350 366.4,346.63 C 366.65,346.91 366.65,346.91 366.7,346.96 368.43,348.87 368.43,351.78 366.7,353.69 366.06,354.39 366.06,354.39 363.19,357.54 359.37,361.74 359.37,361.74 353.95,367.7 341.21,381.7 341.21,381.7 325.92,398.51 307.39,418.87 307.39,418.87 293.39,434.25 L 294.69,430.88 C 294.69,441.67 294.69,459.06 294.69,507.22 294.69,537.74 294.69,537.74 294.69,563.17 294.69,573.98 294.69,573.98 294.69,581.61 294.69,587.34 294.69,587.34 294.69,588.61 294.69,590.02 294.1,591.37 293.05,592.31 292.35,592.95 292.35,592.95 289.19,595.81 284.98,599.63 284.98,599.63 279.02,605.03 264.98,617.75 264.98,617.75 248.14,633.01 231.3,648.27 231.3,648.27 217.27,660.99 211.3,666.39 211.3,666.39 207.09,670.21 205.38,671.76 205.38,671.76 204.24,672.79 203.79,673.2 203.79,673.2 203.49,673.47 203.37,673.58 203.37,673.58 203.3,673.65 203.27,673.67 203.27,673.67 203.25,673.69 203.24,673.7 203.24,673.7 203.24,673.7 203.24,673.7 203.24,673.7 203.23,673.7 L 203.23,673.7 203.23,673.7 203.23,673.7 199.88,670 203.23,673.7 C 196.48,673.67 196.48,673.67 196.26,673.47 195.97,673.2 195.97,673.2 195.51,672.79 194.86,672.21 193.91,671.34 192.66,670.21 190.3,668.07 186.9,664.99 182.48,660.99 175.15,654.34 165.82,645.89 151.61,633.01 L 151.61,633.01 C 147.33,629.13 147.33,629.13 143.1,625.3 128.91,612.44 128.91,612.44 117.67,602.25 112.95,597.98 112.95,597.98 109.68,595.01 107.24,592.8 107.24,592.8 106.7,592.31 105.65,591.37 105.06,590.02 105.06,588.61 105.06,587.34 105.06,587.34 105.06,581.61 105.06,573.98 105.06,573.98 105.06,563.17 105.06,537.74 105.06,537.74 105.06,507.22 105.06,459.06 105.06,459.06 105.06,430.88 L 106.36,434.25 C 92.36,418.87 92.36,418.87 73.83,398.51 58.54,381.7 58.54,381.7 45.8,367.7 40.38,361.74 40.38,361.74 36.56,357.54 33.69,354.39 33.69,354.39 33.05,353.69 31.32,351.78 31.32,348.87 33.05,346.96 33.1,346.91 33.1,346.91 33.35,346.63 L 37.05,350 33.35,353.37 C 33.1,353.09 33.1,353.09 33.05,353.04 31.32,351.13 31.32,348.22 33.05,346.31 33.5,345.81 33.5,345.81 35.57,343.54 38.36,340.48 38.36,340.48 42.38,336.06 51.99,325.49 51.99,325.49 64.27,312 69.01,306.79 69.01,306.79 73.83,301.49 92.36,281.13 92.36,281.13 106.36,265.75 L 105.06,269.12 C 105.06,240.94 105.06,240.94 105.06,192.78 105.06,162.26 105.06,162.26 105.06,136.83 105.06,126.02 105.06,126.02 105.06,118.39 105.06,112.66 105.06,112.66 105.06,111.39 105.06,109.98 105.65,108.63 106.7,107.69 107.17,107.26 107.17,107.26 109.33,105.3 112.23,102.67 112.23,102.67 116.44,98.86 128.04,88.35 128.04,88.35 143.1,74.7 147.33,70.87 147.33,70.87 151.61,66.99 156.11,62.91 156.11,62.91 160.55,58.89 174.4,46.33 174.4,46.33 185.42,36.36 190.06,32.15 190.06,32.15 193.34,29.18 195.82,26.92 195.82,26.92 196.51,26.3 198.41,24.58 201.32,24.58 203.22,26.3 L 293.05,107.69 C 294.09,108.63 294.69,109.98 294.69,111.39 Z M 294.69,111.39" />
    <path id="nebulaHole11-wall4" stroke="none" fill="url(#nebulaHole11-outerWalls-wall4)" filter="url(#nebulaHole11-highlight-inner)" d="M 284.69,111.39 L 286.33,115.1 196.51,33.71 199.86,30.01 203.22,33.71 C 202.54,34.33 202.54,34.33 200.05,36.59 196.78,39.56 196.78,39.56 192.13,43.77 181.12,53.74 181.12,53.74 167.27,66.3 162.82,70.32 162.82,70.32 158.32,74.4 154.05,78.28 154.05,78.28 149.82,82.11 134.76,95.76 134.76,95.76 123.16,106.27 118.95,110.08 118.95,110.08 116.04,112.71 113.89,114.67 113.89,114.67 113.42,115.1 L 115.06,111.39 C 115.06,112.66 115.06,112.66 115.06,118.39 115.06,126.02 115.06,126.02 115.06,136.83 115.06,162.26 115.06,162.26 115.06,192.78 115.06,240.94 115.06,240.94 115.06,269.12 115.06,270.36 114.59,271.56 113.76,272.48 99.76,287.86 99.76,287.86 81.23,308.22 76.41,313.52 76.41,313.52 71.67,318.73 59.39,332.22 59.39,332.22 49.78,342.79 45.75,347.21 45.75,347.21 42.97,350.27 40.9,352.54 40.9,352.54 40.45,353.04 L 36.75,349.67 40.45,346.31 C 40.5,346.36 40.5,346.36 40.74,346.63 42.48,348.54 42.48,351.46 40.74,353.37 40.5,353.64 40.5,353.64 40.45,353.69 L 36.75,350.33 40.45,346.96 C 41.09,347.66 41.09,347.66 43.95,350.81 47.78,355.01 47.78,355.01 53.19,360.97 65.94,374.97 65.94,374.97 81.23,391.78 99.76,412.14 99.76,412.14 113.76,427.52 114.59,428.44 115.06,429.64 115.06,430.88 115.06,459.06 115.06,459.06 115.06,507.22 115.06,537.74 115.06,537.74 115.06,563.17 115.06,573.98 115.06,573.98 115.06,581.61 115.06,587.34 115.06,587.34 115.06,588.61 L 113.42,584.9 C 113.95,585.39 113.95,585.39 116.39,587.6 119.67,590.57 119.67,590.57 124.38,594.84 135.62,605.03 135.62,605.03 149.82,617.89 154.05,621.72 154.05,621.72 158.32,625.6 L 158.32,625.6 C 172.53,638.48 181.86,646.93 189.2,653.58 193.62,657.58 197.02,660.66 199.37,662.8 200.62,663.93 201.58,664.79 202.22,665.38 202.68,665.79 202.68,665.79 202.97,666.06 203.19,666.25 203.19,666.25 203.23,666.29 201.46,661.82 208.17,669.23 203.23,673.7 L 196.52,666.29 196.52,666.29 196.52,666.29 C 196.52,666.29 196.52,666.29 196.52,666.29 196.53,666.29 196.53,666.29 196.53,666.28 196.55,666.26 196.55,666.26 196.58,666.24 196.66,666.17 196.66,666.17 196.78,666.06 197.07,665.79 197.07,665.79 197.53,665.38 198.67,664.35 198.67,664.35 200.38,662.8 204.59,658.98 204.59,658.98 210.55,653.58 224.59,640.86 224.59,640.86 241.43,625.6 258.27,610.34 258.27,610.34 272.3,597.62 278.26,592.22 278.26,592.22 282.47,588.4 285.63,585.54 285.63,585.54 286.33,584.9 L 284.69,588.61 C 284.69,587.34 284.69,587.34 284.69,581.61 284.69,573.98 284.69,573.98 284.69,563.17 284.69,537.74 284.69,537.74 284.69,507.22 284.69,459.06 284.69,441.67 284.69,430.88 284.69,429.64 285.16,428.44 285.99,427.52 299.99,412.14 299.99,412.14 318.52,391.78 333.81,374.97 333.81,374.97 346.56,360.97 351.97,355.01 351.97,355.01 355.8,350.81 358.66,347.66 358.66,347.66 359.3,346.96 L 363,350.33 359.3,353.69 C 359.25,353.64 359.25,353.64 359.01,353.37 357.27,351.46 357.27,348.54 359.01,346.63 359.25,346.36 359.25,346.36 359.3,346.31 L 363,349.67 359.3,353.04 C 358.66,352.34 358.66,352.34 355.8,349.19 351.97,344.99 351.97,344.99 346.56,339.03 333.81,325.03 333.81,325.03 318.52,308.22 299.99,287.86 299.99,287.86 285.99,272.48 285.16,271.56 284.69,270.36 284.69,269.12 284.69,240.94 284.69,240.94 284.69,192.78 284.69,162.26 284.69,162.26 284.69,136.83 284.69,126.02 284.69,126.02 284.69,118.39 284.69,112.66 284.69,112.66 284.69,111.39 Z M 284.69,111.39" />
</svg>
