<?xml version="1.0" encoding="UTF-8"?>
<!DOCTYPE svg PUBLIC "-//W3C//DTD SVG 1.1//EN" "http://www.w3.org/Graphics/SVG/1.1/DTD/svg11.dtd">
<svg version="1.1" xmlns="http://www.w3.org/2000/svg" xmlns:xlink="http://www.w3.org/1999/xlink" width="400" height="700"  xml:space="preserve" id="nebulaHole88">
    <!-- Generated by PaintCode - http://www.paintcodeapp.com -->
    <defs>
        <linearGradient id="nebulaHole88-outerWalls-bezier2" x1="196.99" y1="34" x2="196.99" y2="681.04" gradientUnits="userSpaceOnUse" >
            <stop offset="0" stop-color="rgb(214, 56, 255)" stop-opacity="1" />
            <stop offset="0.49" stop-color="rgb(130, 98, 235)" stop-opacity="1" />
            <stop offset="1" stop-color="rgb(59, 30, 152)" stop-opacity="1" />
        </linearGradient>
        <filter id="nebulaHole88-highlight-inner" filterUnits="userSpaceOnUse">
            <feGaussianBlur in="SourceAlpha" stdDeviation="0" result="blur"/>
            <feOffset dx="0" dy="2"/>
            <feComposite in2="SourceAlpha" operator="arithmetic" k2="-1.15" k3="1.15" result="shadowDiff"/>
            <feFlood flood-color="rgb(255, 255, 255)" flood-opacity="1"/>
            <feComposite in2="shadowDiff" operator="in"/>
            <feComposite in2="SourceGraphic" operator="over"/>
        </filter>
        <linearGradient id="nebulaHole88-outerWalls-bezier" x1="196.98" y1="44" x2="196.98" y2="671.04" gradientUnits="userSpaceOnUse" >
            <stop offset="0" stop-color="rgb(214, 56, 255)" stop-opacity="1" />
            <stop offset="0.49" stop-color="rgb(130, 98, 235)" stop-opacity="1" />
            <stop offset="1" stop-color="rgb(59, 30, 152)" stop-opacity="1" />
        </linearGradient>
    </defs>
    <path id="nebulaHole88-bezier2" stroke="none" fill="url(#nebulaHole88-outerWalls-bezier2)" filter="url(#nebulaHole88-highlight-inner)" d="M 329.03,261.63 C 325.05,281.16 323,297.4 323,311 323,313.6 323.01,313.92 323.5,335.44 323.53,336.65 323.55,337.76 323.58,338.82 323.86,351.44 324,359.33 324,364 324,459.24 270.08,537 202.5,537 180.7,537 159.79,528.86 141.45,513.7 L 147.29,514.09 C 124.25,528.47 114.49,550.22 111.16,584.46 110.5,591.28 110.19,596.31 109.56,609.16 108.28,635.43 106.91,646.33 102.12,657.34 95.61,672.32 83.44,680.35 64.17,681 34.18,682.01 21.93,663.88 24.41,630.46 25.4,617.08 28.62,601.1 34.07,581.09 38.06,566.43 40.74,557.69 51.28,524.33 52.72,519.74 53.83,516.23 54.89,512.81 66.05,477.1 72.2,454.2 75.58,433.24 76.05,430.35 78.89,428.48 81.73,429.19 86.64,430.42 86.64,430.42 95.88,432.73 106.56,435.41 106.56,435.41 118.68,438.44 133.02,442.03 133.02,442.03 144.98,445.03 150.06,446.3 150.06,446.3 153.64,447.2 156.33,447.87 156.33,447.87 156.93,448.02 L 152.7,448.88 C 152.73,448.86 152.82,448.79 152.96,448.68 153.21,448.48 153.5,448.25 153.83,447.99 154.78,447.21 155.85,446.3 157.01,445.27 160.32,442.32 163.63,439.01 166.71,435.43 176.79,423.72 181.9,412.15 179.84,402 179.72,401.44 179.59,400.89 179.43,400.34 173.39,379.14 153.6,363.34 123.49,351.12 117.75,348.79 113.85,348.09 111.15,348.56 109.21,348.89 107.72,349.82 105.39,352.06 105.07,352.37 102.33,355.12 101.39,356.01 97.39,359.76 93.45,362.32 88.15,364.07 84.65,365.23 81.15,362.34 81.62,358.69 85.88,325.53 92.96,296.51 102.85,272.36 104.12,269.27 107.99,268.27 110.6,270.35 113.19,272.42 115.9,275.3 120.26,280.37 121.17,281.43 124.81,285.71 125.71,286.75 127.94,289.36 129.8,291.47 131.65,293.5 144.62,307.71 155.67,315.48 167.02,316.55 188.48,318.57 200.28,308.19 210.27,282.57 217.8,263.26 214.69,251.39 199.04,231.05 193.53,223.89 187.41,219.71 180.09,217.44 175.33,215.96 171.57,215.46 162.55,214.78 159.74,214.56 158.25,214.44 156.59,214.26 151.88,213.74 150.47,207.56 154.49,205.05 160.74,201.14 167.34,198.01 174.3,195.66 183.46,192.58 192.91,191 202.5,191 220.34,191 237.62,196.45 253.41,206.8 L 250.67,210.99 248.26,206.6 C 248.69,206.37 249.11,206.13 249.53,205.89 274.82,191.47 286.4,168.1 291.23,131.67 292.32,123.44 292.8,117.99 294.02,101.79 295.91,76.8 297.48,66.01 301.85,55.63 307.83,41.44 318.51,34 335,34 348.61,34 358.4,39.27 364.05,49.44 368.97,58.28 370.61,70.5 369.58,86.34 368.69,99.82 365.89,115.87 361.17,135.9 357.7,150.63 355.25,159.85 346.26,192.73 345.09,197 344.2,200.26 343.34,203.44 336.6,228.31 332.33,245.41 329.03,261.63 Z M 329.03,261.63" />
    <rect id="nebulaHole88-ball" stroke="none" fill="rgb(128, 128, 128)" x="63" y="631" width="1" height="1" />
    <rect id="nebulaHole88-end" stroke="none" fill="rgb(128, 128, 128)" x="330" y="76" width="1" height="1" />
    <path id="nebulaHole88-bezier" stroke="none" fill="url(#nebulaHole88-outerWalls-bezier)" filter="url(#nebulaHole88-highlight-inner)" d="M 319.23,259.64 C 322.58,243.16 326.89,225.88 333.69,200.83 334.55,197.64 335.44,194.37 336.61,190.09 345.57,157.34 348.01,148.18 351.44,133.61 356.04,114.07 358.76,98.51 359.6,85.69 361.47,57.05 354.21,44 335,44 322.62,44 315.52,48.95 311.06,59.51 307.28,68.5 305.79,78.74 304,102.54 302.76,118.95 302.27,124.5 301.14,132.98 298.77,150.89 294.96,165.45 288.62,178.23 280.98,193.64 269.87,205.8 254.49,214.58 254.02,214.84 253.54,215.11 253.07,215.37 251.45,216.26 249.47,216.18 247.92,215.17 233.72,205.86 218.34,201 202.5,201 194,201 185.63,202.4 177.49,205.14 171.28,207.23 165.38,210.03 159.79,213.52 L 157.69,204.32 C 159.2,204.48 160.6,204.6 163.31,204.81 173.07,205.55 177.33,206.11 183.05,207.89 192.32,210.77 200.18,216.13 206.96,224.95 215.55,236.11 220.32,244.37 222.64,253.2 225.31,263.4 224.38,273.92 219.59,286.2 214.24,299.93 208.41,309.65 200.7,316.43 191.63,324.4 180.25,327.84 166.08,326.5 151.57,325.13 138.78,316.14 124.26,300.24 122.33,298.13 120.41,295.94 118.12,293.26 117.21,292.2 113.57,287.92 112.68,286.89 108.72,282.29 106.3,279.72 104.35,278.16 L 112.1,276.15 C 102.57,299.43 95.69,327.61 91.54,359.96 L 85.01,354.58 C 88.79,353.33 91.53,351.55 94.54,348.72 95.33,347.97 98.01,345.29 98.45,344.86 106.05,337.54 113.47,336.26 127.25,341.86 159.94,355.12 181.95,372.69 189.05,397.59 189.28,398.39 189.47,399.2 189.64,400.01 192.46,413.92 186.19,428.14 174.29,441.95 170.9,445.89 167.28,449.51 163.66,452.73 162.39,453.87 161.21,454.87 160.14,455.74 159.49,456.27 159.01,456.65 158.73,456.86 157.52,457.77 155.97,458.09 154.5,457.72 153.9,457.57 153.9,457.57 151.21,456.9 147.63,456 147.63,456 142.55,454.73 130.59,451.73 130.59,451.73 116.25,448.14 104.13,445.11 104.13,445.11 93.45,442.43 84.21,440.12 84.21,440.12 79.3,438.89 L 85.46,434.83 C 81.98,456.39 75.73,479.65 64.44,515.8 63.37,519.22 62.26,522.75 60.81,527.34 50.33,560.55 47.66,569.24 43.72,583.72 38.42,603.17 35.32,618.58 34.38,631.2 32.3,659.33 40.71,671.78 63.83,671 79.3,670.48 88,664.74 92.95,653.35 97.06,643.9 98.35,633.61 99.58,608.67 100.21,595.66 100.52,590.53 101.21,583.49 102.85,566.57 105.87,552.98 111.3,540.87 117.88,526.21 127.85,514.43 141.99,505.61 143.82,504.47 146.17,504.62 147.82,505.99 164.43,519.72 183.13,527 202.5,527 263.61,527 314,454.33 314,364 314,359.44 313.86,351.58 313.58,339.04 313.55,337.98 313.53,336.88 313.5,335.67 313,313.85 313,313.72 313,311 313,296.63 315.13,279.76 319.23,259.64 Z M 319.23,259.64" />
</svg>
