<?xml version="1.0" encoding="UTF-8"?>
<!DOCTYPE svg PUBLIC "-//W3C//DTD SVG 1.1//EN" "http://www.w3.org/Graphics/SVG/1.1/DTD/svg11.dtd">
<svg version="1.1" xmlns="http://www.w3.org/2000/svg" xmlns:xlink="http://www.w3.org/1999/xlink" width="400" height="700"  xml:space="preserve" id="nebulaHole77">
    <!-- Generated by PaintCode - http://www.paintcodeapp.com -->
    <defs>
        <pattern id="nebulaHole77-woven-bezier2" x="40" y="98" width="42" height="42" patternUnits="userSpaceOnUse" viewBox="0 0 42 42">
            <image xlink:href="images/woven.png" x="0" y="0" width="42" height="42" />
        </pattern>
    </defs>
    <path id="nebulaHole77-bezier3" stroke="rgb(65, 49, 118)" stroke-width="24" stroke-linecap="round" stroke-linejoin="round" stroke-miterlimit="10" fill="none" d="M 243.56,146 C 243.56,146 179.63,185.64 136.5,212.39 136.5,217.05 136.5,221.76 136.5,226.54 174.49,248.8 371.12,364 371.12,364 371.12,364 174.49,479.2 136.5,501.46 136.5,506.24 136.5,510.95 136.5,515.61 179.63,542.36 243.56,582 243.56,582 L 39.5,672 39.5,501 243.5,364 39.5,227 39.5,56 243.56,146 Z M 243.56,146" />
    <path id="nebulaHole77-bezier2" stroke="none" fill="url(#nebulaHole77-woven-bezier2)" d="M 243.56,146 C 243.56,146 179.63,185.64 136.5,212.39 136.5,217.05 136.5,221.76 136.5,226.54 174.49,248.8 371.12,364 371.12,364 371.12,364 174.49,479.2 136.5,501.46 136.5,506.24 136.5,510.95 136.5,515.61 179.63,542.36 243.56,582 243.56,582 L 39.5,672 39.5,501 243.5,364 39.5,227 39.5,56 243.56,146 Z M 243.56,146" />
    <path id="nebulaHole77-wall" stroke="none" fill="rgb(130, 98, 235)" d="M 245.7,148.25 C 244.56,148.95 244.56,148.95 239.44,152.13 232.62,156.36 232.62,156.36 222.95,162.36 200.2,176.46 200.2,176.46 172.9,193.39 155.14,204.4 155.14,204.4 138.64,214.64 L 136,210.39 141,210.39 C 141,217.4 141,217.4 141,224.54 L 136,224.54 138.53,220.22 C 153.6,229.05 194.29,252.89 252.68,287.1 279.04,302.54 307.27,319.09 335.51,335.63 351.51,345 351.51,345 362.8,351.62 367.39,354.31 367.39,354.31 370.45,356.1 372.68,357.41 372.68,357.41 373.15,357.69 376.45,359.62 376.45,364.38 373.15,366.31 372.68,366.59 372.68,366.59 370.45,367.9 367.39,369.69 367.39,369.69 362.8,372.38 351.51,379 351.51,379 335.51,388.37 297.86,410.43 297.86,410.43 252.68,436.9 179.79,479.6 179.79,479.6 138.53,503.78 L 136,499.46 141,499.46 C 141,506.6 141,506.6 141,513.61 L 136,513.61 138.64,509.36 C 155.14,519.6 155.14,519.6 172.9,530.61 200.2,547.54 200.2,547.54 222.95,561.64 232.62,567.64 232.62,567.64 239.44,571.87 244.56,575.05 244.56,575.05 245.7,575.75 249.12,577.87 248.76,582.95 245.08,584.57 L 41.02,674.57 C 37.71,676.03 34,673.61 34,670 L 34,499 C 34,497.33 34.83,495.78 36.21,494.85 L 240.21,357.85 240.21,366.15 36.21,229.15 C 34.83,228.22 34,226.67 34,225 L 34,54 C 34,50.39 37.71,47.97 41.02,49.43 L 245.08,139.43 C 248.76,141.05 249.12,146.13 245.7,148.25 Z M 245.7,148.25" />
    <rect id="nebulaHole77-end" stroke="none" fill="rgb(0, 255, 0)" fill-opacity="0" x="99" y="576" width="1" height="1" />
    <rect id="nebulaHole77-ball" stroke="none" fill="rgb(128, 128, 128)" x="95" y="150" width="1" height="1" />
    <path id="nebulaHole77-wall2" stroke="none" fill="rgb(130, 98, 235)" d="M 240.43,139.75 L 241.04,148.57 36.98,58.57 44,54 44,225 41.79,220.85 245.79,357.85 C 248.74,359.83 248.74,364.17 245.79,366.15 L 41.79,503.15 44,499 44,670 36.98,665.43 241.04,575.43 240.43,584.25 C 239.29,583.54 239.29,583.54 234.17,580.37 227.35,576.14 227.35,576.14 217.68,570.14 194.93,556.04 194.93,556.04 167.63,539.11 149.87,528.1 149.87,528.1 133.36,517.86 131.89,516.95 131,515.34 131,513.61 131,506.6 131,506.6 131,499.46 131,497.69 131.94,496.05 133.47,495.15 174.74,470.97 174.74,470.97 247.63,428.27 292.8,401.8 292.8,401.8 330.45,379.74 346.45,370.37 346.45,370.37 357.74,363.75 362.33,361.06 362.33,361.06 365.39,359.27 367.63,357.96 367.63,357.96 368.1,357.69 L 368.1,366.31 C 367.63,366.04 367.63,366.04 365.39,364.73 362.33,362.94 362.33,362.94 357.74,360.25 346.45,353.63 346.45,353.63 330.45,344.26 302.22,327.72 273.98,311.17 247.63,295.73 189.23,261.52 148.54,237.68 133.47,228.85 131.94,227.95 131,226.31 131,224.54 131,217.4 131,217.4 131,210.39 131,208.66 131.89,207.05 133.36,206.14 149.87,195.9 149.87,195.9 167.63,184.89 194.93,167.96 194.93,167.96 217.68,153.86 227.35,147.86 227.35,147.86 234.17,143.63 239.29,140.46 239.29,140.46 240.43,139.75 Z M 240.43,139.75" />
</svg>
