<?xml version="1.0" encoding="UTF-8"?>
<!DOCTYPE svg PUBLIC "-//W3C//DTD SVG 1.1//EN" "http://www.w3.org/Graphics/SVG/1.1/DTD/svg11.dtd">
<svg version="1.1" xmlns="http://www.w3.org/2000/svg" xmlns:xlink="http://www.w3.org/1999/xlink" width="400" height="700"  xml:space="preserve" id="nebulaHole44">
    <!-- Generated by PaintCode - http://www.paintcodeapp.com -->
    <defs>
        <pattern id="nebulaHole44-woven-bezier3" x="59" y="134" width="42" height="42" patternUnits="userSpaceOnUse" viewBox="0 0 42 42">
            <image xlink:href="images/woven.png" x="0" y="0" width="42" height="42" />
        </pattern>
        <pattern id="nebulaHole44-woven-bezier2" x="59" y="134" width="42" height="42" patternUnits="userSpaceOnUse" viewBox="0 0 42 42">
            <image xlink:href="images/woven.png" x="0" y="0" width="42" height="42" />
        </pattern>
    </defs>
    <path id="nebulaHole44-bezier3" stroke="rgb(65, 49, 118)" stroke-width="24" stroke-miterlimit="10" fill="url(#nebulaHole44-woven-bezier3)" d="M 173,259 C 173,259 142.73,315.53 127.95,343.16 123.16,352.09 120,358 120,358 L 173,464 186,394.37 272,358 186,321.63 173,259 Z M 247,92 C 247,92 309,197 309,197 309,197 306.44,201.53 302.37,208.76 293.06,225.29 275.81,255.89 263.03,278.56 256.07,290.91 250.43,300.91 248.13,305 254.37,305 273.12,305 287.99,305 299.07,305 308,305 308,305 308,305 338.69,358.46 339,359 339,359 308,411 308,411 L 247.64,411 C 253.99,421.83 309,515 309,515 L 247,625 C 247,625 218.12,608.41 183,588.23 L 152,571 90,571 59,517 90,465 150.36,465 C 144.01,454.17 89,361 89,361 89,361 141.48,267.9 149.87,253 138.98,253 90,253 90,253 L 59,199 90,147 150.36,147 183,128.43 C 218.12,108.44 247,92 247,92 L 247,92 Z M 247,92" />
    <path id="nebulaHole44-bezier2" stroke="none" fill="url(#nebulaHole44-woven-bezier2)" d="M 173,259 C 173,259 142.73,315.53 127.95,343.16 123.16,352.09 120,358 120,358 L 173,464 186,394.37 272,358 186,321.63 173,259 Z M 247,92 C 247,92 309,197 309,197 309,197 306.44,201.53 302.37,208.76 293.06,225.29 275.81,255.89 263.03,278.56 256.07,290.91 250.43,300.91 248.13,305 254.37,305 273.12,305 287.99,305 299.07,305 308,305 308,305 308,305 338.69,358.46 339,359 339,359 308,411 308,411 L 247.64,411 C 253.99,421.83 309,515 309,515 L 247,625 C 247,625 218.12,608.41 183,588.23 L 152,571 90,571 59,517 90,465 150.36,465 C 144.01,454.17 89,361 89,361 89,361 141.48,267.9 149.87,253 138.98,253 90,253 90,253 L 59,199 90,147 150.36,147 183,128.43 C 218.12,108.44 247,92 247,92 L 247,92 Z M 247,92" />
    <path id="nebulaHole44-wall" stroke="none" fill="rgb(130, 98, 235)" d="M 177.41,261.36 C 176.99,262.13 176.99,262.13 175.13,265.61 172.65,270.25 172.65,270.25 169.13,276.83 160.85,292.3 160.85,292.3 150.91,310.86 140.74,329.84 140.74,329.84 132.35,345.52 128.97,351.84 128.97,351.84 126.59,356.29 124.8,359.62 124.8,359.62 124.41,360.36 L 124.47,355.76 177.47,461.76 168.08,463.08 181.08,393.46 C 181.39,391.81 182.51,390.42 184.05,389.77 L 270.05,353.39 270.05,362.61 184.05,326.23 C 182.54,325.59 181.44,324.25 181.1,322.64 L 168.1,260.02 177.41,261.36 Z M 177.41,261.36" />
    <rect id="nebulaHole44-end" stroke="none" fill="rgb(0, 255, 0)" fill-opacity="0" x="111" y="198" width="1" height="1" />
    <rect id="nebulaHole44-ball" stroke="none" fill="rgb(128, 128, 128)" x="111" y="521" width="1" height="1" />
    <path id="nebulaHole44-wall2" stroke="none" fill="rgb(130, 98, 235)" d="M 168.59,256.64 C 170.8,252.52 176.95,253.41 177.9,257.98 L 190.9,320.61 187.95,317.02 273.95,353.39 C 278.02,355.12 278.02,360.88 273.95,362.61 L 187.95,398.98 190.92,395.29 177.92,464.92 C 177.04,469.63 170.67,470.52 168.53,466.24 L 115.53,360.24 C 114.8,358.78 114.83,357.07 115.59,355.64 115.99,354.9 115.99,354.9 117.77,351.57 120.15,347.12 120.15,347.12 123.54,340.8 131.93,325.12 131.93,325.12 142.09,306.14 152.03,287.58 152.03,287.58 160.31,272.11 163.83,265.53 163.83,265.53 166.31,260.89 168.18,257.41 168.18,257.41 168.59,256.64 Z M 168.59,256.64" />
    <path id="nebulaHole44-wall3" stroke="none" fill="rgb(130, 98, 235)" d="M 242.7,94.54 L 251.31,89.46 251.31,89.46 251.31,89.46 C 251.31,89.46 251.31,89.46 251.31,89.46 251.31,89.47 251.31,89.47 251.32,89.48 251.33,89.5 251.33,89.5 251.35,89.53 251.4,89.62 251.4,89.62 251.48,89.76 251.69,90.11 251.69,90.11 252,90.64 252.79,91.97 252.79,91.97 253.97,93.97 256.88,98.89 256.88,98.89 260.99,105.86 270.68,122.27 270.68,122.27 282.31,141.96 293.93,161.65 293.93,161.65 303.62,178.05 307.74,185.02 307.74,185.02 310.64,189.95 312.82,193.64 312.82,193.64 313.31,194.46 314.21,196 314.23,197.9 313.36,199.46 313.04,200.02 313.04,200.02 311.57,202.63 309.59,206.13 309.59,206.13 306.73,211.22 296.16,229.96 296.16,229.96 282.36,254.46 274.58,268.25 274.58,268.25 267.39,281.02 257.61,298.36 257.61,298.36 252.48,307.46 L 248.13,305 248.13,300 C 263.74,300 263.74,300 287.99,300 296.03,300 296.03,300 302.15,300 306.88,300 306.88,300 308,300 309.79,300 311.44,300.96 312.34,302.51 312.58,302.93 312.58,302.93 313.67,304.83 315.12,307.36 315.12,307.36 317.18,310.95 322.02,319.39 322.02,319.39 327.84,329.51 333.59,339.53 333.59,339.53 338.41,347.92 340.46,351.5 340.46,351.5 341.93,354.06 343.04,356 343.04,356 343.33,356.51 343.28,362.41 343.28,362.41 343.21,361.7 343.1,361.87 343.1,361.87 342.95,362.14 342.72,362.51 342.39,363.07 341.96,363.79 341.14,365.16 339.96,367.14 338.45,369.68 335.79,374.15 332.15,380.25 327.8,387.56 327.79,387.56 327.79,387.56 327.79,387.56 324.4,393.25 320.77,399.34 317.14,405.44 315.08,408.89 315.08,408.89 313.63,411.33 312.54,413.15 312.54,413.15 312.29,413.56 311.39,415.07 309.76,416 308,416 L 247.64,416 251.95,408.47 C 254.57,412.95 265.59,431.63 282.31,459.95 282.32,459.96 282.32,459.96 282.33,459.98 289.1,471.46 296.36,483.76 303.62,496.06 306.17,500.37 308.53,504.36 310.64,507.95 311.82,509.95 311.82,509.95 312.61,511.28 313.18,512.25 313.18,512.25 313.31,512.46 314.21,514 314.23,515.9 313.36,517.46 L 251.36,627.46 C 249.99,629.87 246.92,630.72 244.51,629.34 243.61,628.82 243.61,628.82 239.45,626.43 233.84,623.21 233.84,623.21 225.68,618.52 206.07,607.25 206.07,607.25 180.51,592.57 L 149.57,575.37 152,576 90,576 C 88.21,576 86.56,575.04 85.66,573.49 L 54.66,519.49 C 53.76,517.92 53.78,515.99 54.71,514.44 L 85.71,462.44 C 86.61,460.93 88.24,460 90,460 L 150.36,460 146.05,467.53 C 143.43,463.05 132.41,444.37 115.69,416.05 115.68,416.04 115.68,416.04 115.67,416.02 108.9,404.54 101.64,392.24 94.38,379.94 91.83,375.63 89.47,371.64 87.36,368.05 86.18,366.05 86.18,366.05 85.39,364.72 84.82,363.75 84.82,363.75 84.69,363.54 83.79,362 83.77,360.1 84.64,358.54 85.13,357.69 85.13,357.69 87.31,353.82 90.21,348.66 90.21,348.66 94.33,341.36 104.02,324.17 104.02,324.17 115.64,303.54 135.17,268.9 135.17,268.9 145.52,250.54 L 149.87,258 C 139.08,258 139.08,258 121,258 109.38,258 109.38,258 99.69,258 95.57,258 95.57,258 92.66,258 90.48,258 90.48,258 90,258 88.21,258 86.56,257.04 85.66,255.49 L 54.66,201.49 C 53.76,199.92 53.78,197.99 54.71,196.44 L 85.71,144.44 C 86.61,142.93 88.24,142 90,142 L 150.36,142 147.89,142.65 180.53,124.08 C 206.09,109.53 206.09,109.53 225.7,98.37 233.86,93.73 233.86,93.73 239.47,90.54 243.62,88.17 243.62,88.17 244.53,87.65 246.9,86.3 249.92,87.11 251.31,89.46 L 251.31,89.46 247,92 242.7,94.54 Z M 242.7,94.54" />
    <path id="nebulaHole44-wall4" stroke="none" fill="rgb(130, 98, 235)" d="M 251.31,89.46 C 254.7,95.2 246.08,100.28 242.7,94.54 L 242.69,94.54 247,92 249.47,96.35 C 248.57,96.86 248.57,96.86 244.41,99.23 238.8,102.42 238.8,102.42 230.64,107.06 211.03,118.22 211.03,118.22 185.47,132.77 L 152.84,151.35 C 152.08,151.77 151.23,152 150.36,152 L 90,152 94.29,149.56 63.29,201.56 63.34,196.51 94.34,250.51 90,248 C 90.48,248 90.48,248 92.66,248 95.57,248 95.57,248 99.69,248 109.38,248 109.38,248 121,248 139.08,248 139.08,248 149.87,248 153.7,248 156.11,252.12 154.23,255.46 143.89,273.81 143.89,273.81 124.36,308.46 112.73,329.08 112.73,329.08 103.04,346.27 98.93,353.57 98.93,353.57 96.02,358.73 93.84,362.6 93.84,362.6 93.36,363.46 L 93.31,358.46 C 93.43,358.66 93.43,358.66 94,359.64 94.79,360.97 94.79,360.97 95.97,362.97 98.09,366.55 100.45,370.55 102.99,374.86 110.25,387.15 117.51,399.45 124.29,410.94 124.3,410.95 124.3,410.95 124.31,410.97 141.03,439.31 152.04,457.98 154.68,462.47 156.63,465.8 154.23,470 150.36,470 L 90,470 94.29,467.56 63.29,519.56 63.34,514.51 94.34,568.51 90,566 152,566 C 152.85,566 153.69,566.22 154.43,566.63 L 185.43,583.86 C 211.05,598.58 211.05,598.58 230.66,609.85 238.82,614.53 238.82,614.53 244.43,617.76 248.59,620.15 248.59,620.15 249.49,620.66 L 242.64,622.54 304.64,512.54 304.69,517.54 C 304.57,517.34 304.57,517.34 304,516.36 303.21,515.03 303.21,515.03 302.03,513.03 299.91,509.45 297.55,505.45 295.01,501.14 287.75,488.85 280.49,476.55 273.71,465.06 273.7,465.05 273.7,465.05 273.69,465.03 256.97,436.69 245.96,418.02 243.32,413.53 241.37,410.2 243.77,406 247.64,406 L 308,406 303.71,408.44 C 303.95,408.03 303.95,408.03 305.04,406.21 306.49,403.77 306.49,403.77 308.55,400.32 312.18,394.22 315.81,388.13 319.2,382.44 319.2,382.44 319.2,382.44 319.21,382.44 323.56,375.13 327.2,369.03 329.86,364.56 331.37,362.02 332.55,360.04 333.37,358.67 333.8,357.95 334.13,357.4 334.35,357.02 334.51,356.76 334.51,356.76 334.61,356.59 334.69,355.63 334.69,355.63 334.66,361.49 334.37,360.98 334.37,360.98 333.25,359.03 331.79,356.48 331.79,356.48 329.73,352.9 324.92,344.51 324.92,344.51 319.16,334.49 313.35,324.36 313.35,324.36 308.51,315.93 306.45,312.34 306.45,312.34 305,309.81 303.91,307.91 303.91,307.91 303.66,307.49 L 308,310 C 306.88,310 306.88,310 302.15,310 296.03,310 296.03,310 287.99,310 263.74,310 263.74,310 248.13,310 244.3,310 241.89,305.88 243.77,302.54 248.9,293.45 248.9,293.45 258.67,276.11 265.87,263.34 265.87,263.34 273.64,249.54 287.45,225.04 287.45,225.04 298.01,206.31 300.88,201.22 300.88,201.22 302.86,197.72 304.32,195.11 304.32,195.11 304.64,194.54 L 304.69,199.54 C 304.21,198.72 304.21,198.72 302.03,195.03 299.12,190.11 299.12,190.11 295.01,183.14 285.32,166.73 285.32,166.73 273.69,147.04 262.07,127.36 262.07,127.36 252.38,110.95 248.27,103.98 248.27,103.98 245.36,99.05 244.18,97.06 244.18,97.06 243.39,95.72 243.08,95.19 243.08,95.19 242.87,94.84 242.79,94.71 242.79,94.71 242.74,94.62 242.72,94.58 242.72,94.58 242.71,94.56 242.7,94.55 242.7,94.55 242.7,94.55 242.7,94.55 242.7,94.55 242.7,94.54 L 242.7,94.54 242.7,94.54 242.7,94.54 251.31,89.46 Z M 251.31,89.46" />
</svg>
