<?xml version="1.0" encoding="UTF-8"?>
<!DOCTYPE svg PUBLIC "-//W3C//DTD SVG 1.1//EN" "http://www.w3.org/Graphics/SVG/1.1/DTD/svg11.dtd">
<svg version="1.1" xmlns="http://www.w3.org/2000/svg" xmlns:xlink="http://www.w3.org/1999/xlink" width="400" height="700"  xml:space="preserve" id="nebulaHole66">
    <!-- Generated by PaintCode - http://www.paintcodeapp.com -->
    <defs>
        <linearGradient id="nebulaHole66-outerWalls-wall" x1="188.25" y1="30.75" x2="188.25" y2="689.75" gradientUnits="userSpaceOnUse" >
            <stop offset="0" stop-color="rgb(214, 56, 255)" stop-opacity="1" />
            <stop offset="0.49" stop-color="rgb(130, 98, 235)" stop-opacity="1" />
            <stop offset="1" stop-color="rgb(59, 30, 152)" stop-opacity="1" />
        </linearGradient>
        <filter id="nebulaHole66-highlight-inner" filterUnits="userSpaceOnUse">
            <feGaussianBlur in="SourceAlpha" stdDeviation="0" result="blur"/>
            <feOffset dx="0" dy="2"/>
            <feComposite in2="SourceAlpha" operator="arithmetic" k2="-1.15" k3="1.15" result="shadowDiff"/>
            <feFlood flood-color="rgb(255, 255, 255)" flood-opacity="1"/>
            <feComposite in2="shadowDiff" operator="in"/>
            <feComposite in2="SourceGraphic" operator="over"/>
        </filter>
        <linearGradient id="nebulaHole66-outerWalls-wall2" x1="188.25" y1="35.75" x2="188.25" y2="680.53" gradientUnits="userSpaceOnUse" >
            <stop offset="0" stop-color="rgb(214, 56, 255)" stop-opacity="1" />
            <stop offset="0.49" stop-color="rgb(130, 98, 235)" stop-opacity="1" />
            <stop offset="1" stop-color="rgb(59, 30, 152)" stop-opacity="1" />
        </linearGradient>
    </defs>
    <path id="nebulaHole66-wall" stroke="none" fill="url(#nebulaHole66-outerWalls-wall)" filter="url(#nebulaHole66-highlight-inner)" d="M 200.47,61.84 C 212.7,69.6 212.7,69.6 222.33,75.71 226.36,78.27 226.36,78.27 229.16,80.04 231.25,81.36 231.25,81.36 231.7,81.65 233.15,82.57 234.02,84.16 234.02,85.88 L 234.02,186.12 231.73,181.92 C 236.03,184.69 249.66,193.35 269.67,206.06 269.7,206.08 269.7,206.08 269.74,206.11 278.37,211.59 287.62,217.46 296.87,223.33 300.11,225.38 303.11,227.29 305.81,229 307.31,229.95 307.31,229.95 308.32,230.59 309.05,231.06 309.05,231.06 309.2,231.15 310.65,232.07 311.52,233.66 311.52,235.38 L 311.52,335.62 C 311.52,337.28 310.7,338.84 309.33,339.77 L 160.93,440.14 160.89,431.83 309.29,530.21 C 310.68,531.13 311.52,532.7 311.52,534.38 L 311.52,634.62 C 311.52,636.34 310.65,637.93 309.2,638.85 L 230.18,688.97 C 228.54,690.01 226.46,690.01 224.82,688.97 L 145.8,638.85 C 144.35,637.93 143.48,636.34 143.48,634.62 143.48,633.91 143.48,633.91 143.48,630.67 143.48,626.33 143.48,626.33 143.48,620.16 143.48,605.57 143.48,605.57 143.48,587.74 143.48,586.12 143.48,586.12 143.48,584.5 143.48,567.32 143.48,567.32 143.48,552.54 143.48,546.04 143.48,546.04 143.48,541.04 143.48,536.93 143.48,536.93 143.48,534.92 L 145.8,539.14 C 141.53,536.43 141.53,536.43 131.78,530.25 120.21,522.91 120.21,522.91 106.81,514.41 91.99,505.01 91.99,505.01 79.64,497.18 74.4,493.85 74.4,493.85 70.69,491.5 67.91,489.74 67.91,489.74 67.3,489.35 65.85,488.43 64.98,486.84 64.98,485.12 L 64.98,384.88 C 64.98,383.21 65.8,381.65 67.19,380.73 L 215.21,281.23 215.2,289.52 68.18,190.27 C 66.8,189.34 65.98,187.79 65.98,186.12 L 65.98,85.88 C 65.98,84.16 66.85,82.57 68.3,81.65 69.37,80.97 69.37,80.97 74.02,78.03 80.1,74.17 80.1,74.17 88.35,68.93 97.69,63.01 97.69,63.01 107.81,56.59 122.51,47.27 122.51,47.27 134.79,39.47 140.03,36.15 140.03,36.15 143.77,33.78 146.6,31.99 146.6,31.99 147.32,31.53 148.95,30.49 151.04,30.49 152.67,31.53 L 200.47,61.84 Z M 200.47,61.84" />
    <rect id="nebulaHole66-ball" stroke="none" fill="rgb(128, 128, 128)" x="149" y="134" width="1" height="1" />
    <rect id="nebulaHole66-end" stroke="none" fill="rgb(128, 128, 128)" x="217" y="596" width="1" height="1" />
    <path id="nebulaHole66-wall2" stroke="none" fill="url(#nebulaHole66-outerWalls-wall2)" filter="url(#nebulaHole66-highlight-inner)" d="M 195.11,70.29 L 147.32,39.97 150,35.75 152.67,39.97 C 151.95,40.43 151.95,40.43 149.12,42.23 145.39,44.6 145.39,44.6 140.15,47.92 127.86,55.71 127.86,55.71 113.17,65.03 103.04,71.46 103.04,71.46 93.71,77.38 85.46,82.61 85.46,82.61 79.37,86.47 74.72,89.42 74.72,89.42 73.65,90.1 L 75.98,85.88 75.98,186.12 73.77,181.98 220.8,281.23 C 223.74,283.22 223.73,287.55 220.79,289.52 L 72.76,389.02 74.98,384.88 74.98,485.12 72.65,480.9 C 73.27,481.29 73.27,481.29 76.05,483.06 79.75,485.41 79.75,485.41 85,488.73 97.35,496.57 97.35,496.57 112.17,505.97 125.57,514.46 125.57,514.46 137.14,521.81 146.89,527.99 146.89,527.99 151.15,530.69 152.6,531.61 153.48,533.2 153.48,534.92 153.48,536.93 153.48,536.93 153.48,541.04 153.48,546.04 153.48,546.04 153.48,552.54 153.48,567.32 153.48,567.32 153.48,584.5 153.48,586.12 153.48,586.12 153.48,587.74 153.48,605.57 153.48,605.57 153.48,620.16 153.48,626.33 153.48,626.33 153.48,630.67 153.48,633.91 153.48,633.91 153.48,634.62 L 151.15,630.4 230.18,680.53 224.82,680.53 303.85,630.4 301.52,634.62 301.52,534.38 303.76,538.54 155.36,440.17 C 152.4,438.2 152.38,433.85 155.32,431.86 L 303.72,331.48 301.52,335.62 301.52,235.38 303.85,239.6 C 303.69,239.5 303.69,239.5 302.96,239.03 301.96,238.4 301.96,238.4 300.45,237.45 297.76,235.73 294.75,233.83 291.51,231.77 282.26,225.9 273.01,220.03 264.38,214.55 264.34,214.53 264.34,214.53 264.31,214.5 244.27,201.78 230.65,193.11 226.32,190.33 224.89,189.41 224.02,187.83 224.02,186.12 L 224.02,85.88 226.35,90.1 C 225.89,89.81 225.89,89.81 223.81,88.49 221.01,86.71 221.01,86.71 216.97,84.15 207.34,78.04 207.34,78.04 195.11,70.29 Z M 195.11,70.29" />
</svg>
