<?xml version="1.0" encoding="UTF-8"?>
<!DOCTYPE svg PUBLIC "-//W3C//DTD SVG 1.1//EN" "http://www.w3.org/Graphics/SVG/1.1/DTD/svg11.dtd">
<svg version="1.1" xmlns="http://www.w3.org/2000/svg" xmlns:xlink="http://www.w3.org/1999/xlink" width="400" height="700"  xml:space="preserve" id="nebulaHole44">
    <!-- Generated by PaintCode - http://www.paintcodeapp.com -->
    <defs>
        <linearGradient id="nebulaHole44-outerWalls-bezier" x1="204" y1="128" x2="204" y2="603" gradientUnits="userSpaceOnUse" >
            <stop offset="0" stop-color="rgb(214, 56, 255)" stop-opacity="1" />
            <stop offset="0.49" stop-color="rgb(130, 98, 235)" stop-opacity="1" />
            <stop offset="1" stop-color="rgb(59, 30, 152)" stop-opacity="1" />
        </linearGradient>
        <filter id="nebulaHole44-highlight-inner" filterUnits="userSpaceOnUse">
            <feGaussianBlur in="SourceAlpha" stdDeviation="0" result="blur"/>
            <feOffset dx="0" dy="2"/>
            <feComposite in2="SourceAlpha" operator="arithmetic" k2="-1.15" k3="1.15" result="shadowDiff"/>
            <feFlood flood-color="rgb(255, 255, 255)" flood-opacity="1"/>
            <feComposite in2="shadowDiff" operator="in"/>
            <feComposite in2="SourceGraphic" operator="over"/>
        </filter>
        <linearGradient id="nebulaHole44-outerWalls-bezier2" x1="202.27" y1="138" x2="202.27" y2="593" gradientUnits="userSpaceOnUse" >
            <stop offset="0" stop-color="rgb(214, 56, 255)" stop-opacity="1" />
            <stop offset="0.49" stop-color="rgb(130, 98, 235)" stop-opacity="1" />
            <stop offset="1" stop-color="rgb(59, 30, 152)" stop-opacity="1" />
        </linearGradient>
    </defs>
    <path id="nebulaHole44-bezier" stroke="none" fill="url(#nebulaHole44-outerWalls-bezier)" filter="url(#nebulaHole44-highlight-inner)" d="M 191.1,137.74 C 196.28,139.28 199.9,143.06 202.48,148.68 204.21,152.46 205.17,155.87 206.99,163.66 207.04,163.87 207.04,163.87 207.09,164.08 209.9,176.11 211.83,180.72 215.35,182.59 219.51,184.8 225.7,184.36 240.8,181.43 240.81,181.43 240.81,181.43 240.81,181.43 250.18,179.6 254.26,178.95 259.08,178.77 266.11,178.49 271.6,179.72 275.74,183.18 329.39,228.03 361,294.19 361,365.5 361,374.65 358.81,381.48 354.37,386.73 350.88,390.85 346.87,393.4 339.54,396.91 339.28,397.04 335.72,398.72 334.67,399.23 332.84,400.12 331.32,400.9 329.89,401.7 319.61,407.44 313.09,414.92 308.76,428.52 305.9,437.52 305.24,448.55 305.83,466.52 305.89,468.56 305.96,470.33 306.09,473.81 306.71,489.57 306.78,495.95 306.12,503.43 305.19,513.88 302.71,521.55 297.81,526.84 253.16,575.07 190.6,603 123.57,603 98.47,603 73.88,599.1 50.46,591.52 45.85,590.03 45.85,583.5 50.46,582.01 143.54,551.9 207.85,464.9 207.85,365.5 207.85,360.86 210.21,357.29 214.3,354.8 217.04,353.13 220.22,352 225.64,350.53 226.44,350.31 230.21,349.31 231.25,349.03 233.44,348.43 235.22,347.91 236.91,347.35 245.58,344.51 251.27,340.91 254.86,335.31 259.44,328.14 260.51,317.48 257.12,302.08 252.32,280.31 242.61,272.22 227.13,271.65 222.66,271.49 218.4,271.87 211.32,272.89 202.5,274.16 200.87,274.35 197.58,274.25 192.08,274.09 187.99,272.25 185.9,267.86 159.08,211.48 109.94,168.23 50.46,148.99 45.85,147.5 45.85,140.97 50.46,139.48 73.34,132.08 97.33,128.18 121.84,128.01 122.42,128 123,128 123.57,128 146.69,128 169.36,131.31 191.1,137.74 Z M 191.1,137.74" />
    <rect id="nebulaHole44-ball" stroke="none" fill="rgb(128, 128, 128)" x="173" y="555" width="1" height="1" />
    <rect id="nebulaHole44-end" stroke="none" fill="rgb(128, 128, 128)" x="162" y="174" width="1" height="1" />
    <path id="nebulaHole44-bezier2" stroke="none" fill="url(#nebulaHole44-outerWalls-bezier2)" filter="url(#nebulaHole44-highlight-inner)" d="M 188.26,147.33 C 167.44,141.17 145.72,138 123.57,138 123.02,138 122.47,138 121.91,138.01 98.43,138.17 75.45,141.9 53.54,148.99 L 53.54,139.48 C 115.64,159.56 166.93,204.7 194.93,263.57 194.99,263.7 195.03,263.74 195.25,263.84 195.76,264.06 196.62,264.22 197.86,264.26 200.31,264.33 201.88,264.14 209.9,262.99 217.53,261.9 222.26,261.47 227.49,261.66 247.52,262.39 261.11,273.7 266.88,299.92 270.8,317.71 269.46,331.03 263.28,340.69 258.24,348.59 250.68,353.36 240.03,356.86 238.16,357.47 236.22,358.04 233.88,358.68 232.79,358.97 229.02,359.97 228.26,360.18 220.16,362.38 217.85,363.79 217.85,365.5 217.85,469.27 150.71,560.09 53.54,591.52 L 53.54,582.01 C 75.96,589.26 99.51,593 123.57,593 187.78,593 247.69,566.25 290.47,520.04 293.56,516.71 295.41,510.99 296.16,502.54 296.77,495.65 296.7,489.49 296.1,474.2 295.97,470.7 295.9,468.92 295.83,466.84 295.21,447.78 295.92,435.91 299.24,425.48 304.37,409.35 312.6,399.9 325.01,392.97 326.64,392.06 328.31,391.2 330.31,390.23 331.41,389.7 335,388 335.23,387.89 341.36,384.95 344.42,383.01 346.74,380.27 349.54,376.95 351,372.41 351,365.5 351,297.19 320.73,233.82 269.33,190.85 265.67,187.8 259.11,188.05 242.72,191.24 242.72,191.24 242.72,191.24 242.71,191.24 234.26,192.89 230.57,193.5 226.16,193.81 219.84,194.25 214.79,193.61 210.65,191.41 206.5,189.2 203.59,185.43 201.4,180.21 199.89,176.61 198.98,173.34 197.35,166.36 197.3,166.14 197.3,166.14 197.26,165.93 194.22,152.95 192.17,148.49 188.26,147.33 Z M 188.26,147.33" />
</svg>
