<?xml version="1.0" encoding="UTF-8"?>
<!DOCTYPE svg PUBLIC "-//W3C//DTD SVG 1.1//EN" "http://www.w3.org/Graphics/SVG/1.1/DTD/svg11.dtd">
<svg version="1.1" xmlns="http://www.w3.org/2000/svg" xmlns:xlink="http://www.w3.org/1999/xlink" width="400" height="700"  xml:space="preserve" id="nebulaHole33">
    <!-- Generated by PaintCode - http://www.paintcodeapp.com -->
    <defs>
        <pattern id="nebulaHole33-woven-bezier" x="75" y="97" width="42" height="42" patternUnits="userSpaceOnUse" viewBox="0 0 42 42">
            <image xlink:href="images/woven.png" x="0" y="0" width="42" height="42" />
        </pattern>
    </defs>
    <path id="nebulaHole33-bezier2" stroke="rgb(65, 49, 118)" stroke-width="24" stroke-linejoin="round" stroke-miterlimit="10" fill="none" d="M 189,55 L 303,109 C 303,109 303,127.74 303,158 L 189,212 C 189,236 189,261.99 189,285 L 303,231 C 303,285.33 303,350.76 303,412 L 189,466 C 189,490 189,515.99 189,539 L 303,485 C 303,558.33 303,613 303,613 L 189,667 C 189,643.99 189,618 189,594 L 75,540 C 75,491.45 75,424.59 75,358 L 189,412 C 189,388.99 189,363 189,339 L 75,285 C 75,232.13 75,184.18 75,151.73 75,125.18 75,109 75,109 75,109 76.93,108.09 80.28,106.5 102.71,117.13 189,158 189,158 189,134.99 189,109 189,85 189,85 175.27,78.49 157.33,70 175.16,61.56 188.83,55.08 189,55 Z M 189,55" />
    <path id="nebulaHole33-bezier" stroke="none" fill="url(#nebulaHole33-woven-bezier)" d="M 189,55 L 303,109 C 303,109 303,127.74 303,158 L 189,212 C 189,236 189,261.99 189,285 L 303,231 C 303,285.33 303,350.76 303,412 L 189,466 C 189,490 189,515.99 189,539 L 303,485 C 303,558.33 303,613 303,613 L 189,667 C 189,643.99 189,618 189,594 L 75,540 C 75,491.45 75,424.59 75,358 L 189,412 C 189,388.99 189,363 189,339 L 75,285 C 75,232.13 75,184.18 75,151.73 75,125.18 75,109 75,109 75,109 76.93,108.09 80.28,106.5 102.71,117.13 189,158 189,158 189,134.99 189,109 189,85 189,85 175.27,78.49 157.33,70 175.16,61.56 188.83,55.08 189,55 Z M 189,55" />
    <path id="nebulaHole33-wall" stroke="none" fill="rgb(130, 98, 235)" d="M 191.14,50.48 L 305.14,104.48 C 306.89,105.31 308,107.07 308,109 308,109.59 308,109.59 308,112.4 308,116.28 308,116.28 308,122.15 308,136.75 308,136.75 308,158 308,159.93 306.89,161.69 305.14,162.52 L 191.14,216.52 194,212 C 194,226.59 194,226.59 194,241.5 194,263.79 194,263.79 194,285 L 186.86,280.48 300.86,226.48 C 304.18,224.91 308,227.33 308,231 308,318.05 308,318.05 308,412 308,413.93 306.89,415.69 305.14,416.52 L 191.14,470.52 194,466 C 194,480.59 194,480.59 194,495.5 194,517.79 194,517.79 194,539 L 186.86,534.48 300.86,480.48 C 304.18,478.91 308,481.33 308,485 308,537.66 308,537.66 308,576.5 308,592.48 308,592.48 308,603.31 308,607.66 308,607.66 308,610.51 308,612.57 308,612.57 308,613 308,614.93 306.89,616.69 305.14,617.52 L 191.14,671.52 C 187.82,673.09 184,670.67 184,667 184,645.79 184,645.79 184,623.5 184,608.59 184,608.59 184,594 L 186.86,598.52 72.86,544.52 C 71.11,543.69 70,541.93 70,540 70,458.02 70,458.02 70,358 70,354.33 73.82,351.91 77.14,353.48 L 191.14,407.48 184,412 C 184,390.79 184,390.79 184,368.5 184,353.59 184,353.59 184,339 L 186.86,343.52 72.86,289.52 C 71.11,288.69 70,286.93 70,285 70,208.16 70,208.16 70,151.73 70,133.11 70,133.11 70,120.41 70,115.3 70,115.3 70,111.94 70,109.51 70,109.51 70,109 70,107.07 71.11,105.31 72.86,104.48 73.82,104.03 73.82,104.03 78.14,101.98 79.49,101.34 81.06,101.34 82.42,101.98 102.5,111.5 102.5,111.5 134.14,126.48 155.52,136.61 155.52,136.61 173.33,145.04 180.9,148.63 180.9,148.63 186.24,151.16 190.25,153.06 190.25,153.06 191.14,153.48 L 184,158 C 184,136.79 184,136.79 184,114.5 184,99.59 184,99.59 184,85 L 186.86,89.52 C 186.43,89.32 186.43,89.32 184.43,88.37 181.73,87.09 181.73,87.09 177.75,85.2 168.12,80.64 168.12,80.64 155.19,74.52 151.38,72.71 151.38,67.29 155.19,65.48 162.99,61.79 170.55,58.21 177.65,54.85 181.62,52.96 181.62,52.96 184.35,51.67 186.37,50.71 186.37,50.71 186.86,50.48 188.21,49.84 189.78,49.84 191.14,50.48 Z M 191.14,50.48" />
    <rect id="nebulaHole33-end" stroke="none" fill="rgb(0, 255, 0)" fill-opacity="0" x="249" y="132" width="1" height="1" />
    <rect id="nebulaHole33-ball" stroke="none" fill="rgb(128, 128, 128)" x="247" y="583" width="1" height="1" />
    <path id="nebulaHole33-wall2" stroke="none" fill="rgb(130, 98, 235)" d="M 186.86,59.52 L 189,55 191.14,59.52 C 190.65,59.75 190.65,59.75 188.63,60.71 185.9,62 185.9,62 181.93,63.88 174.83,67.24 167.27,70.83 159.47,74.52 L 159.47,65.48 C 172.4,71.6 172.4,71.6 182.03,76.17 186.01,78.05 186.01,78.05 188.71,79.33 190.71,80.28 190.71,80.28 191.14,80.48 192.89,81.31 194,83.07 194,85 194,99.59 194,99.59 194,114.5 194,136.79 194,136.79 194,158 194,161.67 190.18,164.09 186.86,162.52 185.97,162.1 185.97,162.1 181.96,160.2 176.62,157.67 176.62,157.67 169.05,154.08 151.23,145.64 151.23,145.64 129.86,135.52 98.22,120.53 98.22,120.53 78.14,111.02 L 80.28,106.5 82.42,111.02 C 78.1,113.06 78.1,113.06 77.14,113.52 L 75,109 80,109 C 80,109.51 80,109.51 80,111.94 80,115.3 80,115.3 80,120.41 80,133.11 80,133.11 80,151.73 80,208.16 80,208.16 80,285 L 77.14,280.48 191.14,334.48 C 192.89,335.31 194,337.07 194,339 194,353.59 194,353.59 194,368.5 194,390.79 194,390.79 194,412 194,415.67 190.18,418.09 186.86,416.52 L 72.86,362.52 80,358 C 80,458.02 80,458.02 80,540 L 77.14,535.48 191.14,589.48 C 192.89,590.31 194,592.07 194,594 194,608.59 194,608.59 194,623.5 194,645.79 194,645.79 194,667 L 186.86,662.48 300.86,608.48 298,613 C 298,612.57 298,612.57 298,610.51 298,607.66 298,607.66 298,603.31 298,592.48 298,592.48 298,576.5 298,537.66 298,537.66 298,485 L 305.14,489.52 191.14,543.52 C 187.82,545.09 184,542.67 184,539 184,517.79 184,517.79 184,495.5 184,480.59 184,480.59 184,466 184,464.07 185.11,462.31 186.86,461.48 L 300.86,407.48 298,412 C 298,318.05 298,318.05 298,231 L 305.14,235.52 191.14,289.52 C 187.82,291.09 184,288.67 184,285 184,263.79 184,263.79 184,241.5 184,226.59 184,226.59 184,212 184,210.07 185.11,208.31 186.86,207.48 L 300.86,153.48 298,158 C 298,136.75 298,136.75 298,122.15 298,116.28 298,116.28 298,112.4 298,109.59 298,109.59 298,109 L 300.86,113.52 186.86,59.52 Z M 186.86,59.52" />
</svg>
