<?xml version="1.0" encoding="UTF-8"?>
<!DOCTYPE svg PUBLIC "-//W3C//DTD SVG 1.1//EN" "http://www.w3.org/Graphics/SVG/1.1/DTD/svg11.dtd">
<svg version="1.1" xmlns="http://www.w3.org/2000/svg" xmlns:xlink="http://www.w3.org/1999/xlink" width="400" height="700"  xml:space="preserve" id="nebulaHole88">
    <!-- Generated by PaintCode - http://www.paintcodeapp.com -->
    <defs>
        <pattern id="nebulaHole88-woven-bezier" x="93" y="74" width="42" height="42" patternUnits="userSpaceOnUse" viewBox="0 0 42 42">
            <image xlink:href="images/woven.png" x="0" y="0" width="42" height="42" />
        </pattern>
    </defs>
    <path id="nebulaHole88-bezier2" stroke="rgb(65, 49, 118)" stroke-width="24" stroke-linecap="round" stroke-linejoin="round" stroke-miterlimit="10" fill="none" d="M 225.5,93 L 225.5,224 273.5,198 273.5,123 225.5,93 Z M 175.5,93 L 127.5,123 C 127.5,123 127.5,142.77 127.5,162.01 127.5,180.24 127.5,198 127.5,198 L 175.5,224 175.5,93 Z M 310.05,93.75 L 310.05,220.25 C 310.05,220.25 274.19,240.96 243.5,258.67 243.5,271.8 243.5,285.38 243.5,299.22 L 215.55,258 215.55,438 243.5,402.27 C 243.5,414.61 243.5,426.84 243.5,438.83 274.19,456.54 310.05,477.25 310.05,477.25 L 310.05,603.75 200.5,667 90.95,603.75 90.95,477.25 C 90.95,477.25 127.6,456.09 158.5,438.25 158.5,426.44 158.5,414.42 158.5,402.27 L 186.45,438 186.45,258 158.5,299.22 C 158.5,285.58 158.5,272.2 158.5,259.25 127.6,241.41 90.95,220.25 90.95,220.25 L 90.95,93.75 C 90.95,93.75 108.9,83.39 130.27,71.05 136.19,67.63 142.39,64.05 148.53,60.51 174.77,45.35 200.15,30.7 200.5,30.5 L 310.05,93.75 Z M 225.5,474 L 225.5,605 273.5,579 273.5,504 225.5,474 Z M 175.5,474 L 127.5,504 127.5,579 175.5,605 175.5,474 Z M 175.5,474" />
    <path id="nebulaHole88-bezier" stroke="none" fill="url(#nebulaHole88-woven-bezier)" d="M 227.5,94.5 L 227.5,225.5 275.5,199.5 275.5,124.5 227.5,94.5 Z M 177.5,94.5 L 129.5,124.5 C 129.5,124.5 129.5,144.27 129.5,163.51 129.5,181.74 129.5,199.5 129.5,199.5 L 177.5,225.5 177.5,94.5 Z M 202.5,32 C 202.5,32 312.05,95.25 312.05,95.25 L 312.05,221.75 C 312.05,221.75 276.19,242.46 245.5,260.17 245.5,273.3 245.5,286.88 245.5,300.72 L 217.55,259.5 217.55,439.5 245.5,403.77 C 245.5,416.11 245.5,428.34 245.5,440.33 276.19,458.04 312.05,478.75 312.05,478.75 L 312.05,605.25 202.5,668.5 92.95,605.25 92.95,478.75 C 92.95,478.75 129.6,457.59 160.5,439.75 160.5,427.94 160.5,415.92 160.5,403.77 L 188.45,439.5 188.45,259.5 160.5,300.72 C 160.5,287.08 160.5,273.7 160.5,260.75 129.6,242.91 92.95,221.75 92.95,221.75 L 92.95,95.25 C 92.95,95.25 110.9,84.89 132.27,72.55 138.19,69.13 144.39,65.55 150.53,62.01 176.77,46.85 202.15,32.2 202.5,32 L 202.5,32 Z M 227.5,475.5 L 227.5,606.5 275.5,580.5 275.5,505.5 227.5,475.5 Z M 177.5,475.5 L 129.5,505.5 129.5,580.5 177.5,606.5 177.5,475.5 Z M 177.5,475.5" />
    <path id="nebulaHole88-wall" stroke="none" fill="rgb(130, 98, 235)" d="M 230,95 L 230,226 222.62,221.6 270.62,195.6 268,200 268,125 270.35,129.24 222.35,99.24 230,95 Z M 230,95" />
    <rect id="nebulaHole88-end" stroke="none" fill="rgb(0, 255, 0)" fill-opacity="0" x="201" y="74" width="1" height="1" />
    <rect id="nebulaHole88-ball" stroke="none" fill="rgb(128, 128, 128)" x="199" y="583" width="1" height="1" />
    <path id="nebulaHole88-wall2" stroke="none" fill="rgb(130, 98, 235)" d="M 220,95 C 220,91.07 224.32,88.68 227.65,90.76 L 275.65,120.76 C 277.11,121.67 278,123.28 278,125 L 278,200 C 278,201.83 276.99,203.52 275.38,204.4 L 227.38,230.4 C 224.05,232.2 220,229.79 220,226 L 220,95 Z M 220,95" />
    <path id="nebulaHole88-wall3" stroke="none" fill="rgb(130, 98, 235)" d="M 177.65,99.24 L 129.65,129.24 132,125 C 132,125.59 132,125.59 132,128.22 132,131.74 132,131.74 132,136.72 132,148.44 132,148.44 132,162.5 132,163.26 132,163.26 132,164.01 132,177.63 132,177.63 132,188.84 132,193.6 132,193.6 132,196.94 132,199.45 132,199.45 132,200 L 129.38,195.6 177.38,221.6 170,226 170,95 177.65,99.24 Z M 177.65,99.24" />
    <path id="nebulaHole88-wall4" stroke="none" fill="rgb(130, 98, 235)" d="M 172.35,90.76 C 175.68,88.68 180,91.07 180,95 L 180,226 C 180,229.79 175.95,232.2 172.62,230.4 L 124.62,204.4 C 123.01,203.52 122,201.83 122,200 122,199.45 122,199.45 122,196.94 122,193.6 122,193.6 122,188.84 122,177.63 122,177.63 122,164.01 122,163.26 122,163.26 122,162.5 122,148.44 122,148.44 122,136.72 122,131.74 122,131.74 122,128.22 122,125.59 122,125.59 122,125 122,123.28 122.89,121.67 124.35,120.76 L 172.35,90.76 Z M 172.35,90.76" />
    <path id="nebulaHole88-wall5" stroke="none" fill="rgb(130, 98, 235)" d="M 314.55,95.75 L 314.55,222.25 C 314.55,224.04 313.6,225.69 312.05,226.58 311.2,227.07 311.2,227.07 307.34,229.3 302.21,232.26 302.21,232.26 294.93,236.46 277.82,246.35 277.82,246.35 257.28,258.21 251.35,261.63 251.35,261.63 245.5,265 L 248,260.67 C 248,280.59 248,280.59 248,301.22 248,306.15 241.63,308.11 238.86,304.03 L 210.92,262.81 220.05,260 220.05,440 211.12,436.92 239.06,401.19 C 241.99,397.45 248,399.52 248,404.27 248,422.73 248,422.73 248,440.83 L 245.5,436.5 C 249.25,438.66 253.18,440.93 257.28,443.3 257.28,443.3 257.28,443.3 257.28,443.3 269.26,450.21 282.1,457.63 294.94,465.04 299.43,467.63 302.21,469.24 307.35,472.2 311.2,474.43 311.2,474.43 312.05,474.92 313.6,475.81 314.55,477.46 314.55,479.25 L 314.55,605.75 C 314.55,607.54 313.6,609.19 312.05,610.08 L 202.5,673.33 C 200.95,674.22 199.05,674.22 197.5,673.33 L 87.95,610.08 C 86.4,609.19 85.45,607.54 85.45,605.75 L 85.45,479.25 C 85.45,477.46 86.4,475.81 87.95,474.92 88.8,474.43 88.8,474.43 92.66,472.2 97.79,469.24 97.79,469.24 105.07,465.04 122.18,455.15 122.18,455.15 142.72,443.29 149.16,439.58 149.16,439.58 155.5,435.92 L 153,440.25 C 153,422.43 153,422.43 153,404.27 153,399.52 159.01,397.45 161.94,401.19 L 189.88,436.92 180.95,440 180.95,260 190.08,262.81 162.14,304.03 C 159.37,308.11 153,306.15 153,301.22 153,290.04 153,281.19 153,261.84 153,261.54 153,261.54 153,261.25 L 155.5,265.58 C 149.16,261.92 149.16,261.92 142.72,258.2 L 142.72,258.2 C 130.74,251.29 117.9,243.87 105.07,236.46 97.79,232.26 97.79,232.26 92.66,229.3 88.8,227.07 88.8,227.07 87.95,226.58 86.4,225.69 85.45,224.04 85.45,222.25 L 85.45,95.75 C 85.45,93.96 86.4,92.31 87.95,91.42 88.51,91.1 88.51,91.1 91.09,89.61 94.56,87.6 94.56,87.6 99.59,84.7 111.67,77.73 111.67,77.73 127.27,68.72 134.9,64.31 134.9,64.31 142.72,59.79 144.13,58.98 144.13,58.98 145.53,58.18 165.1,46.87 165.1,46.87 181.23,37.57 188.07,33.61 188.07,33.61 192.92,30.81 196.59,28.7 196.59,28.7 197.5,28.17 199.04,27.28 200.95,27.28 202.5,28.17 L 312.05,91.42 C 313.6,92.31 314.55,93.96 314.55,95.75 Z M 314.55,95.75" />
    <path id="nebulaHole88-wall6" stroke="none" fill="rgb(130, 98, 235)" d="M 304.55,95.75 L 307.05,100.08 197.5,36.83 200,32.5 202.5,36.83 C 201.59,37.36 201.59,37.36 197.92,39.47 193.07,42.27 193.07,42.27 186.23,46.23 170.1,55.53 170.1,55.53 150.53,66.84 149.13,67.64 149.13,67.64 147.72,68.46 139.9,72.97 139.9,72.97 132.27,77.38 116.67,86.39 116.67,86.39 104.59,93.36 99.56,96.26 99.56,96.26 96.09,98.27 93.51,99.76 93.51,99.76 92.95,100.08 L 95.45,95.75 95.45,222.25 92.95,217.92 C 93.8,218.41 93.8,218.41 97.66,220.64 102.79,223.6 102.79,223.6 110.07,227.8 122.9,235.21 135.74,242.63 147.72,249.54 L 147.72,249.54 C 154.16,253.26 154.16,253.26 160.5,256.92 162.05,257.81 163,259.46 163,261.25 163,261.54 163,261.54 163,261.84 163,281.19 163,290.04 163,301.22 L 153.86,298.42 181.81,257.19 C 184.57,253.12 190.95,255.07 190.95,260 L 190.95,440 C 190.95,444.75 184.94,446.82 182.01,443.08 L 154.06,407.36 163,404.27 C 163,422.43 163,422.43 163,440.25 163,442.04 162.05,443.69 160.5,444.58 154.16,448.24 154.16,448.24 147.72,451.96 127.18,463.81 127.18,463.81 110.07,473.7 102.79,477.9 102.79,477.9 97.66,480.86 93.8,483.09 93.8,483.09 92.95,483.58 L 95.45,479.25 95.45,605.75 92.95,601.42 202.5,664.67 197.5,664.67 307.05,601.42 304.55,605.75 304.55,479.25 307.05,483.58 C 306.2,483.09 306.2,483.09 302.35,480.86 297.21,477.9 294.43,476.29 289.94,473.7 277.1,466.29 264.26,458.87 252.28,451.96 252.28,451.96 252.28,451.96 252.28,451.96 248.18,449.59 244.25,447.32 240.5,445.16 238.95,444.26 238,442.61 238,440.83 238,422.73 238,422.73 238,404.27 L 246.94,407.36 218.99,443.08 C 216.06,446.82 210.05,444.75 210.05,440 L 210.05,260 C 210.05,255.07 216.43,253.12 219.19,257.19 L 247.14,298.42 238,301.22 C 238,280.59 238,280.59 238,260.67 238,258.89 238.95,257.24 240.5,256.34 246.35,252.97 246.35,252.97 252.28,249.54 272.82,237.69 272.82,237.69 289.93,227.8 297.21,223.6 297.21,223.6 302.34,220.64 306.2,218.41 306.2,218.41 307.05,217.92 L 304.55,222.25 304.55,95.75 Z M 304.55,95.75" />
    <path id="nebulaHole88-wall7" stroke="none" fill="rgb(130, 98, 235)" d="M 230,476 L 230,607 222.62,602.6 270.62,576.6 268,581 268,506 270.35,510.24 222.35,480.24 230,476 Z M 230,476" />
    <path id="nebulaHole88-wall8" stroke="none" fill="rgb(130, 98, 235)" d="M 220,476 C 220,472.07 224.32,469.68 227.65,471.76 L 275.65,501.76 C 277.11,502.67 278,504.28 278,506 L 278,581 C 278,582.83 276.99,584.52 275.38,585.4 L 227.38,611.4 C 224.05,613.2 220,610.79 220,607 L 220,476 Z M 220,476" />
    <path id="nebulaHole88-wall9" stroke="none" fill="rgb(130, 98, 235)" d="M 177.65,480.24 L 129.65,510.24 132,506 132,581 129.38,576.6 177.38,602.6 170,607 170,476 177.65,480.24 Z M 177.65,480.24" />
    <path id="nebulaHole88-wall10" stroke="none" fill="rgb(130, 98, 235)" d="M 172.35,471.76 C 175.68,469.68 180,472.07 180,476 L 180,607 C 180,610.79 175.95,613.2 172.62,611.4 L 124.62,585.4 C 123.01,584.52 122,582.83 122,581 L 122,506 C 122,504.28 122.89,502.67 124.35,501.76 L 172.35,471.76 Z M 172.35,471.76" />
</svg>
