<?xml version="1.0" encoding="UTF-8"?>
<!DOCTYPE svg PUBLIC "-//W3C//DTD SVG 1.1//EN" "http://www.w3.org/Graphics/SVG/1.1/DTD/svg11.dtd">
<svg version="1.1" xmlns="http://www.w3.org/2000/svg" xmlns:xlink="http://www.w3.org/1999/xlink" width="400" height="700"  xml:space="preserve" id="nebulaHole22">
    <!-- Generated by PaintCode - http://www.paintcodeapp.com -->
    <defs>
        <pattern id="nebulaHole22-woven-bezier2" x="31" y="198" width="42" height="42" patternUnits="userSpaceOnUse" viewBox="0 0 42 42">
            <image xlink:href="images/woven.png" x="0" y="0" width="42" height="42" />
        </pattern>
    </defs>
    <path id="nebulaHole22-bezier3" stroke="rgb(65, 49, 118)" stroke-width="24" stroke-linejoin="round" stroke-miterlimit="10" fill="none" d="M 200,283 L 172.29,327 172.29,373 200,419 227.71,373 227.71,327 200,283 Z M 199,156 L 93.32,289.98 93.32,412.02 C 93.32,412.02 140.01,438.97 171.32,457.05 153.98,438.76 134.9,418.63 134.9,418.63 L 134.9,283.37 199,156 Z M 226.68,244.95 C 244.02,263.24 263.1,283.37 263.1,283.37 L 263.1,418.63 199,545 304.68,412.02 304.68,289.98 C 304.68,289.98 257.99,263.03 226.68,244.95 Z M 199.44,155.88 C 199.44,155.88 367.93,253.16 367.93,253.16 L 367.93,447.72 199.44,545 30.94,447.72 30.94,253.16 C 30.94,253.16 87,220.79 134.45,193.4 140.14,190.11 145.72,186.89 151.05,183.81 153.02,182.68 154.95,181.56 156.84,180.47 181.26,166.37 199.44,155.88 199.44,155.88 L 199.44,155.88 Z M 199.44,155.88" />
    <path id="nebulaHole22-bezier2" stroke="none" fill="url(#nebulaHole22-woven-bezier2)" d="M 200,283 L 172.29,327 172.29,373 200,419 227.71,373 227.71,327 200,283 Z M 199,156 L 93.32,289.98 93.32,412.02 C 93.32,412.02 140.01,438.97 171.32,457.05 153.98,438.76 134.9,418.63 134.9,418.63 L 134.9,283.37 199,156 Z M 226.68,244.95 C 244.02,263.24 263.1,283.37 263.1,283.37 L 263.1,418.63 199,545 304.68,412.02 304.68,289.98 C 304.68,289.98 257.99,263.03 226.68,244.95 Z M 199.44,155.88 C 199.44,155.88 367.93,253.16 367.93,253.16 L 367.93,447.72 199.44,545 30.94,447.72 30.94,253.16 C 30.94,253.16 87,220.79 134.45,193.4 140.14,190.11 145.72,186.89 151.05,183.81 153.02,182.68 154.95,181.56 156.84,180.47 181.26,166.37 199.44,155.88 199.44,155.88 L 199.44,155.88 Z M 199.44,155.88" />
    <path id="nebulaHole22-wall" stroke="none" fill="rgb(130, 98, 235)" d="M 204.23,285.66 L 176.52,329.66 177.29,327 177.29,373 176.57,370.42 204.28,416.42 195.72,416.42 223.43,370.42 222.71,373 222.71,327 223.48,329.66 195.77,285.66 204.23,285.66 Z M 204.23,285.66" />
    <rect id="nebulaHole22-end" stroke="none" fill="rgb(0, 255, 0)" fill-opacity="0" x="329" y="423" width="1" height="1" />
    <rect id="nebulaHole22-ball" stroke="none" fill="rgb(128, 128, 128)" x="78" y="257" width="1" height="1" />
    <path id="nebulaHole22-wall2" stroke="none" fill="rgb(130, 98, 235)" d="M 195.77,280.34 C 197.73,277.22 202.27,277.22 204.23,280.34 L 231.94,324.34 C 232.45,325.13 232.71,326.06 232.71,327 L 232.71,373 C 232.71,373.91 232.46,374.8 232,375.58 L 204.28,421.58 C 202.34,424.81 197.66,424.81 195.72,421.58 L 168,375.58 C 167.54,374.8 167.29,373.91 167.29,373 L 167.29,327 C 167.29,326.06 167.55,325.13 168.06,324.34 L 195.77,280.34 Z M 195.77,280.34" />
    <path id="nebulaHole22-wall3" stroke="none" fill="rgb(130, 98, 235)" d="M 202.93,159.1 L 97.24,293.08 98.32,289.98 98.32,412.02 95.82,407.69 C 96.64,408.16 96.64,408.16 100.36,410.31 105.31,413.17 105.31,413.17 112.33,417.22 128.84,426.75 128.84,426.75 148.66,438.19 161.71,445.73 161.71,445.73 173.82,452.72 L 167.69,460.49 C 165.51,458.19 165.51,458.19 163.32,455.88 151.3,443.2 151.3,443.2 141.29,432.63 137.03,428.14 137.03,428.14 134.03,424.97 131.77,422.59 131.77,422.59 131.27,422.07 130.39,421.14 129.9,419.91 129.9,418.63 L 129.9,283.37 C 129.9,282.59 130.08,281.82 130.43,281.13 L 194.53,153.75 202.93,159.1 Z M 202.93,159.1" />
    <path id="nebulaHole22-wall4" stroke="none" fill="rgb(130, 98, 235)" d="M 195.07,152.9 C 198.81,148.17 206.18,152.86 203.47,158.25 L 139.37,285.62 139.9,283.37 139.9,418.63 138.53,415.19 C 139.03,415.72 139.03,415.72 141.28,418.09 144.29,421.26 144.29,421.26 148.55,425.75 158.56,436.32 158.56,436.32 170.58,449 172.77,451.31 172.77,451.31 174.95,453.61 178.92,457.8 173.81,464.26 168.82,461.38 156.71,454.39 156.71,454.39 143.66,446.85 123.84,435.41 123.84,435.41 107.33,425.88 100.31,421.83 100.31,421.83 95.36,418.97 91.64,416.82 91.64,416.82 90.82,416.35 89.27,415.45 88.32,413.8 88.32,412.02 L 88.32,289.98 C 88.32,288.86 88.7,287.77 89.39,286.89 L 195.07,152.9 Z M 195.07,152.9" />
    <path id="nebulaHole22-wall5" stroke="none" fill="rgb(130, 98, 235)" d="M 230.31,241.51 C 232.49,243.81 232.49,243.81 234.68,246.12 246.7,258.8 246.7,258.8 256.71,269.37 260.97,273.86 260.97,273.86 263.97,277.03 266.23,279.41 266.23,279.41 266.73,279.93 267.61,280.86 268.1,282.09 268.1,283.37 L 268.1,418.63 C 268.1,419.41 267.91,420.19 267.56,420.89 L 203.46,547.26 195.09,541.89 300.77,408.9 299.68,412.02 299.68,289.98 302.18,294.31 C 301.36,293.84 301.36,293.84 297.64,291.69 292.69,288.83 292.69,288.83 285.67,284.78 269.16,275.25 269.16,275.25 249.34,263.81 236.29,256.27 236.29,256.27 224.18,249.28 L 230.31,241.51 Z M 230.31,241.51" />
    <path id="nebulaHole22-wall6" stroke="none" fill="rgb(130, 98, 235)" d="M 223.05,248.39 C 219.08,244.2 224.19,237.74 229.18,240.62 241.29,247.61 241.29,247.61 254.34,255.15 274.16,266.59 274.16,266.59 290.67,276.12 297.69,280.17 297.69,280.17 302.64,283.03 306.36,285.18 306.36,285.18 307.18,285.65 308.73,286.55 309.68,288.2 309.68,289.98 L 309.68,412.02 C 309.68,413.15 309.3,414.24 308.6,415.13 L 202.91,548.11 C 199.17,552.83 191.82,548.11 194.54,542.74 L 258.64,416.37 258.1,418.63 258.1,283.37 259.47,286.81 C 258.97,286.28 258.97,286.28 256.72,283.91 253.71,280.74 253.71,280.74 249.45,276.25 239.44,265.68 239.44,265.68 227.42,253 225.23,250.69 225.23,250.69 223.05,248.39 Z M 223.05,248.39" />
    <path id="nebulaHole22-wall7" stroke="none" fill="rgb(130, 98, 235)" d="M 196.94,160.21 L 201.94,151.55 201.94,151.55 201.94,151.55 C 201.94,151.55 201.94,151.55 201.95,151.55 201.96,151.56 201.96,151.56 201.97,151.56 202.01,151.58 202.01,151.58 202.06,151.62 202.2,151.7 202.2,151.7 202.42,151.83 202.98,152.15 202.98,152.15 203.83,152.64 205.97,153.87 205.97,153.87 209.18,155.73 217.08,160.29 217.08,160.29 228.27,166.75 254.59,181.95 254.59,181.95 286.19,200.19 317.78,218.43 317.78,218.43 344.11,233.63 355.3,240.09 355.3,240.09 363.19,244.65 369.12,248.07 369.12,248.07 370.43,248.83 371.98,249.72 372.93,251.37 372.93,253.16 L 372.93,447.72 C 372.93,449.51 371.98,451.16 370.43,452.05 L 201.94,549.33 C 200.39,550.22 198.48,550.22 196.94,549.33 L 28.44,452.05 C 26.89,451.16 25.94,449.51 25.94,447.72 L 25.94,253.16 C 25.94,251.37 26.89,249.72 28.44,248.83 29.76,248.07 29.76,248.07 35.68,244.65 43.58,240.09 43.58,240.09 54.77,233.63 81.1,218.43 81.1,218.43 112.69,200.19 122.39,194.58 122.39,194.58 131.95,189.07 140.43,184.17 140.43,184.17 148.55,179.48 151.48,177.79 151.48,177.79 154.34,176.14 165.02,169.97 175.3,164.04 184.8,158.56 188.12,156.64 191.11,154.91 193.72,153.41 196.37,151.87 196.37,151.87 196.94,151.55 198.49,150.65 200.39,150.65 201.94,151.55 L 201.94,151.55 199.44,155.88 196.94,160.21 Z M 196.94,160.21" />
    <path id="nebulaHole22-wall8" stroke="none" fill="rgb(130, 98, 235)" d="M 201.94,151.55 C 207.71,154.88 202.71,163.54 196.94,160.21 L 196.94,160.21 199.44,155.88 201.94,160.21 C 201.37,160.53 201.37,160.53 198.72,162.07 196.11,163.57 193.12,165.3 189.8,167.22 180.3,172.7 170.02,178.63 159.34,184.8 156.48,186.45 156.48,186.45 153.55,188.14 145.43,192.83 145.43,192.83 136.95,197.73 127.39,203.24 127.39,203.24 117.69,208.85 86.1,227.09 86.1,227.09 59.77,242.29 48.58,248.75 48.58,248.75 40.68,253.31 34.76,256.73 34.76,256.73 33.44,257.49 L 35.94,253.16 35.94,447.72 33.44,443.39 201.94,540.67 196.94,540.67 365.43,443.39 362.93,447.72 362.93,253.16 365.43,257.49 C 364.12,256.73 364.12,256.73 358.19,253.31 350.3,248.75 350.3,248.75 339.11,242.29 312.78,227.09 312.78,227.09 281.19,208.85 249.59,190.61 249.59,190.61 223.27,175.41 212.08,168.95 212.08,168.95 204.18,164.39 200.97,162.53 200.97,162.53 198.83,161.3 197.98,160.81 197.98,160.81 197.42,160.49 197.2,160.36 197.2,160.36 197.06,160.28 197.01,160.25 197.01,160.25 196.97,160.22 196.96,160.22 196.96,160.22 196.95,160.21 196.94,160.21 196.94,160.21 196.94,160.21 L 196.94,160.21 196.94,160.21 196.94,160.21 201.94,151.55 Z M 201.94,151.55" />
</svg>
