<?xml version="1.0" encoding="UTF-8"?>
<!DOCTYPE svg PUBLIC "-//W3C//DTD SVG 1.1//EN" "http://www.w3.org/Graphics/SVG/1.1/DTD/svg11.dtd">
<svg version="1.1" xmlns="http://www.w3.org/2000/svg" xmlns:xlink="http://www.w3.org/1999/xlink" width="400" height="700"  xml:space="preserve" id="nebulaHole99">
    <!-- Generated by PaintCode - http://www.paintcodeapp.com -->
    <defs>
        <pattern id="nebulaHole99-woven-bezier3" x="76" y="81" width="42" height="42" patternUnits="userSpaceOnUse" viewBox="0 0 42 42">
            <image xlink:href="images/woven.png" x="0" y="0" width="42" height="42" />
        </pattern>
        <pattern id="nebulaHole99-woven-bezier" x="76" y="80" width="42" height="42" patternUnits="userSpaceOnUse" viewBox="0 0 42 42">
            <image xlink:href="images/woven.png" x="0" y="0" width="42" height="42" />
        </pattern>
    </defs>
    <path id="nebulaHole99-bezier3" stroke="rgb(65, 49, 118)" stroke-width="24" stroke-linecap="round" stroke-linejoin="round" stroke-miterlimit="10" fill="url(#nebulaHole99-woven-bezier3)" d="M 200,192.5 C 199.44,192.5 198.89,192.51 198.34,192.53 177.57,193.4 161,210.52 161,231.5 161,253.04 178.46,270.5 200,270.5 221.54,270.5 239,253.04 239,231.5 239,209.96 221.54,192.5 200,192.5 Z M 324.22,319.5 C 284.99,319.5 227.55,319.5 227.55,319.5 L 227.55,375.5 324.22,375.5 C 290.94,451.38 203,668 200,661 199.25,659.25 109.32,451.98 75.78,375.5 115.01,375.5 172.45,375.5 172.45,375.5 L 172.45,319.5 75.78,319.5 C 79.43,311.18 83.76,301.31 88.57,290.33 106.24,250.05 130.46,194.82 151.81,146.14 177.87,86.72 199.64,37.07 200,36.26 200,36.26 290.68,243.02 324.22,319.5 Z M 200,423 C 178.46,423 161,440.46 161,462 161,483.54 178.46,501 200,501 221.54,501 239,483.54 239,462 239,448.58 232.22,436.74 221.9,429.73 215.66,425.48 208.12,423 200,423 Z M 200,423" />
    <path id="nebulaHole99-bezier" stroke="none" fill="url(#nebulaHole99-woven-bezier)" d="M 200,194.5 C 199.44,194.5 198.89,194.51 198.34,194.53 177.57,195.4 161,212.52 161,233.5 161,255.04 178.46,272.5 200,272.5 221.54,272.5 239,255.04 239,233.5 239,211.96 221.54,194.5 200,194.5 Z M 200,38.26 C 200,38.25 290.68,245.02 324.22,321.5 284.99,321.5 227.55,321.5 227.55,321.5 L 227.55,377.5 324.22,377.5 C 290.94,453.38 201.41,657.53 200.02,660.71 200,660.75 109.32,453.98 75.78,377.5 115.01,377.5 172.45,377.5 172.45,377.5 L 172.45,321.5 75.78,321.5 C 79.43,313.18 83.76,303.31 88.57,292.33 106.24,252.05 130.46,196.82 151.81,148.14 177.87,88.72 199.64,39.07 200,38.26 L 200,38.26 Z M 200,425 C 178.46,425 161,442.46 161,464 161,485.54 178.46,503 200,503 221.54,503 239,485.54 239,464 239,450.58 232.22,438.74 221.9,431.73 215.66,427.48 208.12,425 200,425 Z M 200,425" />
    <path id="nebulaHole99-wall" stroke="none" fill="rgb(130, 98, 235)" d="M 200,200 C 199.51,200 199.03,200.01 198.55,200.03 180.39,200.79 166,215.76 166,234 166,252.78 181.22,268 200,268 218.78,268 234,252.78 234,234 234,215.22 218.78,200 200,200 Z M 200,200" />
    <rect id="nebulaHole99-end" stroke="none" fill="rgb(0, 255, 0)" fill-opacity="0" x="197" y="136" width="1" height="1" />
    <rect id="nebulaHole99-ball" stroke="none" fill="rgb(128, 128, 128)" x="199" y="583" width="1" height="1" />
    <path id="nebulaHole99-wall2" stroke="none" fill="rgb(130, 98, 235)" d="M 200,190 C 224.3,190 244,209.7 244,234 244,258.3 224.3,278 200,278 175.7,278 156,258.3 156,234 156,210.4 174.62,191.02 198.13,190.04 198.75,190.01 199.38,190 200,190 Z M 200,190" />
    <path id="nebulaHole99-wall3" stroke="none" fill="rgb(130, 98, 235)" d="M 324.22,327 C 315.34,327 305.11,327 293.78,327 279.29,327 263.77,327 248.25,327 239.45,327 239.45,327 233.24,327 228.59,327 228.59,327 227.55,327 L 232.55,322 232.55,378 227.55,373 324.22,373 C 327.83,373 330.25,376.7 328.8,380.01 305.08,434.09 305.08,434.09 272.83,507.63 247.56,565.25 247.56,565.25 226.4,613.51 217.36,634.12 217.36,634.12 210.88,648.89 208.22,654.96 208.22,654.96 206.39,659.13 205.65,660.83 205.65,660.83 205.13,662 204.74,662.89 204.74,662.89 204.6,663.22 204.6,663.22 202,666 200,666 198,666 195.96,664.14 195.96,664.14 L 195.77,663.86 C 195.6,663.56 195.6,663.56 195.56,663.49 195.51,663.39 195.51,663.39 195.5,663.35 195.47,663.3 195.47,663.3 195.46,663.27 195.44,663.23 195.44,663.23 195.43,663.2 195.39,663.12 195.39,663.12 195.34,663.01 195.28,662.86 195.18,662.64 195.05,662.34 194.79,661.76 194.41,660.89 193.9,659.74 192.92,657.5 191.47,654.19 189.57,649.86 185.97,641.67 180.77,629.82 174.1,614.62 162.41,587.98 146.51,551.72 127.18,507.65 127.17,507.63 127.17,507.63 127.16,507.61 109.79,468.01 94.91,434.08 71.2,380.01 69.75,376.7 72.17,373 75.78,373 84.66,373 94.89,373 106.22,373 120.71,373 136.23,373 151.75,373 160.55,373 160.55,373 166.76,373 171.41,373 171.41,373 172.45,373 L 167.45,378 167.45,322 172.45,327 75.78,327 C 72.17,327 69.75,323.3 71.2,319.99 77.01,306.74 77.01,306.74 83.99,290.83 104,245.21 104,245.21 127.17,192.37 137.33,169.19 137.33,169.19 147.23,146.63 166.24,103.29 166.24,103.29 180.96,69.71 187.12,55.67 187.12,55.67 191.4,45.9 193.14,41.94 193.14,41.94 194.31,39.27 195.18,37.28 195.18,37.28 195.42,36.75 197.17,32.76 202.83,32.76 204.57,36.75 204.84,37.36 204.84,37.36 206.11,40.25 207.84,44.2 207.84,44.2 210.44,50.12 215.11,60.76 220.3,72.62 225.9,85.38 241.9,121.85 257.9,158.33 272.83,192.37 272.83,192.37 272.83,192.37 272.83,192.37 297.72,249.12 317.09,293.29 328.8,319.99 330.25,323.3 327.83,327 324.22,327 Z M 324.22,327" />
    <path id="nebulaHole99-wall4" stroke="none" fill="rgb(130, 98, 235)" d="M 324.22,317 L 319.64,324.01 C 307.93,297.3 288.56,253.14 263.67,196.39 263.67,196.39 263.67,196.39 263.67,196.38 248.74,162.34 232.74,125.87 216.75,89.4 211.15,76.63 205.95,64.78 201.28,54.14 198.68,48.21 198.68,48.21 196.95,44.26 195.68,41.38 195.68,41.38 195.42,40.77 L 200,38.76 204.57,40.77 C 204.34,41.3 204.34,41.3 203.47,43.28 202.3,45.95 202.3,45.95 200.56,49.92 196.28,59.69 196.28,59.69 190.12,73.73 175.4,107.3 175.4,107.3 156.39,150.65 146.49,173.21 146.49,173.21 136.33,196.38 113.16,249.22 113.16,249.22 93.15,294.84 86.17,310.75 86.17,310.75 80.36,324.01 L 75.78,317 172.45,317 C 175.21,317 177.45,319.24 177.45,322 L 177.45,378 C 177.45,380.76 175.21,383 172.45,383 171.41,383 171.41,383 166.76,383 160.55,383 160.55,383 151.75,383 136.23,383 120.71,383 106.22,383 94.89,383 84.66,383 75.78,383 L 80.36,375.99 C 104.07,430.06 118.95,463.99 136.32,503.6 136.33,503.61 136.33,503.61 136.34,503.63 155.67,547.7 171.57,583.96 183.26,610.6 189.93,625.8 195.13,637.65 198.72,645.85 200.62,650.17 202.07,653.48 203.06,655.71 203.56,656.86 203.94,657.73 204.2,658.31 204.33,658.6 204.42,658.82 204.49,658.97 204.53,659.06 204.53,659.06 204.56,659.12 204.56,659.13 204.56,659.13 204.56,659.13 204.55,659.11 204.55,659.11 204.53,659.07 204.52,659.04 204.52,659.04 204.47,658.94 204.43,658.86 204.43,658.86 204.31,658.65 L 204.26,658.57 204.07,658.29 202.44,656.84 C 195.58,658.88 195.58,658.88 195.97,657.98 196.49,656.81 196.49,656.81 197.23,655.11 199.06,650.94 199.06,650.94 201.72,644.88 208.2,630.11 208.2,630.11 217.24,609.49 238.4,561.23 238.4,561.23 263.67,503.62 295.92,430.07 295.92,430.07 319.64,375.99 L 324.22,383 227.55,383 C 224.79,383 222.55,380.76 222.55,378 L 222.55,322 C 222.55,319.24 224.79,317 227.55,317 228.59,317 228.59,317 233.24,317 239.45,317 239.45,317 248.25,317 263.77,317 279.29,317 293.78,317 305.11,317 315.34,317 324.22,317 Z M 324.22,317" />
    <path id="nebulaHole99-wall5" stroke="none" fill="rgb(130, 98, 235)" d="M 200,430.5 C 181.22,430.5 166,445.72 166,464.5 166,483.28 181.22,498.5 200,498.5 218.78,498.5 234,483.28 234,464.5 234,453.1 228.35,442.66 219.09,436.36 213.5,432.56 206.91,430.5 200,430.5 Z M 200,430.5" />
    <path id="nebulaHole99-wall6" stroke="none" fill="rgb(130, 98, 235)" d="M 200,420.5 C 208.93,420.5 217.48,423.17 224.71,428.09 236.68,436.23 244,449.75 244,464.5 244,488.8 224.3,508.5 200,508.5 175.7,508.5 156,488.8 156,464.5 156,440.2 175.7,420.5 200,420.5 Z M 200,420.5" />
</svg>
