<?xml version="1.0" encoding="UTF-8"?>
<!DOCTYPE svg PUBLIC "-//W3C//DTD SVG 1.1//EN" "http://www.w3.org/Graphics/SVG/1.1/DTD/svg11.dtd">
<svg version="1.1" xmlns="http://www.w3.org/2000/svg" xmlns:xlink="http://www.w3.org/1999/xlink" width="400" height="700"  xml:space="preserve" id="nebulaHole55">
    <!-- Generated by PaintCode - http://www.paintcodeapp.com -->
    <defs>
        <linearGradient id="nebulaHole55-outerWalls-bezier2" x1="203" y1="352.55" x2="203" y2="432.88" gradientUnits="userSpaceOnUse" >
            <stop offset="0" stop-color="rgb(214, 56, 255)" stop-opacity="1" />
            <stop offset="0.49" stop-color="rgb(130, 98, 235)" stop-opacity="1" />
            <stop offset="1" stop-color="rgb(59, 30, 152)" stop-opacity="1" />
        </linearGradient>
        <filter id="nebulaHole55-highlight-inner" filterUnits="userSpaceOnUse">
            <feGaussianBlur in="SourceAlpha" stdDeviation="0" result="blur"/>
            <feOffset dx="0" dy="2"/>
            <feComposite in2="SourceAlpha" operator="arithmetic" k2="-1.15" k3="1.15" result="shadowDiff"/>
            <feFlood flood-color="rgb(255, 255, 255)" flood-opacity="1"/>
            <feComposite in2="shadowDiff" operator="in"/>
            <feComposite in2="SourceGraphic" operator="over"/>
        </filter>
        <linearGradient id="nebulaHole55-outerWalls-bezier" x1="203" y1="343.5" x2="203" y2="439.43" gradientUnits="userSpaceOnUse" >
            <stop offset="0" stop-color="rgb(214, 56, 255)" stop-opacity="1" />
            <stop offset="0.49" stop-color="rgb(130, 98, 235)" stop-opacity="1" />
            <stop offset="1" stop-color="rgb(59, 30, 152)" stop-opacity="1" />
        </linearGradient>
        <linearGradient id="nebulaHole55-outerWalls-bezier3" x1="203.11" y1="136" x2="203.11" y2="656" gradientUnits="userSpaceOnUse" >
            <stop offset="0" stop-color="rgb(214, 56, 255)" stop-opacity="1" />
            <stop offset="0.49" stop-color="rgb(130, 98, 235)" stop-opacity="1" />
            <stop offset="1" stop-color="rgb(59, 30, 152)" stop-opacity="1" />
        </linearGradient>
        <linearGradient id="nebulaHole55-outerWalls-bezier4" x1="203.11" y1="136.67" x2="203.11" y2="646.67" gradientUnits="userSpaceOnUse" >
            <stop offset="0" stop-color="rgb(214, 56, 255)" stop-opacity="1" />
            <stop offset="0.49" stop-color="rgb(130, 98, 235)" stop-opacity="1" />
            <stop offset="1" stop-color="rgb(59, 30, 152)" stop-opacity="1" />
        </linearGradient>
    </defs>
    <path id="nebulaHole55-bezier2" stroke="none" fill="url(#nebulaHole55-outerWalls-bezier2)" filter="url(#nebulaHole55-highlight-inner)" d="M 205.94,352.55 C 205.05,353.19 205.05,353.19 201.29,355.92 196.45,359.44 196.45,359.44 190.18,364 186.81,366.44 186.81,366.44 183.35,368.96 174.88,375.11 174.88,375.11 167.82,380.24 164.82,382.42 164.82,382.42 162.7,383.96 161.12,385.11 161.12,385.11 160.76,385.37 L 162.58,379.78 179.84,432.88 175.08,429.43 230.92,429.43 226.16,432.88 243.42,379.78 245.24,385.37 200.06,352.55 205.94,352.55 Z M 205.94,352.55" />
    <rect id="nebulaHole55-ball" stroke="none" fill="rgb(128, 128, 128)" x="294" y="218" width="1" height="1" />
    <rect id="nebulaHole55-end" stroke="none" fill="rgb(128, 128, 128)" x="97" y="557" width="1" height="1" />
    <path id="nebulaHole55-bezier" stroke="none" fill="url(#nebulaHole55-outerWalls-bezier)" filter="url(#nebulaHole55-highlight-inner)" d="M 200.06,344.45 C 201.81,343.18 204.19,343.18 205.94,344.45 L 251.11,377.28 C 252.87,378.55 253.6,380.81 252.93,382.87 L 235.68,435.97 C 235.01,438.03 233.09,439.43 230.92,439.43 L 175.08,439.43 C 172.91,439.43 170.99,438.03 170.32,435.97 L 153.07,382.87 C 152.4,380.81 153.13,378.55 154.89,377.28 155.24,377.02 155.24,377.02 156.83,375.87 158.94,374.33 158.94,374.33 161.94,372.15 169,367.02 169,367.02 177.47,360.87 180.93,358.35 180.93,358.35 184.3,355.91 190.58,351.35 190.58,351.35 195.41,347.83 199.17,345.1 199.17,345.1 200.06,344.45 Z M 200.06,344.45" />
    <path id="nebulaHole55-bezier3" stroke="none" fill="url(#nebulaHole55-outerWalls-bezier3)" filter="url(#nebulaHole55-highlight-inner)" d="M 103.23,145.33 L 108.23,136.67 108.23,136.67 108.23,136.67 C 108.23,136.67 108.23,136.67 108.24,136.68 108.24,136.68 108.24,136.68 108.25,136.68 108.26,136.69 108.26,136.69 108.29,136.7 108.35,136.74 108.35,136.74 108.45,136.8 108.69,136.94 108.69,136.94 109.07,137.16 110.01,137.7 110.01,137.7 111.43,138.52 114.93,140.54 114.93,140.54 119.87,143.41 131.52,150.14 131.52,150.14 145.49,158.22 159.46,166.3 159.46,166.3 171.1,173.03 176.05,175.89 176.05,175.89 179.54,177.91 182.16,179.43 182.16,179.43 182.74,179.76 184.29,180.66 185.24,182.31 185.24,184.09 185.24,184.77 185.24,184.77 185.24,187.8 185.24,191.84 185.24,191.84 185.24,197.56 185.24,211.03 185.24,211.03 185.24,227.18 185.24,254.07 185.24,254.07 185.24,268.55 L 177.74,264.22 C 187.18,258.77 187.18,258.77 193.93,254.88 199.02,251.95 199.02,251.95 200.16,251.29 201.71,250.39 203.61,250.39 205.16,251.29 206.35,251.97 206.35,251.97 211.66,255.03 218.68,259.08 218.68,259.08 228.47,264.73 L 220.97,269.06 C 220.97,263.73 220.97,263.73 220.97,253.26 220.97,241.08 220.97,241.08 220.97,227.18 220.97,211.03 220.97,211.03 220.97,197.56 220.97,191.84 220.97,191.84 220.97,187.8 220.97,184.77 220.97,184.77 220.97,184.09 L 220.97,184.09 C 220.97,182.31 221.92,180.66 223.47,179.76 224.32,179.27 224.32,179.27 228.06,177.11 241.23,169.49 241.23,169.49 260.73,158.22 274.7,150.14 274.7,150.14 286.34,143.41 291.29,140.54 291.29,140.54 294.78,138.52 297.4,137.01 297.4,137.01 297.98,136.67 299.53,135.78 301.44,135.78 302.99,136.67 L 377.5,179.76 C 379.05,180.66 380,182.31 380,184.09 L 380,270.28 C 380,272.06 379.05,273.71 377.5,274.61 376.92,274.94 376.92,274.94 374.3,276.46 370.81,278.48 370.81,278.48 365.86,281.34 354.22,288.07 354.22,288.07 340.25,296.15 328.33,303.04 328.33,303.04 317.85,309.1 308.83,314.32 308.83,314.32 304.14,317.03 L 304.13,308.37 C 313.69,313.89 313.69,313.89 320.53,317.83 325.69,320.81 325.69,320.81 326.85,321.48 328.39,322.37 329.35,324.02 329.35,325.81 L 329.35,466.19 C 329.35,467.98 328.39,469.63 326.85,470.52 325.69,471.19 325.69,471.19 320.53,474.17 313.69,478.11 313.69,478.11 304.13,483.63 L 304.14,474.97 C 307.96,477.18 320.97,484.7 340.25,495.85 354.22,503.93 354.22,503.93 365.86,510.66 370.81,513.52 370.81,513.52 374.3,515.54 376.92,517.06 376.92,517.06 377.5,517.39 379.05,518.29 380,519.94 380,521.72 L 380,607.91 C 380,609.69 379.05,611.34 377.5,612.24 L 302.99,655.33 C 301.44,656.22 299.53,656.22 297.98,655.33 L 223.47,612.24 C 221.92,611.34 220.97,609.69 220.97,607.91 220.97,607.33 220.97,607.33 220.97,604.69 220.97,601.15 220.97,601.15 220.97,596.1 220.97,584.13 220.97,584.13 220.97,569.34 220.97,567.08 220.97,567.08 220.97,564.82 220.97,550.92 220.97,550.92 220.97,538.74 220.97,528.27 220.97,528.27 220.97,522.94 L 228.47,527.27 C 218.68,532.92 218.68,532.92 211.66,536.97 206.35,540.03 206.35,540.03 205.16,540.71 203.61,541.61 201.71,541.61 200.16,540.71 199.02,540.05 199.02,540.05 193.93,537.12 187.18,533.23 187.18,533.23 177.74,527.78 L 185.24,523.45 C 185.24,537.93 185.24,537.93 185.24,564.82 185.24,580.97 185.24,580.97 185.24,594.44 185.24,600.16 185.24,600.16 185.24,604.2 185.24,607.23 185.24,607.23 185.24,607.91 185.24,609.69 184.29,611.34 182.74,612.24 L 108.23,655.33 C 106.68,656.22 104.77,656.22 103.22,655.33 L 28.71,612.24 C 27.16,611.34 26.21,609.69 26.21,607.91 L 26.21,521.72 C 26.21,519.94 27.16,518.29 28.71,517.39 29.29,517.06 29.29,517.06 31.91,515.54 35.4,513.52 35.4,513.52 40.35,510.66 51.99,503.93 51.99,503.93 65.97,495.85 89.05,482.5 89.05,482.5 101.63,475.22 L 101.64,483.88 C 91.9,478.27 91.9,478.27 84.93,474.24 79.66,471.21 79.66,471.21 78.48,470.52 76.93,469.63 75.97,467.98 75.97,466.19 L 75.97,325.81 C 75.97,324.02 76.93,322.37 78.48,321.48 79.66,320.79 79.66,320.79 84.93,317.76 91.9,313.73 91.9,313.73 101.64,308.12 L 101.63,316.78 C 89.05,309.5 89.05,309.5 65.97,296.15 51.99,288.07 51.99,288.07 40.35,281.34 35.4,278.48 35.4,278.48 31.91,276.46 29.29,274.94 29.29,274.94 28.71,274.61 27.16,273.71 26.21,272.06 26.21,270.28 L 26.21,184.09 C 26.21,182.31 27.16,180.66 28.71,179.76 29.29,179.43 29.29,179.43 31.91,177.91 35.4,175.89 35.4,175.89 40.35,173.03 51.99,166.3 51.99,166.3 65.97,158.22 67.89,157.11 67.89,157.11 69.8,156 82.61,148.59 82.61,148.59 92.99,142.59 97.36,140.06 97.36,140.06 100.43,138.29 102.72,136.96 102.72,136.96 103.22,136.67 104.77,135.78 106.68,135.78 108.23,136.67 L 108.23,136.67 105.73,141 103.23,145.33 Z M 103.23,145.33" />
    <path id="nebulaHole55-bezier4" stroke="none" fill="url(#nebulaHole55-outerWalls-bezier4)" filter="url(#nebulaHole55-highlight-inner)" d="M 108.23,136.67 C 114,140.01 109,148.67 103.23,145.33 L 103.22,145.33 105.73,141 108.23,145.33 C 107.72,145.62 107.72,145.62 105.43,146.94 102.37,148.72 102.37,148.72 97.99,151.25 87.62,157.25 87.62,157.25 74.81,164.66 72.89,165.76 72.89,165.76 70.97,166.87 57,174.95 57,174.95 45.36,181.69 40.41,184.55 40.41,184.55 36.92,186.57 34.3,188.08 34.3,188.08 33.72,188.42 L 36.21,184.09 36.21,270.28 33.72,265.95 C 34.3,266.29 34.3,266.29 36.92,267.8 40.41,269.82 40.41,269.82 45.36,272.68 57,279.42 57,279.42 70.97,287.49 94.06,300.85 94.06,300.85 106.64,308.12 109.97,310.05 109.97,314.86 106.63,316.78 96.9,322.39 96.9,322.39 89.92,326.42 84.66,329.46 84.66,329.46 83.47,330.14 L 85.97,325.81 85.97,466.19 83.47,461.86 C 84.66,462.54 84.66,462.54 89.92,465.58 96.9,469.61 96.9,469.61 106.63,475.22 109.97,477.14 109.97,481.95 106.64,483.88 94.06,491.15 94.06,491.15 70.97,504.51 57,512.58 57,512.58 45.36,519.32 40.41,522.18 40.41,522.18 36.92,524.2 34.3,525.71 34.3,525.71 33.72,526.05 L 36.21,521.72 36.21,607.91 33.72,603.58 108.23,646.67 103.22,646.67 177.74,603.58 175.24,607.91 C 175.24,607.23 175.24,607.23 175.24,604.2 175.24,600.16 175.24,600.16 175.24,594.44 175.24,580.97 175.24,580.97 175.24,564.82 175.24,537.93 175.24,537.93 175.24,523.45 175.24,519.6 179.4,517.2 182.74,519.12 192.18,524.56 192.18,524.56 198.93,528.46 204.02,531.39 204.02,531.39 205.16,532.05 L 200.16,532.05 C 201.36,531.36 201.36,531.36 206.66,528.3 213.68,524.25 213.68,524.25 223.47,518.61 226.81,516.68 230.97,519.09 230.97,522.94 230.97,528.27 230.97,528.27 230.97,538.74 230.97,550.92 230.97,550.92 230.97,564.82 230.97,567.08 230.97,567.08 230.97,569.34 230.97,584.13 230.97,584.13 230.97,596.1 230.97,601.15 230.97,601.15 230.97,604.69 230.97,607.33 230.97,607.33 230.97,607.91 L 228.48,603.58 302.99,646.67 297.98,646.67 372.5,603.58 370,607.91 370,521.72 372.5,526.05 C 371.91,525.71 371.91,525.71 369.3,524.2 365.8,522.18 365.8,522.18 360.85,519.32 349.21,512.58 349.21,512.58 335.24,504.51 315.96,493.35 302.96,485.84 299.13,483.62 295.8,481.7 295.8,476.89 299.14,474.96 308.69,469.45 308.69,469.45 315.53,465.51 320.69,462.53 320.69,462.53 321.85,461.86 L 319.35,466.19 319.35,325.81 321.85,330.14 C 320.69,329.47 320.69,329.47 315.53,326.49 308.69,322.55 308.69,322.55 299.13,317.04 295.8,315.11 295.8,310.3 299.13,308.38 303.82,305.66 303.82,305.66 312.85,300.44 323.32,294.39 323.32,294.39 335.24,287.49 349.21,279.42 349.21,279.42 360.85,272.68 365.8,269.82 365.8,269.82 369.3,267.8 371.91,266.29 371.91,266.29 372.5,265.95 L 370,270.28 370,184.09 372.5,188.42 297.98,145.33 302.99,145.33 C 302.41,145.67 302.41,145.67 299.79,147.18 296.3,149.2 296.3,149.2 291.35,152.06 279.7,158.8 279.7,158.8 265.73,166.87 246.24,178.15 246.24,178.15 233.07,185.76 229.33,187.93 229.33,187.93 228.48,188.42 L 225.97,184.09 230.97,184.09 230.97,184.09 C 230.97,184.77 230.97,184.77 230.97,187.8 230.97,191.84 230.97,191.84 230.97,197.56 230.97,211.03 230.97,211.03 230.97,227.18 230.97,241.08 230.97,241.08 230.97,253.26 230.97,263.73 230.97,263.73 230.97,269.06 230.97,272.91 226.81,275.32 223.47,273.39 213.68,267.75 213.68,267.75 206.66,263.7 201.36,260.64 201.36,260.64 200.16,259.95 L 202.66,255.62 205.16,259.95 C 204.02,260.61 204.02,260.61 198.93,263.54 192.18,267.44 192.18,267.44 182.74,272.88 179.4,274.8 175.24,272.4 175.24,268.55 175.24,254.07 175.24,254.07 175.24,227.18 175.24,211.03 175.24,211.03 175.24,197.56 175.24,191.84 175.24,191.84 175.24,187.8 175.24,184.77 175.24,184.77 175.24,184.09 L 177.74,188.42 C 177.15,188.08 177.15,188.08 174.54,186.57 171.04,184.55 171.04,184.55 166.09,181.69 154.45,174.95 154.45,174.95 140.48,166.88 126.51,158.8 126.51,158.8 114.87,152.06 109.92,149.2 109.92,149.2 106.43,147.18 105.01,146.36 105.01,146.36 104.06,145.81 103.69,145.6 103.69,145.6 103.44,145.45 103.34,145.4 103.34,145.4 103.28,145.36 103.26,145.35 103.26,145.35 103.24,145.34 103.23,145.33 103.23,145.33 103.23,145.33 103.23,145.33 103.23,145.33 103.23,145.33 L 103.23,145.33 103.23,145.33 103.23,145.33 108.23,136.67 Z M 108.23,136.67" />
</svg>
