<?xml version="1.0" encoding="UTF-8"?>
<!DOCTYPE svg PUBLIC "-//W3C//DTD SVG 1.1//EN" "http://www.w3.org/Graphics/SVG/1.1/DTD/svg11.dtd">
<svg version="1.1" xmlns="http://www.w3.org/2000/svg" xmlns:xlink="http://www.w3.org/1999/xlink" width="400" height="700"  xml:space="preserve" id="nebulaHole55">
    <!-- Generated by PaintCode - http://www.paintcodeapp.com -->
    <defs>
        <pattern id="nebulaHole55-woven-bezier3" x="23" y="212" width="42" height="42" patternUnits="userSpaceOnUse" viewBox="0 0 42 42">
            <image xlink:href="images/woven.png" x="0" y="0" width="42" height="42" />
        </pattern>
        <pattern id="nebulaHole55-woven-bezier" x="22" y="211" width="42" height="42" patternUnits="userSpaceOnUse" viewBox="0 0 42 42">
            <image xlink:href="images/woven.png" x="0" y="0" width="42" height="42" />
        </pattern>
    </defs>
    <path id="nebulaHole55-bezier3" stroke="rgb(65, 49, 118)" stroke-width="24" stroke-linecap="round" stroke-linejoin="round" stroke-miterlimit="10" fill="url(#nebulaHole55-woven-bezier3)" d="M 196.5,169.75 C 196.5,169.75 220.38,207.99 238.07,236.31 225.88,256.6 176.42,335.78 176.42,335.78 L 138.53,337.09 156.34,370.5 138.53,403.91 176.42,405.22 196.5,437.31 216.58,405.22 254.47,403.91 236.66,370.5 C 236.66,370.5 283.38,287.38 295.31,267.52 328.26,268.67 370.35,270.12 370.35,270.12 L 316.95,370.5 370.35,470.88 256.73,474.81 196.5,571.25 136.28,474.81 22.65,470.88 76.05,370.5 22.65,270.13 C 22.65,270.13 76.26,268.27 109.83,267.1 125.13,266.57 136.27,266.19 136.27,266.19 L 196.5,169.75 196.5,169.75 Z M 196.5,169.75" />
    <path id="nebulaHole55-bezier" stroke="none" fill="url(#nebulaHole55-woven-bezier)" d="M 196,169.25 C 196,169.25 219.88,207.49 237.57,235.81 225.38,256.1 175.92,335.28 175.92,335.28 L 138.03,336.59 155.84,370 138.03,403.41 175.92,404.72 196,436.81 216.08,404.72 253.97,403.41 236.16,370 C 236.16,370 282.88,286.88 294.81,267.02 327.76,268.17 369.85,269.62 369.85,269.62 L 316.45,370 369.85,470.38 256.23,474.31 196,570.75 135.78,474.31 22.15,470.38 75.55,370 22.15,269.63 C 22.15,269.63 75.76,267.77 109.33,266.6 124.63,266.07 135.77,265.69 135.77,265.69 L 196,169.25 196,169.25 Z M 196,169.25" />
    <path id="nebulaHole55-wall" stroke="none" fill="rgb(130, 98, 235)" d="M 191.76,171.9 L 200.24,166.6 200.24,166.6 200.24,166.6 C 200.24,166.61 200.24,166.61 200.25,166.61 200.25,166.62 200.25,166.62 200.26,166.63 200.28,166.66 200.28,166.66 200.31,166.71 200.39,166.84 200.39,166.84 200.51,167.04 200.83,167.54 200.83,167.54 201.3,168.3 202.49,170.2 202.49,170.2 204.25,173.02 208.53,179.88 208.53,179.88 214.39,189.26 227.77,210.68 227.77,210.68 241.81,233.16 242.81,234.76 242.82,236.78 241.85,238.39 237.19,246.15 226.89,262.85 212.61,285.84 212.47,286.06 212.47,286.06 212.34,286.27 205.3,297.61 197.76,309.72 190.21,321.82 187.58,326.05 185.12,329.98 182.93,333.5 182.16,334.74 181.47,335.83 180.88,336.77 180.56,337.3 180.56,337.3 180.34,337.64 180.19,337.88 180.19,337.88 180.16,337.93 179.28,339.34 177.75,340.22 176.09,340.28 L 138.2,341.59 142.44,334.24 160.25,367.65 C 161.03,369.12 161.03,370.88 160.25,372.35 L 142.44,405.76 138.2,398.41 176.09,399.72 C 177.75,399.78 179.28,400.66 180.16,402.06 L 200.24,434.16 191.76,434.16 211.84,402.06 C 212.72,400.66 214.25,399.78 215.91,399.72 L 253.8,398.41 249.56,405.76 231.75,372.35 C 230.95,370.85 230.97,369.04 231.8,367.55 231.83,367.5 231.83,367.5 231.98,367.24 232.18,366.89 232.18,366.89 232.48,366.35 233.03,365.36 233.67,364.22 234.4,362.94 236.46,359.28 238.76,355.19 241.24,350.79 248.32,338.23 255.43,325.66 262.08,313.93 262.3,313.55 262.3,313.55 262.51,313.17 276.09,289.24 285.95,272.07 290.53,264.45 291.46,262.89 293.17,261.96 294.99,262.03 303.95,262.34 303.95,262.34 313.21,262.66 L 313.21,262.66 C 334.52,263.4 334.52,263.4 352.27,264.01 359.82,264.27 359.82,264.27 365.15,264.46 369.14,264.6 369.14,264.6 370.03,264.63 373.72,264.76 376.01,268.71 374.27,271.97 L 320.86,372.35 320.86,367.65 374.27,468.03 C 376.01,471.29 373.72,475.24 370.03,475.37 L 256.4,479.31 260.47,476.96 200.24,573.4 C 198.28,576.53 193.72,576.53 191.76,573.4 L 131.53,476.96 135.6,479.31 21.97,475.37 C 18.28,475.24 15.99,471.29 17.73,468.03 L 71.14,367.65 71.14,372.35 17.73,271.97 C 15.99,268.71 18.28,264.76 21.97,264.63 22.86,264.6 22.86,264.6 26.85,264.46 32.18,264.27 32.18,264.27 39.73,264.01 57.48,263.4 57.48,263.4 78.79,262.66 94.71,262.11 94.71,262.11 109.16,261.61 120.11,261.23 120.11,261.23 128.12,260.95 134.21,260.74 134.21,260.74 135.6,260.69 L 131.53,263.04 191.76,166.6 C 193.72,163.47 198.28,163.47 200.24,166.6 L 200.24,166.6 196,169.25 191.76,171.9 Z M 191.76,171.9" />
    <rect id="nebulaHole55-end" stroke="none" fill="rgb(0, 255, 0)" fill-opacity="0" x="314" y="303" width="1" height="1" />
    <rect id="nebulaHole55-ball" stroke="none" fill="rgb(128, 128, 128)" x="199" y="233" width="1" height="1" />
    <path id="nebulaHole55-wall2" stroke="none" fill="rgb(130, 98, 235)" d="M 200.24,166.6 C 203.77,172.26 195.29,177.55 191.76,171.9 L 191.76,171.9 196,169.25 200.24,171.9 140.02,268.34 C 139.13,269.75 137.61,270.63 135.95,270.68 134.56,270.73 134.56,270.73 128.46,270.94 120.46,271.22 120.46,271.22 109.5,271.6 95.06,272.1 95.06,272.1 79.13,272.65 57.83,273.39 57.83,273.39 40.07,274.01 32.53,274.27 32.53,274.27 27.2,274.45 23.21,274.59 23.21,274.59 22.32,274.62 L 26.56,267.28 79.96,367.65 C 80.75,369.12 80.75,370.88 79.96,372.35 L 26.56,472.72 22.32,465.38 135.95,469.32 C 137.61,469.37 139.13,470.25 140.02,471.66 L 200.24,568.1 191.76,568.1 251.98,471.66 C 252.87,470.25 254.39,469.37 256.05,469.32 L 369.68,465.38 365.44,472.72 312.04,372.35 C 311.25,370.88 311.25,369.12 312.04,367.65 L 365.44,267.28 369.68,274.62 C 368.79,274.59 368.79,274.59 364.8,274.45 359.47,274.27 359.47,274.27 351.93,274.01 334.17,273.39 334.17,273.39 312.87,272.65 L 312.87,272.65 C 303.61,272.33 303.61,272.33 294.64,272.02 L 299.1,269.6 C 294.58,277.12 284.74,294.26 271.21,318.11 271,318.49 271,318.49 270.78,318.87 264.13,330.59 257.03,343.15 249.95,355.71 247.47,360.1 245.17,364.18 243.11,367.85 242.39,369.13 241.75,370.27 241.2,371.25 240.89,371.79 240.89,371.79 240.69,372.14 240.55,372.4 240.55,372.4 240.52,372.45 L 240.57,367.65 258.38,401.05 C 260.12,404.32 257.84,408.28 254.14,408.4 L 216.25,409.71 220.32,407.37 200.24,439.46 C 198.28,442.6 193.72,442.6 191.76,439.46 L 171.68,407.37 175.75,409.71 137.86,408.4 C 134.16,408.28 131.88,404.32 133.62,401.05 L 151.43,367.65 151.43,372.35 133.62,338.95 C 131.88,335.68 134.16,331.72 137.86,331.6 L 175.75,330.29 171.68,332.63 C 171.71,332.58 171.71,332.58 171.86,332.34 172.07,332 172.07,332 172.4,331.48 172.99,330.53 173.67,329.44 174.44,328.21 176.64,324.68 179.09,320.76 181.73,316.53 189.27,304.43 196.81,292.32 203.84,281 203.98,280.78 203.98,280.78 204.11,280.56 218.36,257.62 228.65,240.94 233.28,233.24 L 233.33,238.46 C 219.29,215.98 219.29,215.98 205.91,194.56 200.05,185.18 200.05,185.18 195.77,178.32 194.01,175.5 194.01,175.5 192.82,173.6 192.34,172.84 192.34,172.84 192.03,172.34 191.91,172.14 191.91,172.14 191.83,172.01 191.8,171.96 191.8,171.96 191.78,171.93 191.77,171.91 191.77,171.91 191.76,171.91 191.76,171.9 191.76,171.9 191.76,171.9 L 191.76,171.9 191.76,171.9 191.76,171.9 200.24,166.6 Z M 200.24,166.6" />
</svg>
