<?xml version="1.0" encoding="UTF-8"?>
<!DOCTYPE svg PUBLIC "-//W3C//DTD SVG 1.1//EN" "http://www.w3.org/Graphics/SVG/1.1/DTD/svg11.dtd">
<svg version="1.1" xmlns="http://www.w3.org/2000/svg" xmlns:xlink="http://www.w3.org/1999/xlink" width="400" height="700"  xml:space="preserve" id="nebulaHole99">
    <!-- Generated by PaintCode - http://www.paintcodeapp.com -->
    <defs>
        <linearGradient id="nebulaHole99-outerWalls-bezier2" x1="196.81" y1="220.8" x2="196.81" y2="234.91" gradientUnits="userSpaceOnUse" >
            <stop offset="0" stop-color="rgb(214, 56, 255)" stop-opacity="1" />
            <stop offset="0.49" stop-color="rgb(130, 98, 235)" stop-opacity="1" />
            <stop offset="1" stop-color="rgb(59, 30, 152)" stop-opacity="1" />
        </linearGradient>
        <filter id="nebulaHole99-highlight-inner" filterUnits="userSpaceOnUse">
            <feGaussianBlur in="SourceAlpha" stdDeviation="0" result="blur"/>
            <feOffset dx="0" dy="2"/>
            <feComposite in2="SourceAlpha" operator="arithmetic" k2="-1.15" k3="1.15" result="shadowDiff"/>
            <feFlood flood-color="rgb(255, 255, 255)" flood-opacity="1"/>
            <feComposite in2="shadowDiff" operator="in"/>
            <feComposite in2="SourceGraphic" operator="over"/>
        </filter>
        <linearGradient id="nebulaHole99-outerWalls-bezier" x1="196.35" y1="218.26" x2="196.35" y2="243.93" gradientUnits="userSpaceOnUse" >
            <stop offset="0" stop-color="rgb(214, 56, 255)" stop-opacity="1" />
            <stop offset="0.49" stop-color="rgb(130, 98, 235)" stop-opacity="1" />
            <stop offset="1" stop-color="rgb(59, 30, 152)" stop-opacity="1" />
        </linearGradient>
        <linearGradient id="nebulaHole99-outerWalls-bezier3" x1="259.55" y1="245.53" x2="259.55" y2="479.15" gradientUnits="userSpaceOnUse" >
            <stop offset="0" stop-color="rgb(214, 56, 255)" stop-opacity="1" />
            <stop offset="0.49" stop-color="rgb(130, 98, 235)" stop-opacity="1" />
            <stop offset="1" stop-color="rgb(59, 30, 152)" stop-opacity="1" />
        </linearGradient>
        <linearGradient id="nebulaHole99-outerWalls-bezier4" x1="262.12" y1="244.4" x2="262.12" y2="481.72" gradientUnits="userSpaceOnUse" >
            <stop offset="0" stop-color="rgb(214, 56, 255)" stop-opacity="1" />
            <stop offset="0.49" stop-color="rgb(130, 98, 235)" stop-opacity="1" />
            <stop offset="1" stop-color="rgb(59, 30, 152)" stop-opacity="1" />
        </linearGradient>
        <linearGradient id="nebulaHole99-outerWalls-bezier5" x1="133.45" y1="245.29" x2="133.45" y2="479.55" gradientUnits="userSpaceOnUse" >
            <stop offset="0" stop-color="rgb(214, 56, 255)" stop-opacity="1" />
            <stop offset="0.49" stop-color="rgb(130, 98, 235)" stop-opacity="1" />
            <stop offset="1" stop-color="rgb(59, 30, 152)" stop-opacity="1" />
        </linearGradient>
        <linearGradient id="nebulaHole99-outerWalls-bezier6" x1="130.88" y1="244.4" x2="130.88" y2="481.72" gradientUnits="userSpaceOnUse" >
            <stop offset="0" stop-color="rgb(214, 56, 255)" stop-opacity="1" />
            <stop offset="0.49" stop-color="rgb(130, 98, 235)" stop-opacity="1" />
            <stop offset="1" stop-color="rgb(59, 30, 152)" stop-opacity="1" />
        </linearGradient>
        <linearGradient id="nebulaHole99-outerWalls-bezier7" x1="196.31" y1="493.69" x2="196.31" y2="503.63" gradientUnits="userSpaceOnUse" >
            <stop offset="0" stop-color="rgb(214, 56, 255)" stop-opacity="1" />
            <stop offset="0.49" stop-color="rgb(130, 98, 235)" stop-opacity="1" />
            <stop offset="1" stop-color="rgb(59, 30, 152)" stop-opacity="1" />
        </linearGradient>
        <linearGradient id="nebulaHole99-outerWalls-bezier8" x1="196.32" y1="487.78" x2="196.32" y2="505.14" gradientUnits="userSpaceOnUse" >
            <stop offset="0" stop-color="rgb(214, 56, 255)" stop-opacity="1" />
            <stop offset="0.49" stop-color="rgb(130, 98, 235)" stop-opacity="1" />
            <stop offset="1" stop-color="rgb(59, 30, 152)" stop-opacity="1" />
        </linearGradient>
        <linearGradient id="nebulaHole99-outerWalls-bezier9" x1="196.5" y1="184" x2="196.5" y2="539" gradientUnits="userSpaceOnUse" >
            <stop offset="0" stop-color="rgb(214, 56, 255)" stop-opacity="1" />
            <stop offset="0.49" stop-color="rgb(130, 98, 235)" stop-opacity="1" />
            <stop offset="1" stop-color="rgb(59, 30, 152)" stop-opacity="1" />
        </linearGradient>
        <linearGradient id="nebulaHole99-outerWalls-bezier10" x1="196.5" y1="194" x2="196.5" y2="529" gradientUnits="userSpaceOnUse" >
            <stop offset="0" stop-color="rgb(214, 56, 255)" stop-opacity="1" />
            <stop offset="0.49" stop-color="rgb(130, 98, 235)" stop-opacity="1" />
            <stop offset="1" stop-color="rgb(59, 30, 152)" stop-opacity="1" />
        </linearGradient>
    </defs>
    <path id="nebulaHole99-bezier2" stroke="none" fill="url(#nebulaHole99-outerWalls-bezier2)" filter="url(#nebulaHole99-highlight-inner)" d="M 196.1,228.26 C 187.83,228.26 179.65,229.01 171.64,230.49 L 172.24,220.8 C 181.69,223.79 190.81,228.55 199.46,234.91 L 193.54,234.91 C 202.09,228.62 211.11,223.89 220.44,220.9 L 221.97,225.67 221.04,230.58 C 217.89,229.99 214.71,229.51 211.51,229.14 206.42,228.55 201.28,228.26 196.1,228.26 Z M 196.1,228.26" />
    <rect id="nebulaHole99-ball" stroke="none" fill="rgb(128, 128, 128)" x="259" y="230" width="1" height="1" />
    <rect id="nebulaHole99-end" stroke="none" fill="rgb(128, 128, 128)" x="122" y="488" width="1" height="1" />
    <path id="nebulaHole99-bezier" stroke="none" fill="url(#nebulaHole99-outerWalls-bezier)" filter="url(#nebulaHole99-highlight-inner)" d="M 196.1,218.26 C 201.66,218.26 207.18,218.58 212.65,219.2 216.09,219.6 219.51,220.11 222.9,220.75 227.99,221.71 228.43,228.85 223.49,230.43 215.22,233.08 207.17,237.3 199.46,242.96 197.7,244.26 195.3,244.26 193.54,242.96 185.74,237.23 177.6,232.98 169.23,230.34 164.26,228.77 164.7,221.6 169.83,220.66 178.43,219.07 187.22,218.26 196.1,218.26 Z M 196.1,218.26" />
    <path id="nebulaHole99-bezier3" stroke="none" fill="url(#nebulaHole99-outerWalls-bezier3)" filter="url(#nebulaHole99-highlight-inner)" d="M 220.77,245.53 C 268.97,258.35 303.38,306.15 303.38,361.5 303.38,419.93 265.08,469.61 213.3,479.15 L 212.39,474.23 217.36,474.83 C 217.23,475.89 217.04,476.93 216.78,477.94 L 211.93,476.72 211.79,471.72 C 264.73,470.25 307.31,421.54 307.31,361.66 307.31,309.87 275.24,265.51 231.03,254.27 L 232.26,249.42 232.12,254.42 C 227.87,254.3 223.98,254.6 220.42,255.28 L 219.48,250.36 220.77,245.53 Z M 220.77,245.53" />
    <path id="nebulaHole99-bezier4" stroke="none" fill="url(#nebulaHole99-outerWalls-bezier4)" filter="url(#nebulaHole99-highlight-inner)" d="M 218.2,255.2 C 213.06,253.83 213.32,246.44 218.55,245.45 222.83,244.64 227.44,244.29 232.4,244.43 232.77,244.44 233.13,244.49 233.49,244.58 282.28,256.98 317.31,305.43 317.31,361.66 317.31,426.74 270.67,480.09 212.07,481.72 208.75,481.81 206.27,478.71 207.08,475.49 207.24,474.89 207.35,474.27 207.43,473.63 207.69,471.46 209.33,469.71 211.49,469.31 258.36,460.68 293.38,415.25 293.38,361.5 293.38,310.56 261.89,266.81 218.2,255.2 Z M 218.2,255.2" />
    <path id="nebulaHole99-bezier5" stroke="none" fill="url(#nebulaHole99-outerWalls-bezier5)" filter="url(#nebulaHole99-highlight-inner)" d="M 161.97,254.27 C 160.81,254.57 159.64,254.89 158.49,255.23 115.97,267.91 85.69,311.35 85.69,361.66 85.69,421.54 128.27,470.25 181.21,471.72 L 181.07,476.72 176.22,477.94 C 176,477.08 175.83,476.2 175.71,475.31 L 180.66,474.61 179.87,479.55 C 126.98,471.14 87.42,420.9 87.42,361.5 87.42,319.09 107.62,280.5 140.01,259.08 149.59,252.75 160.02,248.08 170.97,245.29 L 172.21,250.13 171.4,255.07 C 168.16,254.54 164.67,254.32 160.88,254.42 L 160.74,249.42 161.97,254.27 Z M 161.97,254.27" />
    <path id="nebulaHole99-bezier6" stroke="none" fill="url(#nebulaHole99-outerWalls-bezier6)" filter="url(#nebulaHole99-highlight-inner)" d="M 159.51,244.58 C 159.87,244.49 160.23,244.44 160.6,244.43 165.01,244.3 169.14,244.57 173.01,245.2 178.36,246.07 178.69,253.64 173.44,254.98 163.59,257.49 154.19,261.7 145.53,267.42 115.97,286.96 97.42,322.41 97.42,361.5 97.42,416.14 133.58,462.06 181.44,469.68 183.61,470.02 185.3,471.74 185.61,473.92 185.68,474.46 185.79,474.98 185.92,475.49 186.73,478.71 184.25,481.81 180.93,481.72 122.33,480.09 75.69,426.74 75.69,361.66 75.69,307.05 108.75,259.62 155.63,245.65 156.92,245.26 158.21,244.91 159.51,244.58 Z M 159.51,244.58" />
    <path id="nebulaHole99-bezier7" stroke="none" fill="url(#nebulaHole99-outerWalls-bezier7)" filter="url(#nebulaHole99-highlight-inner)" d="M 198.62,497.31 C 192.52,500.16 185.2,502.23 176.9,503.63 L 176.78,493.75 C 183.14,494.67 189.59,495.14 196.1,495.14 202.76,495.14 209.35,494.65 215.84,493.69 L 215.72,503.57 C 207.58,502.16 200.38,500.11 194.38,497.31 L 198.62,497.31 Z M 198.62,497.31" />
    <path id="nebulaHole99-bezier8" stroke="none" fill="url(#nebulaHole99-outerWalls-bezier8)" filter="url(#nebulaHole99-highlight-inner)" d="M 194.38,488.25 C 195.72,487.62 197.28,487.62 198.62,488.25 203.72,490.63 210.09,492.45 217.42,493.71 223.02,494.68 222.93,502.75 217.3,503.59 210.32,504.62 203.24,505.14 196.1,505.14 189.11,505.14 182.18,504.64 175.35,503.65 169.7,502.83 169.61,494.72 175.23,493.77 182.71,492.51 189.2,490.67 194.38,488.25 Z M 194.38,488.25" />
    <path id="nebulaHole99-bezier9" stroke="none" fill="url(#nebulaHole99-outerWalls-bezier9)" filter="url(#nebulaHole99-highlight-inner)" d="M 198.96,184.02 C 295.96,185.34 374,264.39 374,361.5 374,459.53 294.53,539 196.5,539 98.47,539 19,459.53 19,361.5 19,276.02 79.87,203.12 162.83,187.19 173.85,185.07 185.11,184 196.5,184 197.32,184 198.14,184.01 198.96,184.02 Z M 198.96,184.02" />
    <path id="nebulaHole99-bezier10" stroke="none" fill="url(#nebulaHole99-outerWalls-bezier10)" filter="url(#nebulaHole99-highlight-inner)" d="M 198.83,194.02 C 198.05,194.01 197.28,194 196.5,194 185.74,194 175.11,195.01 164.72,197.01 86.44,212.04 29,280.83 29,361.5 29,454.01 103.99,529 196.5,529 289.01,529 364,454.01 364,361.5 364,269.86 290.35,195.26 198.83,194.02 Z M 198.83,194.02" />
</svg>
