<?xml version="1.0" encoding="UTF-8"?>
<!DOCTYPE svg PUBLIC "-//W3C//DTD SVG 1.1//EN" "http://www.w3.org/Graphics/SVG/1.1/DTD/svg11.dtd">
<svg version="1.1" xmlns="http://www.w3.org/2000/svg" xmlns:xlink="http://www.w3.org/1999/xlink" width="400" height="700"  xml:space="preserve" id="nebulaHole22">
    <!-- Generated by PaintCode - http://www.paintcodeapp.com -->
    <defs>
        <linearGradient id="nebulaHole22-outerWalls-bezier2" x1="195" y1="191" x2="195" y2="281" gradientUnits="userSpaceOnUse" >
            <stop offset="0" stop-color="rgb(214, 56, 255)" stop-opacity="1" />
            <stop offset="0.49" stop-color="rgb(130, 98, 235)" stop-opacity="1" />
            <stop offset="1" stop-color="rgb(59, 30, 152)" stop-opacity="1" />
        </linearGradient>
        <filter id="nebulaHole22-highlight-inner" filterUnits="userSpaceOnUse">
            <feGaussianBlur in="SourceAlpha" stdDeviation="0" result="blur"/>
            <feOffset dx="0" dy="2"/>
            <feComposite in2="SourceAlpha" operator="arithmetic" k2="-1.15" k3="1.15" result="shadowDiff"/>
            <feFlood flood-color="rgb(255, 255, 255)" flood-opacity="1"/>
            <feComposite in2="shadowDiff" operator="in"/>
            <feComposite in2="SourceGraphic" operator="over"/>
        </filter>
        <linearGradient id="nebulaHole22-outerWalls-bezier" x1="195" y1="181" x2="195" y2="291" gradientUnits="userSpaceOnUse" >
            <stop offset="0" stop-color="rgb(214, 56, 255)" stop-opacity="1" />
            <stop offset="0.49" stop-color="rgb(130, 98, 235)" stop-opacity="1" />
            <stop offset="1" stop-color="rgb(59, 30, 152)" stop-opacity="1" />
        </linearGradient>
        <linearGradient id="nebulaHole22-outerWalls-bezier3" x1="198.5" y1="79" x2="198.5" y2="612.01" gradientUnits="userSpaceOnUse" >
            <stop offset="0" stop-color="rgb(214, 56, 255)" stop-opacity="1" />
            <stop offset="0.49" stop-color="rgb(130, 98, 235)" stop-opacity="1" />
            <stop offset="1" stop-color="rgb(59, 30, 152)" stop-opacity="1" />
        </linearGradient>
        <linearGradient id="nebulaHole22-outerWalls-bezier4" x1="198.81" y1="79.62" x2="198.81" y2="607" gradientUnits="userSpaceOnUse" >
            <stop offset="0" stop-color="rgb(214, 56, 255)" stop-opacity="1" />
            <stop offset="0.49" stop-color="rgb(130, 98, 235)" stop-opacity="1" />
            <stop offset="1" stop-color="rgb(59, 30, 152)" stop-opacity="1" />
        </linearGradient>
    </defs>
    <rect id="nebulaHole22-ball" stroke="none" fill="rgb(128, 128, 128)" x="259" y="489" width="1" height="1" />
    <rect id="nebulaHole22-end" stroke="none" fill="rgb(128, 128, 128)" x="122" y="477" width="1" height="1" />
    <path id="nebulaHole22-bezier2" stroke="none" fill="url(#nebulaHole22-outerWalls-bezier2)" filter="url(#nebulaHole22-highlight-inner)" d="M 195,191 C 192.43,191 189.89,191.21 187.4,191.64 165.93,195.29 150,213.98 150,236 150,260.85 170.15,281 195,281 219.85,281 240,260.85 240,236 240,211.15 219.85,191 195,191 Z M 195,191" />
    <path id="nebulaHole22-bezier" stroke="none" fill="url(#nebulaHole22-outerWalls-bezier)" filter="url(#nebulaHole22-highlight-inner)" d="M 195,181 C 225.38,181 250,205.62 250,236 250,266.38 225.38,291 195,291 164.62,291 140,266.38 140,236 140,209.08 159.47,186.24 185.72,181.78 188.77,181.26 191.87,181 195,181 Z M 195,181" />
    <path id="nebulaHole22-bezier3" stroke="none" fill="url(#nebulaHole22-outerWalls-bezier3)" filter="url(#nebulaHole22-highlight-inner)" d="M 193.59,88.38 L 198.42,79.62 C 198.42,79.62 198.42,79.62 198.42,79.62 198.42,79.63 198.42,79.63 198.42,79.63 198.43,79.63 198.43,79.63 198.43,79.63 198.45,79.64 198.45,79.64 198.47,79.65 198.51,79.68 198.51,79.68 198.58,79.72 198.7,79.78 198.83,79.86 198.99,79.95 199.42,80.2 199.92,80.49 200.5,80.84 202.11,81.81 203.96,82.99 206.02,84.36 211.88,88.27 218.3,93.03 225.09,98.66 244.45,114.73 262.97,134.63 279.08,158.6 299.79,189.41 314.95,224.7 323.01,264.68 332.5,311.82 331.78,364.01 319.32,421.42 318.54,424.99 317.73,428.57 316.86,432.17 L 312,431 315.54,427.46 371.54,483.46 C 372.47,484.4 373,485.67 373,487 373,487.67 373,487.67 373,490.69 373,494.72 373,494.72 373,500.42 373,513.85 373,513.85 373,529.95 373,555.06 373,555.06 373,570 373,574.45 367.61,576.69 364.46,573.54 355,564.07 340.38,555.18 322.04,547.05 309.76,541.6 296.56,536.83 283.36,532.78 278.74,531.36 274.45,530.13 270.61,529.09 269.27,528.73 268.08,528.42 267.06,528.17 266.7,528.08 266.39,528 266.13,527.94 265.98,527.9 265.88,527.87 265.84,527.86 L 271.27,525.61 C 271.17,525.77 270.98,526.08 270.7,526.53 270.25,527.28 269.72,528.15 269.12,529.13 267.41,531.93 265.5,535.05 263.45,538.42 257.59,548.05 251.73,557.72 246.26,566.79 245.97,567.25 245.97,567.25 245.69,567.72 231.8,590.78 222.31,606.95 221.72,608.64 219.87,613.96 212,612.64 212,607 212,568.56 212,535.91 212,480.93 212,454.27 212,443.24 212,431.41 212,429.51 213.09,427.76 214.8,426.92 230.1,419.41 240,403.85 240,386.5 240,367.51 228.13,350.76 210.61,344.28 205.66,342.45 200.4,341.5 195,341.5 170.15,341.5 150,361.65 150,386.5 150,406.3 162.9,423.6 181.5,429.44 183.58,430.1 185,432.03 185,434.21 185,463.86 185,506.16 185,577.5 185,592.31 185,592.31 185,607 185,612.45 177.51,613.97 175.39,608.94 169.9,595.92 164.21,584.87 157.75,574.25 153.11,566.63 152.03,565.04 140.55,548.53 133.91,538.99 129.85,532.77 125.66,525.49 L 130.37,527.99 C 130.17,528 129.65,528.06 128.85,528.17 127.44,528.36 125.76,528.65 123.81,529.05 118.15,530.22 111.54,532.06 104.05,534.71 82.46,542.37 58.23,555.08 31.93,574.06 28.62,576.44 24,574.08 24,570 24,554.53 24,554.53 24,530.79 24,514.37 24,514.37 24,500.68 24,494.87 24,494.87 24,490.76 24,487.68 24,487.68 24,487 24,485.81 24.43,484.65 25.2,483.75 L 73.2,427.75 72.1,432 C 60.29,373.85 59.24,321.2 67.63,273.82 74.81,233.24 88.73,197.46 108.02,166.26 115.07,154.86 122.74,144.23 130.93,134.35 144.79,117.63 159.46,103.82 174.03,92.72 179.14,88.83 183.88,85.55 188.14,82.86 190.73,81.23 192.6,80.14 193.65,79.59 195.14,78.79 196.94,78.81 198.42,79.62 L 198.42,79.62 196,84 193.59,88.38 Z M 193.59,88.38" />
    <path id="nebulaHole22-bezier4" stroke="none" fill="url(#nebulaHole22-outerWalls-bezier4)" filter="url(#nebulaHole22-highlight-inner)" d="M 198.42,79.62 C 204.26,82.85 199.42,91.6 193.59,88.38 L 193.58,88.38 196,84 198.35,88.41 C 198.17,88.51 197.76,88.74 197.15,89.09 196.1,89.7 194.87,90.44 193.48,91.32 189.46,93.85 184.96,96.97 180.09,100.68 166.1,111.33 151.98,124.63 138.63,140.73 130.73,150.26 123.33,160.51 116.53,171.51 97.89,201.66 84.44,236.25 77.48,275.56 69.31,321.68 70.34,373.07 81.9,430 82.21,431.52 81.8,433.08 80.8,434.25 L 32.8,490.25 34,487 C 34,487.68 34,487.68 34,490.76 34,494.87 34,494.87 34,500.68 34,514.37 34,514.37 34,530.79 34,554.53 34,554.53 34,570 L 26.07,565.94 C 53.15,546.42 78.22,533.26 100.7,525.29 108.63,522.48 115.69,520.52 121.79,519.26 123.95,518.81 125.85,518.49 127.48,518.26 128.49,518.12 129.21,518.05 129.63,518.01 131.55,517.87 133.38,518.84 134.34,520.51 138.34,527.49 142.27,533.5 148.76,542.82 160.39,559.54 161.5,561.18 166.29,569.05 173.01,580.08 178.92,591.58 184.61,605.06 L 175,607 C 175,592.31 175,592.31 175,577.5 175,506.16 175,463.86 175,434.21 L 178.5,438.98 C 155.77,431.84 140,410.7 140,386.5 140,356.12 164.62,331.5 195,331.5 201.59,331.5 208.03,332.66 214.08,334.9 235.49,342.82 250,363.29 250,386.5 250,407.7 237.9,426.73 219.2,435.9 L 222,431.41 C 222,443.24 222,454.27 222,480.93 222,535.91 222,568.56 222,607 L 212.28,605.36 C 213.24,602.58 221.8,587.99 237.13,562.56 237.41,562.09 237.41,562.09 237.69,561.63 243.17,552.54 249.04,542.86 254.91,533.22 256.96,529.85 258.87,526.72 260.58,523.91 261.18,522.93 261.71,522.06 262.17,521.31 262.43,520.9 262.43,520.9 262.59,520.63 262.71,520.43 262.71,520.43 262.73,520.39 263.87,518.54 266.06,517.63 268.16,518.14 268.23,518.15 268.35,518.18 268.52,518.22 268.8,518.29 269.13,518.38 269.51,518.47 270.58,518.74 271.81,519.06 273.2,519.44 277.16,520.5 281.56,521.76 286.3,523.22 299.85,527.38 313.41,532.28 326.09,537.9 345.46,546.49 361.04,555.97 371.54,566.46 L 363,570 C 363,555.06 363,555.06 363,529.95 363,513.85 363,513.85 363,500.42 363,494.72 363,494.72 363,490.69 363,487.67 363,487.67 363,487 L 364.46,490.54 308.46,434.54 C 307.23,433.31 306.73,431.52 307.14,429.83 307.98,426.3 308.79,422.79 309.55,419.3 321.72,363.22 322.42,312.42 313.2,266.65 305.42,228 290.77,193.92 270.78,164.18 255.23,141.05 237.37,121.84 218.71,106.36 212.19,100.95 206.05,96.4 200.47,92.68 198.53,91.39 196.81,90.3 195.32,89.4 194.81,89.09 194.37,88.83 193.99,88.61 193.87,88.54 193.76,88.48 193.67,88.43 193.63,88.4 193.63,88.4 193.6,88.39 193.59,88.38 193.59,88.38 193.59,88.38 L 193.59,88.38 193.59,88.38 193.59,88.38 193.59,88.38 198.42,79.62 Z M 198.42,79.62" />
</svg>
