<?xml version="1.0" encoding="UTF-8"?>
<!DOCTYPE svg PUBLIC "-//W3C//DTD SVG 1.1//EN" "http://www.w3.org/Graphics/SVG/1.1/DTD/svg11.dtd">
<svg version="1.1" xmlns="http://www.w3.org/2000/svg" xmlns:xlink="http://www.w3.org/1999/xlink" width="400" height="700"  xml:space="preserve" id="retroHole77">
    <!-- Generated by PaintCode - http://www.paintcodeapp.com -->
    <defs>
        <radialGradient id="retroHole77-gradient-bezier2" cx="198.21" cy="347.62"  r="223.93" fx="205.02" fy="340.81" gradientUnits="userSpaceOnUse" >
            <stop offset="0.03" stop-color="rgb(230, 169, 93)" stop-opacity="1" />
            <stop offset="1" stop-color="rgb(128, 78, 15)" stop-opacity="1" />
        </radialGradient>
        <filter id="retroHole77-shadow-outer" filterUnits="userSpaceOnUse">
            <feGaussianBlur stdDeviation="4" />
            <feOffset dx="0" dy="-0" result="blur" />
            <feFlood flood-color="rgb(0, 0, 0)" flood-opacity="1" />
            <feComposite in2="blur" operator="in" result="colorShadow" />
            <feComposite in="SourceGraphic" in2="colorShadow" operator="over" />
        </filter>
        <radialGradient id="retroHole77-gradient-bezier" cx="198.21" cy="347.61"  r="223.93" fx="205.02" fy="340.8" gradientUnits="userSpaceOnUse" >
            <stop offset="0.03" stop-color="rgb(230, 169, 93)" stop-opacity="1" />
            <stop offset="1" stop-color="rgb(128, 78, 15)" stop-opacity="1" />
        </radialGradient>
    </defs>
    <rect id="retroHole77-end" stroke="none" fill="rgb(128, 128, 128)" x="324" y="491" width="1" height="1" />
    <rect id="retroHole77-ball" stroke="none" fill="rgb(128, 128, 128)" x="81" y="480" width="1" height="1" />
    <path id="retroHole77-bezier2" stroke="none" fill="url(#retroHole77-gradient-bezier2)" filter="url(#retroHole77-shadow-outer)" d="M 284.54,330.47 C 290.58,336.51 310.45,356.04 311.38,356.96 321.58,367.06 328.93,374.62 335.64,382.03 359.35,408.2 372.94,430.84 378.88,457.52 390.5,509.69 344.25,555.63 296.68,539.06 277.07,532.23 257.91,507.09 239.03,469.17 231.43,453.94 224.42,437.64 218.14,421.34 215.95,415.64 214,410.34 212.32,405.59 211.73,403.92 211.22,402.44 210.79,401.16 210.63,400.71 210.5,400.31 210.39,399.98 210.32,399.78 210.27,399.64 210.25,399.56 L 215,403 187,403 191.69,399.72 C 191.67,399.8 191.62,399.93 191.54,400.14 191.42,400.47 191.27,400.86 191.1,401.31 190.62,402.59 190.06,404.07 189.41,405.74 187.58,410.49 185.47,415.79 183.12,421.49 176.39,437.79 169.08,454.09 161.41,469.32 149.31,493.33 137.48,512.41 126.2,524.85 119.41,532.34 112.84,537.39 106.36,539.71 59.42,556.53 12.57,510.19 24.12,458.18 26.86,445.84 33.84,431.86 44.43,416.43 52.44,404.75 62.38,392.47 73.85,379.76 84.13,368.37 95.05,357.28 106.46,346.37 112.48,340.6 123.43,330.5 123.46,330.47 123.53,330.4 123.59,330.34 123.66,330.28 139.96,315.62 145.01,291.18 143.66,250.89 143.46,244.79 143.18,239.37 142.6,229.32 140.82,198.46 140.69,187.32 143,175.07 144.98,164.58 147.99,156.88 151.98,152.02 156.23,146.84 161.76,144.83 167.31,146.53 176.48,149.36 183.18,161.76 183.89,175.75 185.28,203.41 185.28,203.41 187.79,253.03 189.33,283.49 189.33,283.49 190.61,308.86 191.15,319.65 191.15,319.65 191.53,327.26 191.82,332.97 191.82,332.97 191.89,334.24 L 186.89,329.49 215.11,329.49 210.11,334.24 C 210.18,332.89 210.18,332.89 210.49,326.82 210.9,318.72 210.9,318.72 211.48,307.25 212.84,280.26 212.84,280.26 214.47,247.87 216.59,205.96 216.59,205.96 218.11,175.75 218.65,165.1 220.6,157.23 223.95,152.15 227.62,146.59 233.1,144.32 238.91,145.92 248.14,148.47 256.56,160.52 259.87,174.88 261.52,182.01 261.62,189.23 261.08,213.77 260.59,235.92 260.64,248.07 261.69,261.99 263.99,292.64 271.03,315.53 284.71,330.65 L 284.54,330.47 Z M 284.54,330.47" />
    <path id="retroHole77-bezier" stroke="none" fill="url(#retroHole77-gradient-bezier)" filter="url(#retroHole77-shadow-outer)" d="M 277.46,337.53 C 277.4,337.48 277.35,337.42 277.29,337.35 261.81,320.24 254.17,295.4 251.72,262.74 250.64,248.4 250.59,236.01 251.08,213.55 251.6,190.26 251.49,183.04 250.13,177.12 247.55,165.97 241.24,156.94 236.26,155.56 234.75,155.15 233.65,155.61 232.3,157.65 230.1,160.99 228.56,167.23 228.1,176.25 226.58,206.47 226.58,206.47 224.46,248.38 222.83,280.77 222.83,280.77 221.46,307.76 220.88,319.23 220.88,319.23 220.48,327.32 220.17,333.4 220.17,333.4 220.1,334.75 219.97,337.41 217.77,339.49 215.11,339.49 L 186.89,339.49 C 184.23,339.49 182.03,337.41 181.9,334.75 181.84,333.48 181.84,333.48 181.55,327.77 181.16,320.15 181.16,320.15 180.62,309.37 179.34,283.99 179.34,283.99 177.8,253.54 175.3,203.91 175.3,203.91 173.9,176.25 173.38,166.01 168.76,157.44 164.37,156.09 162.93,155.65 161.51,156.17 159.71,158.37 156.95,161.72 154.52,167.93 152.82,176.93 150.73,188.02 150.86,198.86 152.59,228.74 153.17,238.87 153.45,244.36 153.66,250.55 154.31,270.11 153.58,285.23 150.81,298.62 147.38,315.22 140.84,328.28 130.34,337.72 L 130.54,337.53 C 130.33,337.74 119.27,347.95 113.37,353.6 102.12,364.35 91.37,375.27 81.27,386.46 70.08,398.86 60.41,410.81 52.67,422.09 42.75,436.55 36.3,449.47 33.88,460.35 23.97,504.98 63.77,544.34 102.99,530.29 107.66,528.62 113,524.51 118.79,518.13 129.34,506.51 140.75,488.09 152.47,464.82 160.02,449.84 167.24,433.76 173.87,417.68 176.19,412.05 178.27,406.82 180.09,402.13 180.72,400.5 181.27,399.04 181.74,397.79 181.91,397.36 182.05,396.98 182.17,396.66 182.24,396.47 182.28,396.34 182.31,396.28 183.03,394.31 184.9,393 187,393 L 215,393 C 217.16,393 219.08,394.39 219.75,396.44 219.77,396.5 219.81,396.62 219.87,396.81 219.98,397.13 220.11,397.51 220.25,397.94 220.68,399.18 221.18,400.63 221.75,402.26 223.4,406.93 225.32,412.14 227.48,417.75 233.65,433.77 240.54,449.79 247.98,464.71 265.71,500.32 283.72,523.96 299.97,529.62 339.83,543.5 379.1,504.5 369.12,459.69 363.61,434.96 350.88,413.74 328.23,388.74 321.67,381.49 314.42,374.05 304.35,364.07 303.44,363.17 283.55,343.62 277.46,337.53 Z M 277.46,337.53" />
</svg>
