<?xml version="1.0" encoding="UTF-8"?>
<!DOCTYPE svg PUBLIC "-//W3C//DTD SVG 1.1//EN" "http://www.w3.org/Graphics/SVG/1.1/DTD/svg11.dtd">
<svg version="1.1" xmlns="http://www.w3.org/2000/svg" xmlns:xlink="http://www.w3.org/1999/xlink" width="400" height="700"  xml:space="preserve" id="retroHole88">
    <!-- Generated by PaintCode - http://www.paintcodeapp.com -->
    <defs>
        <radialGradient id="retroHole88-gradient-bezier" cx="196.55" cy="366.12"  r="270.15" fx="205.61" fy="357.06" gradientUnits="userSpaceOnUse" >
            <stop offset="0.032" stop-color="rgb(230, 169, 93)" stop-opacity="1" />
            <stop offset="1" stop-color="rgb(128, 78, 15)" stop-opacity="1" />
        </radialGradient>
        <filter id="retroHole88-shadow-outer" filterUnits="userSpaceOnUse">
            <feGaussianBlur stdDeviation="4" />
            <feOffset dx="0" dy="-0" result="blur" />
            <feFlood flood-color="rgb(0, 0, 0)" flood-opacity="1" />
            <feComposite in2="blur" operator="in" result="colorShadow" />
            <feComposite in="SourceGraphic" in2="colorShadow" operator="over" />
        </filter>
        <radialGradient id="retroHole88-gradient-bezier2" cx="196.55" cy="366.12"  r="270.15" fx="205.62" fy="357.05" gradientUnits="userSpaceOnUse" >
            <stop offset="0.032" stop-color="rgb(230, 169, 93)" stop-opacity="1" />
            <stop offset="1" stop-color="rgb(128, 78, 15)" stop-opacity="1" />
        </radialGradient>
    </defs>
    <rect id="retroHole88-end" stroke="none" fill="rgb(128, 128, 128)" x="259" y="490" width="1" height="1" />
    <rect id="retroHole88-ball" stroke="none" fill="rgb(128, 128, 128)" x="112" y="577" width="1" height="1" />
    <path id="retroHole88-bezier" stroke="none" fill="url(#retroHole88-gradient-bezier)" filter="url(#retroHole88-shadow-outer)" d="M 322.78,250.3 C 322.78,261.72 326.45,268.85 335.81,278.46 336.26,278.93 346.44,288.91 349.64,292.37 364.14,308.06 372.92,325.5 376.94,352.26 379.51,369.32 378.05,382.82 372.82,394.34 368.62,403.6 362.81,410.64 352.37,420.5 351.61,421.22 344.67,427.68 342.63,429.63 326.13,445.46 317.4,459.1 312.9,481.01 306.1,514.02 295.39,533.5 280.29,541.92 267.8,548.9 254.07,548.08 235.39,541.73 227.81,539.16 222.81,532.03 219.31,520.99 216.77,512.97 215.15,503.77 213.31,489.06 213.16,487.86 213,486.62 212.82,485.1 212.72,484.32 212.4,481.64 212.34,481.17 210.17,463.4 208.77,455.4 206.32,449.44 203.95,443.67 202.26,442.92 197.67,445.82 192.56,449.05 188.28,457.81 184.83,472.13 182.01,483.88 180.18,496.21 177.08,521.74 176.99,522.48 176.49,526.67 176.34,527.87 176.05,530.25 175.81,532.18 175.59,534.04 172.25,561.05 169.51,577.44 165.32,591.99 159.77,611.28 152.19,623.9 141.12,629.47 97.28,651.51 41.21,597.55 26.11,525.11 22.64,508.5 22.96,493.05 26.64,477.59 29.65,464.93 34.6,452.94 42.68,437.31 44.02,434.71 45.44,432.02 47.23,428.67 48.05,427.15 51.15,421.38 51.87,420.03 67.07,391.67 73.98,374.7 77.3,352.7 80.11,333.99 80.75,319.99 79.64,308.81 78.8,300.41 77.37,294.98 73.97,285.38 73.9,285.18 73.49,284.01 73.37,283.68 68.89,271.02 67.22,263.28 67.22,250.3 67.22,188.1 86.09,130.67 117.69,93.81 121.84,88.97 127.32,87.77 132.83,90.34 136.93,92.25 140.98,96.16 145.41,102.04 151.79,110.49 155.69,117.28 170.03,143.62 173.48,149.97 175.84,154.24 178.22,158.42 191.34,181.48 200.86,193 207,193 221.01,193 233.68,190.92 251.92,186.41 252.1,186.36 263.35,183.53 266.39,182.81 271.67,181.55 275.82,180.71 279.64,180.18 289.34,178.82 296.8,179.51 303.08,182.98 316.95,190.63 322.78,210.85 322.78,250.3 Z M 322.78,250.3" />
    <path id="retroHole88-bezier2" stroke="none" fill="url(#retroHole88-gradient-bezier2)" filter="url(#retroHole88-shadow-outer)" d="M 312.78,250.3 C 312.78,214.26 307.8,197.01 298.25,191.73 294.2,189.5 288.78,189 281.03,190.08 277.58,190.57 273.7,191.35 268.7,192.54 265.74,193.25 254.56,196.06 254.32,196.12 235.37,200.81 222,203 207,203 200.3,203 193.92,198.48 187.08,190.2 181.81,183.82 176.29,175.24 169.53,163.37 167.11,159.12 164.73,154.8 161.25,148.4 147.24,122.65 143.37,115.93 137.43,108.06 133.9,103.38 130.88,100.47 128.6,99.4 127.17,98.73 126.52,98.88 125.28,100.32 95.33,135.26 77.22,190.37 77.22,250.3 77.22,261.97 78.67,268.67 82.8,280.34 82.91,280.67 83.33,281.84 83.4,282.05 87.04,292.34 88.66,298.46 89.59,307.82 90.79,319.9 90.12,334.71 87.18,354.19 83.66,377.6 76.38,395.46 60.69,424.75 59.96,426.11 56.86,431.88 56.05,433.39 54.28,436.7 52.88,439.35 51.56,441.9 43.82,456.87 39.15,468.18 36.37,479.9 33.03,493.95 32.74,507.92 35.89,523.06 42.59,555.16 58.42,584.96 78.34,604.13 98.09,623.14 119.19,629.3 136.62,620.53 144.58,616.53 150.86,606.09 155.71,589.22 159.71,575.33 162.39,559.33 165.66,532.81 165.89,530.96 166.12,529.03 166.41,526.67 166.56,525.46 167.06,521.28 167.15,520.54 170.3,494.61 172.16,482.05 175.11,469.79 179.12,453.12 184.37,442.41 192.33,437.37 202.65,430.84 211.01,434.54 215.57,445.64 218.5,452.78 219.97,461.15 222.27,479.96 222.32,480.43 222.65,483.11 222.74,483.88 222.93,485.4 223.08,486.63 223.23,487.81 226.81,516.35 231.03,529.69 238.61,532.27 254.86,537.79 266,538.45 275.42,533.19 287.47,526.46 296.84,509.44 303.1,478.99 308.07,454.84 317.87,439.53 335.71,422.42 337.82,420.4 344.79,413.9 345.5,413.23 355.08,404.18 360.17,398.01 363.71,390.21 368.1,380.55 369.35,368.99 367.06,353.74 363.34,329.04 355.47,313.42 342.29,299.15 339.3,295.92 329.26,286.07 328.64,285.44 317.62,274.12 312.78,264.7 312.78,250.3 Z M 312.78,250.3" />
</svg>
