<?xml version="1.0" encoding="UTF-8"?>
<!DOCTYPE svg PUBLIC "-//W3C//DTD SVG 1.1//EN" "http://www.w3.org/Graphics/SVG/1.1/DTD/svg11.dtd">
<svg version="1.1" xmlns="http://www.w3.org/2000/svg" xmlns:xlink="http://www.w3.org/1999/xlink" width="400" height="700"  xml:space="preserve" id="timberHole44">
    <!-- Generated by PaintCode - http://www.paintcodeapp.com -->
    <defs>
        <radialGradient id="timberHole44-gradient-bezier2" cx="182.08" cy="194.86"  r="269.8" fx="192.46" fy="184.47" gradientUnits="userSpaceOnUse" >
            <stop offset="0.037" stop-color="rgb(230, 169, 93)" stop-opacity="1" />
            <stop offset="1" stop-color="rgb(128, 78, 15)" stop-opacity="1" />
        </radialGradient>
        <filter id="timberHole44-shadow-outer" filterUnits="userSpaceOnUse">
            <feGaussianBlur stdDeviation="4" />
            <feOffset dx="0" dy="-0" result="blur" />
            <feFlood flood-color="rgb(0, 0, 0)" flood-opacity="1" />
            <feComposite in2="blur" operator="in" result="colorShadow" />
            <feComposite in="SourceGraphic" in2="colorShadow" operator="over" />
        </filter>
        <radialGradient id="timberHole44-gradient-bezier" cx="180.8" cy="193.78"  r="269.8" fx="191.19" fy="183.4" gradientUnits="userSpaceOnUse" >
            <stop offset="0.037" stop-color="rgb(230, 169, 93)" stop-opacity="1" />
            <stop offset="1" stop-color="rgb(128, 78, 15)" stop-opacity="1" />
        </radialGradient>
        <radialGradient id="timberHole44-gradient-bezier3" cx="293.29" cy="312.36"  r="269.8" fx="303.67" fy="301.97" gradientUnits="userSpaceOnUse" >
            <stop offset="0.037" stop-color="rgb(230, 169, 93)" stop-opacity="1" />
            <stop offset="1" stop-color="rgb(128, 78, 15)" stop-opacity="1" />
        </radialGradient>
        <radialGradient id="timberHole44-gradient-bezier4" cx="292.36" cy="311.7"  r="269.8" fx="302.74" fy="301.31" gradientUnits="userSpaceOnUse" >
            <stop offset="0.037" stop-color="rgb(230, 169, 93)" stop-opacity="1" />
            <stop offset="1" stop-color="rgb(128, 78, 15)" stop-opacity="1" />
        </radialGradient>
        <radialGradient id="timberHole44-gradient-bezier5" cx="189.31" cy="364.2"  r="269.8" fx="199.69" fy="353.81" gradientUnits="userSpaceOnUse" >
            <stop offset="0.037" stop-color="rgb(230, 169, 93)" stop-opacity="1" />
            <stop offset="1" stop-color="rgb(128, 78, 15)" stop-opacity="1" />
        </radialGradient>
        <radialGradient id="timberHole44-gradient-bezier6" cx="189.28" cy="364.2"  r="269.8" fx="199.67" fy="353.81" gradientUnits="userSpaceOnUse" >
            <stop offset="0.037" stop-color="rgb(230, 169, 93)" stop-opacity="1" />
            <stop offset="1" stop-color="rgb(128, 78, 15)" stop-opacity="1" />
        </radialGradient>
        <radialGradient id="timberHole44-gradient-bezier7" cx="110.81" cy="513.9"  r="269.8" fx="121.2" fy="503.51" gradientUnits="userSpaceOnUse" >
            <stop offset="0.037" stop-color="rgb(230, 169, 93)" stop-opacity="1" />
            <stop offset="1" stop-color="rgb(128, 78, 15)" stop-opacity="1" />
        </radialGradient>
        <radialGradient id="timberHole44-gradient-bezier8" cx="113.68" cy="514.94"  r="269.8" fx="124.07" fy="504.55" gradientUnits="userSpaceOnUse" >
            <stop offset="0.037" stop-color="rgb(230, 169, 93)" stop-opacity="1" />
            <stop offset="1" stop-color="rgb(128, 78, 15)" stop-opacity="1" />
        </radialGradient>
        <radialGradient id="timberHole44-gradient-bezier9" cx="201.6" cy="361.52"  r="269.8" fx="211.98" fy="351.14" gradientUnits="userSpaceOnUse" >
            <stop offset="0.037" stop-color="rgb(230, 169, 93)" stop-opacity="1" />
            <stop offset="1" stop-color="rgb(128, 78, 15)" stop-opacity="1" />
        </radialGradient>
        <radialGradient id="timberHole44-gradient-bezier10" cx="201.6" cy="361.52"  r="269.8" fx="211.98" fy="351.14" gradientUnits="userSpaceOnUse" >
            <stop offset="0.037" stop-color="rgb(230, 169, 93)" stop-opacity="1" />
            <stop offset="1" stop-color="rgb(128, 78, 15)" stop-opacity="1" />
        </radialGradient>
    </defs>
    <rect id="timberHole44-end" stroke="none" fill="rgb(128, 128, 128)" x="129" y="118" width="1" height="1" />
    <rect id="timberHole44-ball" stroke="none" fill="rgb(128, 128, 128)" x="298" y="561" width="1" height="1" />
    <path id="timberHole44-bezier2" stroke="none" fill="url(#timberHole44-gradient-bezier2)" filter="url(#timberHole44-shadow-outer)" d="M 141.81,158.06 C 141.95,157.71 141.94,157.35 141.88,157.19 141.95,157.38 142.21,157.77 142.68,158.29 143.95,159.68 146.21,161.37 149.31,163.22 153.62,165.8 159.32,168.57 166.23,171.54 172.04,174.03 176.6,175.83 185.78,179.33 191.64,181.56 198.31,187.48 207.56,197.62 209.03,199.23 210.57,200.95 212.3,202.92 213.79,204.62 219.5,211.17 220.82,212.67 223.88,216.14 226.11,218.58 228.01,220.47 230.02,222.47 231.53,223.73 232.34,224.16 232.21,224.09 231.82,223.99 231.03,224.12 229.68,224.36 228.69,225.28 228.33,226.22 230.33,220.97 230.43,206.45 226.95,194.48 222.02,177.5 211.08,165.52 192.76,160.84 171.22,155.35 157.82,153.13 150.06,153.54 144.63,153.83 143,154.95 141.81,158.06 Z M 141.81,158.06" />
    <path id="timberHole44-bezier" stroke="none" fill="url(#timberHole44-gradient-bezier)" filter="url(#timberHole44-shadow-outer)" d="M 132.47,154.5 C 137.68,140.84 151.84,140.09 195.24,151.16 217.23,156.76 230.69,171.5 236.56,191.69 240.61,205.65 240.49,222.38 237.67,229.78 235.96,234.28 231.58,235.04 227.72,233.03 225.76,232.01 223.62,230.22 220.94,227.55 218.86,225.47 216.5,222.9 213.32,219.28 211.97,217.75 206.26,211.2 204.79,209.53 203.09,207.6 201.6,205.92 200.17,204.36 192.03,195.43 186.06,190.14 182.22,188.67 172.91,185.12 168.26,183.29 162.29,180.73 155,177.6 148.93,174.65 144.18,171.81 140.31,169.49 137.34,167.27 135.29,165.03 132.35,161.8 131.05,158.21 132.47,154.5 Z M 132.47,154.5" />
    <path id="timberHole44-bezier3" stroke="none" fill="url(#timberHole44-gradient-bezier3)" filter="url(#timberHole44-shadow-outer)" d="M 291.68,291.86 C 291.55,291.89 291.42,291.93 291.3,291.97 285.93,293.8 282.92,305.82 286.25,319.44 286.57,320.71 286.86,321.7 287.12,322.38 287.23,322.65 287.32,322.85 287.38,322.98 287.4,323 287.38,322.97 287.3,322.88 286.47,321.9 284.79,321.31 283.16,321.9 282.69,322.07 282.38,322.27 282.17,322.46 282.16,322.47 282.21,322.41 282.3,322.29 282.77,321.67 285.37,317.31 285.5,317.09 288.59,312.17 291.52,309.19 295.81,308.14 298.12,307.58 300.48,307.75 302.9,308.49 305.17,309.18 307.29,310.26 309.96,311.92 310.14,312.03 312.93,313.81 313.54,314.16 313.94,314.39 314.23,314.54 314.4,314.61 314.3,314.57 314.07,314.52 313.61,314.52 312.52,314.54 311.36,315.05 310.58,316.03 310.27,316.41 310.07,316.8 309.96,317.16 309.9,317.36 309.87,317.49 309.86,317.58 309.9,317.15 309.71,315.85 309.22,313.82 305.78,299.78 297.24,290.5 291.68,291.86 Z M 291.68,291.86" />
    <path id="timberHole44-bezier4" stroke="none" fill="url(#timberHole44-gradient-bezier4)" filter="url(#timberHole44-shadow-outer)" d="M 289.3,282.14 C 301.78,279.09 314.36,292.75 318.93,311.44 319.67,314.45 319.98,316.64 319.83,318.41 319.55,321.76 317.38,324.47 313.76,324.52 311.94,324.55 310.5,323.96 308.51,322.81 307.7,322.33 304.7,320.42 304.69,320.41 302.7,319.18 301.24,318.43 300,318.06 299.17,317.8 298.58,317.76 298.19,317.86 297.19,318.1 295.77,319.55 293.97,322.41 294.14,322.14 291.14,327.19 290.27,328.34 289.19,329.76 288.1,330.75 286.52,331.31 283.93,332.24 281.36,331.34 279.66,329.33 278.31,327.74 277.42,325.42 276.54,321.81 272.13,303.8 276.47,286.45 288.08,282.5 288.48,282.36 288.89,282.25 289.3,282.14 Z M 289.3,282.14" />
    <path id="timberHole44-bezier5" stroke="none" fill="url(#timberHole44-gradient-bezier5)" filter="url(#timberHole44-shadow-outer)" d="M 155.33,224 C 141.39,224 126.99,263.59 120.68,319.18 114.53,373.28 117.79,425.6 128.63,439.49 152.56,470.16 214.25,496.72 254.59,494.23 269.24,493.33 274.55,468.68 268.65,427.58 263.11,389.03 248.36,341.9 231.54,308.53 229.2,303.89 221.98,289.49 221.07,287.67 217.34,280.26 214.64,274.97 212.14,270.21 206.13,258.78 201.49,250.9 197.05,244.76 189.32,234.05 182.02,228.49 172.27,225.88 167.52,224.61 162.01,224 155.33,224 Z M 155.33,224" />
    <path id="timberHole44-bezier6" stroke="none" fill="url(#timberHole44-gradient-bezier6)" filter="url(#timberHole44-shadow-outer)" d="M 155.33,214 C 162.82,214 169.18,214.71 174.85,216.22 187.01,219.47 196.16,226.45 205.16,238.9 209.92,245.5 214.78,253.75 220.99,265.56 223.52,270.38 226.25,275.72 230,283.18 230.92,285 238.14,299.4 240.47,304.03 257.78,338.37 272.86,386.54 278.55,426.16 281.59,447.36 281.86,465.28 279.02,478.46 275.66,494.05 267.74,503.44 255.21,504.21 211.64,506.9 146.75,478.96 120.75,445.64 107.65,428.87 104.29,374.84 110.74,318.06 113.85,290.66 119.02,265.83 125.62,247.66 133.42,226.23 143.08,214 155.33,214 Z M 155.33,214" />
    <path id="timberHole44-bezier7" stroke="none" fill="url(#timberHole44-gradient-bezier7)" filter="url(#timberHole44-shadow-outer)" d="M 99.11,539.69 C 102.47,553.45 115.36,561.96 127.74,558.93 140.12,555.9 147.62,542.4 144.25,528.64 144.19,528.37 144.11,528.1 144.01,527.83 143.34,526.02 141.91,524.04 139.56,521.76 137.29,519.55 134.66,517.44 129.48,513.55 121.63,507.67 120.01,506.42 116.34,503.32 103.32,492.32 94.44,480.74 89.27,465.62 88.52,463.44 87.86,461.75 87.3,460.56 87.06,460.06 86.85,459.67 86.68,459.41 86.63,459.32 86.59,459.26 86.57,459.24 86.59,459.26 86.64,459.32 86.72,459.39 87.2,459.84 87.91,460.22 88.93,460.33 90.28,460.46 91.52,459.97 92.35,459.15 92.58,458.93 92.75,458.7 92.88,458.49 92.95,458.39 92.98,458.31 93.01,458.26 92.98,458.31 92.93,458.48 92.88,458.74 92.17,462.02 92.12,470.35 92.74,481.78 93.87,502.62 97.11,531.53 99.11,539.69 Z M 99.11,539.69" />
    <path id="timberHole44-bezier8" stroke="none" fill="url(#timberHole44-gradient-bezier8)" filter="url(#timberHole44-shadow-outer)" d="M 89.39,542.06 C 87.21,533.16 83.91,503.73 82.76,482.32 82.09,469.94 82.13,461.1 83.1,456.62 83.53,454.68 84.12,453.22 85.36,452.01 87.82,449.6 91.23,449.94 93.51,452.05 95.36,453.77 96.88,456.96 98.73,462.38 103.25,475.58 111.05,485.76 122.79,495.68 126.25,498.61 127.81,499.81 135.47,505.55 141,509.69 143.86,511.99 146.53,514.59 149.87,517.83 152.14,520.97 153.4,524.39 153.62,525.01 153.81,525.63 153.97,526.26 158.61,545.23 148.04,564.26 130.12,568.65 112.2,573.03 94.03,561.03 89.39,542.06 Z M 89.39,542.06" />
    <path id="timberHole44-bezier9" stroke="none" fill="url(#timberHole44-gradient-bezier9)" filter="url(#timberHole44-shadow-outer)" d="M 312.47,239.75 C 344.77,303.86 366.16,399.74 368.12,483.63 370.23,573.78 350.06,633.41 308.31,635.99 301.08,636.44 293.71,634.17 285.07,629.44 281.69,627.59 278.15,625.39 273.79,622.49 271.37,620.87 262.94,615.11 262.27,614.66 248.32,605.22 238.94,600.11 228.69,597.18 215.8,593.51 203.32,594.32 190.13,600.52 100.64,642.64 48,614.05 48,520 48,506.92 47.72,498.14 46.48,466.78 44.91,427.04 44.5,405.18 45.38,380.32 47.01,334.81 53.36,297.42 66.38,266.08 69.19,259.33 71.57,252.36 73.56,245.14 77.79,229.84 80.21,213.7 81.27,195.87 82.07,182.49 82.1,171.45 81.7,150.35 81.33,130.88 81.32,123.98 81.92,115.56 83.13,98.42 87.04,87.65 95.9,81.75 97.17,80.91 98.53,80.18 99.98,79.58 104.09,77.87 108.44,77 113,77 156.07,77 188,86.08 217.79,108.91 249.78,133.42 279.62,174.55 312.47,239.75 Z M 312.47,239.75" />
    <path id="timberHole44-bezier10" stroke="none" fill="url(#timberHole44-gradient-bezier10)" filter="url(#timberHole44-shadow-outer)" d="M 303.53,244.25 C 271.31,180.28 242.29,140.28 211.7,116.84 183.82,95.48 154.02,87 113,87 109.76,87 106.71,87.61 103.82,88.81 102.97,89.17 102.17,89.59 101.44,90.08 95.87,93.79 92.9,101.94 91.89,116.26 91.33,124.27 91.33,131.03 91.7,150.16 92.1,171.51 92.07,182.74 91.25,196.47 90.15,214.95 87.63,231.77 83.2,247.8 81.1,255.41 78.59,262.78 75.62,269.92 63.13,299.98 56.96,336.26 55.38,380.68 54.5,405.22 54.91,426.88 56.47,466.38 57.72,497.9 58,506.73 58,520 58,606.34 102.71,630.61 185.87,591.48 201.3,584.21 216.27,583.24 231.43,587.56 242.97,590.85 253.11,596.38 267.87,606.38 268.59,606.86 276.97,612.59 279.33,614.16 283.48,616.93 286.79,618.98 289.88,620.67 297,624.57 302.68,626.32 307.69,626.01 341.51,623.92 360.11,568.93 358.13,483.87 356.2,401.38 335.13,306.95 303.53,244.25 Z M 303.53,244.25" />
</svg>
