<?xml version="1.0" encoding="UTF-8"?>
<!DOCTYPE svg PUBLIC "-//W3C//DTD SVG 1.1//EN" "http://www.w3.org/Graphics/SVG/1.1/DTD/svg11.dtd">
<svg version="1.1" xmlns="http://www.w3.org/2000/svg" xmlns:xlink="http://www.w3.org/1999/xlink" width="400" height="700"  xml:space="preserve" id="timberHole88">
    <!-- Generated by PaintCode - http://www.paintcodeapp.com -->
    <defs>
        <style type="text/css"><![CDATA[
            @media all {
                image.highRes_resource {display:none}
            }
            @media only screen and (-webkit-min-device-pixel-ratio: 2),
                   only screen and (min--moz-device-pixel-ratio: 2),
                   only screen and (-o-min-device-pixel-ratio: 2/1),
                   only screen and (min-device-pixel-ratio: 2),
                   only screen and (min-resolution: 2dppx) {
                image.lowRes_resource  {display:none}
                image.highRes_resource {display:inline}
            }
        ]]></style>
        <pattern id="timberHole88-plaid-bezier2" x="55" y="168" width="100" height="100" patternUnits="userSpaceOnUse" viewBox="0 0 100 100">
            <image xlink:href="images/plaid.png" x="0" y="0" width="100" height="100" />
            <image xlink:href="images/plaid_2x.png" x="0" y="0" width="100" height="100" class="highRes_resource" />
        </pattern>
    </defs>
    <path id="timberHole88-bezier3" stroke="rgb(87, 54, 14)" stroke-width="24" stroke-linejoin="round" stroke-miterlimit="10" fill="none" d="M 347,68 L 347,658 212,658 C 212,658 212,532.37 212,488.16 236.01,464.15 291.58,408.58 291.58,408.58 L 265.42,382.42 175,472.84 C 175,472.84 175.06,472.89 175.16,473 L 175,473 175,658 55,658 C 55,658 55,542.18 55,413.16 67.53,400.64 82.97,385.2 93.16,375 139.63,375 212,375 212,375 L 212,338 93.33,338 C 89.11,333.78 83.97,328.64 78.5,323.18 74.03,318.7 69.34,314.01 64.75,309.43 63.02,307.69 61.3,305.97 59.61,304.28 58.04,302.71 56.5,301.17 55,299.67 55,176.05 55,68 55,68 L 175,68 175,253 175.16,253 C 175.06,253.11 175,253.16 175,253.16 L 265.42,343.58 291.58,317.42 C 291.58,317.42 236.01,261.85 212,237.84 212,193.63 212,68 212,68 L 347,68 Z M 347,68" />
    <path id="timberHole88-bezier2" stroke="none" fill="url(#timberHole88-plaid-bezier2)" d="M 347,68 L 347,658 212,658 C 212,658 212,532.37 212,488.16 236.01,464.15 291.58,408.58 291.58,408.58 L 265.42,382.42 175,472.84 C 175,472.84 175.06,472.89 175.16,473 L 175,473 175,658 55,658 C 55,658 55,542.18 55,413.16 67.53,400.64 82.97,385.2 93.16,375 139.63,375 212,375 212,375 L 212,338 93.33,338 C 89.11,333.78 83.97,328.64 78.5,323.18 74.03,318.7 69.34,314.01 64.75,309.43 63.02,307.69 61.3,305.97 59.61,304.28 58.04,302.71 56.5,301.17 55,299.67 55,176.05 55,68 55,68 L 175,68 175,253 175.16,253 C 175.06,253.11 175,253.16 175,253.16 L 265.42,343.58 291.58,317.42 C 291.58,317.42 236.01,261.85 212,237.84 212,193.63 212,68 212,68 L 347,68 Z M 347,68" />
    <path id="timberHole88-bezier" stroke="none" fill="rgb(173, 108, 27)" d="M 352,68 L 352,658 C 352,660.76 349.76,663 347,663 L 212,663 C 209.24,663 207,660.76 207,658 207,656.55 207,656.55 207,650.05 207,641.38 207,641.38 207,629.09 207,600.19 207,600.19 207,565.5 207,520.54 207,520.54 207,488.16 207,486.84 207.53,485.57 208.46,484.63 216.37,476.72 223.58,469.51 242.84,450.26 259.79,433.3 259.79,433.3 273.92,419.17 279.92,413.17 279.92,413.17 284.16,408.93 287.34,405.75 287.34,405.75 288.05,405.05 L 288.05,412.12 261.88,385.95 268.95,385.95 178.54,476.37 175,472.84 178.54,469.3 C 178.56,469.33 178.56,469.33 178.7,469.46 181.85,472.61 179.62,478 175.16,478 L 175,478 175,473 180,473 180,658 C 180,660.76 177.76,663 175,663 L 55,663 C 52.24,663 50,660.76 50,658 50,657.1 50,657.1 50,652.77 50,646.84 50,646.84 50,637.89 50,615.76 50,615.76 50,583.96 50,508.27 50,508.27 50,413.16 50,411.84 50.53,410.57 51.46,409.63 55.66,405.43 60.39,400.71 65.63,395.46 L 65.63,395.46 C 72.77,388.33 78.71,382.38 89.63,371.46 90.57,370.53 91.84,370 93.16,370 112.43,370 112.43,370 133.5,370 134.59,370 134.59,370 135.68,370 164.47,370 164.47,370 188.28,370 198.38,370 198.38,370 205.49,370 210.82,370 210.82,370 212,370 L 207,375 207,338 212,343 93.33,343 C 92,343 90.73,342.47 89.79,341.54 83,334.75 83,334.75 74.97,326.71 68.15,319.89 68.15,319.89 61.22,312.96 58.62,310.36 58.62,310.36 56.07,307.81 53.73,305.48 53.73,305.48 51.46,303.21 50.53,302.27 50,301 50,299.67 50,245.59 50,208.9 50,137.48 50,107.56 50,107.56 50,86.81 50,78.43 50,78.43 50,72.88 50,68.84 50,68.84 50,68 50,65.24 52.24,63 55,63 L 175,63 C 177.76,63 180,65.24 180,68 L 180,253 175,253 175,248 175.16,248 C 179.62,248 181.85,253.39 178.7,256.54 178.56,256.67 178.56,256.67 178.54,256.7 L 175,253.16 178.54,249.63 268.95,340.05 261.88,340.05 288.05,313.88 288.05,320.95 C 287.34,320.25 287.34,320.25 284.16,317.07 279.92,312.83 279.92,312.83 273.92,306.83 259.79,292.7 259.79,292.7 242.84,275.74 223.58,256.49 223.58,256.49 208.46,241.37 207.53,240.43 207,239.16 207,237.84 207,205.46 207,205.46 207,160.5 207,125.81 207,125.81 207,96.91 207,84.62 207,84.62 207,75.95 207,69.45 207,69.45 207,68 207,65.24 209.24,63 212,63 L 347,63 C 349.76,63 352,65.24 352,68 Z M 352,68" />
    <rect id="timberHole88-end" stroke="none" fill="rgb(128, 128, 128)" x="87" y="126" width="1" height="1" />
    <rect id="timberHole88-ball" stroke="none" fill="rgb(128, 128, 128)" x="86" y="603" width="1" height="1" />
    <path id="timberHole88-bezier4" stroke="none" fill="rgb(173, 108, 27)" d="M 342,68 L 347,73 212,73 217,68 C 217,69.45 217,69.45 217,75.95 217,84.62 217,84.62 217,96.91 217,125.81 217,125.81 217,160.5 217,205.46 217,205.46 217,237.84 L 215.54,234.3 C 230.65,249.42 230.65,249.42 249.91,268.67 266.86,285.63 266.86,285.63 280.99,299.76 286.99,305.76 286.99,305.76 291.23,310 294.41,313.18 294.41,313.18 295.12,313.88 297.07,315.84 297.07,319 295.12,320.95 L 268.95,347.12 C 267,349.07 263.84,349.07 261.88,347.12 L 171.46,256.7 C 169.51,254.75 169.51,251.58 171.46,249.63 171.49,249.6 171.49,249.6 171.63,249.46 L 175.16,253 175.16,258 175,258 C 172.24,258 170,255.76 170,253 L 170,68 175,73 55,73 60,68 C 60,68.84 60,68.84 60,72.88 60,78.43 60,78.43 60,86.81 60,107.56 60,107.56 60,137.48 60,208.9 60,245.59 60,299.67 L 55,299.67 58.54,296.13 C 60.8,298.4 60.8,298.4 63.14,300.74 65.69,303.29 65.69,303.29 68.29,305.89 75.22,312.82 75.22,312.82 82.04,319.64 90.07,327.67 90.07,327.67 96.87,334.46 L 93.33,333 212,333 C 214.76,333 217,335.24 217,338 L 217,375 C 217,377.76 214.76,380 212,380 210.82,380 210.82,380 205.49,380 198.38,380 198.38,380 188.28,380 164.47,380 164.47,380 135.68,380 134.59,380 134.59,380 133.5,380 112.43,380 112.43,380 93.16,380 L 96.7,378.54 C 85.78,389.45 79.84,395.4 72.7,402.53 L 72.7,402.53 C 67.46,407.78 62.73,412.5 58.54,416.7 L 60,413.16 C 60,508.27 60,508.27 60,583.96 60,615.76 60,615.76 60,637.89 60,646.84 60,646.84 60,652.77 60,657.1 60,657.1 60,658 L 55,653 175,653 170,658 170,473 C 170,470.24 172.24,468 175,468 L 175.16,468 175.16,473 171.63,476.54 C 171.49,476.4 171.49,476.4 171.46,476.37 169.51,474.42 169.51,471.25 171.46,469.3 L 261.88,378.88 C 263.84,376.93 267,376.93 268.95,378.88 L 295.12,405.05 C 297.07,407 297.07,410.16 295.12,412.12 294.41,412.82 294.41,412.82 291.23,416 286.99,420.24 286.99,420.24 280.99,426.24 266.86,440.37 266.86,440.37 249.91,457.33 230.65,476.58 223.45,483.79 215.54,491.7 L 217,488.16 C 217,520.54 217,520.54 217,565.5 217,600.19 217,600.19 217,629.09 217,641.38 217,641.38 217,650.05 217,656.55 217,656.55 217,658 L 212,653 347,653 342,658 342,68 Z M 342,68" />
</svg>
