<?xml version="1.0" encoding="UTF-8"?>
<!DOCTYPE svg PUBLIC "-//W3C//DTD SVG 1.1//EN" "http://www.w3.org/Graphics/SVG/1.1/DTD/svg11.dtd">
<svg version="1.1" xmlns="http://www.w3.org/2000/svg" xmlns:xlink="http://www.w3.org/1999/xlink" width="400" height="700"  xml:space="preserve" id="timberHole55">
    <!-- Generated by PaintCode - http://www.paintcodeapp.com -->
    <defs>
        <style type="text/css"><![CDATA[
            @media all {
                image.highRes_resource {display:none}
            }
            @media only screen and (-webkit-min-device-pixel-ratio: 2),
                   only screen and (min--moz-device-pixel-ratio: 2),
                   only screen and (-o-min-device-pixel-ratio: 2/1),
                   only screen and (min-device-pixel-ratio: 2),
                   only screen and (min-resolution: 2dppx) {
                image.lowRes_resource  {display:none}
                image.highRes_resource {display:inline}
            }
        ]]></style>
        <pattern id="timberHole55-plaid-bezier2" x="49" y="118" width="100" height="100" patternUnits="userSpaceOnUse" viewBox="0 0 100 100">
            <image xlink:href="images/plaid.png" x="0" y="0" width="100" height="100" />
            <image xlink:href="images/plaid_2x.png" x="0" y="0" width="100" height="100" class="highRes_resource" />
        </pattern>
    </defs>
    <path id="timberHole55-bezier3" stroke="rgb(87, 54, 14)" stroke-width="24" stroke-linejoin="round" stroke-miterlimit="10" fill="none" d="M 327,103 C 327,149.39 288.27,187 240.5,187 237.97,187 235.47,186.89 233,186.69 233,222.68 233,261.79 233,301.14 218.93,314.86 208,325.53 208,325.53 L 228.95,347 C 228.95,347 237.4,338.76 249,327.44 249,388.55 249,593.45 249,670.96 231.91,678.07 213.16,682 193.5,682 113.69,682 49,617.31 49,537.5 49,471.39 93.4,415.65 154,398.47 154,367.94 154,336.03 154,304.24 135.16,296.3 121,262.5 121,222 121,204.13 123.76,187.56 128.46,173.94 129.91,169.73 131.55,165.8 133.35,162.2 149.98,178.43 163.9,192 163.9,192 L 184.85,170.53 C 184.85,170.53 170.5,156.53 153.52,139.97 153.68,139.9 153.84,139.83 154,139.76 154,102.52 154,71.03 154,49.55 154,30.22 154,19 154,19 L 233,19 C 233,19 233,19.11 233,19.31 235.47,19.11 237.97,19 240.5,19 288.27,19 327,56.61 327,103 Z M 160.5,517 C 134.82,517 114,527.52 114,540.5 114,553.48 134.82,564 160.5,564 186.18,564 207,553.48 207,540.5 207,537.17 205.63,534.01 203.17,531.14 196.01,522.82 179.6,517 160.5,517 Z M 160.5,517" />
    <path id="timberHole55-bezier2" stroke="none" fill="url(#timberHole55-plaid-bezier2)" d="M 326.5,102 C 326.5,148.39 287.77,186 240,186 237.47,186 234.97,185.89 232.5,185.69 232.5,221.68 232.5,260.79 232.5,300.14 218.43,313.86 207.5,324.53 207.5,324.53 L 228.45,346 C 228.45,346 236.9,337.76 248.5,326.44 248.5,387.55 248.5,592.45 248.5,669.96 231.41,677.07 212.66,681 193,681 113.19,681 48.5,616.31 48.5,536.5 48.5,470.39 92.9,414.65 153.5,397.47 153.5,366.94 153.5,335.03 153.5,303.24 134.66,295.3 120.5,261.5 120.5,221 120.5,203.13 123.26,186.56 127.96,172.94 129.41,168.73 131.05,164.8 132.85,161.2 149.48,177.43 163.4,191 163.4,191 L 184.35,169.53 C 184.35,169.53 170,155.53 153.02,138.97 153.18,138.9 153.34,138.83 153.5,138.76 153.5,101.52 153.5,70.03 153.5,48.55 153.5,29.22 153.5,18 153.5,18 L 232.5,18 C 232.5,18 232.5,18.11 232.5,18.31 234.97,18.11 237.47,18 240,18 287.77,18 326.5,55.61 326.5,102 Z M 160,516 C 134.32,516 113.5,526.52 113.5,539.5 113.5,552.48 134.32,563 160,563 185.68,563 206.5,552.48 206.5,539.5 206.5,536.17 205.13,533.01 202.67,530.14 195.51,521.82 179.1,516 160,516 Z M 160,516" />
    <path id="timberHole55-bezier" stroke="none" fill="rgb(173, 108, 27)" d="M 332,102 C 332,151.19 291,191 240.5,191 237.85,191 235.21,190.89 232.58,190.67 L 233,185.69 238,185.69 C 238,216.09 238,244.58 238,300.14 238,301.49 237.46,302.78 236.49,303.72 230.34,309.72 226.33,313.63 218.72,321.06 215.57,324.13 215.57,324.13 213.42,326.22 211.83,327.77 211.83,327.77 211.49,328.1 L 211.58,321.03 232.53,342.51 225.46,342.42 C 226.51,341.39 226.51,341.39 231.13,336.88 237.2,330.96 237.2,330.96 245.51,322.86 248.68,319.77 254,322.02 254,326.44 254,395.26 254,395.26 254,504.5 254,601.29 254,601.29 254,669.96 254,671.98 252.79,673.8 250.92,674.57 232.88,682.08 213.46,686 193.5,686 110.93,686 44,619.07 44,536.5 44,469.21 88.85,410.74 152.64,392.65 L 149,397.47 C 149,368.33 149,336.79 149,303.24 L 152.06,307.84 C 130.65,298.83 116,262.77 116,221 116,203.02 118.72,185.84 123.73,171.31 125.25,166.9 126.98,162.77 128.88,158.96 130.4,155.94 134.42,155.26 136.85,157.62 144.12,164.72 151.41,171.83 158.35,178.61 162.26,182.42 162.26,182.42 164.96,185.05 166.96,187 166.96,187 167.39,187.42 L 160.32,187.51 181.27,166.03 181.36,173.1 C 180.91,172.67 180.91,172.67 178.85,170.66 176.08,167.95 176.08,167.95 172.06,164.04 162.43,154.65 162.43,154.65 150.03,142.55 147.51,140.09 148.26,135.86 151.47,134.41 151.66,134.33 151.86,134.24 152.06,134.16 L 154,138.76 149,138.76 C 149,106.42 149,75.99 149,48.55 149,35.07 149,35.07 149,26.03 149,19.4 149,19.4 149,18 149,15.24 151.24,13 154,13 L 233,13 C 235.76,13 238,15.24 238,18 238,18.05 238,18.05 238,18.31 L 233,18.31 232.58,13.33 C 235.2,13.11 237.85,13 240.5,13 291,13 332,52.81 332,102 Z M 332,102" />
    <rect id="timberHole55-end" stroke="none" fill="rgb(128, 128, 128)" x="162" y="614" width="1" height="1" />
    <rect id="timberHole55-ball" stroke="none" fill="rgb(128, 128, 128)" x="293" y="106" width="1" height="1" />
    <path id="timberHole55-bezier4" stroke="none" fill="rgb(173, 108, 27)" d="M 322,102 C 322,58.4 285.54,23 240.5,23 238.12,23 235.76,23.1 233.42,23.29 230.5,23.54 228,21.24 228,18.31 228,18.05 228,18.05 228,18 L 233,18 233,23 154,23 159,18 C 159,19.4 159,19.4 159,26.03 159,35.07 159,35.07 159,48.55 159,75.99 159,106.42 159,138.76 159,140.77 157.79,142.59 155.94,143.37 155.81,143.43 155.69,143.48 155.58,143.53 L 153.52,138.97 157.02,135.39 C 169.42,147.49 169.42,147.49 179.04,156.88 183.06,160.8 183.06,160.8 185.83,163.5 187.89,165.51 187.89,165.51 188.34,165.95 190.32,167.87 190.35,171.04 188.43,173.02 L 167.48,194.49 C 165.55,196.47 162.38,196.51 160.41,194.58 159.97,194.15 159.97,194.15 157.97,192.2 155.28,189.58 155.28,189.58 151.37,185.76 144.42,178.99 137.14,171.88 129.86,164.78 L 133.35,161.2 137.82,163.44 C 136.12,166.84 134.57,170.57 133.18,174.57 128.54,188.02 126,204.11 126,221 126,259.19 139.15,291.56 155.94,298.63 157.79,299.41 159,301.22 159,303.24 159,336.79 159,368.33 159,397.47 159,399.7 157.52,401.67 155.36,402.28 95.85,419.15 54,473.71 54,536.5 54,613.54 116.46,676 193.5,676 212.14,676 230.25,672.35 247.08,665.34 L 244,669.96 C 244,601.29 244,601.29 244,504.5 244,395.26 244,395.26 244,326.44 L 252.49,330.02 C 244.18,338.12 244.18,338.12 238.12,344.04 233.5,348.55 233.5,348.55 232.44,349.58 230.46,351.51 227.3,351.47 225.37,349.49 L 204.42,328.02 C 202.49,326.04 202.53,322.87 204.51,320.95 204.85,320.61 204.85,320.61 206.44,319.07 208.58,316.97 208.58,316.97 211.73,313.9 219.35,306.47 223.35,302.56 229.51,296.56 L 228,300.14 C 228,244.58 228,216.09 228,185.69 228,182.76 230.5,180.46 233.42,180.71 235.76,180.9 238.12,181 240.5,181 285.54,181 322,145.6 322,102 Z M 322,102" />
    <path id="timberHole55-bezier5" stroke="none" fill="rgb(173, 108, 27)" d="M 160.5,521 C 137.22,521 119,530.21 119,539.5 119,548.79 137.22,558 160.5,558 183.78,558 202,548.79 202,539.5 202,537.51 201.15,535.47 199.38,533.4 193.15,526.16 177.87,521 160.5,521 Z M 160.5,521" />
    <path id="timberHole55-bezier6" stroke="none" fill="rgb(173, 108, 27)" d="M 160.5,511 C 180.51,511 198.54,517.09 206.96,526.88 210.22,530.67 212,534.97 212,539.5 212,556.17 188.59,568 160.5,568 132.41,568 109,556.17 109,539.5 109,522.83 132.41,511 160.5,511 Z M 160.5,511" />
</svg>
