<?xml version="1.0" encoding="UTF-8"?>
<!DOCTYPE svg PUBLIC "-//W3C//DTD SVG 1.1//EN" "http://www.w3.org/Graphics/SVG/1.1/DTD/svg11.dtd">
<svg version="1.1" xmlns="http://www.w3.org/2000/svg" xmlns:xlink="http://www.w3.org/1999/xlink" width="400" height="700"  xml:space="preserve" id="timberHole22">
    <!-- Generated by PaintCode - http://www.paintcodeapp.com -->
    <defs>
        <radialGradient id="timberHole22-gradient-bezier3" cx="265.13" cy="188.48"  r="314.36" fx="276.83" fy="176.78" gradientUnits="userSpaceOnUse" >
            <stop offset="0.069" stop-color="rgb(230, 169, 93)" stop-opacity="1" />
            <stop offset="1" stop-color="rgb(128, 78, 15)" stop-opacity="1" />
        </radialGradient>
        <filter id="timberHole22-shadow-outer" filterUnits="userSpaceOnUse">
            <feGaussianBlur stdDeviation="4" />
            <feOffset dx="0" dy="-0" result="blur" />
            <feFlood flood-color="rgb(0, 0, 0)" flood-opacity="1" />
            <feComposite in2="blur" operator="in" result="colorShadow" />
            <feComposite in="SourceGraphic" in2="colorShadow" operator="over" />
        </filter>
        <radialGradient id="timberHole22-gradient-bezier" cx="265.59" cy="190.02"  r="314.36" fx="277.29" fy="178.32" gradientUnits="userSpaceOnUse" >
            <stop offset="0.069" stop-color="rgb(230, 169, 93)" stop-opacity="1" />
            <stop offset="1" stop-color="rgb(128, 78, 15)" stop-opacity="1" />
        </radialGradient>
        <radialGradient id="timberHole22-gradient-bezier2" cx="129.97" cy="188.1"  r="314.36" fx="141.67" fy="176.4" gradientUnits="userSpaceOnUse" >
            <stop offset="0.069" stop-color="rgb(230, 169, 93)" stop-opacity="1" />
            <stop offset="1" stop-color="rgb(128, 78, 15)" stop-opacity="1" />
        </radialGradient>
        <radialGradient id="timberHole22-gradient-bezier4" cx="129.45" cy="189.67"  r="314.36" fx="141.15" fy="177.97" gradientUnits="userSpaceOnUse" >
            <stop offset="0.069" stop-color="rgb(230, 169, 93)" stop-opacity="1" />
            <stop offset="1" stop-color="rgb(128, 78, 15)" stop-opacity="1" />
        </radialGradient>
        <radialGradient id="timberHole22-gradient-bezier5" cx="197.56" cy="239.71"  r="314.36" fx="209.26" fy="228" gradientUnits="userSpaceOnUse" >
            <stop offset="0.069" stop-color="rgb(230, 169, 93)" stop-opacity="1" />
            <stop offset="1" stop-color="rgb(128, 78, 15)" stop-opacity="1" />
        </radialGradient>
        <radialGradient id="timberHole22-gradient-bezier6" cx="197.58" cy="241.22"  r="314.36" fx="209.28" fy="229.52" gradientUnits="userSpaceOnUse" >
            <stop offset="0.069" stop-color="rgb(230, 169, 93)" stop-opacity="1" />
            <stop offset="1" stop-color="rgb(128, 78, 15)" stop-opacity="1" />
        </radialGradient>
        <radialGradient id="timberHole22-gradient-bezier7" cx="197.61" cy="546.39"  r="314.36" fx="209.31" fy="534.69" gradientUnits="userSpaceOnUse" >
            <stop offset="0.069" stop-color="rgb(230, 169, 93)" stop-opacity="1" />
            <stop offset="1" stop-color="rgb(128, 78, 15)" stop-opacity="1" />
        </radialGradient>
        <radialGradient id="timberHole22-gradient-bezier8" cx="197.61" cy="546.39"  r="314.36" fx="209.31" fy="534.69" gradientUnits="userSpaceOnUse" >
            <stop offset="0.069" stop-color="rgb(230, 169, 93)" stop-opacity="1" />
            <stop offset="1" stop-color="rgb(128, 78, 15)" stop-opacity="1" />
        </radialGradient>
        <radialGradient id="timberHole22-gradient-bezier9" cx="197.93" cy="358.39"  r="314.36" fx="209.63" fy="346.69" gradientUnits="userSpaceOnUse" >
            <stop offset="0.069" stop-color="rgb(230, 169, 93)" stop-opacity="1" />
            <stop offset="1" stop-color="rgb(128, 78, 15)" stop-opacity="1" />
        </radialGradient>
        <radialGradient id="timberHole22-gradient-bezier10" cx="197.93" cy="358.39"  r="314.36" fx="209.63" fy="346.69" gradientUnits="userSpaceOnUse" >
            <stop offset="0.069" stop-color="rgb(230, 169, 93)" stop-opacity="1" />
            <stop offset="1" stop-color="rgb(128, 78, 15)" stop-opacity="1" />
        </radialGradient>
    </defs>
    <rect id="timberHole22-end" stroke="none" fill="rgb(128, 128, 128)" x="207" y="97" width="1" height="1" />
    <rect id="timberHole22-ball" stroke="none" fill="rgb(128, 128, 128)" x="204" y="617" width="1" height="1" />
    <path id="timberHole22-bezier3" stroke="none" fill="url(#timberHole22-gradient-bezier3)" filter="url(#timberHole22-shadow-outer)" d="M 253.56,133.18 C 259.42,146.81 272.48,170.3 285.48,190.95 291.66,200.76 297.2,208.9 301.13,213.94 303.02,216.36 304.47,217.97 305.2,218.53 305.19,218.52 305.12,218.48 304.92,218.39 304.26,218.11 303.42,217.97 302.38,218.21 300.94,218.55 299.85,219.53 299.32,220.71 299.07,221.27 299,221.68 299,222 299,186.44 278.42,154.61 246.83,139.68 L 253.56,133.18 Z M 253.56,133.18" />
    <path id="timberHole22-bezier" stroke="none" fill="url(#timberHole22-gradient-bezier)" filter="url(#timberHole22-shadow-outer)" d="M 244.38,137.13 C 242.56,132.9 246.94,128.67 251.11,130.64 286.16,147.2 309,182.54 309,222 309,224.7 307.88,227.2 304.66,227.95 302.44,228.47 300.82,227.77 299.12,226.46 297.53,225.25 295.63,223.15 293.25,220.1 289.07,214.74 283.36,206.35 277.02,196.27 263.77,175.22 250.47,151.32 244.38,137.13 Z M 244.38,137.13" />
    <path id="timberHole22-bezier2" stroke="none" fill="url(#timberHole22-gradient-bezier2)" filter="url(#timberHole22-shadow-outer)" d="M 170.72,138.96 C 138.3,153.54 117,185.83 117,222 117,221.93 116.99,221.83 116.97,221.69 116.93,221.44 116.86,221.16 116.73,220.85 116.26,219.76 115.3,218.81 113.97,218.4 112.94,218.08 112.06,218.17 111.35,218.43 111.12,218.52 111.02,218.58 111,218.59 111.72,218.08 113.21,216.49 115.15,214.08 119.21,209.04 124.93,200.82 131.3,190.9 144.72,170.01 158.16,146.19 164.07,132.43 L 170.72,138.96 Z M 170.72,138.96" />
    <path id="timberHole22-bezier4" stroke="none" fill="url(#timberHole22-gradient-bezier4)" filter="url(#timberHole22-shadow-outer)" d="M 166.62,129.84 C 170.77,127.97 175.06,132.19 173.26,136.38 167.09,150.74 153.4,175 139.72,196.3 133.16,206.5 127.27,214.98 122.94,220.35 120.46,223.43 118.49,225.53 116.82,226.73 112.61,229.74 107,228 107,222 107,181.86 130.64,146.02 166.62,129.84 Z M 166.62,129.84" />
    <path id="timberHole22-bezier5" stroke="none" fill="url(#timberHole22-gradient-bezier5)" filter="url(#timberHole22-shadow-outer)" d="M 213.25,144.63 C 201.41,172.17 176.46,230.25 148.46,295.41 L 147.21,289.72 C 163.8,304.62 185.24,313 208,313 231.18,313 252.99,304.3 269.69,288.9 L 268.48,294.55 C 256.35,266.33 235.91,218.74 204.06,144.63 L 213.25,144.63 Z M 213.25,144.63" />
    <path id="timberHole22-bezier6" stroke="none" fill="url(#timberHole22-gradient-bezier6)" filter="url(#timberHole22-shadow-outer)" d="M 204.06,140.68 C 205.8,136.65 211.52,136.65 213.25,140.68 245.1,214.79 265.54,262.38 277.67,290.6 278.51,292.55 278.02,294.81 276.47,296.25 257.94,313.34 233.72,323 208,323 182.75,323 158.93,313.69 140.53,297.16 138.93,295.72 138.43,293.43 139.27,291.46 167.27,226.3 192.23,168.23 204.06,140.68 Z M 204.06,140.68" />
    <path id="timberHole22-bezier7" stroke="none" fill="url(#timberHole22-gradient-bezier7)" filter="url(#timberHole22-shadow-outer)" d="M 208.5,490 C 183.37,490 163,510.37 163,535.5 163,560.63 183.37,581 208.5,581 233.63,581 254,560.63 254,535.5 254,521.92 248.02,509.32 237.84,500.72 229.69,493.84 219.4,490 208.5,490 Z M 208.5,490" />
    <path id="timberHole22-bezier8" stroke="none" fill="url(#timberHole22-gradient-bezier8)" filter="url(#timberHole22-shadow-outer)" d="M 208.5,480 C 221.78,480 234.35,484.69 244.29,493.08 256.7,503.56 264,518.94 264,535.5 264,566.15 239.15,591 208.5,591 177.85,591 153,566.15 153,535.5 153,504.85 177.85,480 208.5,480 Z M 208.5,480" />
    <path id="timberHole22-bezier9" stroke="none" fill="url(#timberHole22-gradient-bezier9)" filter="url(#timberHole22-shadow-outer)" d="M 344.61,220.35 C 344.86,224.7 343.4,228.77 340.55,232.74 338.45,235.66 335.79,238.37 331.7,241.97 331.16,242.45 330.58,242.95 329.88,243.56 329.5,243.89 328.2,245.01 328.07,245.12 318.76,253.16 315.32,257.4 314.99,262.34 314.71,266.36 317.4,271.19 326.14,283.44 327.1,284.78 327.73,285.67 328.36,286.58 336.78,298.59 340.22,305.97 338.93,313.81 338.04,319.21 337.15,324.77 336.23,330.57 334.59,340.92 332.93,351.7 330.94,364.89 329.92,371.61 326.44,394.82 325.83,398.89 319.3,442.25 315.01,468.43 309.97,494.03 303.62,526.32 296.91,552.44 289.09,574.08 270.56,625.33 245.25,652 209,652 170.78,652 144.37,624.79 125.34,571.78 110.39,530.11 100.84,479.33 87.48,382.57 86.54,375.76 80.04,328 78.05,313.69 77.39,308.96 78.75,304.03 81.74,298.45 83.84,294.53 86.17,291.1 91,284.53 91.21,284.24 91.21,284.24 91.42,283.95 100.31,271.86 103.25,266.67 103.01,262.27 102.75,257.45 99.11,253 89.78,245.11 89.35,244.75 87.83,243.46 87.88,243.51 87.12,242.86 86.54,242.37 85.98,241.89 84.53,240.65 83.35,239.6 82.26,238.58 76.03,232.75 72.84,227.79 73,221.86 73.5,203.8 74.84,191.77 78.07,174.4 84.68,138.92 97.09,109.89 114.62,88.11 118.54,83.23 122.71,78.73 127.12,74.61 149.48,53.73 177.6,43 209,43 283.75,43 338.55,112.72 344.61,220.35 Z M 344.61,220.35" />
    <path id="timberHole22-bezier10" stroke="none" fill="url(#timberHole22-gradient-bezier10)" filter="url(#timberHole22-shadow-outer)" d="M 334.63,220.91 C 328.83,118.05 277.7,53 209,53 180.09,53 154.42,62.79 133.95,81.92 129.89,85.71 126.04,89.87 122.41,94.38 105.98,114.79 94.22,142.3 87.9,176.23 84.76,193.1 83.48,204.62 83,222.14 82.94,224.38 84.78,227.25 89.09,231.28 90.06,232.18 91.14,233.14 92.49,234.3 93.02,234.76 93.58,235.23 94.33,235.86 94.27,235.82 95.81,237.11 96.24,237.47 101.4,241.84 104.32,244.57 106.94,247.79 110.61,252.27 112.73,256.81 112.99,261.73 113.24,266.27 111.7,270.98 108.66,276.36 106.54,280.11 104.51,283.04 99.48,289.88 99.27,290.16 99.27,290.16 99.06,290.45 90.34,302.32 87.34,307.92 87.95,312.31 89.95,326.64 96.45,374.41 97.39,381.2 110.65,477.26 120.12,527.62 134.75,568.4 152.51,617.88 175.92,642 209,642 240.05,642 262.43,618.42 279.69,570.68 287.31,549.6 293.9,523.93 300.16,492.1 305.16,466.69 309.43,440.62 315.94,397.4 316.55,393.33 320.03,370.12 321.05,363.4 323.05,350.18 324.71,339.38 326.35,329 327.27,323.19 328.17,317.61 329.07,312.19 329.76,307.95 327.05,302.13 320.18,292.32 319.56,291.44 318.94,290.57 318,289.25 312.86,282.04 311.15,279.53 309.14,275.91 306.18,270.6 304.71,266.04 305.01,261.66 305.35,256.74 307.45,252.24 311.05,247.79 313.62,244.62 316.34,242.04 321.53,237.55 321.67,237.44 322.96,236.32 323.34,235.99 324.02,235.41 324.57,234.93 325.09,234.47 332.12,228.27 334.83,224.49 334.63,220.91 Z M 334.63,220.91" />
</svg>
