<?xml version="1.0" encoding="UTF-8"?>
<!DOCTYPE svg PUBLIC "-//W3C//DTD SVG 1.1//EN" "http://www.w3.org/Graphics/SVG/1.1/DTD/svg11.dtd">
<svg version="1.1" xmlns="http://www.w3.org/2000/svg" xmlns:xlink="http://www.w3.org/1999/xlink" width="400" height="700"  xml:space="preserve" id="timberHole66">
    <!-- Generated by PaintCode - http://www.paintcodeapp.com -->
    <defs>
        <radialGradient id="timberHole66-gradient-bezier" cx="191.16" cy="352.67"  r="303.64" fx="202.23" fy="341.6" gradientUnits="userSpaceOnUse" >
            <stop offset="0.035" stop-color="rgb(230, 169, 93)" stop-opacity="1" />
            <stop offset="1" stop-color="rgb(128, 78, 15)" stop-opacity="1" />
        </radialGradient>
        <filter id="timberHole66-shadow-outer" filterUnits="userSpaceOnUse">
            <feGaussianBlur stdDeviation="4" />
            <feOffset dx="0" dy="-0" result="blur" />
            <feFlood flood-color="rgb(0, 0, 0)" flood-opacity="1" />
            <feComposite in2="blur" operator="in" result="colorShadow" />
            <feComposite in="SourceGraphic" in2="colorShadow" operator="over" />
        </filter>
        <radialGradient id="timberHole66-gradient-bezier2" cx="191.16" cy="352.68"  r="303.64" fx="202.23" fy="341.61" gradientUnits="userSpaceOnUse" >
            <stop offset="0.035" stop-color="rgb(230, 169, 93)" stop-opacity="1" />
            <stop offset="1" stop-color="rgb(128, 78, 15)" stop-opacity="1" />
        </radialGradient>
    </defs>
    <rect id="timberHole66-end" stroke="none" fill="rgb(128, 128, 128)" x="168" y="104" width="1" height="1" />
    <rect id="timberHole66-ball" stroke="none" fill="rgb(128, 128, 128)" x="315" y="609" width="1" height="1" />
    <path id="timberHole66-bezier" stroke="none" fill="url(#timberHole66-gradient-bezier)" filter="url(#timberHole66-shadow-outer)" d="M 204.22,49.52 C 240.32,67.41 252.38,85.41 243.01,105.71 239.26,113.85 232.23,121.97 221.21,131.74 216.97,135.5 212.32,139.37 205.76,144.64 204.56,145.61 203.31,146.61 201.66,147.93 201.62,147.97 198.43,150.52 197.5,151.26 194.09,153.99 191.58,156.02 189.11,158.03 172.72,171.43 161.76,181.76 153.14,192.75 142.6,206.17 136.78,219.42 135.99,233.29 135.51,241.68 138.24,249.24 144.01,256.63 148.82,262.8 155.27,268.44 165.1,275.58 167.4,277.25 175.7,283.13 177.41,284.37 182.1,287.76 185.49,290.42 188.35,293.06 190.49,295.03 192.27,296.93 193.72,298.85 208.54,318.38 230.14,332.46 259.96,344.36 268.46,347.75 277.15,350.81 288.63,354.57 291.76,355.59 302.46,359.04 302.24,358.97 307.5,360.67 311.33,361.94 314.92,363.19 330.29,368.54 339.72,373.04 345.9,378.7 353.96,386.09 355.76,395.33 350.72,406.04 339.75,429.34 338.26,461.24 343.52,507.03 344.68,517.22 346.04,527.12 348.25,542.25 352.77,573.13 353.28,576.83 354.48,588.24 356.13,604.08 356.49,616.31 355.32,626.25 352.37,651.3 338.85,662.5 313.49,657.02 303.44,654.85 294.59,647.77 286.2,636.09 279.19,626.34 272.48,613.42 264.78,595.6 259.92,584.36 239.32,532.2 233.41,518.38 217.01,480.04 201.45,452.1 182.75,430.4 169.01,414.45 150.04,402.52 124.77,392.32 116.37,388.93 107.79,385.9 96.4,382.18 93.45,381.22 83.75,378.1 83.03,377.87 77.92,376.21 74.17,374.96 70.69,373.74 57.52,369.11 49.27,365.14 43.86,360.21 36.74,353.74 35.03,345.63 39.35,336.45 50.36,313.07 55.86,283.17 60.7,232.02 61.21,226.62 61.34,225.16 62.54,211.83 64.24,192.98 65.2,183.11 66.49,172.42 71.13,133.84 81.57,96.95 98.83,71.31 123.12,35.2 158.46,25.33 204.34,49.58 L 204.22,49.52 Z M 204.22,49.52" />
    <path id="timberHole66-bezier2" stroke="none" fill="url(#timberHole66-gradient-bezier2)" filter="url(#timberHole66-shadow-outer)" d="M 199.78,58.48 L 199.66,58.42 C 158.41,36.62 128.63,44.94 107.13,76.89 90.94,100.94 80.89,136.47 76.42,173.62 75.15,184.17 74.19,193.97 72.5,212.72 71.3,226.07 71.17,227.54 70.65,232.96 65.71,285.24 60.06,315.94 48.4,340.7 45.97,345.87 46.68,349.27 50.59,352.82 54.72,356.57 62.04,360.1 74.01,364.31 77.39,365.5 81.07,366.72 86.11,368.36 86.81,368.58 96.52,371.71 99.5,372.68 111.09,376.46 119.86,379.55 128.51,383.05 155.13,393.8 175.38,406.52 190.33,423.87 209.83,446.51 225.84,475.24 242.6,514.45 248.59,528.45 269.19,580.59 273.96,591.63 289.23,626.99 301.61,644.22 315.6,647.24 334.85,651.4 343.09,644.58 345.38,625.08 346.45,616.02 346.12,604.45 344.53,589.28 343.36,578.07 342.84,574.39 338.35,543.7 336.13,528.47 334.76,518.48 333.58,508.17 328.13,460.65 329.69,427.23 341.67,401.78 347.46,389.5 339.71,382.4 311.63,372.63 308.13,371.42 304.36,370.16 299.15,368.48 299.39,368.56 288.68,365.1 285.52,364.07 273.86,360.26 264.99,357.13 256.26,353.65 224.9,341.14 201.86,326.12 185.76,304.89 184.69,303.49 183.31,302.01 181.58,300.41 179.06,298.1 175.95,295.65 171.55,292.47 169.9,291.27 161.58,285.39 159.22,283.67 148.7,276.03 141.64,269.86 136.12,262.78 128.95,253.59 125.38,243.71 126.01,232.71 126.93,216.6 133.56,201.49 145.27,186.57 154.45,174.88 165.87,164.11 182.79,150.29 185.29,148.25 187.82,146.2 191.25,143.45 192.18,142.71 195.37,140.16 195.41,140.13 197.06,138.81 198.3,137.82 199.49,136.85 205.94,131.67 210.48,127.89 214.57,124.26 224.64,115.33 230.89,108.11 233.93,101.52 240.45,87.4 231.65,74.28 199.78,58.48 Z M 199.78,58.48" />
</svg>
