<?xml version="1.0" encoding="UTF-8"?>
<!DOCTYPE svg PUBLIC "-//W3C//DTD SVG 1.1//EN" "http://www.w3.org/Graphics/SVG/1.1/DTD/svg11.dtd">
<svg version="1.1" xmlns="http://www.w3.org/2000/svg" xmlns:xlink="http://www.w3.org/1999/xlink" width="400" height="700"  xml:space="preserve" id="timberHole22">
    <!-- Generated by PaintCode - http://www.paintcodeapp.com -->
    <defs>
        <style type="text/css"><![CDATA[
            @media all {
                image.highRes_resource {display:none}
            }
            @media only screen and (-webkit-min-device-pixel-ratio: 2),
                   only screen and (min--moz-device-pixel-ratio: 2),
                   only screen and (-o-min-device-pixel-ratio: 2/1),
                   only screen and (min-device-pixel-ratio: 2),
                   only screen and (min-resolution: 2dppx) {
                image.lowRes_resource  {display:none}
                image.highRes_resource {display:inline}
            }
        ]]></style>
        <pattern id="timberHole22-plaid-bezier3" x="35" y="268" width="100" height="100" patternUnits="userSpaceOnUse" viewBox="0 0 100 100">
            <image xlink:href="images/plaid.png" x="0" y="0" width="100" height="100" />
            <image xlink:href="images/plaid_2x.png" x="0" y="0" width="100" height="100" class="highRes_resource" />
        </pattern>
        <pattern id="timberHole22-plaid-bezier2" x="35" y="268" width="100" height="100" patternUnits="userSpaceOnUse" viewBox="0 0 100 100">
            <image xlink:href="images/plaid.png" x="0" y="0" width="100" height="100" />
            <image xlink:href="images/plaid_2x.png" x="0" y="0" width="100" height="100" class="highRes_resource" />
        </pattern>
    </defs>
    <path id="timberHole22-bezier3" stroke="rgb(87, 54, 14)" stroke-width="24" stroke-linejoin="round" stroke-miterlimit="10" fill="url(#timberHole22-plaid-bezier3)" d="M 358,168 C 358,168 357.5,581 357.5,581 L 236.5,581 236.5,461.5 296.5,461.5 C 296.5,385.39 296.5,289.99 296.5,229 L 96,229 C 96,289.85 96,384.97 96,461 L 156.5,461 156.5,580.5 96,580.5 C 96,580.83 96,581 96,581 L 35,581 35,168 358,168 358,168 Z M 358,168" />
    <path id="timberHole22-bezier2" stroke="none" fill="url(#timberHole22-plaid-bezier2)" d="M 358,168 C 358,168 357.5,581 357.5,581 L 236.5,581 236.5,461.5 296.5,461.5 C 296.5,385.39 296.5,289.99 296.5,229 L 96,229 C 96,289.85 96,384.97 96,461 L 156.5,461 156.5,580.5 96,580.5 C 96,580.83 96,581 96,581 L 35,581 35,168 358,168 358,168 Z M 358,168" />
    <path id="timberHole22-bezier" stroke="none" fill="rgb(173, 108, 27)" d="M 353,168 L 363,168.01 363,168.01 363,168.01 C 363,168.01 363,168.01 363,168.01 363,168.02 363,168.02 363,168.03 363,168.05 363,168.05 363,168.08 363,168.17 363,168.17 363,168.31 363,168.65 363,168.65 363,169.19 363,170.55 363,170.55 362.99,172.65 362.99,177.89 362.99,177.89 362.98,185.75 362.96,205.11 362.96,205.11 362.92,232.54 362.84,297.07 362.84,297.07 362.75,374.51 362.66,451.94 362.66,451.94 362.58,516.47 362.54,543.9 362.54,543.9 362.52,563.26 362.51,571.12 362.51,571.12 362.51,576.37 362.5,580.2 362.5,580.2 362.5,581.01 362.5,583.77 360.26,586 357.5,586 L 236.5,586 C 233.74,586 231.5,583.76 231.5,581 L 231.5,461.5 C 231.5,458.74 233.74,456.5 236.5,456.5 L 296.5,456.5 291.5,461.5 C 291.5,419.24 291.5,419.24 291.5,374.5 291.5,294.68 291.5,294.68 291.5,229 L 296.5,234 96,234 101,229 C 101,263.91 101,311.4 101,374.5 101,399.07 101,418.97 101,461 L 96,456 156.5,456 C 159.26,456 161.5,458.24 161.5,461 L 161.5,580.5 C 161.5,583.26 159.26,585.5 156.5,585.5 L 96,585.5 96,580.5 101,580.5 C 101,580.92 101,580.92 101,581 101,583.76 98.76,586 96,586 L 35,586 C 32.24,586 30,583.76 30,581 L 30,168 C 30,165.24 32.24,163 35,163 L 358,163 C 360.76,163 363,165.24 363,168 L 363,168 358,168 353,168 Z M 353,168" />
    <rect id="timberHole22-end" stroke="none" fill="rgb(128, 128, 128)" x="115" y="518" width="1" height="1" />
    <rect id="timberHole22-ball" stroke="none" fill="rgb(128, 128, 128)" x="273" y="520" width="1" height="1" />
    <path id="timberHole22-bezier4" stroke="none" fill="rgb(173, 108, 27)" d="M 363,168 C 363,174.67 353,174.67 353,168 L 353,168 358,168 358,173 35,173 40,168 40,581 35,576 96,576 96,581 91,581 C 91,580.92 91,580.92 91,580.5 91,577.74 93.24,575.5 96,575.5 L 156.5,575.5 151.5,580.5 151.5,461 156.5,466 96,466 C 93.24,466 91,463.76 91,461 91,418.97 91,399.07 91,374.5 91,311.4 91,263.91 91,229 91,226.24 93.24,224 96,224 L 296.5,224 C 299.26,224 301.5,226.24 301.5,229 301.5,294.68 301.5,294.68 301.5,374.5 301.5,419.24 301.5,419.24 301.5,461.5 301.5,464.26 299.26,466.5 296.5,466.5 L 236.5,466.5 241.5,461.5 241.5,581 236.5,576 357.5,576 352.5,580.99 C 352.5,580.19 352.5,580.19 352.51,576.36 352.51,571.11 352.51,571.11 352.52,563.25 352.54,543.89 352.54,543.89 352.58,516.46 352.66,451.93 352.66,451.93 352.75,374.49 352.84,297.06 352.84,297.06 352.92,232.53 352.96,205.1 352.96,205.1 352.98,185.74 352.99,177.88 352.99,177.88 352.99,172.63 353,170.54 353,170.54 353,169.18 353,168.64 353,168.64 353,168.29 353,168.16 353,168.16 353,168.07 353,168.04 353,168.04 353,168.01 353,168.01 353,168.01 353,168 353,168 353,168 353,168 L 353,168 353,168 353,168 363,168 Z M 363,168" />
</svg>
