<?xml version="1.0" encoding="UTF-8"?>
<!DOCTYPE svg PUBLIC "-//W3C//DTD SVG 1.1//EN" "http://www.w3.org/Graphics/SVG/1.1/DTD/svg11.dtd">
<svg version="1.1" xmlns="http://www.w3.org/2000/svg" xmlns:xlink="http://www.w3.org/1999/xlink" width="400" height="700"  xml:space="preserve" id="timberHole77">
    <!-- Generated by PaintCode - http://www.paintcodeapp.com -->
    <defs>
        <style type="text/css"><![CDATA[
            @media all {
                image.highRes_resource {display:none}
            }
            @media only screen and (-webkit-min-device-pixel-ratio: 2),
                   only screen and (min--moz-device-pixel-ratio: 2),
                   only screen and (-o-min-device-pixel-ratio: 2/1),
                   only screen and (min-device-pixel-ratio: 2),
                   only screen and (min-resolution: 2dppx) {
                image.lowRes_resource  {display:none}
                image.highRes_resource {display:inline}
            }
        ]]></style>
        <pattern id="timberHole77-plaid-bezier2" x="34" y="213" width="100" height="100" patternUnits="userSpaceOnUse" viewBox="0 0 100 100">
            <image xlink:href="images/plaid.png" x="0" y="0" width="100" height="100" />
            <image xlink:href="images/plaid_2x.png" x="0" y="0" width="100" height="100" class="highRes_resource" />
        </pattern>
    </defs>
    <path id="timberHole77-bezier3" stroke="rgb(87, 54, 14)" stroke-width="24" stroke-linejoin="round" stroke-miterlimit="10" fill="none" d="M 218.49,112.5 C 240.39,112.5 258.32,112.5 258.32,112.5 264.86,112.61 271.23,113.75 277.36,115.84 297.89,155.75 326.12,210.63 346.94,251.08 346.18,281.21 338.72,308.78 326.71,330.59 305.42,342.04 281.7,354.8 267.18,362.61 250.25,329.72 237.9,305.7 237.9,305.7 L 205,322.63 C 205,322.63 230.44,372.08 258.32,426.27 258.32,478.59 258.32,528.48 258.32,567.59 230.8,514.1 205.9,465.7 205.9,465.7 L 173,482.63 C 173,482.63 196.05,527.44 222.31,578.48 203.41,588.65 135.7,625.07 104.12,642.05 81.78,598.62 53.18,543.02 34.12,505.98 34.91,483.38 39.47,462.27 46.88,444.02 77.57,427.51 117.85,405.85 136.48,395.83 149.53,421.19 158.43,438.5 158.43,438.5 L 191.33,421.57 C 191.33,421.57 161.57,363.73 131.16,304.61 131.16,255.65 131.16,210.36 131.16,176.06 159.79,231.71 186.43,283.5 186.43,283.5 L 219.33,266.57 C 219.33,266.57 188.19,206.04 157.07,145.54 174.51,136.15 198.72,123.13 218.49,112.5 Z M 218.49,112.5" />
    <path id="timberHole77-bezier2" stroke="none" fill="url(#timberHole77-plaid-bezier2)" d="M 218.49,113 C 240.39,113 258.32,113 258.32,113 264.86,113.11 271.23,114.25 277.36,116.34 297.89,156.25 326.12,211.13 346.94,251.58 346.18,281.71 338.72,309.28 326.71,331.09 305.42,342.54 281.7,355.3 267.18,363.11 250.25,330.22 237.9,306.2 237.9,306.2 L 205,323.13 C 205,323.13 230.44,372.58 258.32,426.77 258.32,479.09 258.32,528.98 258.32,568.09 230.8,514.6 205.9,466.2 205.9,466.2 L 173,483.13 C 173,483.13 196.05,527.94 222.31,578.98 203.41,589.15 135.7,625.57 104.12,642.55 81.78,599.12 53.18,543.52 34.12,506.48 34.91,483.88 39.47,462.77 46.88,444.52 77.57,428.01 117.85,406.35 136.48,396.33 149.53,421.69 158.43,439 158.43,439 L 191.33,422.07 C 191.33,422.07 161.57,364.23 131.16,305.11 131.16,256.15 131.16,210.86 131.16,176.56 159.79,232.21 186.43,284 186.43,284 L 219.33,267.07 C 219.33,267.07 188.19,206.54 157.07,146.04 174.51,136.65 198.72,123.63 218.49,113 Z M 218.49,113" />
    <path id="timberHole77-bezier" stroke="none" fill="rgb(173, 108, 27)" d="M 218.49,108 C 234.42,108 234.42,108 246.61,108 251.69,108 251.69,108 255.17,108 257.76,108 257.76,108 258.32,108 265.39,108.11 272.28,109.33 278.97,111.6 280.19,112.02 281.21,112.9 281.8,114.05 298.59,146.67 316.45,181.4 351.38,249.29 351.77,250.04 351.96,250.87 351.93,251.71 351.18,281.91 343.81,310.41 331.09,333.5 330.62,334.35 329.92,335.04 329.08,335.49 322.34,339.12 322.34,339.12 315.49,342.8 L 315.49,342.8 C 301.49,350.33 289.65,356.7 269.54,367.51 267.08,368.84 264.01,367.88 262.73,365.4 250.61,341.84 250.61,341.84 241.75,324.61 238.11,317.54 238.11,317.54 235.65,312.76 233.84,309.24 233.84,309.24 233.46,308.49 L 240.19,310.65 207.29,327.58 209.45,320.84 C 209.64,321.23 209.64,321.23 210.59,323.07 211.9,325.6 211.9,325.6 213.86,329.42 218.7,338.84 218.7,338.84 225.65,352.34 242.16,384.43 242.16,384.43 262.76,424.48 263.13,425.19 263.32,425.97 263.32,426.77 263.32,473.22 263.32,521.03 263.32,568.09 263.32,573.33 256.27,575.04 253.87,570.38 241.83,546.97 233.56,530.89 217.34,499.37 210.53,486.12 210.53,486.12 205.78,476.89 203.85,473.15 203.85,473.15 202.58,470.68 201.65,468.87 201.65,468.87 201.46,468.49 L 208.19,470.65 175.29,487.58 177.45,480.84 C 178.17,482.24 178.17,482.24 181.46,488.64 185.88,497.24 185.88,497.24 192.25,509.63 207.46,539.19 207.46,539.19 226.76,576.69 228,579.12 227.08,582.09 224.68,583.38 215.05,588.57 192.41,600.74 159.87,618.24 L 159.87,618.24 C 143.63,626.98 129.91,634.36 106.49,646.95 104.03,648.28 100.96,647.32 99.68,644.84 91.44,628.82 81.93,610.34 71.17,589.43 71.17,589.43 71.17,589.43 71.17,589.43 58.89,565.55 48.68,545.71 29.68,508.77 29.29,508.01 29.1,507.16 29.13,506.31 29.92,483.59 34.45,461.84 42.25,442.64 42.69,441.56 43.49,440.67 44.51,440.12 68.97,426.96 95.34,412.78 134.11,391.92 136.57,390.6 139.65,391.55 140.93,394.04 146.63,405.14 151.97,415.51 156.79,424.89 159.48,430.11 159.48,430.11 161.28,433.61 162.6,436.17 162.6,436.17 162.88,436.71 L 156.14,434.55 189.05,417.63 186.89,424.36 C 186.65,423.91 186.65,423.91 185.55,421.76 184.04,418.82 184.04,418.82 181.76,414.4 176.16,403.51 176.16,403.51 168.21,388.05 149.44,351.58 149.44,351.58 126.71,307.4 126.35,306.69 126.16,305.91 126.16,305.11 126.16,261.89 126.16,218.43 126.16,176.56 126.16,171.32 133.21,169.61 135.61,174.28 148.13,198.62 161.18,223.98 173.98,248.86 181.21,262.92 181.21,262.92 186.27,272.75 188.32,276.73 188.32,276.73 189.68,279.38 190.67,281.31 190.67,281.31 190.88,281.71 L 184.14,279.55 217.05,262.63 214.89,269.36 C 214.64,268.89 214.64,268.89 213.49,266.64 211.91,263.57 211.91,263.57 209.54,258.97 203.71,247.63 200.55,241.49 195.45,231.57 180.86,203.22 166.28,174.88 152.67,148.43 L 152.67,148.42 C 152.65,148.37 152.65,148.37 152.62,148.32 151.37,145.9 152.3,142.93 154.7,141.63 170.52,133.12 193.42,120.81 216.12,108.6 216.85,108.2 217.66,108 218.49,108 Z M 218.49,108" />
    <rect id="timberHole77-end" stroke="none" fill="rgb(128, 128, 128)" x="115" y="594" width="1" height="1" />
    <rect id="timberHole77-ball" stroke="none" fill="rgb(128, 128, 128)" x="218" y="161" width="1" height="1" />
    <path id="timberHole77-bezier4" stroke="none" fill="rgb(173, 108, 27)" d="M 218.49,118 L 220.86,117.4 C 198.15,129.61 175.26,141.93 159.43,150.44 L 161.51,143.75 C 161.54,143.8 161.54,143.8 161.56,143.85 L 161.56,143.85 C 175.17,170.31 189.76,198.65 204.34,226.99 209.44,236.91 212.6,243.06 218.43,254.39 220.8,259 220.8,259 222.38,262.07 223.54,264.31 223.54,264.31 223.78,264.79 225.04,267.24 224.08,270.26 221.62,271.52 L 188.72,288.45 C 186.26,289.71 183.25,288.74 181.99,286.29 181.78,285.88 181.78,285.88 180.79,283.95 179.42,281.31 179.42,281.31 177.38,277.33 172.32,267.5 172.32,267.5 165.09,253.44 152.29,228.56 139.24,203.2 126.71,178.85 L 136.16,176.56 C 136.16,218.43 136.16,261.89 136.16,305.11 L 135.61,302.82 C 158.33,347 158.33,347 177.1,383.47 185.05,398.94 185.05,398.94 190.65,409.82 192.93,414.24 192.93,414.24 194.44,417.19 195.55,419.33 195.55,419.33 195.78,419.79 197.04,422.24 196.08,425.26 193.62,426.52 L 160.72,443.45 C 158.26,444.71 155.25,443.74 153.99,441.29 153.71,440.75 153.71,440.75 152.39,438.19 150.59,434.69 150.59,434.69 147.9,429.46 143.08,420.09 137.74,409.71 132.03,398.62 L 138.85,400.73 C 100.08,421.59 73.71,435.77 49.25,448.92 L 51.51,446.4 C 44.16,464.5 39.87,485.09 39.12,506.65 L 38.57,504.19 C 57.57,541.14 67.78,560.97 80.06,584.85 80.06,584.85 80.06,584.85 80.06,584.85 90.82,605.76 100.33,624.24 108.57,640.26 L 101.76,638.15 C 125.17,625.55 138.9,618.17 155.13,609.44 L 155.13,609.44 C 187.67,591.94 210.31,579.76 219.94,574.58 L 217.87,581.27 C 198.57,543.77 198.57,543.77 183.36,514.2 176.99,501.81 176.99,501.81 172.57,493.22 169.27,486.82 169.27,486.82 168.55,485.42 167.29,482.96 168.26,479.95 170.71,478.68 L 203.61,461.76 C 206.07,460.5 209.08,461.46 210.35,463.92 210.54,464.3 210.54,464.3 211.47,466.1 212.75,468.58 212.75,468.58 214.67,472.31 219.42,481.55 219.42,481.55 226.24,494.8 242.45,526.32 250.72,542.4 262.76,565.8 L 253.32,568.09 C 253.32,521.03 253.32,473.22 253.32,426.77 L 253.87,429.05 C 233.27,389.01 233.27,389.01 216.76,356.92 209.81,343.41 209.81,343.41 204.96,333.99 203,330.18 203,330.18 201.7,327.65 200.75,325.8 200.75,325.8 200.55,325.42 199.29,322.96 200.26,319.95 202.71,318.68 L 235.61,301.76 C 238.07,300.5 241.08,301.46 242.35,303.92 242.73,304.67 242.73,304.67 244.54,308.18 247,312.96 247,312.96 250.64,320.03 259.5,337.26 259.5,337.26 271.62,360.82 L 264.81,358.71 C 284.91,347.89 296.75,341.52 310.75,333.99 L 310.76,333.99 C 317.6,330.31 317.6,330.31 324.34,326.69 L 322.33,328.68 C 334.25,307.02 341.22,280.09 341.94,251.46 L 342.49,253.87 C 307.56,185.98 289.7,151.25 272.91,118.62 L 275.75,121.07 C 270.03,119.13 264.18,118.1 258.24,118 257.76,118 257.76,118 255.17,118 251.69,118 251.69,118 246.61,118 234.42,118 234.42,118 218.49,118 Z M 218.49,118" />
</svg>
