<?xml version="1.0" encoding="UTF-8"?>
<!DOCTYPE svg PUBLIC "-//W3C//DTD SVG 1.1//EN" "http://www.w3.org/Graphics/SVG/1.1/DTD/svg11.dtd">
<svg version="1.1" xmlns="http://www.w3.org/2000/svg" xmlns:xlink="http://www.w3.org/1999/xlink" width="400" height="700"  xml:space="preserve" id="timberHole99">
    <!-- Generated by PaintCode - http://www.paintcodeapp.com -->
    <defs>
        <style type="text/css"><![CDATA[
            @media all {
                image.highRes_resource {display:none}
            }
            @media only screen and (-webkit-min-device-pixel-ratio: 2),
                   only screen and (min--moz-device-pixel-ratio: 2),
                   only screen and (-o-min-device-pixel-ratio: 2/1),
                   only screen and (min-device-pixel-ratio: 2),
                   only screen and (min-resolution: 2dppx) {
                image.lowRes_resource  {display:none}
                image.highRes_resource {display:inline}
            }
        ]]></style>
        <pattern id="timberHole99-plaid-bezier" x="34" y="169" width="100" height="100" patternUnits="userSpaceOnUse" viewBox="0 0 100 100">
            <image xlink:href="images/plaid.png" x="0" y="0" width="100" height="100" />
            <image xlink:href="images/plaid_2x.png" x="0" y="0" width="100" height="100" class="highRes_resource" />
        </pattern>
    </defs>
    <path id="timberHole99-bezier3" stroke="rgb(87, 54, 14)" stroke-width="24" stroke-linejoin="round" stroke-miterlimit="10" fill="none" d="M 34.5,69 C 34.5,69 303.06,69 362.5,69 362.5,77 362.5,101.37 362.5,151 362.5,151 271.81,238.61 254.17,255.65 252.27,257.48 251.22,258.5 251.22,258.5 251.22,258.5 251.22,287.22 251.22,323.67 250.25,324.27 246.9,326.32 242.65,328.93 232.25,335.3 216.43,345 216.43,345 L 216.43,388 C 216.43,388 247.89,407.28 251.22,409.33 251.22,445.3 251.22,473.5 251.22,473.5 L 362.5,581 C 362.5,631.2 362.5,664 362.5,664 L 34.5,664 C 34.5,664 34.5,631.2 34.5,581 L 145.78,473.5 C 145.78,473.5 145.78,445.04 145.78,408.83 149.11,406.78 180.57,387.5 180.57,387.5 L 180.57,344.5 C 180.57,344.5 149.11,325.22 145.78,323.17 145.78,286.96 145.78,258.5 145.78,258.5 145.78,258.5 138.61,251.57 127.9,241.23 96.45,210.84 34.5,151 34.5,151 34.5,101.37 34.5,69 34.5,69 L 34.5,69 Z M 34.5,69" />
    <path id="timberHole99-bezier" stroke="none" fill="url(#timberHole99-plaid-bezier)" d="M 34,69 C 34,69 302.56,69 362,69 362,77 362,101.37 362,151 362,151 271.31,238.61 253.67,255.65 251.77,257.48 250.72,258.5 250.72,258.5 250.72,258.5 250.72,287.22 250.72,323.67 249.75,324.27 246.4,326.32 242.15,328.93 231.75,335.3 215.93,345 215.93,345 L 215.93,388 C 215.93,388 247.39,407.28 250.72,409.33 250.72,445.3 250.72,473.5 250.72,473.5 L 362,581 C 362,631.2 362,664 362,664 L 34,664 C 34,664 34,631.2 34,581 L 145.28,473.5 C 145.28,473.5 145.28,445.04 145.28,408.83 148.61,406.78 180.07,387.5 180.07,387.5 L 180.07,344.5 C 180.07,344.5 148.61,325.22 145.28,323.17 145.28,286.96 145.28,258.5 145.28,258.5 145.28,258.5 138.11,251.57 127.4,241.23 95.95,210.84 34,151 34,151 34,101.37 34,69 34,69 L 34,69 Z M 34,69" />
    <path id="timberHole99-bezier2" stroke="none" fill="rgb(173, 108, 27)" d="M 34,74 L 34,64 34,64 34,64 C 34,64 34,64 34,64 34.01,64 34.01,64 34.01,64 34.03,64 34.03,64 34.05,64 34.11,64 34.11,64 34.2,64 34.42,64 34.42,64 34.77,64 35.66,64 35.66,64 37.03,64 40.47,64 40.47,64 45.66,64 58.48,64 58.48,64 76.89,64 120.71,64 120.71,64 175.71,64 268.91,64 335.99,64 362,64 364.76,64 367,66.24 367,69 367,89.18 367,89.18 367,151 364.77,155.28 364.77,155.28 361.54,158.39 357.22,162.57 357.22,162.57 351.03,168.55 342.89,176.41 331.66,187.26 317.92,200.53 306.8,211.28 298.99,218.82 281.51,235.7 266.04,250.65 266.04,250.65 257.14,259.24 254.72,261.59 254.72,261.59 254.19,262.1 L 250.72,258.5 255.72,258.5 C 255.72,259.4 255.72,259.4 255.72,263.56 255.72,269.18 255.72,269.18 255.72,277.42 255.72,297.3 255.72,297.3 255.72,323.67 255.72,325.41 254.81,327.03 253.33,327.94 252.51,328.44 250.69,329.56 244.76,333.19 240.59,335.74 240.59,335.74 236.08,338.51 229.5,342.54 229.5,342.54 224.02,345.9 219.64,348.59 219.64,348.59 218.54,349.26 L 220.93,345 220.93,388 218.54,383.74 C 219.64,384.41 219.64,384.41 224.02,387.1 229.5,390.46 229.5,390.46 236.08,394.49 241.96,398.09 241.96,398.09 247.05,401.22 251.37,403.86 251.37,403.86 253.33,405.06 254.81,405.97 255.72,407.59 255.72,409.33 255.72,435.33 255.72,435.33 255.72,454.9 255.72,463 255.72,463 255.72,468.53 255.72,472.62 255.72,472.62 255.72,473.5 L 255.72,473.5 254.19,469.9 365.47,577.4 C 366.45,578.35 367,579.64 367,581 367,616.47 367,616.47 367,641.32 367,651.4 367,651.4 367,658.09 367,662.97 367,662.97 367,664 367,666.76 364.76,669 362,669 L 34,669 C 31.24,669 29,666.76 29,664 29,662.97 29,662.97 29,658.09 29,651.4 29,651.4 29,641.32 29,616.47 29,616.47 29,581 29,579.64 29.55,578.35 30.53,577.4 L 141.81,469.9 140.28,473.5 C 140.28,472.61 140.28,472.61 140.28,468.49 140.28,462.91 140.28,462.91 140.28,454.74 140.28,435.02 140.28,435.02 140.28,408.83 140.28,407.09 141.19,405.47 142.67,404.56 144.06,403.71 148.16,401.2 159.92,393.99 166.5,389.96 166.5,389.96 171.98,386.6 176.36,383.91 176.36,383.91 177.46,383.24 L 175.07,387.5 175.07,344.5 177.46,348.76 C 176.36,348.09 176.36,348.09 171.98,345.4 166.5,342.04 166.5,342.04 159.92,338.01 154.04,334.41 154.04,334.41 148.95,331.28 144.63,328.64 144.63,328.64 142.67,327.44 141.19,326.53 140.28,324.91 140.28,323.17 140.28,296.98 140.28,296.98 140.28,277.26 140.28,269.09 140.28,269.09 140.28,263.51 140.28,259.39 140.28,259.39 140.28,258.5 L 141.81,262.1 C 140.91,261.23 140.91,261.23 136.89,257.34 131.52,252.15 131.52,252.15 123.93,244.82 106.71,228.19 106.71,228.19 86.17,208.35 65.3,188.19 65.3,188.19 47.91,171.39 40.52,164.25 40.52,164.25 35.31,159.22 31.4,155.44 31.4,155.44 30.53,154.6 29.55,153.65 29,152.36 29,151 29,115.93 29,115.93 29,91.39 29,81.44 29,81.44 29,74.83 29,70.01 29,70.01 29,69 29,66.24 31.24,64 34,64 L 34,64 34,69 34,74 Z M 34,74" />
    <rect id="timberHole99-end" stroke="none" fill="rgb(128, 128, 128)" x="187" y="623" width="1" height="1" />
    <rect id="timberHole99-ball" stroke="none" fill="rgb(128, 128, 128)" x="195" y="109" width="1" height="1" />
    <path id="timberHole99-bezier4" stroke="none" fill="rgb(173, 108, 27)" d="M 34,64 C 40.67,64 40.67,74 34,74 L 34,74 34,69 39,69 C 39,70.01 39,70.01 39,74.83 39,81.44 39,81.44 39,91.39 39,115.93 39,115.93 39,151 L 37.47,147.4 C 38.34,148.24 38.34,148.24 42.26,152.02 47.47,157.06 47.47,157.06 54.86,164.2 72.25,181 72.25,181 93.12,201.15 113.66,221 113.66,221 130.88,237.63 138.47,244.96 138.47,244.96 143.83,250.15 147.86,254.04 147.86,254.04 148.76,254.9 149.73,255.85 150.28,257.14 150.28,258.5 150.28,259.39 150.28,259.39 150.28,263.51 150.28,269.09 150.28,269.09 150.28,277.26 150.28,296.98 150.28,296.98 150.28,323.17 L 145.28,323.17 147.9,318.91 C 149.86,320.11 149.86,320.11 154.17,322.76 159.27,325.88 159.27,325.88 165.15,329.49 171.73,333.52 171.73,333.52 177.21,336.88 181.59,339.57 181.59,339.57 182.69,340.24 184.17,341.15 185.07,342.76 185.07,344.5 L 185.07,387.5 C 185.07,389.24 184.17,390.85 182.69,391.76 181.59,392.43 181.59,392.43 177.21,395.12 171.73,398.48 171.73,398.48 165.15,402.51 153.39,409.72 149.28,412.24 147.9,413.09 L 145.28,408.83 150.28,408.83 C 150.28,435.02 150.28,435.02 150.28,454.74 150.28,462.91 150.28,462.91 150.28,468.49 150.28,472.61 150.28,472.61 150.28,473.5 150.28,474.86 149.73,476.15 148.76,477.1 L 37.47,584.6 39,581 C 39,616.47 39,616.47 39,641.32 39,651.4 39,651.4 39,658.09 39,662.97 39,662.97 39,664 L 34,659 362,659 357,664 C 357,662.97 357,662.97 357,658.09 357,651.4 357,651.4 357,641.32 357,616.47 357,616.47 357,581 L 358.53,584.6 247.24,477.1 C 246.27,476.15 245.72,474.86 245.72,473.5 L 245.72,473.5 C 245.72,472.62 245.72,472.62 245.72,468.53 245.72,463 245.72,463 245.72,454.9 245.72,435.33 245.72,435.33 245.72,409.33 L 250.72,409.33 248.1,413.59 C 246.14,412.39 246.14,412.39 241.83,409.74 236.73,406.62 236.73,406.62 230.85,403.01 224.27,398.98 224.27,398.98 218.79,395.62 214.41,392.93 214.41,392.93 213.31,392.26 211.83,391.35 210.93,389.74 210.93,388 L 210.93,345 C 210.93,343.26 211.83,341.65 213.31,340.74 214.41,340.07 214.41,340.07 218.79,337.38 224.27,334.02 224.27,334.02 230.85,329.99 235.37,327.22 235.37,327.22 239.53,324.67 245.46,321.03 247.28,319.91 248.1,319.41 L 250.72,323.67 245.72,323.67 C 245.72,297.3 245.72,297.3 245.72,277.42 245.72,269.18 245.72,269.18 245.72,263.56 245.72,259.4 245.72,259.4 245.72,258.5 245.72,257.14 246.27,255.85 247.24,254.9 247.77,254.4 247.77,254.4 250.19,252.05 259.09,243.46 259.09,243.46 274.56,228.51 292.04,211.63 299.85,204.08 310.98,193.34 324.71,180.07 335.95,169.22 344.08,161.36 350.27,155.37 350.27,155.37 354.59,151.2 357.82,148.09 357.82,148.09 358.53,147.4 357,89.18 357,89.18 357,69 L 362,74 C 335.99,74 268.91,74 175.71,74 120.71,74 120.71,74 76.89,74 58.48,74 58.48,74 45.66,74 40.47,74 40.47,74 37.03,74 35.66,74 35.66,74 34.77,74 34.42,74 34.42,74 34.2,74 34.11,74 34.11,74 34.05,74 34.03,74 34.03,74 34.01,74 34.01,74 34.01,74 34,74 34,74 34,74 34,74 L 34,74 34,74 34,74 34,64 Z M 34,64" />
</svg>
