<?xml version="1.0" encoding="UTF-8"?>
<!DOCTYPE svg PUBLIC "-//W3C//DTD SVG 1.1//EN" "http://www.w3.org/Graphics/SVG/1.1/DTD/svg11.dtd">
<svg version="1.1" xmlns="http://www.w3.org/2000/svg" xmlns:xlink="http://www.w3.org/1999/xlink" width="400" height="700"  xml:space="preserve" id="timberHole66">
    <!-- Generated by PaintCode - http://www.paintcodeapp.com -->
    <defs>
        <style type="text/css"><![CDATA[
            @media all {
                image.highRes_resource {display:none}
            }
            @media only screen and (-webkit-min-device-pixel-ratio: 2),
                   only screen and (min--moz-device-pixel-ratio: 2),
                   only screen and (-o-min-device-pixel-ratio: 2/1),
                   only screen and (min-device-pixel-ratio: 2),
                   only screen and (min-resolution: 2dppx) {
                image.lowRes_resource  {display:none}
                image.highRes_resource {display:inline}
            }
        ]]></style>
        <pattern id="timberHole66-plaid-bezier" x="24" y="140" width="100" height="100" patternUnits="userSpaceOnUse" viewBox="0 0 100 100">
            <image xlink:href="images/plaid.png" x="0" y="0" width="100" height="100" />
            <image xlink:href="images/plaid_2x.png" x="0" y="0" width="100" height="100" class="highRes_resource" />
        </pattern>
    </defs>
    <path id="timberHole66-bezier3" stroke="rgb(87, 54, 14)" stroke-width="24" stroke-linejoin="round" stroke-miterlimit="10" fill="none" d="M 269,39.5 C 269,39.5 269,133.39 269,247.5 L 377,247.5 377,442.5 319.16,442.5 C 292.85,405.32 257.01,354.64 223.24,306.91 171.42,233.66 124.51,167.34 124.51,167.34 L 91.48,190.7 269,442.5 C 269,556.16 269,649.5 269,649.5 L 23,649.5 C 23,649.5 23,525.94 23,390.04 72.49,460 115.99,521.5 115.99,521.5 L 149.02,498.14 C 149.02,498.14 84.35,406.72 23,320 23,176.09 23,40 23,40 L 269,39.5 269,39.5 Z M 269,39.5" />
    <path id="timberHole66-bezier" stroke="none" fill="url(#timberHole66-plaid-bezier)" d="M 269.5,40 C 269.5,40 269.5,133.89 269.5,248 L 377.5,248 377.5,443 319.66,443 C 293.35,405.82 257.51,355.14 223.74,307.41 171.92,234.16 125.01,167.84 125.01,167.84 L 91.98,191.2 269.5,443 C 269.5,556.66 269.5,650 269.5,650 L 23.5,650 C 23.5,650 23.5,526.44 23.5,390.54 72.99,460.5 116.49,522 116.49,522 L 149.52,498.64 C 149.52,498.64 84.85,407.22 23.5,320.5 23.5,176.59 23.5,40 23.5,40 L 269.5,40 269.5,40 Z M 269.5,40" />
    <path id="timberHole66-bezier2" stroke="none" fill="rgb(173, 108, 27)" d="M 264,40 L 274,40 274,40 274,40 C 274,40 274,40 274,40.01 274,40.01 274,40.01 274,40.02 274,40.04 274,40.04 274,40.07 274,40.15 274,40.15 274,40.27 274,40.59 274,40.59 274,41.08 274,42.33 274,42.33 274,44.26 274,49.1 274,49.1 274,56.45 274,74.69 274,74.69 274,101.21 274,164.95 274,164.95 274,248 L 269,243 377,243 C 379.76,243 382,245.24 382,248 L 382,443 C 382,445.76 379.76,448 377,448 L 319.16,448 C 317.53,448 316.01,447.21 315.07,445.89 279.47,395.55 279.47,395.55 237.43,336.13 228.26,323.17 228.26,323.17 219.16,310.3 180.91,256.23 180.91,256.23 150.36,213.04 137.51,194.89 137.51,194.89 128.56,182.23 124.94,177.11 124.94,177.11 122.54,173.72 120.79,171.24 120.79,171.24 120.42,170.73 L 127.39,171.92 94.37,195.28 95.57,188.32 273.09,440.12 C 273.68,440.96 274,441.97 274,443 274,525.7 274,525.7 274,589.12 274,615.5 274,615.5 274,633.64 274,640.95 274,640.95 274,645.77 274,649.27 274,649.27 274,650 274,652.76 271.76,655 269,655 L 23,655 C 20.24,655 18,652.76 18,650 18,649.03 18,649.03 18,644.43 18,638.1 18,638.1 18,628.57 18,605.02 18,605.02 18,571.23 18,490.93 18,490.93 18,390.54 18,385.67 24.27,383.68 27.08,387.66 48.73,418.26 70.81,449.47 92.14,479.62 99.6,490.17 106.44,499.84 112.51,508.41 115.88,513.18 115.88,513.18 118.11,516.33 119.74,518.63 119.74,518.63 120.08,519.11 L 113.11,517.92 146.13,494.56 144.93,501.53 C 144.48,500.88 144.48,500.88 142.31,497.81 139.33,493.61 139.33,493.61 134.88,487.31 123.91,471.81 123.91,471.81 108.37,449.84 71.81,398.15 71.81,398.15 27.93,336.13 23.42,329.75 23.42,329.75 18.92,323.39 18.32,322.55 18,321.54 18,320.5 18,257.54 18,191.45 18,126.28 18,103.47 18,82.41 18,63.59 18,53.12 18,53.12 18,46.15 18,41.07 18,41.07 18,40 18,37.24 20.24,35 23,35 L 269,35 C 271.76,35 274,37.24 274,40 L 274,40 269,40 264,40 Z M 264,40" />
    <rect id="timberHole66-end" stroke="none" fill="rgb(128, 128, 128)" x="59" y="526" width="1" height="1" />
    <rect id="timberHole66-ball" stroke="none" fill="rgb(128, 128, 128)" x="328" y="331" width="1" height="1" />
    <path id="timberHole66-bezier4" stroke="none" fill="rgb(173, 108, 27)" d="M 274,40 C 274,46.67 264,46.67 264,40 L 264,40 269,40 269,45 23,45 28,40 C 28,41.07 28,41.07 28,46.15 28,53.12 28,53.12 28,63.59 28,82.41 28,103.47 28,126.28 28,191.45 28,257.54 28,320.5 L 27.08,317.61 C 31.58,323.98 31.58,323.98 36.09,330.35 79.97,392.38 79.97,392.38 116.53,444.07 132.07,466.03 132.07,466.03 143.04,481.54 147.5,487.84 147.5,487.84 150.47,492.04 152.64,495.11 152.64,495.11 153.1,495.75 154.69,498.01 154.16,501.13 151.9,502.72 L 118.88,526.08 C 116.63,527.68 113.51,527.14 111.91,524.89 111.57,524.41 111.57,524.41 109.95,522.11 107.71,518.95 107.71,518.95 104.34,514.19 98.28,505.61 91.44,495.95 83.97,485.39 62.65,455.25 40.57,424.04 18.92,393.43 L 28,390.54 C 28,490.93 28,490.93 28,571.23 28,605.02 28,605.02 28,628.57 28,638.1 28,638.1 28,644.43 28,649.03 28,649.03 28,650 L 23,645 269,645 264,650 C 264,649.27 264,649.27 264,645.77 264,640.95 264,640.95 264,633.64 264,615.5 264,615.5 264,589.12 264,525.7 264,525.7 264,443 L 264.91,445.88 87.4,194.08 C 85.81,191.82 86.34,188.71 88.6,187.12 L 121.62,163.76 C 123.87,162.16 126.99,162.7 128.59,164.95 128.95,165.47 128.95,165.47 130.7,167.94 133.11,171.34 133.11,171.34 136.73,176.46 145.68,189.11 145.68,189.11 158.52,207.27 189.07,250.45 189.07,250.45 227.32,304.52 236.42,317.39 236.42,317.39 245.59,330.35 287.63,389.78 287.63,389.78 323.24,440.11 L 319.16,438 377,438 372,443 372,248 377,253 269,253 C 266.24,253 264,250.76 264,248 264,164.95 264,164.95 264,101.21 264,74.69 264,74.69 264,56.45 264,49.1 264,49.1 264,44.26 264,42.33 264,42.33 264,41.08 264,40.59 264,40.59 264,40.27 264,40.15 264,40.15 264,40.07 264,40.04 264,40.04 264,40.02 264,40.01 264,40.01 264,40.01 264,40 264,40 264,40 L 264,40 264,40 264,40 274,40 Z M 274,40" />
</svg>
