<?xml version="1.0" encoding="UTF-8"?>
<!DOCTYPE svg PUBLIC "-//W3C//DTD SVG 1.1//EN" "http://www.w3.org/Graphics/SVG/1.1/DTD/svg11.dtd">
<svg version="1.1" xmlns="http://www.w3.org/2000/svg" xmlns:xlink="http://www.w3.org/1999/xlink" width="400" height="700"  xml:space="preserve" id="timberHole33">
    <!-- Generated by PaintCode - http://www.paintcodeapp.com -->
    <defs>
        <radialGradient id="timberHole33-gradient-bezier" cx="200.02" cy="356.73"  r="288.19" fx="209.27" fy="347.48" gradientUnits="userSpaceOnUse" >
            <stop offset="0.031" stop-color="rgb(230, 169, 93)" stop-opacity="1" />
            <stop offset="1" stop-color="rgb(128, 78, 15)" stop-opacity="1" />
        </radialGradient>
        <filter id="timberHole33-shadow-outer" filterUnits="userSpaceOnUse">
            <feGaussianBlur stdDeviation="4" />
            <feOffset dx="0" dy="-0" result="blur" />
            <feFlood flood-color="rgb(0, 0, 0)" flood-opacity="1" />
            <feComposite in2="blur" operator="in" result="colorShadow" />
            <feComposite in="SourceGraphic" in2="colorShadow" operator="over" />
        </filter>
        <radialGradient id="timberHole33-gradient-bezier2" cx="200.02" cy="356.73"  r="288.19" fx="209.27" fy="347.48" gradientUnits="userSpaceOnUse" >
            <stop offset="0.031" stop-color="rgb(230, 169, 93)" stop-opacity="1" />
            <stop offset="1" stop-color="rgb(128, 78, 15)" stop-opacity="1" />
        </radialGradient>
    </defs>
    <rect id="timberHole33-end" stroke="none" fill="rgb(128, 128, 128)" x="106" y="142" width="1" height="1" />
    <rect id="timberHole33-ball" stroke="none" fill="rgb(128, 128, 128)" x="296" y="569" width="1" height="1" />
    <path id="timberHole33-bezier" stroke="none" fill="url(#timberHole33-gradient-bezier)" filter="url(#timberHole33-shadow-outer)" d="M 192,165.5 C 192,167.66 190.35,171.29 179.24,194.93 177.82,197.93 169.31,216 166.64,221.68 161.21,233.23 156.61,243.07 152.21,252.58 151.07,255.06 149.94,257.49 148.85,259.88 137.09,285.45 128.07,305.95 121.93,321.36 118.43,330.13 115.94,337.06 114.56,341.97 113.87,344.39 113.48,346.25 113.37,347.44 113.34,347.82 113.34,348.02 113.34,347.99 113.2,347.31 112.76,346.5 111.77,345.84 110.68,345.11 109.45,345.03 108.52,345.35 108.34,345.41 108.23,345.47 108.17,345.5 108.21,345.48 108.29,345.41 108.41,345.31 109.18,344.65 110.33,343.29 111.74,341.33 114.66,337.29 118.49,330.97 123.2,322.5 130.99,308.48 139.9,291.09 154.91,261 155.3,260.21 155.7,259.4 156.12,258.56 185.55,199.52 192.81,185.42 200.35,174.21 219.75,145.38 264.01,160.85 308.25,204.18 351.98,247.03 383,304.52 383,350.5 383,361.64 380.51,372.16 375.73,383.02 372.1,391.26 368.08,398.14 360.05,410.62 359.71,411.16 359.37,411.68 358.69,412.74 350.37,425.65 346.69,431.88 343.16,439.67 338.61,449.71 336.19,459.27 335.98,469.37 335.76,479.51 337.74,487.15 341.63,493.28 344.73,498.15 348.73,501.86 355.37,506.54 356.51,507.35 360.45,510.07 360.73,510.26 366.73,514.44 370.22,517.37 373.16,521.2 377.01,526.22 379,532.01 379,539 379,584.84 341.84,622 296,622 250.16,622 213,584.84 213,539 L 213,538.83 C 213.58,521.75 224.95,493.76 247.42,448.94 249.25,445.29 251.17,441.48 253.27,437.37 256.46,431.1 267.74,409.14 269.98,404.75 276.07,392.81 280.34,384.19 283.76,376.84 287.73,368.31 290.35,361.88 291.63,357.43 292.23,355.34 292.5,353.79 292.47,352.96 292.47,352.87 292.46,352.82 292.46,352.82 292.49,352.93 292.54,353.08 292.63,353.26 292.96,353.89 293.57,354.44 294.32,354.71 294.24,354.68 294.17,354.65 294.1,354.62 294.5,354.79 294.92,354.83 295.24,354.77 295.32,354.75 295.26,354.78 295.08,354.89 294.31,355.37 293.21,356.41 291.91,357.98 289.11,361.38 285.67,366.84 281.66,374.21 274.73,386.96 266.64,404.28 255.5,429.71 254.22,432.63 252.88,435.69 251.43,439.03 249.94,442.45 240.74,463.72 238.16,469.62 233.24,480.91 229.44,489.45 226.03,496.78 217,516.22 211.56,525.81 206.92,528.38 176.95,544.91 132.36,527.81 92.5,488.75 52.57,449.62 26,396.97 26,350.5 26,340.04 28.25,330.14 32.58,319.92 35.89,312.12 39.65,305.43 46.84,293.89 47.1,293.48 47.37,293.05 47.7,292.52 48.12,291.84 48.12,291.84 48.55,291.16 56.36,278.64 59.88,272.47 63.17,264.81 67.41,254.96 69.57,245.53 69.57,235.51 69.57,225.68 67.5,218.19 63.57,212.09 60.43,207.24 56.43,203.49 49.86,198.73 48.7,197.89 44.71,195.08 44.35,194.83 38.33,190.52 34.81,187.49 31.85,183.57 27.99,178.45 26,172.57 26,165.5 26,137.52 39.95,111.9 62.73,96.58 76.31,87.45 92.29,82.5 109,82.5 154.84,82.5 192,119.66 192,165.5 Z M 192,165.5" />
    <path id="timberHole33-bezier2" stroke="none" fill="url(#timberHole33-gradient-bezier2)" filter="url(#timberHole33-shadow-outer)" d="M 182,165.5 C 182,125.18 149.32,92.5 109,92.5 94.29,92.5 80.25,96.85 68.31,104.88 48.27,118.36 36,140.89 36,165.5 36,174.38 39.58,179.13 50.16,186.69 50.48,186.91 54.5,189.75 55.72,190.63 63.21,196.05 68.03,200.56 71.97,206.67 76.97,214.43 79.57,223.8 79.57,235.51 79.57,246.97 77.11,257.72 72.36,268.76 68.8,277.03 65.11,283.51 57.03,296.46 56.6,297.14 56.6,297.14 56.18,297.82 55.85,298.34 55.59,298.77 55.33,299.18 48.4,310.3 44.83,316.64 41.79,323.83 37.95,332.87 36,341.47 36,350.5 36,394 61.34,444.22 99.5,481.61 136.57,517.93 177.03,533.45 202.08,519.62 202.63,519.32 204.63,516.62 207.15,512.18 209.81,507.49 213.04,501.01 216.96,492.57 220.33,485.32 224.1,476.85 229,465.63 231.57,459.74 240.77,438.48 242.26,435.05 243.72,431.69 245.06,428.63 246.34,425.7 257.59,400.02 265.77,382.5 272.87,369.43 277.16,361.54 280.91,355.61 284.21,351.61 288.79,346.06 293.09,343.4 297.9,345.38 L 297.68,345.29 C 300.88,346.43 302.35,349.25 302.46,352.61 302.54,354.7 302.11,357.18 301.24,360.2 299.78,365.26 297,372.09 292.83,381.06 289.35,388.54 285.03,397.26 278.89,409.29 276.64,413.71 265.36,435.66 262.18,441.9 260.09,446 258.18,449.79 256.36,453.42 234.67,496.68 223.5,524.18 223,539.17 L 223,539 C 223,579.32 255.68,612 296,612 336.32,612 369,579.32 369,539 369,530.33 365.5,525.76 355.02,518.47 354.78,518.3 350.8,515.56 349.6,514.71 341.99,509.34 337.13,504.84 333.2,498.65 328.2,490.79 325.73,481.21 325.98,469.16 326.23,457.61 328.97,446.75 334.05,435.55 337.84,427.17 341.7,420.65 350.28,407.33 350.96,406.27 351.3,405.74 351.64,405.21 359.4,393.15 363.22,386.6 366.58,378.98 370.83,369.33 373,360.16 373,350.5 373,307.63 343.24,252.46 301.25,211.33 281.92,192.39 262,178.67 245.15,172.78 228.17,166.85 215.8,169.16 208.65,179.79 201.49,190.43 194.07,204.83 165.07,263.02 164.65,263.87 164.25,264.68 163.86,265.46 148.78,295.69 139.83,313.17 131.94,327.36 127.05,336.15 123.05,342.74 119.86,347.17 118.03,349.72 116.42,351.6 114.94,352.88 112.26,355.2 109.31,356.22 106.23,354.16 103.62,352.42 103.12,349.9 103.41,346.58 103.58,344.64 104.09,342.22 104.93,339.25 106.43,333.94 109.02,326.72 112.64,317.65 118.86,302.05 127.94,281.42 139.76,255.7 140.86,253.31 141.99,250.87 143.14,248.38 147.54,238.85 152.15,228.99 157.59,217.42 160.26,211.74 168.78,193.67 170.19,190.67 174.42,181.68 177.13,175.85 179.07,171.58 180.15,169.19 180.96,167.35 181.5,166.06 181.76,165.44 181.95,164.96 182.06,164.64 182.01,164.81 182,164.83 182,165.5 Z M 182,165.5" />
</svg>
