<?xml version="1.0" encoding="UTF-8"?>
<!DOCTYPE svg PUBLIC "-//W3C//DTD SVG 1.1//EN" "http://www.w3.org/Graphics/SVG/1.1/DTD/svg11.dtd">
<svg version="1.1" xmlns="http://www.w3.org/2000/svg" xmlns:xlink="http://www.w3.org/1999/xlink" width="400" height="700"  xml:space="preserve" id="timberHole11">
    <!-- Generated by PaintCode - http://www.paintcodeapp.com -->
    <rect id="timberHole11-end" stroke="none" fill="rgb(128, 128, 128)" x="115" y="518" width="1" height="1" />
    <rect id="timberHole11-ball" stroke="none" fill="rgb(128, 128, 128)" x="296" y="152" width="1" height="1" />
    <path id="timberHole11-bezier4" stroke="none" fill="rgb(173, 108, 27)" d="M 146,249.52 C 146,245.07 151.39,242.84 154.54,245.99 172.35,263.8 180.95,272.4 191.52,282.98 L 191.52,282.98 C 199.31,290.77 199.31,290.77 207.01,298.46 210.16,301.61 207.93,307 203.48,307 182.14,307 182.14,307 166.15,307 159.55,307 159.55,307 155.04,307 151.72,307 151.72,307 151,307 148.24,307 146,304.76 146,302 146,276.78 146,276.78 146,249.52 Z M 146,249.52" />
    <path id="timberHole11-bezier6" stroke="none" fill="rgb(173, 108, 27)" d="M 270,360 C 272.76,360 275,362.24 275,365 275,388.45 275,402.45 275,417.93 275,422.38 269.61,424.61 266.46,421.46 240.79,395.79 240.79,395.79 213.54,368.54 210.39,365.39 212.62,360 217.07,360 L 270,360 Z M 270,360" />
    <path id="timberHole11-bezier8" stroke="none" fill="rgb(173, 108, 27)" d="M 338,120 C 338,126.67 328,126.67 328,120 L 328,120 333,120 333,125 88,125 93,120 93,183 C 93,201.8 93,201.8 93,221.98 93,232.19 93,232.19 93,242.5 93,273.42 93,273.42 93,302 L 93,365 88,360 127.98,360 C 129.3,360 130.58,360.53 131.51,361.46 157.97,387.92 157.97,387.92 192.02,421.98 224.59,454.54 224.59,454.54 250.51,480.46 253.66,483.61 251.43,489 246.98,489 L 88,489 93,484 93,547 88,542 333,542 328,547 328,484 C 328,455.42 328,455.42 328,424.5 328,393.58 328,393.58 328,365 L 328,302 333,307 292.57,307 C 291.25,307 289.98,306.47 289.04,305.54 262.7,279.2 262.7,279.2 229,245.5 196.09,212.59 196.09,212.59 170.04,186.54 166.89,183.39 169.12,178 173.57,178 L 333,178 328,183 C 328,182.51 328,182.51 328,180.29 328,177.34 328,177.34 328,173.16 328,163.31 328,163.31 328,151.5 328,139.69 328,139.69 328,129.84 328,125.66 328,125.66 328,122.71 328,121.51 328,121.51 328,120.71 328,120.39 328,120.39 328,120.18 328,120.1 328,120.1 328,120.05 328,120.03 328,120.03 328,120.01 328,120.01 328,120.01 328,120 328,120 328,120 328,120 L 328,120 328,120 328,120 338,120 Z M 338,120" />
</svg>
