<?xml version="1.0" encoding="UTF-8"?>
<!DOCTYPE svg PUBLIC "-//W3C//DTD SVG 1.1//EN" "http://www.w3.org/Graphics/SVG/1.1/DTD/svg11.dtd">
<svg version="1.1" xmlns="http://www.w3.org/2000/svg" xmlns:xlink="http://www.w3.org/1999/xlink" width="400" height="700"  xml:space="preserve" id="timberHole33">
    <!-- Generated by PaintCode - http://www.paintcodeapp.com -->
    <defs>
        <style type="text/css"><![CDATA[
            @media all {
                image.highRes_resource {display:none}
            }
            @media only screen and (-webkit-min-device-pixel-ratio: 2),
                   only screen and (min--moz-device-pixel-ratio: 2),
                   only screen and (-o-min-device-pixel-ratio: 2/1),
                   only screen and (min-device-pixel-ratio: 2),
                   only screen and (min-resolution: 2dppx) {
                image.lowRes_resource  {display:none}
                image.highRes_resource {display:inline}
            }
        ]]></style>
        <pattern id="timberHole33-plaid-bezier2" x="51" y="211" width="100" height="100" patternUnits="userSpaceOnUse" viewBox="0 0 100 100">
            <image xlink:href="images/plaid.png" x="0" y="0" width="100" height="100" />
            <image xlink:href="images/plaid_2x.png" x="0" y="0" width="100" height="100" class="highRes_resource" />
        </pattern>
    </defs>
    <path id="timberHole33-bezier2" stroke="none" fill="url(#timberHole33-plaid-bezier2)" d="M 343,111 C 343,111 343,417.54 343,535.5 343,535.5 331.65,544.44 318.6,554.71 306.26,564.42 292.4,575.33 285.19,581 285.15,581 212.05,581 212.05,581 212,581 212,581 212,581 212,581 165.09,552.99 147,542.18 147,447.11 147,281 147,281 L 126,281 C 126,281 126,503.76 126,581 L 52,581 C 52,581 49.98,172.55 52,170 63,156.11 101.5,111 101.5,111 L 155.67,111 C 165.66,116.96 217.16,147.72 225,152.4 225,240.18 225,437 225,437 L 246,437 246,111 343,111 Z M 343,111" />
    <path id="timberHole33-bezier3" stroke="rgb(87, 54, 14)" stroke-width="24" stroke-linejoin="round" stroke-miterlimit="10" fill="none" d="M 343,111 C 343,111 343,417.54 343,535.5 343,535.5 331.65,544.44 318.6,554.71 306.26,564.42 292.4,575.33 285.19,581 285.15,581 212.05,581 212.05,581 212,581 212,581 212,581 212,581 165.09,552.99 147,542.18 147,447.11 147,281 147,281 L 126,281 C 126,281 126,503.76 126,581 L 52,581 C 52,581 49.98,172.55 52,170 63,156.11 101.5,111 101.5,111 L 155.67,111 C 165.66,116.96 217.16,147.72 225,152.4 225,240.18 225,437 225,437 L 246,437 246,111 343,111 Z M 343,111" />
    <path id="timberHole33-bezier" stroke="none" fill="rgb(173, 108, 27)" d="M 348,111 C 348,111.92 348,111.92 348,116.28 348,122.25 348,122.25 348,131.2 348,153.23 348,153.23 348,184.44 348,257.87 348,257.87 348,346 348,454.43 348,454.43 348,535.5 348,537.03 347.3,538.48 346.09,539.43 L 346.09,539.43 C 346.09,539.43 346.09,539.43 346.09,539.43 L 346.09,539.43 346.09,539.43 C 346.09,539.43 346.09,539.43 346.08,539.44 346.07,539.44 346.07,539.44 346.06,539.45 346.02,539.49 346.02,539.49 345.96,539.53 345.81,539.65 345.81,539.65 345.58,539.83 345,540.29 345,540.29 344.11,540.99 341.93,542.7 341.93,542.7 338.78,545.18 331.26,551.1 331.26,551.1 321.69,558.64 302.42,573.8 302.42,573.8 288.28,584.93 287.4,585.62 286.31,586 285.19,586 284.61,586 284.61,586 282.04,586 278.61,586 278.61,586 273.75,586 262.33,586 262.33,586 248.62,586 234.91,586 234.91,586 223.48,586 218.62,586 218.62,586 215.19,586 212.62,586 212.62,586 212.05,586 212,586 212,586 212,586 211.1,586 210.21,585.76 209.44,585.29 208.87,584.96 208.87,584.96 206.34,583.45 202.97,581.43 202.97,581.43 198.19,578.57 186.94,571.86 186.94,571.86 173.44,563.79 156.85,553.89 156.85,553.89 144.44,546.47 142.93,545.57 142,543.94 142,542.18 142,496.28 142,496.28 142,444 142,382.87 142,382.87 142,331.94 142,310.29 142,310.29 142,295.01 142,288.8 142,288.8 142,284.66 142,281.64 142,281.64 142,281 L 147,286 126,286 131,281 C 131,281.64 131,281.64 131,284.66 131,288.8 131,288.8 131,295.01 131,310.29 131,310.29 131,331.94 131,382.87 131,382.87 131,444 131,523.86 131,523.86 131,581 131,583.76 128.76,586 126,586 L 52,586 C 49.25,586 47.01,583.78 47,581.02 47,580.94 47,580.94 47,580.5 46.99,579.89 46.99,579.89 46.99,578.96 46.98,577.26 46.97,575.26 46.96,572.99 46.93,566.48 46.9,559.03 46.86,550.76 46.75,527.1 46.65,501.55 46.55,475.03 46.42,440.58 46.32,407.08 46.24,375.51 46.1,318.1 46.06,270.19 46.15,234.92 46.2,214.88 46.29,199.19 46.42,188.23 46.67,167.61 46.64,168.72 48.08,166.9 52.16,161.74 60.15,152.12 70.96,139.29 71.22,138.98 71.22,138.98 71.47,138.68 77.21,131.87 83.36,124.61 89.5,117.38 91.65,114.85 93.65,112.5 95.44,110.4 96.07,109.66 96.63,109.01 97.11,108.45 97.4,108.11 97.59,107.87 97.7,107.75 98.65,106.64 100.04,106 101.5,106 L 155.67,106 C 156.58,106 157.46,106.24 158.24,106.71 170.92,114.28 170.92,114.28 193.71,127.89 205,134.63 205,134.63 214.83,140.5 223.26,145.54 223.26,145.54 227.56,148.11 229.07,149.01 230,150.64 230,152.4 230,206.27 230,206.27 230,274 230,335.13 230,335.13 230,386.06 230,407.71 230,407.71 230,422.99 230,429.2 230,429.2 230,433.34 230,436.36 230,436.36 230,437 L 225,432 246,432 241,437 241,111 C 241,108.24 243.24,106 246,106 L 343,106 C 345.76,106 348,108.24 348,111 Z M 348,111" />
    <rect id="timberHole33-end" stroke="none" fill="rgb(128, 128, 128)" x="91" y="533" width="1" height="1" />
    <rect id="timberHole33-ball" stroke="none" fill="rgb(128, 128, 128)" x="296" y="159" width="1" height="1" />
    <path id="timberHole33-bezier4" stroke="none" fill="rgb(173, 108, 27)" d="M 338,111 L 343,116 246,116 251,111 251,437 C 251,439.76 248.76,442 246,442 L 225,442 C 222.24,442 220,439.76 220,437 220,436.36 220,436.36 220,433.34 220,429.2 220,429.2 220,422.99 220,407.71 220,407.71 220,386.06 220,335.13 220,335.13 220,274 220,206.27 220,206.27 220,152.4 L 222.44,156.7 C 218.13,154.13 218.13,154.13 209.7,149.09 199.87,143.22 199.87,143.22 188.58,136.47 165.79,122.86 165.79,122.86 153.11,115.29 L 155.67,116 101.5,116 105.3,114.25 C 105.2,114.36 105,114.6 104.72,114.93 104.24,115.5 103.68,116.15 103.05,116.88 101.26,118.99 99.27,121.33 97.12,123.86 90.98,131.08 84.85,138.33 79.12,145.12 78.86,145.43 78.86,145.43 78.61,145.73 67.87,158.48 59.92,168.06 55.92,173.1 56.87,171.91 56.73,173.04 56.81,171.72 56.76,172.49 56.71,173.64 56.67,175.16 56.57,178.19 56.49,182.6 56.42,188.35 56.29,199.27 56.2,214.94 56.15,234.94 56.06,270.19 56.1,318.09 56.24,375.48 56.32,407.05 56.42,440.55 56.55,474.99 56.65,501.51 56.75,527.06 56.86,550.71 56.9,558.99 56.93,566.44 56.96,572.94 56.97,575.21 56.98,577.21 56.99,578.91 56.99,579.85 56.99,579.85 57,580.45 57,580.89 57,580.89 57,580.98 L 52,576 126,576 121,581 C 121,523.86 121,523.86 121,444 121,382.87 121,382.87 121,331.94 121,310.29 121,310.29 121,295.01 121,288.8 121,288.8 121,284.66 121,281.64 121,281.64 121,281 121,278.24 123.24,276 126,276 L 147,276 C 149.76,276 152,278.24 152,281 152,281.64 152,281.64 152,284.66 152,288.8 152,288.8 152,295.01 152,310.29 152,310.29 152,331.94 152,382.87 152,382.87 152,444 152,496.28 152,496.28 152,542.18 L 149.56,537.89 C 161.98,545.3 161.98,545.3 178.56,555.21 192.06,563.27 192.06,563.27 203.31,569.99 208.09,572.84 208.09,572.84 211.47,574.86 214,576.37 214,576.37 214.56,576.71 L 212,581 212,576 C 212,576 212,576 212.05,576 212.62,576 212.62,576 215.19,576 218.62,576 218.62,576 223.48,576 234.91,576 234.91,576 248.62,576 262.33,576 262.33,576 273.75,576 278.61,576 278.61,576 282.04,576 284.61,576 284.61,576 285.19,576 L 285.19,581 282.1,577.07 C 296.24,565.94 296.24,565.94 315.5,550.78 325.08,543.24 325.08,543.24 332.6,537.32 335.75,534.85 335.75,534.85 337.93,533.13 338.81,532.43 338.81,532.43 339.39,531.98 339.63,531.79 339.63,531.79 339.78,531.67 339.84,531.63 339.84,531.63 339.87,531.6 339.89,531.59 339.89,531.59 339.9,531.58 339.9,531.57 339.9,531.57 339.91,531.57 339.91,531.57 339.91,531.57 339.91,531.57 L 339.91,531.57 339.91,531.57 339.91,531.57 338,535.5 C 338,454.43 338,454.43 338,346 338,257.87 338,257.87 338,184.44 338,153.23 338,153.23 338,131.2 338,122.25 338,122.25 338,116.28 338,111.92 338,111.92 338,111 Z M 338,111" />
</svg>
