<?xml version="1.0" encoding="UTF-8"?>
<!DOCTYPE svg PUBLIC "-//W3C//DTD SVG 1.1//EN" "http://www.w3.org/Graphics/SVG/1.1/DTD/svg11.dtd">
<svg version="1.1" xmlns="http://www.w3.org/2000/svg" xmlns:xlink="http://www.w3.org/1999/xlink" width="400" height="700"  xml:space="preserve" id="timberHole99">
    <!-- Generated by PaintCode - http://www.paintcodeapp.com -->
    <defs>
        <radialGradient id="timberHole99-gradient-bezier2" cx="189.77" cy="379.08"  r="229.23" fx="202.32" fy="366.54" gradientUnits="userSpaceOnUse" >
            <stop offset="0.052" stop-color="rgb(230, 169, 93)" stop-opacity="1" />
            <stop offset="1" stop-color="rgb(128, 78, 15)" stop-opacity="1" />
        </radialGradient>
        <filter id="timberHole99-shadow-outer" filterUnits="userSpaceOnUse">
            <feGaussianBlur stdDeviation="4" />
            <feOffset dx="0" dy="-0" result="blur" />
            <feFlood flood-color="rgb(0, 0, 0)" flood-opacity="1" />
            <feComposite in2="blur" operator="in" result="colorShadow" />
            <feComposite in="SourceGraphic" in2="colorShadow" operator="over" />
        </filter>
        <radialGradient id="timberHole99-gradient-bezier" cx="189.77" cy="381.58"  r="229.23" fx="202.31" fy="369.03" gradientUnits="userSpaceOnUse" >
            <stop offset="0.052" stop-color="rgb(230, 169, 93)" stop-opacity="1" />
            <stop offset="1" stop-color="rgb(128, 78, 15)" stop-opacity="1" />
        </radialGradient>
    </defs>
    <rect id="timberHole99-end" stroke="none" fill="rgb(128, 128, 128)" x="192" y="574" width="1" height="1" />
    <rect id="timberHole99-ball" stroke="none" fill="rgb(128, 128, 128)" x="195" y="132" width="1" height="1" />
    <path id="timberHole99-bezier2" stroke="none" fill="url(#timberHole99-gradient-bezier2)" filter="url(#timberHole99-shadow-outer)" d="M 192.17,655.2 C 193.31,658.95 177.64,612.91 165.97,577.27 146.29,517.13 126.32,452.94 107.16,386.9 93.84,341.02 93.37,311.69 104.44,294.33 109.37,286.61 116.42,281.42 125.56,278.15 132.56,275.65 140.03,274.38 151.16,273.38 152.82,273.23 153.89,273.14 157.19,272.87 169.38,271.87 174.7,271.18 180.17,269.56 186.75,267.61 191.04,264.65 193.59,260.07 199.78,248.99 202.52,241.47 202.52,237.36 202.52,236.76 202.45,236.33 202.36,236.05 202.32,235.94 202.32,235.93 202.33,235.95 202.38,236 202.34,235.98 202.08,235.95 201.56,235.88 200.84,235.94 200.13,236.1 199.83,236.16 199.64,236.22 199.61,236.23 L 200.17,235.99 C 200.06,236.05 199.86,236.14 199.58,236.28 199.11,236.51 198.57,236.77 197.94,237.06 196.18,237.88 194.15,238.8 191.89,239.79 185.45,242.61 178.43,245.43 171.06,248.06 159.05,252.35 147.3,255.72 136.22,257.82 120.68,260.77 107.17,261.09 96.19,258.17 82.77,254.61 73.51,246.25 69.64,232.9 58.66,195.05 58.66,195.05 50.84,168.1 47.65,157.13 47.65,157.13 45.52,149.79 43.96,144.41 43.96,144.41 43.63,143.28 42.71,140.08 45.11,136.88 48.44,136.88 L 143.33,136.88 138.37,141.32 C 141.83,110.8 166.93,87.51 196.96,87.51 226.99,87.51 252.09,110.8 255.55,141.32 L 250.59,136.88 343.01,137 C 346.24,137 348.61,140.02 347.86,143.16 347.83,143.29 347.78,143.53 347.69,143.88 347.55,144.48 347.37,145.18 347.17,146.01 346.59,148.37 345.89,151.19 345.06,154.48 342.69,163.88 339.78,175.15 336.3,188.27 326.38,225.75 313.93,270.64 298.76,322.9 288.62,357.85 275.4,379.74 259.48,390.24 249.9,396.57 239.63,398.57 229.15,396.89 220.95,395.57 213.07,392.09 205.65,387.14 202.34,384.93 199.35,382.56 196.7,380.19 195.09,378.75 193.94,377.61 193.29,376.91 L 196.33,378.47 C 196.46,378.48 196.46,378.48 196.56,378.49 196.92,378.52 197.16,378.46 197.35,378.32 197.37,378.31 197.31,378.38 197.2,378.67 196.92,379.37 196.74,380.47 196.74,382.03 196.74,386.53 198.25,393.38 201.66,402.81 203.98,409.22 208.39,410.82 222.6,411.79 223.94,411.89 224.43,411.92 225.12,411.97 232.64,412.52 237.32,413.3 241.92,415.19 248.13,417.73 252.78,422.07 255.67,428.58 261.87,442.5 259.91,466.47 248.76,504.9 232.89,559.59 220.74,599.29 211.75,626.62 206.4,642.88 200.81,658.26 201.74,655.21 201.62,655.61 201.45,655.98 201.24,656.34 L 201.24,656.35 C 198.99,660.05 193.43,659.35 192.17,655.2 Z M 192.17,655.2" />
    <path id="timberHole99-bezier" stroke="none" fill="url(#timberHole99-gradient-bezier)" filter="url(#timberHole99-shadow-outer)" d="M 201.74,652.31 L 196.96,653.75 192.68,651.16 192.69,651.16 196.96,653.75 192.18,652.28 C 192.22,652.17 193.61,648.55 194.65,645.67 196.64,640.21 199.13,632.96 202.25,623.49 211.2,596.29 223.32,556.7 239.16,502.12 249.7,465.79 251.49,443.78 246.54,432.65 243.23,425.22 237.62,422.92 224.39,421.94 223.72,421.9 223.24,421.86 221.92,421.77 213.35,421.18 209.6,420.68 205.26,419.1 199.02,416.83 194.6,412.68 192.26,406.21 185.05,386.27 185.05,375.06 191.34,370.33 193.32,368.84 195.4,368.39 197.24,368.52 197.44,368.53 197.44,368.53 197.59,368.55 198.76,368.7 199.83,369.25 200.63,370.11 200.72,370.21 200.94,370.44 201.28,370.77 201.87,371.36 202.57,372.03 203.37,372.75 205.68,374.82 208.32,376.89 211.21,378.82 225.73,388.52 240.37,390.88 253.97,381.9 267.58,372.91 279.62,352.99 289.16,320.12 304.3,267.93 316.73,223.12 326.64,185.71 330.1,172.62 333,161.4 335.36,152.04 336.19,148.77 336.88,145.96 337.46,143.62 337.66,142.81 337.83,142.11 337.97,141.53 338.06,141.18 338.11,140.95 338.14,140.84 L 342.99,147 250.58,146.88 C 248.04,146.88 245.91,144.97 245.62,142.45 242.71,116.9 221.82,97.51 196.96,97.51 172.1,97.51 151.21,116.9 148.3,142.45 148.01,144.98 145.88,146.88 143.33,146.88 L 48.44,146.88 53.24,140.49 C 53.57,141.63 53.57,141.63 55.13,147 57.26,154.34 57.26,154.34 60.44,165.32 68.26,192.26 68.26,192.26 79.24,230.12 84.61,248.62 103.97,253.76 134.35,248 144.87,246 156.14,242.77 167.69,238.64 174.83,236.1 181.64,233.36 187.88,230.63 190.06,229.68 192.01,228.79 193.71,228 194.3,227.72 194.81,227.48 195.24,227.27 195.5,227.15 195.67,227.06 195.75,227.03 195.93,226.93 196.12,226.86 196.31,226.79 196.7,226.65 197.26,226.49 197.97,226.33 199.73,225.94 201.55,225.79 203.39,226.03 208.82,226.75 212.52,230.79 212.52,237.36 212.52,243.59 209.28,252.5 202.33,264.95 198.36,272.05 191.9,276.52 183.01,279.15 176.63,281.04 170.91,281.78 158.01,282.83 154.73,283.1 153.67,283.19 152.05,283.34 130.46,285.28 119.59,289.17 112.87,299.71 103.75,314.02 104.18,340.74 116.76,384.12 135.89,450.04 155.82,514.12 175.48,574.16 187.1,609.66 202.82,655.86 201.74,652.31 Z M 201.74,652.31" />
</svg>
