<?xml version="1.0" encoding="UTF-8"?>
<!DOCTYPE svg PUBLIC "-//W3C//DTD SVG 1.1//EN" "http://www.w3.org/Graphics/SVG/1.1/DTD/svg11.dtd">
<svg version="1.1" xmlns="http://www.w3.org/2000/svg" xmlns:xlink="http://www.w3.org/1999/xlink" width="400" height="700"  xml:space="preserve" id="timberHole44">
    <!-- Generated by PaintCode - http://www.paintcodeapp.com -->
    <defs>
        <style type="text/css"><![CDATA[
            @media all {
                image.highRes_resource {display:none}
            }
            @media only screen and (-webkit-min-device-pixel-ratio: 2),
                   only screen and (min--moz-device-pixel-ratio: 2),
                   only screen and (-o-min-device-pixel-ratio: 2/1),
                   only screen and (min-device-pixel-ratio: 2),
                   only screen and (min-resolution: 2dppx) {
                image.lowRes_resource  {display:none}
                image.highRes_resource {display:inline}
            }
        ]]></style>
        <pattern id="timberHole44-plaid-bezier" x="23" y="124" width="100" height="100" patternUnits="userSpaceOnUse" viewBox="0 0 100 100">
            <image xlink:href="images/plaid.png" x="0" y="0" width="100" height="100" />
            <image xlink:href="images/plaid_2x.png" x="0" y="0" width="100" height="100" class="highRes_resource" />
        </pattern>
    </defs>
    <path id="timberHole44-bezier3" stroke="rgb(87, 54, 14)" stroke-width="24" stroke-linejoin="round" stroke-miterlimit="10" fill="none" d="M 379,24 L 379,666 231,666 C 231,666 231,569.51 231,456.78 264.29,437.67 313.37,409.5 313.37,409.5 L 313.37,280.5 C 313.37,280.5 264.29,252.33 231,233.22 231,160.47 231,108 231,108 L 171,108 C 171,108 171,160.47 171,233.22 137.71,252.33 88.63,280.5 88.63,280.5 L 88.63,409.5 C 88.63,409.5 137.71,437.67 171,456.78 171,569.51 171,666 171,666 L 23,666 C 23,666 23,84.9 23,28.4 23,25.52 23,24 23,24 L 379,24 Z M 379,24" />
    <path id="timberHole44-bezier" stroke="none" fill="url(#timberHole44-plaid-bezier)" d="M 379,24 L 379,666 231,666 C 231,666 231,569.51 231,456.78 264.29,437.67 313.37,409.5 313.37,409.5 L 313.37,280.5 C 313.37,280.5 264.29,252.33 231,233.22 231,160.47 231,108 231,108 L 171,108 C 171,108 171,160.47 171,233.22 137.71,252.33 88.63,280.5 88.63,280.5 L 88.63,409.5 C 88.63,409.5 137.71,437.67 171,456.78 171,569.51 171,666 171,666 L 23,666 C 23,666 23,84.9 23,28.4 23,25.52 23,24 23,24 L 379,24 Z M 379,24" />
    <path id="timberHole44-bezier2" stroke="none" fill="rgb(173, 108, 27)" d="M 384,24 L 384,666 C 384,668.76 381.76,671 379,671 L 231,671 C 228.24,671 226,668.76 226,666 226,665.25 226,665.25 226,661.63 226,656.67 226,656.67 226,649.16 226,630.56 226,630.56 226,603.66 226,539.3 226,539.3 226,456.78 226,454.99 226.96,453.34 228.51,452.44 236.12,448.08 244.93,443.02 254.69,437.41 L 254.69,437.41 C 266.98,430.36 280.15,422.8 293.32,415.24 300.78,410.96 300.78,410.96 306.05,407.94 310,405.67 310,405.67 310.88,405.16 L 308.37,409.5 308.37,280.5 310.88,284.84 C 310,284.33 310,284.33 306.05,282.06 300.78,279.04 300.78,279.04 293.32,274.76 275.76,264.68 275.76,264.68 254.69,252.59 241.13,244.8 241.13,244.8 228.51,237.56 226.96,236.67 226,235.01 226,233.22 226,201.39 226,171.09 226,143.33 226,127.81 226,127.81 226,117.33 226,109.64 226,109.64 226,108 L 231,113 171,113 176,108 C 176,109.64 176,109.64 176,117.33 176,127.81 176,127.81 176,143.33 176,181.19 176,181.19 176,233.22 176,235.01 175.04,236.67 173.49,237.56 160.87,244.8 160.87,244.8 147.31,252.59 126.24,264.68 126.24,264.68 108.68,274.76 101.22,279.04 101.22,279.04 95.95,282.06 92,284.33 92,284.33 91.12,284.84 L 93.63,280.5 93.63,409.5 91.12,405.16 C 92,405.67 92,405.67 95.95,407.94 101.22,410.96 101.22,410.96 108.68,415.24 126.24,425.32 126.24,425.32 147.31,437.41 160.87,445.2 160.87,445.2 173.49,452.44 175.04,453.33 176,454.99 176,456.78 176,506.1 176,555.9 176,603.66 176,630.56 176,630.56 176,649.16 176,656.67 176,656.67 176,661.63 176,665.25 176,665.25 176,666 176,668.76 173.76,671 171,671 L 23,671 C 20.24,671 18,668.76 18,666 18,664.75 18,664.75 18,658.79 18,650.64 18,650.64 18,638.41 18,608.32 18,608.32 18,565.69 18,465.38 18,465.38 18,345 18,236.33 18,236.33 18,142.42 18,63.27 18,63.27 18,28.4 18,24.76 18,24.76 18,24 18,21.24 20.24,19 23,19 L 379,19 C 381.76,19 384,21.24 384,24 Z M 384,24" />
    <rect id="timberHole44-end" stroke="none" fill="rgb(128, 128, 128)" x="96" y="620" width="1" height="1" />
    <rect id="timberHole44-ball" stroke="none" fill="rgb(128, 128, 128)" x="298" y="622" width="1" height="1" />
    <path id="timberHole44-bezier4" stroke="none" fill="rgb(173, 108, 27)" d="M 374,24 L 379,29 23,29 23,24 28,24 C 28,24.76 28,24.76 28,28.4 28,63.27 28,63.27 28,142.42 28,236.33 28,236.33 28,345 28,465.38 28,465.38 28,565.69 28,608.32 28,608.32 28,638.41 28,650.64 28,650.64 28,658.79 28,664.75 28,664.75 28,666 L 23,661 171,661 166,666 C 166,665.25 166,665.25 166,661.63 166,656.67 166,656.67 166,649.16 166,630.56 166,630.56 166,603.66 166,555.9 166,506.1 166,456.78 L 168.51,461.12 C 155.89,453.87 155.89,453.87 142.33,446.09 121.26,433.99 121.26,433.99 103.7,423.91 96.24,419.63 96.24,419.63 90.97,416.61 87.02,414.34 87.02,414.34 86.14,413.84 84.59,412.94 83.63,411.29 83.63,409.5 L 83.63,280.5 C 83.63,278.71 84.59,277.06 86.14,276.16 87.02,275.66 87.02,275.66 90.97,273.39 96.24,270.37 96.24,270.37 103.7,266.09 121.26,256.01 121.26,256.01 142.33,243.91 155.89,236.13 155.89,236.13 168.51,228.88 L 166,233.22 C 166,181.19 166,181.19 166,143.33 166,127.81 166,127.81 166,117.33 166,109.64 166,109.64 166,108 166,105.24 168.24,103 171,103 L 231,103 C 233.76,103 236,105.24 236,108 236,109.64 236,109.64 236,117.33 236,127.81 236,127.81 236,143.33 236,171.09 236,201.39 236,233.22 L 233.49,228.88 C 246.11,236.13 246.11,236.13 259.67,243.91 280.74,256.01 280.74,256.01 298.3,266.09 305.76,270.37 305.76,270.37 311.03,273.39 314.98,275.66 314.98,275.66 315.86,276.16 317.41,277.06 318.37,278.71 318.37,280.5 L 318.37,409.5 C 318.37,411.29 317.41,412.94 315.86,413.84 314.98,414.34 314.98,414.34 311.03,416.61 305.76,419.63 305.76,419.63 298.3,423.91 285.13,431.47 271.96,439.03 259.67,446.09 L 259.67,446.09 C 249.91,451.69 241.1,456.75 233.49,461.12 L 236,456.78 C 236,539.3 236,539.3 236,603.66 236,630.56 236,630.56 236,649.16 236,656.67 236,656.67 236,661.63 236,665.25 236,665.25 236,666 L 231,661 379,661 374,666 374,24 Z M 374,24" />
</svg>
