<?xml version="1.0" encoding="UTF-8"?>
<!DOCTYPE svg PUBLIC "-//W3C//DTD SVG 1.1//EN" "http://www.w3.org/Graphics/SVG/1.1/DTD/svg11.dtd">
<svg version="1.1" xmlns="http://www.w3.org/2000/svg" xmlns:xlink="http://www.w3.org/1999/xlink" width="400" height="700"  xml:space="preserve" id="timberHole11">
    <!-- Generated by PaintCode - http://www.paintcodeapp.com -->
    <defs>
        <style type="text/css"><![CDATA[
            @media all {
                image.highRes_resource {display:none}
            }
            @media only screen and (-webkit-min-device-pixel-ratio: 2),
                   only screen and (min--moz-device-pixel-ratio: 2),
                   only screen and (-o-min-device-pixel-ratio: 2/1),
                   only screen and (min-device-pixel-ratio: 2),
                   only screen and (min-resolution: 2dppx) {
                image.lowRes_resource  {display:none}
                image.highRes_resource {display:inline}
            }
        ]]></style>
        <pattern id="timberHole11-plaid-bezier2" x="88" y="220" width="100" height="100" patternUnits="userSpaceOnUse" viewBox="0 0 100 100">
            <image xlink:href="images/plaid.png" x="0" y="0" width="100" height="100" />
            <image xlink:href="images/plaid_2x.png" x="0" y="0" width="100" height="100" class="highRes_resource" />
        </pattern>
    </defs>
    <path id="timberHole11-bezier3" stroke="rgb(87, 54, 14)" stroke-width="24" stroke-linejoin="round" stroke-miterlimit="10" fill="none" d="M 151,249.52 C 151,267.77 151,285.8 151,302 151,302 173.91,302 203.48,302 185.82,284.34 167.07,265.59 151,249.52 Z M 270,365 L 217.07,365 C 234.86,382.79 253.79,401.72 270,417.93 270,399.53 270,381.33 270,365 Z M 333,120 C 333,120 333,183 333,183 L 173.57,183 C 204.1,213.53 262.72,272.15 292.57,302 L 333,302 333,365 C 333,401.55 333,447.45 333,484 L 333,547 88,547 88,484 246.98,484 C 216.16,453.18 157.53,394.55 127.98,365 L 88,365 88,302 C 88,265.45 88,219.55 88,183 L 88,120 333,120 333,120 Z M 333,120" />
    <path id="timberHole11-bezier2" stroke="none" fill="url(#timberHole11-plaid-bezier2)" d="M 151,249.52 C 151,267.77 151,285.8 151,302 151,302 173.91,302 203.48,302 185.82,284.34 167.07,265.59 151,249.52 Z M 270,365 L 217.07,365 C 234.86,382.79 253.79,401.72 270,417.93 270,399.53 270,381.33 270,365 Z M 333,120 C 333,120 333,183 333,183 L 173.57,183 C 204.1,213.53 262.72,272.15 292.57,302 L 333,302 333,365 C 333,401.55 333,447.45 333,484 L 333,547 88,547 88,484 246.98,484 C 216.16,453.18 157.53,394.55 127.98,365 L 88,365 88,302 C 88,265.45 88,219.55 88,183 L 88,120 333,120 333,120 Z M 333,120" />
    <path id="timberHole11-bezier" stroke="none" fill="rgb(173, 108, 27)" d="M 156,249.52 C 156,276.78 156,276.78 156,302 L 151,297 C 151.72,297 151.72,297 155.04,297 159.55,297 159.55,297 166.15,297 182.14,297 182.14,297 203.48,297 L 199.94,305.54 C 192.24,297.84 192.24,297.84 184.45,290.05 L 184.45,290.05 C 173.88,279.47 165.28,270.87 147.46,253.06 L 156,249.52 Z M 156,249.52" />
    <rect id="timberHole11-end" stroke="none" fill="rgb(128, 128, 128)" x="115" y="518" width="1" height="1" />
    <rect id="timberHole11-ball" stroke="none" fill="rgb(128, 128, 128)" x="296" y="152" width="1" height="1" />
    <path id="timberHole11-bezier4" stroke="none" fill="rgb(173, 108, 27)" d="M 146,249.52 C 146,245.07 151.39,242.84 154.54,245.99 172.35,263.8 180.95,272.4 191.52,282.98 L 191.52,282.98 C 199.31,290.77 199.31,290.77 207.01,298.46 210.16,301.61 207.93,307 203.48,307 182.14,307 182.14,307 166.15,307 159.55,307 159.55,307 155.04,307 151.72,307 151.72,307 151,307 148.24,307 146,304.76 146,302 146,276.78 146,276.78 146,249.52 Z M 146,249.52" />
    <path id="timberHole11-bezier5" stroke="none" fill="rgb(173, 108, 27)" d="M 270,370 L 217.07,370 220.61,361.46 C 247.86,388.72 247.86,388.72 273.54,414.39 L 265,417.93 C 265,402.45 265,388.45 265,365 L 270,370 Z M 270,370" />
    <path id="timberHole11-bezier6" stroke="none" fill="rgb(173, 108, 27)" d="M 270,360 C 272.76,360 275,362.24 275,365 275,388.45 275,402.45 275,417.93 275,422.38 269.61,424.61 266.46,421.46 240.79,395.79 240.79,395.79 213.54,368.54 210.39,365.39 212.62,360 217.07,360 L 270,360 Z M 270,360" />
    <path id="timberHole11-bezier7" stroke="none" fill="rgb(173, 108, 27)" d="M 328,120 L 338,120 338,120 338,120 C 338,120 338,120 338,120 338,120.01 338,120.01 338,120.01 338,120.03 338,120.03 338,120.05 338,120.1 338,120.1 338,120.18 338,120.39 338,120.39 338,120.71 338,121.51 338,121.51 338,122.71 338,125.66 338,125.66 338,129.84 338,139.69 338,139.69 338,151.5 338,163.31 338,163.31 338,173.16 338,177.34 338,177.34 338,180.29 338,182.51 338,182.51 338,183 338,185.76 335.76,188 333,188 L 173.57,188 177.11,179.46 C 203.16,205.52 203.16,205.52 236.07,238.43 269.77,272.13 269.77,272.13 296.11,298.46 L 292.57,297 333,297 C 335.76,297 338,299.24 338,302 L 338,365 C 338,393.58 338,393.58 338,424.5 338,455.42 338,455.42 338,484 L 338,547 C 338,549.76 335.76,552 333,552 L 88,552 C 85.24,552 83,549.76 83,547 L 83,484 C 83,481.24 85.24,479 88,479 L 246.98,479 243.44,487.54 C 217.52,461.61 217.52,461.61 184.95,429.05 150.9,394.99 150.9,394.99 124.44,368.54 L 127.98,370 88,370 C 85.24,370 83,367.76 83,365 L 83,302 C 83,273.42 83,273.42 83,242.5 83,232.19 83,232.19 83,221.98 83,201.8 83,201.8 83,183 L 83,120 C 83,117.24 85.24,115 88,115 L 333,115 C 335.76,115 338,117.24 338,120 L 338,120 333,120 328,120 Z M 328,120" />
    <path id="timberHole11-bezier8" stroke="none" fill="rgb(173, 108, 27)" d="M 338,120 C 338,126.67 328,126.67 328,120 L 328,120 333,120 333,125 88,125 93,120 93,183 C 93,201.8 93,201.8 93,221.98 93,232.19 93,232.19 93,242.5 93,273.42 93,273.42 93,302 L 93,365 88,360 127.98,360 C 129.3,360 130.58,360.53 131.51,361.46 157.97,387.92 157.97,387.92 192.02,421.98 224.59,454.54 224.59,454.54 250.51,480.46 253.66,483.61 251.43,489 246.98,489 L 88,489 93,484 93,547 88,542 333,542 328,547 328,484 C 328,455.42 328,455.42 328,424.5 328,393.58 328,393.58 328,365 L 328,302 333,307 292.57,307 C 291.25,307 289.98,306.47 289.04,305.54 262.7,279.2 262.7,279.2 229,245.5 196.09,212.59 196.09,212.59 170.04,186.54 166.89,183.39 169.12,178 173.57,178 L 333,178 328,183 C 328,182.51 328,182.51 328,180.29 328,177.34 328,177.34 328,173.16 328,163.31 328,163.31 328,151.5 328,139.69 328,139.69 328,129.84 328,125.66 328,125.66 328,122.71 328,121.51 328,121.51 328,120.71 328,120.39 328,120.39 328,120.18 328,120.1 328,120.1 328,120.05 328,120.03 328,120.03 328,120.01 328,120.01 328,120.01 328,120 328,120 328,120 328,120 L 328,120 328,120 328,120 338,120 Z M 338,120" />
</svg>
