<?xml version="1.0" encoding="UTF-8"?>
<!DOCTYPE svg PUBLIC "-//W3C//DTD SVG 1.1//EN" "http://www.w3.org/Graphics/SVG/1.1/DTD/svg11.dtd">
<svg version="1.1" xmlns="http://www.w3.org/2000/svg" xmlns:xlink="http://www.w3.org/1999/xlink" width="100" height="300"  xml:space="preserve" id="hole1">
    <!-- Generated by PaintCode - http://www.paintcodeapp.com -->
    <defs>
        <filter id="hole1-shadow-outer" filterUnits="userSpaceOnUse">
            <feGaussianBlur stdDeviation="2" />
            <feOffset dx="0" dy="-0" result="blur" />
            <feFlood flood-color="rgb(0, 0, 0)" flood-opacity="1" />
            <feComposite in2="blur" operator="in" result="colorShadow" />
            <feComposite in="SourceGraphic" in2="colorShadow" operator="over" />
        </filter>
    </defs>
    <g id="hole1-group" clip-path="url(#hole1-rectangle)">
        <clipPath id="hole1-rectangle">
            <rect x="0" y="-100" width="100" height="100"  transform="translate(-50, 150)" />
        </clipPath>
        <g id="hole1-group2" clip-path="url(#hole1-rectangle2)">
            <clipPath id="hole1-rectangle2">
                <rect x="-50" y="50" width="100" height="100" />
            </clipPath>
            <g id="hole1-group3" transform="translate(37.5, 137.5)" >
                <path id="hole1-lighttilecornerpiece" stroke="none" fill="rgb(158, 227, 227)" d="M 12.5,-12.5 C 12.29,-9.2 11.88,-6.62 11.07,-4.17 L 10.83,-3.2 C 8.46,3.33 3.32,8.48 -3.21,10.85 -6.17,11.79 -9.02,12.26 -12.5,12.5 -12.5,9.91 -12.5,-12.5 -12.5,-12.5 L 12.5,-12.5 Z M 12.5,-12.5" />
            </g>
            <g id="hole1-group4" transform="translate(-37.5, 137.5) rotate(90)" >
                <path id="hole1-darktilecornerpiece" stroke="none" fill="rgb(106, 153, 153)" d="M 12.5,-12.5 C 12.29,-9.2 11.88,-6.62 11.07,-4.17 L 10.83,-3.2 C 8.46,3.33 3.32,8.48 -3.21,10.85 -6.17,11.79 -9.02,12.26 -12.5,12.5 -12.5,9.91 -12.5,-12.5 -12.5,-12.5 L 12.5,-12.5 Z M 12.5,-12.5" />
            </g>
            <g id="hole1-group5" transform="translate(-12.5, 112.5)" >
                <rect id="hole1-darktilepiece" stroke="none" fill="rgb(106, 153, 153)" x="-12.5" y="-12.5" width="25" height="25" />
            </g>
            <g id="hole1-group6" transform="translate(12.5, 112.5)" >
                <rect id="hole1-lighttilepiece" stroke="none" fill="rgb(158, 227, 227)" x="-12.5" y="-12.5" width="25" height="25" />
            </g>
            <g id="hole1-group7" transform="translate(37.5, 87.5)" >
                <rect id="hole1-lighttilepiece2" stroke="none" fill="rgb(158, 227, 227)" x="-12.5" y="-12.5" width="25" height="25" />
            </g>
            <g id="hole1-group8" transform="translate(37.5, 62.5)" >
                <rect id="hole1-darktilepiece2" stroke="none" fill="rgb(106, 153, 153)" x="-12.5" y="-12.5" width="25" height="25" />
            </g>
            <g id="hole1-group9" transform="translate(-12.5, 62.5)" >
                <rect id="hole1-darktilepiece3" stroke="none" fill="rgb(106, 153, 153)" x="-12.5" y="-12.5" width="25" height="25" />
            </g>
            <g id="hole1-group10" transform="translate(-12.5, 87.5)" >
                <rect id="hole1-lighttilepiece3" stroke="none" fill="rgb(158, 227, 227)" x="-12.5" y="-12.5" width="25" height="25" />
            </g>
            <g id="hole1-group11" transform="translate(-37.5, 87.5)" >
                <rect id="hole1-darktilepiece4" stroke="none" fill="rgb(106, 153, 153)" x="-12.5" y="-12.5" width="25" height="25" />
            </g>
            <g id="hole1-group12" transform="translate(-37.5, 112.5)" >
                <rect id="hole1-lighttilepiece4" stroke="none" fill="rgb(158, 227, 227)" x="-12.5" y="-12.5" width="25" height="25" />
            </g>
            <g id="hole1-group13" transform="translate(-37.5, 62.5)" >
                <rect id="hole1-lighttilepiece5" stroke="none" fill="rgb(158, 227, 227)" x="-12.5" y="-12.5" width="25" height="25" />
            </g>
            <g id="hole1-group14" transform="translate(12.5, 62.5)" >
                <rect id="hole1-lighttilepiece6" stroke="none" fill="rgb(158, 227, 227)" x="-12.5" y="-12.5" width="25" height="25" />
            </g>
            <g id="hole1-group15" transform="translate(12.5, 87.5)" >
                <rect id="hole1-darktilepiece5" stroke="none" fill="rgb(106, 153, 153)" x="-12.5" y="-12.5" width="25" height="25" />
            </g>
            <g id="hole1-group16" transform="translate(12.5, 137.5)" >
                <rect id="hole1-darktilepiece6" stroke="none" fill="rgb(106, 153, 153)" x="-12.5" y="-12.5" width="25" height="25" />
            </g>
            <g id="hole1-group17" transform="translate(-12.5, 137.5)" >
                <rect id="hole1-lighttilepiece7" stroke="none" fill="rgb(158, 227, 227)" x="-12.5" y="-12.5" width="25" height="25" />
            </g>
            <g id="hole1-group18" transform="translate(37.5, 112.5)" >
                <rect id="hole1-darktilepiece7" stroke="none" fill="rgb(106, 153, 153)" x="-12.5" y="-12.5" width="25" height="25" />
            </g>
        </g>
        <g id="hole1-group19" transform="translate(-50, 50) rotate(-180)" >
            <g id="hole1-group20" clip-path="url(#hole1-rectangle3)">
                <clipPath id="hole1-rectangle3">
                    <rect x="-100" y="-100" width="100" height="100" />
                </clipPath>
                <g id="hole1-group21" clip-path="url(#hole1-rectangle4)" transform="translate(-50, -90) scale(0.72, 1)" >
                    <clipPath id="hole1-rectangle4">
                        <rect x="-50" y="-10" width="100" height="20" />
                    </clipPath>
                    <rect id="hole1-wall" stroke="none" fill="rgb(255, 255, 255)" filter="url(#hole1-shadow-outer)" x="0" y="0" width="14" height="100"  transform="translate(50, -10) rotate(90)" />
                </g>
                <g id="hole1-group22" transform="translate(-10, -43) rotate(90) scale(0.86, 1)" >
                    <path id="hole1-wall_Curve_Left" stroke="none" fill="rgb(255, 255, 255)" filter="url(#hole1-shadow-outer)" d="M -50,3.33 C -50,3.33 -50,9.14 -50,10 -49,5.25 -46,4 -43,4 -40,4 50,4 50,4 L 50,-10 -50,-10 -50,3.33 Z M -50,3.33" />
                </g>
                <g id="hole1-group23" transform="translate(-90, -43) rotate(-90) scale(-0.86, 1)" >
                    <path id="hole1-wall_Curve_Left2" stroke="none" fill="rgb(255, 255, 255)" filter="url(#hole1-shadow-outer)" d="M -50,3.33 C -50,3.33 -50,9.14 -50,10 -49,5.25 -46,4 -43,4 -40,4 50,4 50,4 L 50,-10 -50,-10 -50,3.33 Z M -50,3.33" />
                </g>
                <g id="hole1-group24" transform="translate(-95, -95) rotate(-90)" >
                    <path id="hole1-wallCorner" stroke="none" fill="rgb(255, 255, 255)" d="M -9,-5 C -1.27,-5 5,1.27 5,9 L -9,9 -9,-5 Z M -9,-5" />
                </g>
                <g id="hole1-group25" transform="translate(-5, -95)" >
                    <path id="hole1-wallCorner2" stroke="none" fill="rgb(255, 255, 255)" d="M -9,-5 C -1.27,-5 5,1.27 5,9 L -9,9 -9,-5 Z M -9,-5" />
                </g>
            </g>
        </g>
    </g>
    <g id="hole1-group26">
        <g id="hole1-group27" clip-path="url(#hole1-rectangle5)">
            <clipPath id="hole1-rectangle5">
                <rect x="-50" y="-150" width="100" height="100" />
            </clipPath>
            <g id="hole1-group28" transform="translate(-12.5, -137.5)" >
                <rect id="hole1-darktilepiece8" stroke="none" fill="rgb(106, 153, 153)" x="-12.5" y="-12.5" width="25" height="25" />
            </g>
            <g id="hole1-group29" transform="translate(-37.5, -112.5)" >
                <rect id="hole1-darktilepiece9" stroke="none" fill="rgb(106, 153, 153)" x="-12.5" y="-12.5" width="25" height="25" />
            </g>
            <g id="hole1-group30" transform="translate(-12.5, -87.5)" >
                <rect id="hole1-darktilepiece10" stroke="none" fill="rgb(106, 153, 153)" x="-12.5" y="-12.5" width="25" height="25" />
            </g>
            <g id="hole1-group31" transform="translate(-37.5, -62.5)" >
                <rect id="hole1-darktilepiece11" stroke="none" fill="rgb(106, 153, 153)" x="-12.5" y="-12.5" width="25" height="25" />
            </g>
            <g id="hole1-group32" transform="translate(12.5, -62.5)" >
                <rect id="hole1-darktilepiece12" stroke="none" fill="rgb(106, 153, 153)" x="-12.5" y="-12.5" width="25" height="25" />
            </g>
            <g id="hole1-group33" transform="translate(37.5, -87.5)" >
                <rect id="hole1-darktilepiece13" stroke="none" fill="rgb(106, 153, 153)" x="-12.5" y="-12.5" width="25" height="25" />
            </g>
            <g id="hole1-group34" transform="translate(12.5, -112.5)" >
                <rect id="hole1-darktilepiece14" stroke="none" fill="rgb(106, 153, 153)" x="-12.5" y="-12.5" width="25" height="25" />
            </g>
            <g id="hole1-group35" transform="translate(-12.5, -112.5)" >
                <rect id="hole1-lighttilepiece8" stroke="none" fill="rgb(158, 227, 227)" x="-12.5" y="-12.5" width="25" height="25" />
            </g>
            <g id="hole1-group36" transform="translate(12.5, -87.5)" >
                <rect id="hole1-lighttilepiece9" stroke="none" fill="rgb(158, 227, 227)" x="-12.5" y="-12.5" width="25" height="25" />
            </g>
            <g id="hole1-group37" transform="translate(37.5, -62.5)" >
                <rect id="hole1-lighttilepiece10" stroke="none" fill="rgb(158, 227, 227)" x="-12.5" y="-12.5" width="25" height="25" />
            </g>
            <g id="hole1-group38" transform="translate(37.5, -112.5)" >
                <rect id="hole1-lighttilepiece11" stroke="none" fill="rgb(158, 227, 227)" x="-12.5" y="-12.5" width="25" height="25" />
            </g>
            <g id="hole1-group39" transform="translate(12.5, -137.5)" >
                <rect id="hole1-lighttilepiece12" stroke="none" fill="rgb(158, 227, 227)" x="-12.5" y="-12.5" width="25" height="25" />
            </g>
            <g id="hole1-group40" transform="translate(-37.5, -87.5)" >
                <rect id="hole1-lighttilepiece13" stroke="none" fill="rgb(158, 227, 227)" x="-12.5" y="-12.5" width="25" height="25" />
            </g>
            <g id="hole1-group41" transform="translate(-12.5, -62.5)" >
                <rect id="hole1-lighttilepiece14" stroke="none" fill="rgb(158, 227, 227)" x="-12.5" y="-12.5" width="25" height="25" />
            </g>
            <g id="hole1-group42" transform="translate(-37.5, -137.5) rotate(-180)" >
                <path id="hole1-lighttilecornerpiece2" stroke="none" fill="rgb(158, 227, 227)" d="M 12.5,-12.5 C 12.29,-9.2 11.88,-6.62 11.07,-4.17 L 10.83,-3.2 C 8.46,3.33 3.32,8.48 -3.21,10.85 -6.17,11.79 -9.02,12.26 -12.5,12.5 -12.5,9.91 -12.5,-12.5 -12.5,-12.5 L 12.5,-12.5 Z M 12.5,-12.5" />
            </g>
            <g id="hole1-group43" transform="translate(37.5, -137.5) rotate(-90)" >
                <path id="hole1-darktilecornerpiece2" stroke="none" fill="rgb(106, 153, 153)" d="M 12.5,-12.5 C 12.29,-9.2 11.88,-6.62 11.07,-4.17 L 10.83,-3.2 C 8.46,3.33 3.32,8.48 -3.21,10.85 -6.17,11.79 -9.02,12.26 -12.5,12.5 -12.5,9.91 -12.5,-12.5 -12.5,-12.5 L 12.5,-12.5 Z M 12.5,-12.5" />
            </g>
        </g>
        <g id="hole1-group44">
            <ellipse id="hole1-depth" stroke="none" fill="rgb(233, 150, 65)" cx="0" cy="-100.5" rx="10" ry="9.5" />
            <path id="hole1-bottom" stroke="none" fill="rgb(72, 40, 0)" d="M 19.9,11 C 19.9,13 18.44,15.23 16,17 14.31,18.22 12.15,19 10,19 7.87,19 5.68,18.21 4,17 1.53,15.23 0,13 0,11 0,7.64 3,4 10,4 17,4 19.9,7.62 19.9,11 Z M 19.9,11" transform="translate(-10, -110)"  />
            <rect id="hole1-ballHole" stroke="rgb(255, 255, 255)" stroke-width="0" fill="none" x="0" y="-100.5" width="1" height="1" />
        </g>
        <g id="hole1-group45" clip-path="url(#hole1-rectangle6)">
            <clipPath id="hole1-rectangle6">
                <rect x="-50" y="-150" width="100" height="100" />
            </clipPath>
            <g id="hole1-group46" clip-path="url(#hole1-rectangle7)" transform="translate(0, -140) scale(0.72, 1)" >
                <clipPath id="hole1-rectangle7">
                    <rect x="-50" y="-10" width="100" height="20" />
                </clipPath>
                <rect id="hole1-wall2" stroke="none" fill="rgb(255, 255, 255)" filter="url(#hole1-shadow-outer)" x="0" y="0" width="14" height="100"  transform="translate(50, -10) rotate(90)" />
            </g>
            <g id="hole1-group47" transform="translate(40, -93) rotate(90) scale(0.86, 1)" >
                <path id="hole1-wall_Curve_Left3" stroke="none" fill="rgb(255, 255, 255)" filter="url(#hole1-shadow-outer)" d="M -50,3.33 C -50,3.33 -50,9.14 -50,10 -49,5.25 -46,4 -43,4 -40,4 50,4 50,4 L 50,-10 -50,-10 -50,3.33 Z M -50,3.33" />
            </g>
            <g id="hole1-group48" transform="translate(-40, -93) rotate(-90) scale(-0.86, 1)" >
                <path id="hole1-wall_Curve_Left4" stroke="none" fill="rgb(255, 255, 255)" filter="url(#hole1-shadow-outer)" d="M -50,3.33 C -50,3.33 -50,9.14 -50,10 -49,5.25 -46,4 -43,4 -40,4 50,4 50,4 L 50,-10 -50,-10 -50,3.33 Z M -50,3.33" />
            </g>
            <g id="hole1-group49" transform="translate(-45, -145) rotate(-90)" >
                <path id="hole1-wallCorner3" stroke="none" fill="rgb(255, 255, 255)" d="M -9,-5 C -1.27,-5 5,1.27 5,9 L -9,9 -9,-5 Z M -9,-5" />
            </g>
            <g id="hole1-group50" transform="translate(45, -145)" >
                <path id="hole1-wallCorner4" stroke="none" fill="rgb(255, 255, 255)" d="M -9,-5 C -1.27,-5 5,1.27 5,9 L -9,9 -9,-5 Z M -9,-5" />
            </g>
        </g>
    </g>
    <g id="hole1-group51" clip-path="url(#hole1-rectangle8)">
        <clipPath id="hole1-rectangle8">
            <rect x="0" y="-100" width="100" height="100"  transform="translate(-50, 50)" />
        </clipPath>
        <g id="hole1-group52" transform="" >
            <g id="hole1-group53" transform="translate(-37.5, -12.5)" >
                <rect id="hole1-darktilepiece15" stroke="none" fill="rgb(106, 153, 153)" x="-12.5" y="-12.5" width="25" height="25" />
            </g>
            <g id="hole1-group54" transform="translate(37.5, -12.5)" >
                <rect id="hole1-lighttilepiece15" stroke="none" fill="rgb(158, 227, 227)" x="-12.5" y="-12.5" width="25" height="25" />
            </g>
            <g id="hole1-group55" transform="translate(-12.5, -12.5)" >
                <rect id="hole1-lighttilepiece16" stroke="none" fill="rgb(158, 227, 227)" x="-12.5" y="-12.5" width="25" height="25" />
            </g>
            <g id="hole1-group56" transform="translate(12.5, -12.5)" >
                <rect id="hole1-darktilepiece16" stroke="none" fill="rgb(106, 153, 153)" x="-12.5" y="-12.5" width="25" height="25" />
            </g>
            <g id="hole1-group57" transform="translate(-37.5, 37.5)" >
                <rect id="hole1-darktilepiece17" stroke="none" fill="rgb(106, 153, 153)" x="-12.5" y="-12.5" width="25" height="25" />
            </g>
            <g id="hole1-group58" transform="translate(37.5, 37.5)" >
                <rect id="hole1-lighttilepiece17" stroke="none" fill="rgb(158, 227, 227)" x="-12.5" y="-12.5" width="25" height="25" />
            </g>
            <g id="hole1-group59" transform="translate(-12.5, 37.5)" >
                <rect id="hole1-lighttilepiece18" stroke="none" fill="rgb(158, 227, 227)" x="-12.5" y="-12.5" width="25" height="25" />
            </g>
            <g id="hole1-group60" transform="translate(12.5, 37.5)" >
                <rect id="hole1-darktilepiece18" stroke="none" fill="rgb(106, 153, 153)" x="-12.5" y="-12.5" width="25" height="25" />
            </g>
            <g id="hole1-group61" transform="translate(37.5, 12.5)" >
                <rect id="hole1-darktilepiece19" stroke="none" fill="rgb(106, 153, 153)" x="-12.5" y="-12.5" width="25" height="25" />
            </g>
            <g id="hole1-group62" transform="translate(12.5, 12.5)" >
                <rect id="hole1-lighttilepiece19" stroke="none" fill="rgb(158, 227, 227)" x="-12.5" y="-12.5" width="25" height="25" />
            </g>
            <g id="hole1-group63" transform="translate(-12.5, 12.5)" >
                <rect id="hole1-darktilepiece20" stroke="none" fill="rgb(106, 153, 153)" x="-12.5" y="-12.5" width="25" height="25" />
            </g>
            <g id="hole1-group64" transform="translate(-37.5, 12.5)" >
                <rect id="hole1-lighttilepiece20" stroke="none" fill="rgb(158, 227, 227)" x="-12.5" y="-12.5" width="25" height="25" />
            </g>
            <g id="hole1-group65" transform="translate(37.5, -37.5)" >
                <rect id="hole1-darktilepiece21" stroke="none" fill="rgb(106, 153, 153)" x="-12.5" y="-12.5" width="25" height="25" />
            </g>
            <g id="hole1-group66" transform="translate(12.5, -37.5)" >
                <rect id="hole1-lighttilepiece21" stroke="none" fill="rgb(158, 227, 227)" x="-12.5" y="-12.5" width="25" height="25" />
            </g>
            <g id="hole1-group67" transform="translate(-12.5, -37.5)" >
                <rect id="hole1-darktilepiece22" stroke="none" fill="rgb(106, 153, 153)" x="-12.5" y="-12.5" width="25" height="25" />
            </g>
            <g id="hole1-group68" transform="translate(-37.5, -37.5)" >
                <rect id="hole1-lighttilepiece22" stroke="none" fill="rgb(158, 227, 227)" x="-12.5" y="-12.5" width="25" height="25" />
            </g>
        </g>
        <g id="hole1-group69" clip-path="url(#hole1-rectangle9)" transform="translate(-40, -0) rotate(-90)" >
            <clipPath id="hole1-rectangle9">
                <rect x="-50" y="-10" width="100" height="20" />
            </clipPath>
            <rect id="hole1-wall3" stroke="none" fill="rgb(255, 255, 255)" filter="url(#hole1-shadow-outer)" x="0" y="0" width="14" height="100"  transform="translate(50, -10) rotate(90)" />
        </g>
        <g id="hole1-group70" clip-path="url(#hole1-rectangle10)" transform="translate(40, -0) rotate(90)" >
            <clipPath id="hole1-rectangle10">
                <rect x="-50" y="-10" width="100" height="20" />
            </clipPath>
            <rect id="hole1-wall4" stroke="none" fill="rgb(255, 255, 255)" filter="url(#hole1-shadow-outer)" x="0" y="0" width="14" height="100"  transform="translate(50, -10) rotate(90)" />
        </g>
    </g>
</svg>
