<?xml version="1.0" encoding="UTF-8"?>
<!DOCTYPE svg PUBLIC "-//W3C//DTD SVG 1.1//EN" "http://www.w3.org/Graphics/SVG/1.1/DTD/svg11.dtd">
<svg version="1.1" xmlns="http://www.w3.org/2000/svg" xmlns:xlink="http://www.w3.org/1999/xlink" width="400" height="700"  xml:space="preserve" id="hole">
    <!-- Generated by PaintCode - http://www.paintcodeapp.com -->
    <defs>
        <style type="text/css"><![CDATA[
            @media all {
                image.highRes_resource {display:none}
            }
            @media only screen and (-webkit-min-device-pixel-ratio: 2),
                   only screen and (min--moz-device-pixel-ratio: 2),
                   only screen and (-o-min-device-pixel-ratio: 2/1),
                   only screen and (min-device-pixel-ratio: 2),
                   only screen and (min-resolution: 2dppx) {
                image.lowRes_resource  {display:none}
                image.highRes_resource {display:inline}
            }
        ]]></style>
        <pattern id="hole-frostPattern8-background" x="27" y="472" width="100" height="100" patternUnits="userSpaceOnUse" viewBox="0 0 100 100">
            <image xlink:href="images/frostPattern8.png" x="0" y="0" width="100" height="100" />
            <image xlink:href="images/frostPattern8_2x.png" x="0" y="0" width="100" height="100" class="highRes_resource" />
        </pattern>
    </defs>
    <g id="hole-group">
        <path id="hole-background" stroke="none" fill="url(#hole-frostPattern8-background)" d="M 321.05,351.07 C 222.05,429.68 215.92,344.08 193.14,387.75 168.98,434.05 232.68,444.92 286.01,417.45 391.14,363.29 367.15,536.72 321.05,576.42 278.42,613.12 105.24,587.77 79.24,546.72 58.21,513.53 51.2,443.52 51.2,398.23 51.2,296.93 126.55,136.2 271.99,137.94 362.27,139.03 404.24,273.85 321.05,351.07 Z M 363.83,111.23 C 351.25,128.63 228.09,100.97 162.27,137.93 88.25,179.5 72.01,278.06 49.15,269.36 5.95,252.93 38.86,142.04 49.15,111.23 59.43,80.43 114.79,64 143.76,64 172.72,64 390.57,74.27 363.83,111.23 Z M 363.83,111.23" />
        <path id="hole-wall1" stroke="rgb(20, 115, 128)" stroke-width="2.5" stroke-miterlimit="10" fill="rgb(40, 230, 255)" d="M 323.07,353.61 C 297.28,374.09 276.02,384.96 257.93,388.11 244.03,390.54 233.57,388.59 221.57,383.16 220.18,382.53 215.92,380.52 215.64,380.39 213.61,379.45 212.16,378.85 210.86,378.44 208.07,377.55 206.17,377.6 204.32,378.61 201.82,379.99 199.11,383.33 196.02,389.25 185.72,409 192.01,422.11 211.33,427.12 230.76,432.15 259.35,427.52 284.52,414.56 310.36,401.25 330.5,400.47 344.32,411.3 356.41,420.77 362.72,438.56 363.49,461.63 364.92,504.71 346.73,558.59 323.17,578.88 302.41,596.76 251.22,601.6 193.48,593.95 136.98,586.45 89.47,568.94 76.49,548.46 57.86,519.05 47.95,457.26 47.95,398.23 47.95,343.7 68.87,278.09 104.4,227.58 146.13,168.24 203.77,133.88 272.03,134.7 316.64,135.23 352.34,167.82 364.72,215.13 377.38,263.54 363.07,316.5 323.26,353.45 L 323.17,353.53 323.07,353.61 Z M 323.07,353.61" />
        <path id="hole-wall2" stroke="rgb(20, 115, 128)" stroke-width="2.5" stroke-miterlimit="10" fill="rgb(40, 230, 255)" d="M 285,221 C 368,265.5 305.86,258.35 285,281 250,319 296,231 258,230 220,229 161,257.64 161,235 161,212.36 193,180 258,185 284.25,187.02 247,194 285,221 Z M 285,221" />
        <path id="hole-wall" stroke="rgb(20, 115, 128)" stroke-width="2.5" stroke-miterlimit="10" fill="rgb(40, 230, 255)" d="M 287,372 C 294.75,367.25 310.15,355.57 319.03,348.52 L 318.84,348.68 C 356.86,313.4 370.5,262.91 358.43,216.78 346.75,172.13 313.42,141.69 271.95,141.19 206.01,140.4 150.29,173.62 109.71,231.31 65,309 119.45,301.76 110,330 100.12,359.52 54.45,371.05 54.45,398.23 54.45,456.1 64.21,516.92 81.98,544.98 112,571 122.12,527.64 150,536 166.72,541.01 137.5,573 193,588 249,595.43 300.03,590.23 318.93,573.95 340.81,555.11 358.37,503.13 356.99,461.85 356.29,440.51 350.59,424.47 340.31,416.42 328.81,407.4 311.29,408.08 287.49,420.34 272.71,427.95 251.87,460.12 237,462 225.23,463.49 219.03,435.83 209.7,433.41 196.15,429.9 187.63,422.47 185.29,412.23 185.5,392.5 165.76,406.37 170,388 173,375 188,392 201.19,372.92 204.77,370.94 208.48,370.86 212.83,372.24 214.44,372.76 216.11,373.45 218.37,374.49 218.7,374.64 222.92,376.64 224.25,377.24 247.5,377 199,348 201,330 202.87,313.21 241.5,382 287,372 Z M 287,372" />
        <path id="hole-wall3" stroke="rgb(20, 115, 128)" stroke-width="2.5" stroke-miterlimit="10" fill="rgb(40, 230, 255)" d="M 366.47,113.14 C 363.25,117.59 356.01,119.6 343.76,120.44 334.91,121.05 327.14,121.06 303.93,120.71 275.71,120.3 260.75,120.4 243.29,121.55 209.95,123.74 183.65,129.65 163.86,140.76 141.35,153.41 122.87,172.05 106.09,196.75 100.96,204.3 96.09,212.24 90.87,221.42 88.87,224.93 86.91,228.45 84.41,233.01 83.68,234.34 80.58,240.01 81.42,238.49 80.23,240.66 79.38,242.21 78.55,243.7 68.99,260.99 63.75,268.46 57.57,271.7 54.44,273.34 51.19,273.62 47.99,272.4 36.6,268.07 29.53,257.81 26.3,242.74 23.58,230.04 23.58,214.01 25.87,195.29 29.25,167.64 37.19,136.79 46.06,110.2 51.15,94.97 66.44,82.3 88.18,73.07 106.33,65.37 127.86,60.75 143.76,60.75 169.17,60.75 230.47,64.67 275.11,70.53 305.59,74.53 329.79,79.4 345.9,85.2 355.24,88.56 361.87,92.23 365.65,96.41 370.24,101.48 370.62,107.4 366.47,113.14 Z M 366.47,113.14" />
        <path id="hole-wall4" stroke="rgb(20, 115, 128)" stroke-width="2.5" stroke-miterlimit="10" fill="rgb(40, 230, 255)" d="M 361.2,109.33 C 363.54,106.1 363.38,103.59 360.83,100.77 357.93,97.56 352.12,94.35 343.7,91.32 328.13,85.71 304.32,80.92 274.26,76.98 229.91,71.15 168.89,67.25 143.76,67.25 128.76,67.25 108.08,71.68 90.72,79.06 70.53,87.62 56.6,99.16 52.23,112.26 43.48,138.47 35.64,168.94 32.32,196.08 27.6,234.65 32.98,259.74 50.3,266.33 51.7,266.86 53.02,266.75 54.55,265.94 59.09,263.56 64.05,256.5 72.86,240.56 73.68,239.07 74.53,237.53 75.71,235.37 74.88,236.9 77.98,231.22 78.71,229.89 81.23,225.3 83.2,221.75 85.22,218.2 90.52,208.89 95.47,200.81 100.71,193.1 118.02,167.63 137.18,148.29 160.68,135.1 181.48,123.41 208.64,117.31 242.86,115.06 260.55,113.9 275.64,113.79 304.03,114.22 327.02,114.56 334.72,114.55 343.31,113.96 353.61,113.25 359.56,111.6 361.2,109.33 Z M 361.2,109.33" />
    </g>
</svg>
