<?xml version="1.0" encoding="UTF-8"?>
<!DOCTYPE svg PUBLIC "-//W3C//DTD SVG 1.1//EN" "http://www.w3.org/Graphics/SVG/1.1/DTD/svg11.dtd">
<svg version="1.1" xmlns="http://www.w3.org/2000/svg" xmlns:xlink="http://www.w3.org/1999/xlink" width="414" height="736"  xml:space="preserve" id="slopes">
    <!-- Generated by PaintCode - http://www.paintcodeapp.com -->
    <defs>
        <radialGradient id="slopes-backgroundGradient-rectangle" cx="29.71" cy="33.32"  r="452.84" fx="-5.7" fy="-6.39" gradientUnits="userSpaceOnUse" >
            <stop offset="0.161" stop-color="rgb(18, 119, 139)" stop-opacity="1" />
            <stop offset="0.758" stop-color="rgb(45, 185, 185)" stop-opacity="1" />
            <stop offset="0.986" stop-color="rgb(73, 250, 232)" stop-opacity="1" />
        </radialGradient>
        <pattern id="slopes-trees-rectangle4" x="0" y="0" width="1964" height="1926" patternUnits="userSpaceOnUse" viewBox="0 0 1964 1926">
            <image xlink:href="images/trees.png" x="0" y="0" width="990" height="669" />
        </pattern>
        <filter id="slopes-shadow-outer" filterUnits="userSpaceOnUse">
            <feGaussianBlur stdDeviation="2" />
            <feOffset dx="0" dy="-0" result="blur" />
            <feFlood flood-color="rgb(0, 0, 0)" flood-opacity="1" />
            <feComposite in2="blur" operator="in" result="colorShadow" />
            <feComposite in="SourceGraphic" in2="colorShadow" operator="over" />
        </filter>
        <linearGradient id="slopes-flagPoleGradient-rectangle25" x1="3.5" y1="-0" x2="3.5" y2="200" gradientUnits="userSpaceOnUse" >
            <stop offset="0" stop-color="rgb(0, 0, 0)" stop-opacity="1" />
            <stop offset="0.89" stop-color="rgb(36, 20, 0)" stop-opacity="1" />
            <stop offset="1" stop-color="rgb(72, 40, 0)" stop-opacity="1" />
        </linearGradient>
    </defs>
    <rect id="slopes-rectangle" stroke="none" fill="url(#slopes-backgroundGradient-rectangle)" x="-207" y="-368" width="414" height="736" />
    <rect id="slopes-rectangle4" opacity="0.6" stroke="none" fill="url(#slopes-trees-rectangle4)" x="0" y="0" width="982" height="963"  transform="translate(-207, -368) scale(1.5, 2)" />
    <g id="slopes-group" clip-path="url(#slopes-rectangle2)">
        <clipPath id="slopes-rectangle2">
            <rect x="0" y="-100" width="100" height="100"  transform="translate(-150, -0)" />
        </clipPath>
        <g id="slopes-group2" clip-path="url(#slopes-rectangle3)">
            <clipPath id="slopes-rectangle3">
                <rect x="-150" y="-100" width="100" height="100" />
            </clipPath>
            <g id="slopes-group3" transform="translate(-112.5, -87.5)" >
                <rect id="slopes-darktilepiece" stroke="none" fill="rgb(106, 153, 153)" x="-12.5" y="-12.5" width="25" height="25" />
            </g>
            <g id="slopes-group4" transform="translate(-137.5, -62.5)" >
                <rect id="slopes-darktilepiece2" stroke="none" fill="rgb(106, 153, 153)" x="-12.5" y="-12.5" width="25" height="25" />
            </g>
            <g id="slopes-group5" transform="translate(-112.5, -37.5)" >
                <rect id="slopes-darktilepiece3" stroke="none" fill="rgb(106, 153, 153)" x="-12.5" y="-12.5" width="25" height="25" />
            </g>
            <g id="slopes-group6" transform="translate(-87.5, -12.5)" >
                <rect id="slopes-darktilepiece4" stroke="none" fill="rgb(106, 153, 153)" x="-12.5" y="-12.5" width="25" height="25" />
            </g>
            <g id="slopes-group7" transform="translate(-62.5, -37.5)" >
                <rect id="slopes-darktilepiece5" stroke="none" fill="rgb(106, 153, 153)" x="-12.5" y="-12.5" width="25" height="25" />
            </g>
            <g id="slopes-group8" transform="translate(-62.5, -87.5)" >
                <rect id="slopes-darktilepiece6" stroke="none" fill="rgb(106, 153, 153)" x="-12.5" y="-12.5" width="25" height="25" />
            </g>
            <g id="slopes-group9" transform="translate(-87.5, -62.5)" >
                <rect id="slopes-darktilepiece7" stroke="none" fill="rgb(106, 153, 153)" x="-12.5" y="-12.5" width="25" height="25" />
            </g>
            <g id="slopes-group10" transform="translate(-112.5, -62.5)" >
                <rect id="slopes-lighttilepiece" stroke="none" fill="rgb(158, 227, 227)" x="-12.5" y="-12.5" width="25" height="25" />
            </g>
            <g id="slopes-group11" transform="translate(-87.5, -37.5)" >
                <rect id="slopes-lighttilepiece2" stroke="none" fill="rgb(158, 227, 227)" x="-12.5" y="-12.5" width="25" height="25" />
            </g>
            <g id="slopes-group12" transform="translate(-62.5, -12.5)" >
                <rect id="slopes-lighttilepiece3" stroke="none" fill="rgb(158, 227, 227)" x="-12.5" y="-12.5" width="25" height="25" />
            </g>
            <g id="slopes-group13" transform="translate(-62.5, -62.5)" >
                <rect id="slopes-lighttilepiece4" stroke="none" fill="rgb(158, 227, 227)" x="-12.5" y="-12.5" width="25" height="25" />
            </g>
            <g id="slopes-group14" transform="translate(-87.5, -87.5)" >
                <rect id="slopes-lighttilepiece5" stroke="none" fill="rgb(158, 227, 227)" x="-12.5" y="-12.5" width="25" height="25" />
            </g>
            <g id="slopes-group15" transform="translate(-137.5, -37.5)" >
                <rect id="slopes-lighttilepiece6" stroke="none" fill="rgb(158, 227, 227)" x="-12.5" y="-12.5" width="25" height="25" />
            </g>
            <g id="slopes-group16" transform="translate(-112.5, -12.5)" >
                <rect id="slopes-lighttilepiece7" stroke="none" fill="rgb(158, 227, 227)" x="-12.5" y="-12.5" width="25" height="25" />
            </g>
            <g id="slopes-group17" transform="translate(-137.5, -87.5) rotate(-180)" >
                <path id="slopes-lighttilecornerpiece" stroke="none" fill="rgb(158, 227, 227)" d="M 12.5,-12.5 C 12.29,-9.2 11.88,-6.62 11.07,-4.17 L 10.83,-3.2 C 8.46,3.33 3.32,8.48 -3.21,10.85 -6.17,11.79 -9.02,12.26 -12.5,12.5 -12.5,9.91 -12.5,-12.5 -12.5,-12.5 L 12.5,-12.5 Z M 12.5,-12.5" />
            </g>
            <g id="slopes-group18" transform="translate(-137.5, -12.5) rotate(90)" >
                <path id="slopes-darktilecornerpiece" stroke="none" fill="rgb(106, 153, 153)" d="M 12.5,-12.5 C 12.29,-9.2 11.88,-6.62 11.07,-4.17 L 10.83,-3.2 C 8.46,3.33 3.32,8.48 -3.21,10.85 -6.17,11.79 -9.02,12.26 -12.5,12.5 -12.5,9.91 -12.5,-12.5 -12.5,-12.5 L 12.5,-12.5 Z M 12.5,-12.5" />
            </g>
        </g>
        <g id="slopes-group19" transform="translate(-150, -0) rotate(-90)" >
            <g id="slopes-group20" clip-path="url(#slopes-rectangle5)">
                <clipPath id="slopes-rectangle5">
                    <rect x="0" y="0" width="100" height="100" />
                </clipPath>
                <g id="slopes-group21" clip-path="url(#slopes-rectangle6)" transform="translate(50, 10) scale(0.72, 1)" >
                    <clipPath id="slopes-rectangle6">
                        <rect x="-50" y="-10" width="100" height="20" />
                    </clipPath>
                    <rect id="slopes-wall" stroke="none" fill="rgb(255, 255, 255)" filter="url(#slopes-shadow-outer)" x="0" y="0" width="14" height="100"  transform="translate(50, -10) rotate(90)" />
                </g>
                <g id="slopes-group22" transform="translate(90, 57) rotate(90) scale(0.86, 1)" >
                    <path id="slopes-wall_Curve_Left" stroke="none" fill="rgb(255, 255, 255)" filter="url(#slopes-shadow-outer)" d="M -50,3.33 C -50,3.33 -50,9.14 -50,10 -49,5.25 -46,4 -43,4 -40,4 50,4 50,4 L 50,-10 -50,-10 -50,3.33 Z M -50,3.33" />
                </g>
                <g id="slopes-group23" transform="translate(10, 57) rotate(-90) scale(-0.86, 1)" >
                    <path id="slopes-wall_Curve_Left2" stroke="none" fill="rgb(255, 255, 255)" filter="url(#slopes-shadow-outer)" d="M -50,3.33 C -50,3.33 -50,9.14 -50,10 -49,5.25 -46,4 -43,4 -40,4 50,4 50,4 L 50,-10 -50,-10 -50,3.33 Z M -50,3.33" />
                </g>
                <g id="slopes-group24" transform="translate(5, 5) rotate(-90)" >
                    <path id="slopes-wallCorner" stroke="none" fill="rgb(255, 255, 255)" d="M -9,-5 C -1.27,-5 5,1.27 5,9 L -9,9 -9,-5 Z M -9,-5" />
                </g>
                <g id="slopes-group25" transform="translate(95, 5)" >
                    <path id="slopes-wallCorner2" stroke="none" fill="rgb(255, 255, 255)" d="M -9,-5 C -1.27,-5 5,1.27 5,9 L -9,9 -9,-5 Z M -9,-5" />
                </g>
            </g>
        </g>
    </g>
    <g id="slopes-group26" clip-path="url(#slopes-rectangle7)">
        <clipPath id="slopes-rectangle7">
            <rect x="0" y="-100" width="100" height="100"  transform="translate(-50, 100)" />
        </clipPath>
        <g id="slopes-group27" transform="translate(0, 50)" >
            <g id="slopes-group28" transform="translate(-37.5, -12.5)" >
                <rect id="slopes-darktilepiece8" stroke="none" fill="rgb(106, 153, 153)" x="-12.5" y="-12.5" width="25" height="25" />
            </g>
            <g id="slopes-group29" transform="translate(37.5, -12.5)" >
                <rect id="slopes-lighttilepiece8" stroke="none" fill="rgb(158, 227, 227)" x="-12.5" y="-12.5" width="25" height="25" />
            </g>
            <g id="slopes-group30" transform="translate(-12.5, -12.5)" >
                <rect id="slopes-lighttilepiece9" stroke="none" fill="rgb(158, 227, 227)" x="-12.5" y="-12.5" width="25" height="25" />
            </g>
            <g id="slopes-group31" transform="translate(12.5, -12.5)" >
                <rect id="slopes-darktilepiece9" stroke="none" fill="rgb(106, 153, 153)" x="-12.5" y="-12.5" width="25" height="25" />
            </g>
            <g id="slopes-group32" transform="translate(-37.5, 37.5)" >
                <rect id="slopes-darktilepiece10" stroke="none" fill="rgb(106, 153, 153)" x="-12.5" y="-12.5" width="25" height="25" />
            </g>
            <g id="slopes-group33" transform="translate(37.5, 37.5)" >
                <rect id="slopes-lighttilepiece10" stroke="none" fill="rgb(158, 227, 227)" x="-12.5" y="-12.5" width="25" height="25" />
            </g>
            <g id="slopes-group34" transform="translate(-12.5, 37.5)" >
                <rect id="slopes-lighttilepiece11" stroke="none" fill="rgb(158, 227, 227)" x="-12.5" y="-12.5" width="25" height="25" />
            </g>
            <g id="slopes-group35" transform="translate(12.5, 37.5)" >
                <rect id="slopes-darktilepiece11" stroke="none" fill="rgb(106, 153, 153)" x="-12.5" y="-12.5" width="25" height="25" />
            </g>
            <g id="slopes-group36" transform="translate(37.5, 12.5)" >
                <rect id="slopes-darktilepiece12" stroke="none" fill="rgb(106, 153, 153)" x="-12.5" y="-12.5" width="25" height="25" />
            </g>
            <g id="slopes-group37" transform="translate(12.5, 12.5)" >
                <rect id="slopes-lighttilepiece12" stroke="none" fill="rgb(158, 227, 227)" x="-12.5" y="-12.5" width="25" height="25" />
            </g>
            <g id="slopes-group38" transform="translate(-12.5, 12.5)" >
                <rect id="slopes-darktilepiece13" stroke="none" fill="rgb(106, 153, 153)" x="-12.5" y="-12.5" width="25" height="25" />
            </g>
            <g id="slopes-group39" transform="translate(-37.5, 12.5)" >
                <rect id="slopes-lighttilepiece13" stroke="none" fill="rgb(158, 227, 227)" x="-12.5" y="-12.5" width="25" height="25" />
            </g>
            <g id="slopes-group40" transform="translate(37.5, -37.5)" >
                <rect id="slopes-darktilepiece14" stroke="none" fill="rgb(106, 153, 153)" x="-12.5" y="-12.5" width="25" height="25" />
            </g>
            <g id="slopes-group41" transform="translate(12.5, -37.5)" >
                <rect id="slopes-lighttilepiece14" stroke="none" fill="rgb(158, 227, 227)" x="-12.5" y="-12.5" width="25" height="25" />
            </g>
            <g id="slopes-group42" transform="translate(-12.5, -37.5)" >
                <rect id="slopes-darktilepiece15" stroke="none" fill="rgb(106, 153, 153)" x="-12.5" y="-12.5" width="25" height="25" />
            </g>
            <g id="slopes-group43" transform="translate(-37.5, -37.5)" >
                <rect id="slopes-lighttilepiece15" stroke="none" fill="rgb(158, 227, 227)" x="-12.5" y="-12.5" width="25" height="25" />
            </g>
        </g>
        <g id="slopes-group44" clip-path="url(#slopes-rectangle8)" transform="translate(-40, 50) rotate(-90)" >
            <clipPath id="slopes-rectangle8">
                <rect x="-50" y="-10" width="100" height="20" />
            </clipPath>
            <rect id="slopes-wall2" stroke="none" fill="rgb(255, 255, 255)" filter="url(#slopes-shadow-outer)" x="0" y="0" width="14" height="100"  transform="translate(50, -10) rotate(90)" />
        </g>
        <g id="slopes-group45" clip-path="url(#slopes-rectangle9)" transform="translate(40, 50) rotate(90)" >
            <clipPath id="slopes-rectangle9">
                <rect x="-50" y="-10" width="100" height="20" />
            </clipPath>
            <rect id="slopes-wall3" stroke="none" fill="rgb(255, 255, 255)" filter="url(#slopes-shadow-outer)" x="0" y="0" width="14" height="100"  transform="translate(50, -10) rotate(90)" />
        </g>
    </g>
    <g id="slopes-group46" clip-path="url(#slopes-rectangle10)">
        <clipPath id="slopes-rectangle10">
            <rect x="0" y="-100" width="100" height="100"  transform="translate(-50, 200)" />
        </clipPath>
        <g id="slopes-group47" clip-path="url(#slopes-rectangle11)">
            <clipPath id="slopes-rectangle11">
                <rect x="-50" y="100" width="100" height="100" />
            </clipPath>
            <g id="slopes-group48" transform="translate(-37.5, 187.5) rotate(90)" >
                <path id="slopes-darktilecornerpiece2" stroke="none" fill="rgb(106, 153, 153)" d="M 12.5,-12.5 C 12.29,-9.2 11.88,-6.62 11.07,-4.17 L 10.83,-3.2 C 8.46,3.33 3.32,8.48 -3.21,10.85 -6.17,11.79 -9.02,12.26 -12.5,12.5 -12.5,9.91 -12.5,-12.5 -12.5,-12.5 L 12.5,-12.5 Z M 12.5,-12.5" />
            </g>
            <g id="slopes-group49" transform="translate(-37.5, 137.5)" >
                <rect id="slopes-darktilepiece16" stroke="none" fill="rgb(106, 153, 153)" x="-12.5" y="-12.5" width="25" height="25" />
            </g>
            <g id="slopes-group50" transform="translate(-12.5, 137.5)" >
                <rect id="slopes-lighttilepiece16" stroke="none" fill="rgb(158, 227, 227)" x="-12.5" y="-12.5" width="25" height="25" />
            </g>
            <g id="slopes-group51" transform="translate(12.5, 137.5)" >
                <rect id="slopes-darktilepiece17" stroke="none" fill="rgb(106, 153, 153)" x="-12.5" y="-12.5" width="25" height="25" />
            </g>
            <g id="slopes-group52" transform="translate(37.5, 137.5)" >
                <rect id="slopes-lighttilepiece17" stroke="none" fill="rgb(158, 227, 227)" x="-12.5" y="-12.5" width="25" height="25" />
            </g>
            <g id="slopes-group53" transform="translate(12.5, 162.5)" >
                <rect id="slopes-lighttilepiece18" stroke="none" fill="rgb(158, 227, 227)" x="-12.5" y="-12.5" width="25" height="25" />
            </g>
            <g id="slopes-group54" transform="translate(-37.5, 162.5)" >
                <rect id="slopes-lighttilepiece19" stroke="none" fill="rgb(158, 227, 227)" x="-12.5" y="-12.5" width="25" height="25" />
            </g>
            <g id="slopes-group55" transform="translate(-12.5, 162.5)" >
                <rect id="slopes-darktilepiece18" stroke="none" fill="rgb(106, 153, 153)" x="-12.5" y="-12.5" width="25" height="25" />
            </g>
            <g id="slopes-group56" transform="translate(37.5, 162.5)" >
                <rect id="slopes-darktilepiece19" stroke="none" fill="rgb(106, 153, 153)" x="-12.5" y="-12.5" width="25" height="25" />
            </g>
            <g id="slopes-group57" transform="translate(37.5, 112.5)" >
                <rect id="slopes-darktilepiece20" stroke="none" fill="rgb(106, 153, 153)" x="-12.5" y="-12.5" width="25" height="25" />
            </g>
            <g id="slopes-group58" transform="translate(-12.5, 112.5)" >
                <rect id="slopes-darktilepiece21" stroke="none" fill="rgb(106, 153, 153)" x="-12.5" y="-12.5" width="25" height="25" />
            </g>
            <g id="slopes-group59" transform="translate(12.5, 112.5)" >
                <rect id="slopes-lighttilepiece20" stroke="none" fill="rgb(158, 227, 227)" x="-12.5" y="-12.5" width="25" height="25" />
            </g>
            <g id="slopes-group60" transform="translate(-37.5, 112.5)" >
                <rect id="slopes-lighttilepiece21" stroke="none" fill="rgb(158, 227, 227)" x="-12.5" y="-12.5" width="25" height="25" />
            </g>
            <g id="slopes-group61" transform="translate(-12.5, 187.5)" >
                <rect id="slopes-lighttilepiece22" stroke="none" fill="rgb(158, 227, 227)" x="-12.5" y="-12.5" width="25" height="25" />
            </g>
            <g id="slopes-group62" transform="translate(37.5, 187.5)" >
                <rect id="slopes-lighttilepiece23" stroke="none" fill="rgb(158, 227, 227)" x="-12.5" y="-12.5" width="25" height="25" />
            </g>
            <g id="slopes-group63" transform="translate(12.5, 187.5)" >
                <rect id="slopes-darktilepiece22" stroke="none" fill="rgb(106, 153, 153)" x="-12.5" y="-12.5" width="25" height="25" />
            </g>
        </g>
        <g id="slopes-group64" clip-path="url(#slopes-rectangle12)" transform="translate(-50, 200) rotate(-90)" >
            <clipPath id="slopes-rectangle12">
                <rect x="0" y="0" width="100" height="100" />
            </clipPath>
            <g id="slopes-group65" transform="translate(91, 91) rotate(-90)" >
                <path id="slopes-wallinnercorner" stroke="none" fill="rgb(255, 255, 255)" filter="url(#slopes-shadow-outer)" d="M -9,-5 C -1.27,-5 5,1.27 5,9 L -9,9 -9,-5 Z M -9,-5" />
            </g>
            <g id="slopes-group66" clip-path="url(#slopes-rectangle13)" transform="translate(10, 57) rotate(-90) scale(0.86, 1)" >
                <clipPath id="slopes-rectangle13">
                    <rect x="-50" y="-10" width="100" height="20" />
                </clipPath>
                <rect id="slopes-wall4" stroke="none" fill="rgb(255, 255, 255)" filter="url(#slopes-shadow-outer)" x="0" y="0" width="14" height="100"  transform="translate(50, -10) rotate(90)" />
            </g>
            <g id="slopes-group67" transform="translate(57, 10) scale(0.86, 1)" >
                <path id="slopes-wall_Curve_Left3" stroke="none" fill="rgb(255, 255, 255)" filter="url(#slopes-shadow-outer)" d="M -50,3.33 C -50,3.33 -50,9.14 -50,10 -49,5.25 -46,4 -43,4 -40,4 50,4 50,4 L 50,-10 -50,-10 -50,3.33 Z M -50,3.33" />
            </g>
            <g id="slopes-group68" transform="translate(5, 5) rotate(-90)" >
                <path id="slopes-wallCorner3" stroke="none" fill="rgb(255, 255, 255)" d="M -9,-5 C -1.27,-5 5,1.27 5,9 L -9,9 -9,-5 Z M -9,-5" />
            </g>
        </g>
    </g>
    <g id="slopes-elevated">
        <g id="slopes-group163" clip-path="url(#slopes-rectangle26)">
            <clipPath id="slopes-rectangle26">
                <rect x="0" y="-100" width="100" height="100"  transform="translate(-50, -0)" />
            </clipPath>
            <g id="slopes-group164" transform="translate(0, -50)" >
                <g id="slopes-group165" transform="translate(-37.5, -12.5)" >
                    <rect id="slopes-darktilepiece53" stroke="none" fill="rgb(106, 153, 153)" x="-12.5" y="-12.5" width="25" height="25" />
                </g>
                <g id="slopes-group166" transform="translate(37.5, -12.5)" >
                    <rect id="slopes-lighttilepiece54" stroke="none" fill="rgb(158, 227, 227)" x="-12.5" y="-12.5" width="25" height="25" />
                </g>
                <g id="slopes-group167" transform="translate(-12.5, -12.5)" >
                    <rect id="slopes-lighttilepiece55" stroke="none" fill="rgb(158, 227, 227)" x="-12.5" y="-12.5" width="25" height="25" />
                </g>
                <g id="slopes-group168" transform="translate(12.5, -12.5)" >
                    <rect id="slopes-darktilepiece54" stroke="none" fill="rgb(106, 153, 153)" x="-12.5" y="-12.5" width="25" height="25" />
                </g>
                <g id="slopes-group169" transform="translate(-37.5, 37.5)" >
                    <rect id="slopes-darktilepiece55" stroke="none" fill="rgb(106, 153, 153)" x="-12.5" y="-12.5" width="25" height="25" />
                </g>
                <g id="slopes-group170" transform="translate(37.5, 37.5)" >
                    <rect id="slopes-lighttilepiece56" stroke="none" fill="rgb(158, 227, 227)" x="-12.5" y="-12.5" width="25" height="25" />
                </g>
                <g id="slopes-group171" transform="translate(-12.5, 37.5)" >
                    <rect id="slopes-lighttilepiece57" stroke="none" fill="rgb(158, 227, 227)" x="-12.5" y="-12.5" width="25" height="25" />
                </g>
                <g id="slopes-group172" transform="translate(12.5, 37.5)" >
                    <rect id="slopes-darktilepiece56" stroke="none" fill="rgb(106, 153, 153)" x="-12.5" y="-12.5" width="25" height="25" />
                </g>
                <g id="slopes-group173" transform="translate(37.5, 12.5)" >
                    <rect id="slopes-darktilepiece57" stroke="none" fill="rgb(106, 153, 153)" x="-12.5" y="-12.5" width="25" height="25" />
                </g>
                <g id="slopes-group174" transform="translate(12.5, 12.5)" >
                    <rect id="slopes-lighttilepiece58" stroke="none" fill="rgb(158, 227, 227)" x="-12.5" y="-12.5" width="25" height="25" />
                </g>
                <g id="slopes-group175" transform="translate(-12.5, 12.5)" >
                    <rect id="slopes-darktilepiece58" stroke="none" fill="rgb(106, 153, 153)" x="-12.5" y="-12.5" width="25" height="25" />
                </g>
                <g id="slopes-group176" transform="translate(-37.5, 12.5)" >
                    <rect id="slopes-lighttilepiece59" stroke="none" fill="rgb(158, 227, 227)" x="-12.5" y="-12.5" width="25" height="25" />
                </g>
                <g id="slopes-group177" transform="translate(37.5, -37.5)" >
                    <rect id="slopes-darktilepiece59" stroke="none" fill="rgb(106, 153, 153)" x="-12.5" y="-12.5" width="25" height="25" />
                </g>
                <g id="slopes-group178" transform="translate(12.5, -37.5)" >
                    <rect id="slopes-lighttilepiece60" stroke="none" fill="rgb(158, 227, 227)" x="-12.5" y="-12.5" width="25" height="25" />
                </g>
                <g id="slopes-group179" transform="translate(-12.5, -37.5)" >
                    <rect id="slopes-darktilepiece60" stroke="none" fill="rgb(106, 153, 153)" x="-12.5" y="-12.5" width="25" height="25" />
                </g>
                <g id="slopes-group180" transform="translate(-37.5, -37.5)" >
                    <rect id="slopes-lighttilepiece61" stroke="none" fill="rgb(158, 227, 227)" x="-12.5" y="-12.5" width="25" height="25" />
                </g>
            </g>
            <g id="slopes-group181" clip-path="url(#slopes-rectangle27)" transform="translate(0, -90)" >
                <clipPath id="slopes-rectangle27">
                    <rect x="-50" y="-10" width="100" height="20" />
                </clipPath>
                <rect id="slopes-wall10" stroke="none" fill="rgb(255, 255, 255)" filter="url(#slopes-shadow-outer)" x="0" y="0" width="14" height="100"  transform="translate(50, -10) rotate(90)" />
            </g>
            <g id="slopes-group182" clip-path="url(#slopes-rectangle28)" transform="translate(0, -10) rotate(-180)" >
                <clipPath id="slopes-rectangle28">
                    <rect x="-50" y="-10" width="100" height="20" />
                </clipPath>
                <rect id="slopes-wall11" stroke="none" fill="rgb(255, 255, 255)" filter="url(#slopes-shadow-outer)" x="0" y="0" width="14" height="100"  transform="translate(50, -10) rotate(90)" />
            </g>
        </g>
    </g>
    <g id="slopes-group69">
        <g id="slopes-group70">
            <g id="slopes-group71" transform="translate(137.5, -87.5) rotate(-90)" >
                <path id="slopes-darktilecornerpiece3" stroke="none" fill="rgb(106, 153, 153)" d="M 12.5,-12.5 C 12.29,-9.2 11.88,-6.62 11.07,-4.17 L 10.83,-3.2 C 8.46,3.33 3.32,8.48 -3.21,10.85 -6.17,11.79 -9.02,12.26 -12.5,12.5 -12.5,9.91 -12.5,-12.5 -12.5,-12.5 L 12.5,-12.5 Z M 12.5,-12.5" />
            </g>
            <g id="slopes-group72" transform="translate(62.5, -62.5)" >
                <rect id="slopes-darktilepiece23" stroke="none" fill="rgb(106, 153, 153)" x="-12.5" y="-12.5" width="25" height="25" />
            </g>
            <g id="slopes-group73" transform="translate(137.5, -62.5)" >
                <rect id="slopes-lighttilepiece24" stroke="none" fill="rgb(158, 227, 227)" x="-12.5" y="-12.5" width="25" height="25" />
            </g>
            <g id="slopes-group74" transform="translate(112.5, -62.5)" >
                <rect id="slopes-darktilepiece24" stroke="none" fill="rgb(106, 153, 153)" x="-12.5" y="-12.5" width="25" height="25" />
            </g>
            <g id="slopes-group75" transform="translate(87.5, -62.5)" >
                <rect id="slopes-lighttilepiece25" stroke="none" fill="rgb(158, 227, 227)" x="-12.5" y="-12.5" width="25" height="25" />
            </g>
            <g id="slopes-group76" transform="translate(112.5, -12.5)" >
                <rect id="slopes-darktilepiece25" stroke="none" fill="rgb(106, 153, 153)" x="-12.5" y="-12.5" width="25" height="25" />
            </g>
            <g id="slopes-group77" transform="translate(137.5, -12.5)" >
                <rect id="slopes-lighttilepiece26" stroke="none" fill="rgb(158, 227, 227)" x="-12.5" y="-12.5" width="25" height="25" />
            </g>
            <g id="slopes-group78" transform="translate(62.5, -12.5)" >
                <rect id="slopes-darktilepiece26" stroke="none" fill="rgb(106, 153, 153)" x="-12.5" y="-12.5" width="25" height="25" />
            </g>
            <g id="slopes-group79" transform="translate(87.5, -12.5)" >
                <rect id="slopes-lighttilepiece27" stroke="none" fill="rgb(158, 227, 227)" x="-12.5" y="-12.5" width="25" height="25" />
            </g>
            <g id="slopes-group80" transform="translate(62.5, -37.5)" >
                <rect id="slopes-lighttilepiece28" stroke="none" fill="rgb(158, 227, 227)" x="-12.5" y="-12.5" width="25" height="25" />
            </g>
            <g id="slopes-group81" transform="translate(112.5, -37.5)" >
                <rect id="slopes-lighttilepiece29" stroke="none" fill="rgb(158, 227, 227)" x="-12.5" y="-12.5" width="25" height="25" />
            </g>
            <g id="slopes-group82" transform="translate(137.5, -37.5)" >
                <rect id="slopes-darktilepiece27" stroke="none" fill="rgb(106, 153, 153)" x="-12.5" y="-12.5" width="25" height="25" />
            </g>
            <g id="slopes-group83" transform="translate(87.5, -37.5)" >
                <rect id="slopes-darktilepiece28" stroke="none" fill="rgb(106, 153, 153)" x="-12.5" y="-12.5" width="25" height="25" />
            </g>
            <g id="slopes-group84" transform="translate(62.5, -87.5)" >
                <rect id="slopes-lighttilepiece30" stroke="none" fill="rgb(158, 227, 227)" x="-12.5" y="-12.5" width="25" height="25" />
            </g>
            <g id="slopes-group85" transform="translate(112.5, -87.5)" >
                <rect id="slopes-lighttilepiece31" stroke="none" fill="rgb(158, 227, 227)" x="-12.5" y="-12.5" width="25" height="25" />
            </g>
            <g id="slopes-group86" transform="translate(87.5, -87.5)" >
                <rect id="slopes-darktilepiece29" stroke="none" fill="rgb(106, 153, 153)" x="-12.5" y="-12.5" width="25" height="25" />
            </g>
        </g>
        <g id="slopes-group87" clip-path="url(#slopes-rectangle14)" transform="translate(150, -100) rotate(90)" >
            <clipPath id="slopes-rectangle14">
                <rect x="0" y="0" width="100" height="100" />
            </clipPath>
            <g id="slopes-group88" transform="translate(91, 91) rotate(-90)" >
                <path id="slopes-wallinnercorner2" stroke="none" fill="rgb(255, 255, 255)" filter="url(#slopes-shadow-outer)" d="M -9,-5 C -1.27,-5 5,1.27 5,9 L -9,9 -9,-5 Z M -9,-5" />
            </g>
            <g id="slopes-group89" clip-path="url(#slopes-rectangle15)" transform="translate(10, 57) rotate(-90) scale(0.86, 1)" >
                <clipPath id="slopes-rectangle15">
                    <rect x="-50" y="-10" width="100" height="20" />
                </clipPath>
                <rect id="slopes-wall5" stroke="none" fill="rgb(255, 255, 255)" filter="url(#slopes-shadow-outer)" x="0" y="0" width="14" height="100"  transform="translate(50, -10) rotate(90)" />
            </g>
            <g id="slopes-group90" transform="translate(57, 10) scale(0.86, 1)" >
                <path id="slopes-wall_Curve_Left4" stroke="none" fill="rgb(255, 255, 255)" filter="url(#slopes-shadow-outer)" d="M -50,3.33 C -50,3.33 -50,9.14 -50,10 -49,5.25 -46,4 -43,4 -40,4 50,4 50,4 L 50,-10 -50,-10 -50,3.33 Z M -50,3.33" />
            </g>
            <g id="slopes-group91" transform="translate(5, 5) rotate(-90)" >
                <path id="slopes-wallCorner4" stroke="none" fill="rgb(255, 255, 255)" d="M -9,-5 C -1.27,-5 5,1.27 5,9 L -9,9 -9,-5 Z M -9,-5" />
            </g>
        </g>
    </g>
    <g id="slopes-group92" clip-path="url(#slopes-rectangle16)">
        <clipPath id="slopes-rectangle16">
            <rect x="0" y="-100" width="100" height="100"  transform="translate(50, 100)" />
        </clipPath>
        <g id="slopes-group93" transform="translate(100, 50)" >
            <g id="slopes-group94" transform="translate(-37.5, -12.5)" >
                <rect id="slopes-darktilepiece30" stroke="none" fill="rgb(106, 153, 153)" x="-12.5" y="-12.5" width="25" height="25" />
            </g>
            <g id="slopes-group95" transform="translate(37.5, -12.5)" >
                <rect id="slopes-lighttilepiece32" stroke="none" fill="rgb(158, 227, 227)" x="-12.5" y="-12.5" width="25" height="25" />
            </g>
            <g id="slopes-group96" transform="translate(-12.5, -12.5)" >
                <rect id="slopes-lighttilepiece33" stroke="none" fill="rgb(158, 227, 227)" x="-12.5" y="-12.5" width="25" height="25" />
            </g>
            <g id="slopes-group97" transform="translate(12.5, -12.5)" >
                <rect id="slopes-darktilepiece31" stroke="none" fill="rgb(106, 153, 153)" x="-12.5" y="-12.5" width="25" height="25" />
            </g>
            <g id="slopes-group98" transform="translate(-37.5, 37.5)" >
                <rect id="slopes-darktilepiece32" stroke="none" fill="rgb(106, 153, 153)" x="-12.5" y="-12.5" width="25" height="25" />
            </g>
            <g id="slopes-group99" transform="translate(37.5, 37.5)" >
                <rect id="slopes-lighttilepiece34" stroke="none" fill="rgb(158, 227, 227)" x="-12.5" y="-12.5" width="25" height="25" />
            </g>
            <g id="slopes-group100" transform="translate(-12.5, 37.5)" >
                <rect id="slopes-lighttilepiece35" stroke="none" fill="rgb(158, 227, 227)" x="-12.5" y="-12.5" width="25" height="25" />
            </g>
            <g id="slopes-group101" transform="translate(12.5, 37.5)" >
                <rect id="slopes-darktilepiece33" stroke="none" fill="rgb(106, 153, 153)" x="-12.5" y="-12.5" width="25" height="25" />
            </g>
            <g id="slopes-group102" transform="translate(37.5, 12.5)" >
                <rect id="slopes-darktilepiece34" stroke="none" fill="rgb(106, 153, 153)" x="-12.5" y="-12.5" width="25" height="25" />
            </g>
            <g id="slopes-group103" transform="translate(12.5, 12.5)" >
                <rect id="slopes-lighttilepiece36" stroke="none" fill="rgb(158, 227, 227)" x="-12.5" y="-12.5" width="25" height="25" />
            </g>
            <g id="slopes-group104" transform="translate(-12.5, 12.5)" >
                <rect id="slopes-darktilepiece35" stroke="none" fill="rgb(106, 153, 153)" x="-12.5" y="-12.5" width="25" height="25" />
            </g>
            <g id="slopes-group105" transform="translate(-37.5, 12.5)" >
                <rect id="slopes-lighttilepiece37" stroke="none" fill="rgb(158, 227, 227)" x="-12.5" y="-12.5" width="25" height="25" />
            </g>
            <g id="slopes-group106" transform="translate(37.5, -37.5)" >
                <rect id="slopes-darktilepiece36" stroke="none" fill="rgb(106, 153, 153)" x="-12.5" y="-12.5" width="25" height="25" />
            </g>
            <g id="slopes-group107" transform="translate(12.5, -37.5)" >
                <rect id="slopes-lighttilepiece38" stroke="none" fill="rgb(158, 227, 227)" x="-12.5" y="-12.5" width="25" height="25" />
            </g>
            <g id="slopes-group108" transform="translate(-12.5, -37.5)" >
                <rect id="slopes-darktilepiece37" stroke="none" fill="rgb(106, 153, 153)" x="-12.5" y="-12.5" width="25" height="25" />
            </g>
            <g id="slopes-group109" transform="translate(-37.5, -37.5)" >
                <rect id="slopes-lighttilepiece39" stroke="none" fill="rgb(158, 227, 227)" x="-12.5" y="-12.5" width="25" height="25" />
            </g>
        </g>
        <g id="slopes-group110" clip-path="url(#slopes-rectangle17)" transform="translate(60, 50) rotate(-90)" >
            <clipPath id="slopes-rectangle17">
                <rect x="-50" y="-10" width="100" height="20" />
            </clipPath>
            <rect id="slopes-wall6" stroke="none" fill="rgb(255, 255, 255)" filter="url(#slopes-shadow-outer)" x="0" y="0" width="14" height="100"  transform="translate(50, -10) rotate(90)" />
        </g>
        <g id="slopes-group111" clip-path="url(#slopes-rectangle18)" transform="translate(140, 50) rotate(90)" >
            <clipPath id="slopes-rectangle18">
                <rect x="-50" y="-10" width="100" height="20" />
            </clipPath>
            <rect id="slopes-wall7" stroke="none" fill="rgb(255, 255, 255)" filter="url(#slopes-shadow-outer)" x="0" y="0" width="14" height="100"  transform="translate(50, -10) rotate(90)" />
        </g>
    </g>
    <g id="slopes-group112" clip-path="url(#slopes-rectangle19)">
        <clipPath id="slopes-rectangle19">
            <rect x="0" y="-100" width="100" height="100"  transform="translate(50, 200)" />
        </clipPath>
        <g id="slopes-group113">
            <g id="slopes-group114" transform="translate(137.5, 187.5)" >
                <path id="slopes-lighttilecornerpiece2" stroke="none" fill="rgb(158, 227, 227)" d="M 12.5,-12.5 C 12.29,-9.2 11.88,-6.62 11.07,-4.17 L 10.83,-3.2 C 8.46,3.33 3.32,8.48 -3.21,10.85 -6.17,11.79 -9.02,12.26 -12.5,12.5 -12.5,9.91 -12.5,-12.5 -12.5,-12.5 L 12.5,-12.5 Z M 12.5,-12.5" />
            </g>
            <g id="slopes-group115" transform="translate(112.5, 137.5)" >
                <rect id="slopes-darktilepiece38" stroke="none" fill="rgb(106, 153, 153)" x="-12.5" y="-12.5" width="25" height="25" />
            </g>
            <g id="slopes-group116" transform="translate(87.5, 137.5)" >
                <rect id="slopes-lighttilepiece40" stroke="none" fill="rgb(158, 227, 227)" x="-12.5" y="-12.5" width="25" height="25" />
            </g>
            <g id="slopes-group117" transform="translate(137.5, 137.5)" >
                <rect id="slopes-lighttilepiece41" stroke="none" fill="rgb(158, 227, 227)" x="-12.5" y="-12.5" width="25" height="25" />
            </g>
            <g id="slopes-group118" transform="translate(62.5, 137.5)" >
                <rect id="slopes-darktilepiece39" stroke="none" fill="rgb(106, 153, 153)" x="-12.5" y="-12.5" width="25" height="25" />
            </g>
            <g id="slopes-group119" transform="translate(112.5, 162.5)" >
                <rect id="slopes-lighttilepiece42" stroke="none" fill="rgb(158, 227, 227)" x="-12.5" y="-12.5" width="25" height="25" />
            </g>
            <g id="slopes-group120" transform="translate(87.5, 162.5)" >
                <rect id="slopes-darktilepiece40" stroke="none" fill="rgb(106, 153, 153)" x="-12.5" y="-12.5" width="25" height="25" />
            </g>
            <g id="slopes-group121" transform="translate(62.5, 162.5)" >
                <rect id="slopes-lighttilepiece43" stroke="none" fill="rgb(158, 227, 227)" x="-12.5" y="-12.5" width="25" height="25" />
            </g>
            <g id="slopes-group122" transform="translate(137.5, 162.5)" >
                <rect id="slopes-darktilepiece41" stroke="none" fill="rgb(106, 153, 153)" x="-12.5" y="-12.5" width="25" height="25" />
            </g>
            <g id="slopes-group123" transform="translate(112.5, 112.5)" >
                <rect id="slopes-lighttilepiece44" stroke="none" fill="rgb(158, 227, 227)" x="-12.5" y="-12.5" width="25" height="25" />
            </g>
            <g id="slopes-group124" transform="translate(87.5, 112.5)" >
                <rect id="slopes-darktilepiece42" stroke="none" fill="rgb(106, 153, 153)" x="-12.5" y="-12.5" width="25" height="25" />
            </g>
            <g id="slopes-group125" transform="translate(62.5, 112.5)" >
                <rect id="slopes-lighttilepiece45" stroke="none" fill="rgb(158, 227, 227)" x="-12.5" y="-12.5" width="25" height="25" />
            </g>
            <g id="slopes-group126" transform="translate(137.5, 112.5)" >
                <rect id="slopes-darktilepiece43" stroke="none" fill="rgb(106, 153, 153)" x="-12.5" y="-12.5" width="25" height="25" />
            </g>
            <g id="slopes-group127" transform="translate(62.5, 187.5)" >
                <rect id="slopes-darktilepiece44" stroke="none" fill="rgb(106, 153, 153)" x="-12.5" y="-12.5" width="25" height="25" />
            </g>
            <g id="slopes-group128" transform="translate(112.5, 187.5)" >
                <rect id="slopes-darktilepiece45" stroke="none" fill="rgb(106, 153, 153)" x="-12.5" y="-12.5" width="25" height="25" />
            </g>
            <g id="slopes-group129" transform="translate(87.5, 187.5)" >
                <rect id="slopes-lighttilepiece46" stroke="none" fill="rgb(158, 227, 227)" x="-12.5" y="-12.5" width="25" height="25" />
            </g>
        </g>
        <g id="slopes-group130" clip-path="url(#slopes-rectangle20)" transform="translate(150, 200) rotate(-180)" >
            <clipPath id="slopes-rectangle20">
                <rect x="0" y="0" width="100" height="100" />
            </clipPath>
            <g id="slopes-group131" transform="translate(91, 91) rotate(-90)" >
                <path id="slopes-wallinnercorner3" stroke="none" fill="rgb(255, 255, 255)" filter="url(#slopes-shadow-outer)" d="M -9,-5 C -1.27,-5 5,1.27 5,9 L -9,9 -9,-5 Z M -9,-5" />
            </g>
            <g id="slopes-group132" clip-path="url(#slopes-rectangle21)" transform="translate(10, 57) rotate(-90) scale(0.86, 1)" >
                <clipPath id="slopes-rectangle21">
                    <rect x="-50" y="-10" width="100" height="20" />
                </clipPath>
                <rect id="slopes-wall8" stroke="none" fill="rgb(255, 255, 255)" filter="url(#slopes-shadow-outer)" x="0" y="0" width="14" height="100"  transform="translate(50, -10) rotate(90)" />
            </g>
            <g id="slopes-group133" transform="translate(57, 10) scale(0.86, 1)" >
                <path id="slopes-wall_Curve_Left5" stroke="none" fill="rgb(255, 255, 255)" filter="url(#slopes-shadow-outer)" d="M -50,3.33 C -50,3.33 -50,9.14 -50,10 -49,5.25 -46,4 -43,4 -40,4 50,4 50,4 L 50,-10 -50,-10 -50,3.33 Z M -50,3.33" />
            </g>
            <g id="slopes-group134" transform="translate(5, 5) rotate(-90)" >
                <path id="slopes-wallCorner5" stroke="none" fill="rgb(255, 255, 255)" d="M -9,-5 C -1.27,-5 5,1.27 5,9 L -9,9 -9,-5 Z M -9,-5" />
            </g>
        </g>
    </g>
    
    <text  fill="rgb(255, 255, 255)" font-family="Langdon, sans-serif" font-size="47" x="-67.23" y="-313" text-anchor="middle"><tspan x="0" y="-255">slopes</tspan></text>
    
    <text  fill="rgb(255, 255, 255)" font-family="Langdon, sans-serif" font-size="24" x="-44.8" y="286" text-anchor="middle"><tspan x="0.5" y="322">STROKE </tspan><tspan x="0.5" y="350">0</tspan></text>
    
    <text  fill="rgb(255, 255, 255)" font-family="Langdon, sans-serif" font-size="24" x="-6.86" y="-352" text-anchor="middle"><tspan x="0.5" y="-302">6</tspan></text>
    <circle id="slopes-oval" stroke="none" fill="rgb(255, 255, 255)" cx="-172" cy="-337" r="15" />
    
    <text  fill="rgb(255, 255, 255)" font-family="Langdon, sans-serif" font-size="24" x="-161.45" y="-373" text-anchor="middle"><tspan x="-121.5" y="-323">JONAH</tspan></text>
    <circle id="slopes-oval2" stroke="none" fill="rgb(255, 255, 255)" cx="172" cy="-337" r="15" />
    
    <text  fill="rgb(255, 255, 255)" font-family="Langdon, sans-serif" font-size="24" x="85.48" y="-375" text-anchor="middle"><tspan x="124.5" y="-325">KENNY</tspan></text>
    <g id="slopes-group135" transform="translate(-109, -60) scale(0.32, 0.32)" >
        <circle id="slopes-oval3" stroke="none" fill="rgb(255, 255, 255)" filter="url(#slopes-shadow-outer)" cx="30" cy="30" r="20" />
    </g>
    <g id="slopes-group136">
        <g id="slopes-group137" clip-path="url(#slopes-rectangle22)">
            <clipPath id="slopes-rectangle22">
                <rect x="-50" y="-200" width="100" height="100" />
            </clipPath>
            <g id="slopes-group138" transform="translate(-12.5, -187.5)" >
                <rect id="slopes-darktilepiece46" stroke="none" fill="rgb(106, 153, 153)" x="-12.5" y="-12.5" width="25" height="25" />
            </g>
            <g id="slopes-group139" transform="translate(-37.5, -162.5)" >
                <rect id="slopes-darktilepiece47" stroke="none" fill="rgb(106, 153, 153)" x="-12.5" y="-12.5" width="25" height="25" />
            </g>
            <g id="slopes-group140" transform="translate(-12.5, -137.5)" >
                <rect id="slopes-darktilepiece48" stroke="none" fill="rgb(106, 153, 153)" x="-12.5" y="-12.5" width="25" height="25" />
            </g>
            <g id="slopes-group141" transform="translate(-37.5, -112.5)" >
                <rect id="slopes-darktilepiece49" stroke="none" fill="rgb(106, 153, 153)" x="-12.5" y="-12.5" width="25" height="25" />
            </g>
            <g id="slopes-group142" transform="translate(12.5, -112.5)" >
                <rect id="slopes-darktilepiece50" stroke="none" fill="rgb(106, 153, 153)" x="-12.5" y="-12.5" width="25" height="25" />
            </g>
            <g id="slopes-group143" transform="translate(37.5, -137.5)" >
                <rect id="slopes-darktilepiece51" stroke="none" fill="rgb(106, 153, 153)" x="-12.5" y="-12.5" width="25" height="25" />
            </g>
            <g id="slopes-group144" transform="translate(12.5, -162.5)" >
                <rect id="slopes-darktilepiece52" stroke="none" fill="rgb(106, 153, 153)" x="-12.5" y="-12.5" width="25" height="25" />
            </g>
            <g id="slopes-group145" transform="translate(-12.5, -162.5)" >
                <rect id="slopes-lighttilepiece47" stroke="none" fill="rgb(158, 227, 227)" x="-12.5" y="-12.5" width="25" height="25" />
            </g>
            <g id="slopes-group146" transform="translate(12.5, -137.5)" >
                <rect id="slopes-lighttilepiece48" stroke="none" fill="rgb(158, 227, 227)" x="-12.5" y="-12.5" width="25" height="25" />
            </g>
            <g id="slopes-group147" transform="translate(37.5, -112.5)" >
                <rect id="slopes-lighttilepiece49" stroke="none" fill="rgb(158, 227, 227)" x="-12.5" y="-12.5" width="25" height="25" />
            </g>
            <g id="slopes-group148" transform="translate(37.5, -162.5)" >
                <rect id="slopes-lighttilepiece50" stroke="none" fill="rgb(158, 227, 227)" x="-12.5" y="-12.5" width="25" height="25" />
            </g>
            <g id="slopes-group149" transform="translate(12.5, -187.5)" >
                <rect id="slopes-lighttilepiece51" stroke="none" fill="rgb(158, 227, 227)" x="-12.5" y="-12.5" width="25" height="25" />
            </g>
            <g id="slopes-group150" transform="translate(-37.5, -137.5)" >
                <rect id="slopes-lighttilepiece52" stroke="none" fill="rgb(158, 227, 227)" x="-12.5" y="-12.5" width="25" height="25" />
            </g>
            <g id="slopes-group151" transform="translate(-12.5, -112.5)" >
                <rect id="slopes-lighttilepiece53" stroke="none" fill="rgb(158, 227, 227)" x="-12.5" y="-12.5" width="25" height="25" />
            </g>
            <g id="slopes-group152" transform="translate(-37.5, -187.5) rotate(-180)" >
                <path id="slopes-lighttilecornerpiece3" stroke="none" fill="rgb(158, 227, 227)" d="M 12.5,-12.5 C 12.29,-9.2 11.88,-6.62 11.07,-4.17 L 10.83,-3.2 C 8.46,3.33 3.32,8.48 -3.21,10.85 -6.17,11.79 -9.02,12.26 -12.5,12.5 -12.5,9.91 -12.5,-12.5 -12.5,-12.5 L 12.5,-12.5 Z M 12.5,-12.5" />
            </g>
            <g id="slopes-group153" transform="translate(37.5, -187.5) rotate(-90)" >
                <path id="slopes-darktilecornerpiece4" stroke="none" fill="rgb(106, 153, 153)" d="M 12.5,-12.5 C 12.29,-9.2 11.88,-6.62 11.07,-4.17 L 10.83,-3.2 C 8.46,3.33 3.32,8.48 -3.21,10.85 -6.17,11.79 -9.02,12.26 -12.5,12.5 -12.5,9.91 -12.5,-12.5 -12.5,-12.5 L 12.5,-12.5 Z M 12.5,-12.5" />
            </g>
        </g>
        <g id="slopes-group154">
            <ellipse id="slopes-depth" stroke="none" fill="rgb(233, 150, 65)" cx="0" cy="-150.5" rx="10" ry="9.5" />
            <path id="slopes-bottom" stroke="none" fill="rgb(72, 40, 0)" d="M 19.9,11 C 19.9,13 18.44,15.23 16,17 14.31,18.22 12.15,19 10,19 7.87,19 5.68,18.21 4,17 1.53,15.23 0,13 0,11 0,7.64 3,4 10,4 17,4 19.9,7.62 19.9,11 Z M 19.9,11" transform="translate(-10, -160)"  />
            <rect id="slopes-ballHole" stroke="rgb(255, 255, 255)" stroke-width="0" fill="none" x="0" y="-150.5" width="1" height="1" />
        </g>
        <g id="slopes-group155" clip-path="url(#slopes-rectangle23)">
            <clipPath id="slopes-rectangle23">
                <rect x="-50" y="-200" width="100" height="100" />
            </clipPath>
            <g id="slopes-group156" clip-path="url(#slopes-rectangle24)" transform="translate(0, -190) scale(0.72, 1)" >
                <clipPath id="slopes-rectangle24">
                    <rect x="-50" y="-10" width="100" height="20" />
                </clipPath>
                <rect id="slopes-wall9" stroke="none" fill="rgb(255, 255, 255)" filter="url(#slopes-shadow-outer)" x="0" y="0" width="14" height="100"  transform="translate(50, -10) rotate(90)" />
            </g>
            <g id="slopes-group157" transform="translate(40, -143) rotate(90) scale(0.86, 1)" >
                <path id="slopes-wall_Curve_Left6" stroke="none" fill="rgb(255, 255, 255)" filter="url(#slopes-shadow-outer)" d="M -50,3.33 C -50,3.33 -50,9.14 -50,10 -49,5.25 -46,4 -43,4 -40,4 50,4 50,4 L 50,-10 -50,-10 -50,3.33 Z M -50,3.33" />
            </g>
            <g id="slopes-group158" transform="translate(-40, -143) rotate(-90) scale(-0.86, 1)" >
                <path id="slopes-wall_Curve_Left7" stroke="none" fill="rgb(255, 255, 255)" filter="url(#slopes-shadow-outer)" d="M -50,3.33 C -50,3.33 -50,9.14 -50,10 -49,5.25 -46,4 -43,4 -40,4 50,4 50,4 L 50,-10 -50,-10 -50,3.33 Z M -50,3.33" />
            </g>
            <g id="slopes-group159" transform="translate(-45, -195) rotate(-90)" >
                <path id="slopes-wallCorner6" stroke="none" fill="rgb(255, 255, 255)" d="M -9,-5 C -1.27,-5 5,1.27 5,9 L -9,9 -9,-5 Z M -9,-5" />
            </g>
            <g id="slopes-group160" transform="translate(45, -195)" >
                <path id="slopes-wallCorner7" stroke="none" fill="rgb(255, 255, 255)" d="M -9,-5 C -1.27,-5 5,1.27 5,9 L -9,9 -9,-5 Z M -9,-5" />
            </g>
        </g>
    </g>
    <g id="slopes-group161" transform="translate(-1, -226) scale(0.32, 0.38)" >
        <path id="slopes-rectangle25" stroke="none" fill="url(#slopes-flagPoleGradient-rectangle25)" d="M 7,6.17 L 7,200 3.5,200 0,200 0,190.56 C 0,4.62 0,-0 0,-0 L 7,6.17 Z M 7,6.17" />
        <g id="slopes-group162">
            <path id="slopes-polygon" stroke="rgb(0, 0, 0)" stroke-width="3" stroke-linejoin="round" stroke-miterlimit="10" fill="rgb(255, 91, 91)" d="M 109.5,56 L 6,106 6,6 109.5,56 Z M 109.5,56" />
            
            <text  fill="rgb(255, 255, 255)" font-family="-apple-system, 'Helvetica Neue', Helvetica, sans-serif" font-size="46" x="10.16" y="27" text-anchor="middle"><tspan x="34.5" y="73">18</tspan></text>
        </g>
    </g>
</svg>
